<svg width="90" height="90" viewBox="0 0 90 90" fill="none" xmlns="http://www.w3.org/2000/svg">
<g clip-path="url(#clip0_19587_32)">
<path d="M78.3133 53.2869C81.1296 45.443 81.4143 36.9133 79.1274 28.899C76.8404 20.8848 72.0971 13.7899 65.5653 8.61354C59.0336 3.4372 51.0426 0.440284 42.7178 0.0448687C34.393 -0.350547 26.1539 1.87547 19.161 6.40939C12.168 10.9433 6.77346 17.5567 3.73719 25.3181C0.70092 33.0795 0.175879 41.5978 2.23602 49.6733C4.29615 57.7489 8.83767 64.9747 15.2209 70.333C21.6042 75.6914 27.4488 78.3022 35.7591 78.9321L38.2236 74.1896C31.0333 73.6446 24.1952 70.8577 18.6723 66.2216C13.1494 61.5854 9.21997 55.3335 7.4375 48.3464C5.65503 41.3593 6.10931 33.9891 8.73635 27.2738C11.3634 20.5585 16.0308 14.8364 22.0813 10.9136C28.1317 6.99077 35.2603 5.06478 42.4631 5.4069C49.6658 5.74902 56.5798 8.34201 62.2312 12.8207C67.8826 17.2993 71.9867 23.438 73.9654 30.3721C75.1226 34.4274 75.2577 37.315 75.4062 40.3712C75.4694 41.6729 75.51 42.94 75.4062 44.354C75.337 45.2967 75.2677 46.3047 74.8631 47.4317L78.3133 53.2869Z" fill="#D2C3FC"/>
<ellipse cx="40.8295" cy="39.466" rx="5.43111" ry="5.43111" fill="#D2C3FC"/>
<rect x="38.2969" y="12.3105" width="5.43111" height="26.0693" rx="2.71555" fill="#D2C3FC"/>
<rect x="15.4844" y="42.3625" width="5.43111" height="26.0693" rx="2.71555" transform="rotate(-90 15.4844 42.3625)" fill="#D2C3FC"/>
<path fill-rule="evenodd" clip-rule="evenodd" d="M73.3757 50.7286C69.0814 43.7425 58.9278 43.7425 54.6335 50.7287L40.7556 73.3056C36.2504 80.6348 41.5237 90.066 50.1267 90.066H77.8825C86.4855 90.066 91.7588 80.6348 87.2536 73.3056L73.3757 50.7286ZM72.7202 57.787C68.8215 51.4026 59.5498 51.4026 55.6511 57.787L47.6057 70.962C43.5365 77.6256 48.3324 86.1737 56.1402 86.1737H72.2311C80.0389 86.1737 84.8348 77.6256 80.7656 70.962L72.7202 57.787Z" fill="#D2C3FC"/>
<ellipse cx="64.3629" cy="78.932" rx="3.62074" ry="3.62074" fill="#D2C3FC"/>
<path d="M61.1438 57.914C61.3259 56.2751 62.7112 55.0352 64.3602 55.0352V55.0352C66.0093 55.0352 67.3946 56.2751 67.5767 57.914L67.6189 58.2938V62.0956L67.2568 69.156L66.8947 71.5095L66.863 71.7158C66.673 72.9511 65.6101 73.863 64.3602 73.863V73.863C63.1104 73.863 62.0475 72.9511 61.8574 71.7158L61.8257 71.5095L61.4636 69.156L61.1016 62.0956V58.2938L61.1438 57.914Z" fill="#D2C3FC"/>
</g>
<defs>
<clipPath id="clip0_19587_32">
<rect width="90" height="90" fill="white"/>
</clipPath>
</defs>
</svg>
