<svg width="500" height="500" viewBox="0 0 500 500" fill="none" xmlns="http://www.w3.org/2000/svg">
<circle cx="250" cy="250" r="250" fill="url(#paint0_linear_19043_5)"/>
<path d="M136.216 381L231.066 136H269.566L363.716 381H323.466L267.466 233.3C266.766 231.667 265.366 227.7 263.266 221.4C261.399 215.1 259.182 208.1 256.616 200.4C254.049 192.7 251.716 185.7 249.616 179.4C247.516 172.867 246.116 168.667 245.416 166.8L253.466 166.45C252.066 170.417 250.316 175.433 248.216 181.5C246.349 187.567 244.249 193.983 241.916 200.75C239.816 207.517 237.716 213.933 235.616 220C233.516 225.833 231.766 230.733 230.366 234.7L174.716 381H136.216ZM178.216 320.1L192.216 283.7H303.516L319.616 320.1H178.216Z" fill="#00543C"/>
<defs>
<linearGradient id="paint0_linear_19043_5" x1="0" y1="250" x2="500" y2="250" gradientUnits="userSpaceOnUse">
<stop stop-color="#99F7CB"/>
<stop offset="1" stop-color="#99FFFF"/>
<stop offset="1" stop-color="#99FFFF"/>
</linearGradient>
</defs>
</svg>
