<?xml version="1.0" encoding="UTF-8" standalone="no"?>
<svg
   width="485.03998pt"
   height="400.07999pt"
   viewBox="0 0 485.03998 400.07999"
   version="1.1"
   id="svg24"
   xmlns="http://www.w3.org/2000/svg"
   xmlns:svg="http://www.w3.org/2000/svg">
  <defs
     id="defs8">
    <clipPath
       id="clip-0">
      <path
         clip-rule="nonzero"
         d="M 0 0 L 485 0 L 485 398.660156 L 0 398.660156 Z M 0 0 "
         id="path2" />
    </clipPath>
    <clipPath
       id="clip-1">
      <path
         clip-rule="nonzero"
         d="M 0 0 L 485 0 L 485 398.660156 L 0 398.660156 Z M 0 0 "
         id="path5" />
    </clipPath>
  </defs>
  <path
     fill-rule="nonzero"
     fill="rgb(100%, 100%, 100%)"
     fill-opacity="1"
     stroke-width="1"
     stroke-linecap="butt"
     stroke-linejoin="miter"
     stroke="rgb(100%, 100%, 100%)"
     stroke-opacity="1"
     stroke-miterlimit="4"
     d="M 549.999651 240.001828 C 549.999651 243.763571 549.905998 247.525314 549.723894 251.287057 C 549.536587 255.043598 549.26083 258.800138 548.891419 262.546272 C 548.522009 266.292407 548.064148 270.022932 547.512634 273.748255 C 546.955917 277.473577 546.315952 281.178088 545.582334 284.872193 C 544.848716 288.561095 544.021445 292.234387 543.105723 295.886868 C 542.190001 299.534146 541.191032 303.165816 540.09841 306.766267 C 539.005787 310.366718 537.824714 313.941155 536.555191 317.484374 C 535.285667 321.027593 533.932897 324.539593 532.491676 328.015174 C 531.050454 331.495957 529.525986 334.935116 527.91827 338.337855 C 526.310554 341.740594 524.614387 345.101709 522.840177 348.4212 C 521.065966 351.740692 519.21371 355.013356 517.278208 358.244397 C 515.342705 361.470235 513.329158 364.649246 511.237566 367.781431 C 509.145974 370.908412 506.981541 373.988567 504.739063 377.01149 C 502.496586 380.034412 500.181267 383.000102 497.793106 385.908559 C 495.404945 388.822219 492.949146 391.66824 490.420505 394.457029 C 487.891865 397.245818 485.295585 399.972172 482.63687 402.636089 C 479.972953 405.294804 477.246599 407.891084 474.45781 410.419724 C 471.669021 412.948365 468.817797 415.404164 465.90934 417.792325 C 463.000883 420.180486 460.035193 422.495805 457.012271 424.738282 C 453.989348 426.98076 450.909193 429.145193 447.782212 431.236785 C 444.650027 433.328377 441.471016 435.341924 438.245178 437.277427 C 435.014137 439.212929 431.741472 441.065185 428.421981 442.839396 C 425.10249 444.618809 421.741375 446.309773 418.338636 447.917489 C 414.935897 449.525205 411.496738 451.049673 408.015955 452.490895 C 404.540374 453.932116 401.028373 455.284887 397.485155 456.55441 C 393.941936 457.823933 390.367499 459.005006 386.767048 460.097629 C 383.161394 461.190251 379.534927 462.194423 375.887649 463.104942 C 372.235168 464.020664 368.561875 464.847935 364.872974 465.581553 C 361.178869 466.315171 357.469155 466.960339 353.749036 467.511853 C 350.023713 468.063367 346.287985 468.521228 342.54185 468.890638 C 338.795716 469.260049 335.044379 469.535806 331.287838 469.723113 C 327.526095 469.905217 323.764352 469.99887 319.997406 469.99887 C 316.235662 469.99887 312.473919 469.905217 308.712176 469.723113 C 304.955635 469.535806 301.204298 469.260049 297.458164 468.890638 C 293.712029 468.521228 289.976301 468.063367 286.250978 467.511853 C 282.530859 466.960339 278.821145 466.315171 275.12704 465.581553 C 271.438139 464.847935 267.764846 464.020664 264.112365 463.104942 C 260.465087 462.194423 256.83862 461.190251 253.232966 460.097629 C 249.632515 459.005006 246.058078 457.823933 242.514859 456.55441 C 238.971641 455.284887 235.45964 453.932116 231.984059 452.490895 C 228.503276 451.049673 225.064117 449.525205 221.661378 447.917489 C 218.258639 446.309773 214.897524 444.618809 211.578033 442.839396 C 208.258542 441.065185 204.985877 439.212929 201.754836 437.277427 C 198.528998 435.341924 195.349987 433.328377 192.217802 431.236785 C 189.090821 429.145193 186.010666 426.98076 182.987743 424.738282 C 179.964821 422.495805 176.999131 420.180486 174.090674 417.792325 C 171.182217 415.404164 168.330993 412.948365 165.542204 410.419724 C 162.753415 407.891084 160.027061 405.294804 157.363144 402.636089 C 154.704429 399.972172 152.10815 397.245818 149.579509 394.457029 C 147.050868 391.66824 144.595069 388.822219 142.206908 385.908559 C 139.818748 383.000102 137.503428 380.034412 135.260951 377.01149 C 133.018473 373.988567 130.85404 370.908412 128.762448 367.781431 C 126.670856 364.649246 124.657309 361.470235 122.721806 358.244397 C 120.786304 355.013356 118.934048 351.740692 117.159837 348.4212 C 115.385627 345.101709 113.68946 341.740594 112.081744 338.337855 C 110.474028 334.935116 108.94956 331.495957 107.508338 328.015174 C 106.067117 324.539593 104.714347 321.027593 103.444823 317.484374 C 102.1753 313.941155 100.994227 310.366718 99.901604 306.766267 C 98.808982 303.165816 97.810013 299.534146 96.894291 295.886868 C 95.978569 292.234387 95.151298 288.561095 94.41768 284.872193 C 93.684062 281.178088 93.044097 277.473577 92.48738 273.748255 C 91.935866 270.022932 91.478005 266.292407 91.108595 262.546272 C 90.739184 258.800138 90.463427 255.043598 90.27612 251.287057 C 90.094017 247.525314 90.000363 243.763571 90.000363 240.001828 C 90.000363 236.234881 90.094017 232.473138 90.27612 228.716598 C 90.463427 224.954854 90.739184 221.203517 91.108595 217.457383 C 91.478005 213.711248 91.935866 209.97552 92.48738 206.250197 C 93.044097 202.530078 93.684062 198.820364 94.41768 195.131462 C 95.151298 191.437358 95.978569 187.764065 96.894291 184.116787 C 97.810013 180.464306 98.808982 176.837839 99.901604 173.232185 C 100.994227 169.631734 102.1753 166.057297 103.444823 162.514078 C 104.714347 158.97086 106.067117 155.458859 107.508338 151.983278 C 108.94956 148.507698 110.474028 145.063336 112.081744 141.660597 C 113.68946 138.257858 115.385627 134.896743 117.159837 131.577252 C 118.934048 128.257761 120.786304 124.985096 122.721806 121.754055 C 124.657309 118.528217 126.670856 115.349206 128.762448 112.217021 C 130.85404 109.09004 133.018473 106.015088 135.260951 102.986962 C 137.503428 99.96404 139.818748 96.99835 142.206908 94.089893 C 144.595069 91.181436 147.050868 88.330212 149.579509 85.541423 C 152.10815 82.752634 154.704429 80.02628 157.363144 77.367566 C 160.027061 74.703648 162.753415 72.107369 165.542204 69.578728 C 168.330993 67.05529 171.182217 64.594288 174.090674 62.206127 C 176.999131 59.817967 179.964821 57.502647 182.987743 55.26017 C 186.010666 53.017692 189.090821 50.853259 192.217802 48.761667 C 195.349987 46.670075 198.528998 44.656528 201.754836 42.721025 C 204.985877 40.785523 208.258542 38.933267 211.578033 37.159056 C 214.897524 35.384846 218.258639 33.693882 221.661378 32.080963 C 225.064117 30.473247 228.503276 28.948779 231.984059 27.507557 C 235.45964 26.066336 238.971641 24.713566 242.514859 23.444042 C 246.058078 22.174519 249.632515 20.998649 253.232966 19.906026 C 256.83862 18.813404 260.465087 17.809232 264.112365 16.89351 C 267.764846 15.977788 271.438139 15.15572 275.12704 14.416899 C 278.821145 13.683281 282.530859 13.043316 286.250978 12.491802 C 289.976301 11.935085 293.712029 11.477224 297.458164 11.107814 C 301.204298 10.738403 304.955635 10.462646 308.712176 10.275339 C 312.473919 10.093236 316.235662 9.999582 319.997406 9.999582 C 323.764352 9.999582 327.526095 10.093236 331.287838 10.275339 C 335.044379 10.462646 338.795716 10.738403 342.54185 11.107814 C 346.287985 11.477224 350.023713 11.935085 353.749036 12.491802 C 357.469155 13.043316 361.178869 13.683281 364.872974 14.416899 C 368.561875 15.15572 372.235168 15.977788 375.887649 16.89351 C 379.534927 17.809232 383.161394 18.813404 386.767048 19.906026 C 390.367499 20.998649 393.941936 22.174519 397.485155 23.444042 C 401.028373 24.713566 404.540374 26.066336 408.015955 27.507557 C 411.496738 28.948779 414.935897 30.473247 418.338636 32.080963 C 421.741375 33.693882 425.10249 35.384846 428.421981 37.159056 C 431.741472 38.933267 435.014137 40.785523 438.245178 42.721025 C 441.471016 44.656528 444.650027 46.670075 447.782212 48.761667 C 450.909193 50.853259 453.989348 53.017692 457.012271 55.26017 C 460.035193 57.502647 463.000883 59.817967 465.90934 62.206127 C 468.817797 64.594288 471.669021 67.05529 474.45781 69.578728 C 477.246599 72.107369 479.972953 74.703648 482.63687 77.367566 C 485.295585 80.02628 487.891865 82.752634 490.420505 85.541423 C 492.949146 88.330212 495.404945 91.181436 497.793106 94.089893 C 500.181267 96.99835 502.496586 99.96404 504.739063 102.986962 C 506.981541 106.015088 509.145974 109.09004 511.237566 112.217021 C 513.329158 115.349206 515.342705 118.528217 517.278208 121.754055 C 519.21371 124.985096 521.065966 128.257761 522.840177 131.577252 C 524.614387 134.896743 526.310554 138.257858 527.91827 141.660597 C 529.525986 145.063336 531.050454 148.507698 532.491676 151.983278 C 533.932897 155.458859 535.285667 158.97086 536.555191 162.514078 C 537.824714 166.057297 539.005787 169.631734 540.09841 173.232185 C 541.191032 176.837839 542.190001 180.464306 543.105723 184.116787 C 544.021445 187.764065 544.848716 191.437358 545.582334 195.131462 C 546.315952 198.820364 546.955917 202.530078 547.512634 206.250197 C 548.064148 209.97552 548.522009 213.711248 548.891419 217.457383 C 549.26083 221.203517 549.536587 224.954854 549.723894 228.716598 C 549.905998 232.473138 549.999651 236.234881 549.999651 240.001828 Z M 549.999651 240.001828 "
     transform="matrix(0.750774, 0, 0, 0.750774, 0.375387, 0.375387)"
     id="path10" />
  <path
     fill="none"
     stroke-width="100"
     stroke-linecap="butt"
     stroke-linejoin="miter"
     stroke="rgb(0%, 0%, 0%)"
     stroke-opacity="1"
     stroke-miterlimit="10"
     d="M 424.998946 239.440423 L 422.002039 239.440423 "
     transform="matrix(0.750774, 0, 0, 0.750774, 0, 0)"
     id="path12" />
  <g
     clip-path="url(#clip-0)"
     id="g16">
    <path
       fill="none"
       stroke-width="100"
       stroke-linecap="butt"
       stroke-linejoin="miter"
       stroke="#000000"
       stroke-opacity="1"
       stroke-miterlimit="10"
       d="m 314.99787,132.44146 c 71.33785,0 107.00417,35.66632 107.00417,106.99896 0,71.33264 -35.66632,106.99897 -107.00417,106.99897"
       transform="scale(0.750774)"
       id="path14" />
  </g>
  <path
     fill="none"
     stroke-width="100"
     stroke-linecap="butt"
     stroke-linejoin="miter"
     stroke="rgb(0%, 0%, 0%)"
     stroke-opacity="1"
     stroke-miterlimit="10"
     d="M 155.001513 239.440423 L 279.99753 239.440423 "
     transform="matrix(0.750774, 0, 0, 0.750774, 0, 0)"
     id="path18" />
  <g
     clip-path="url(#clip-1)"
     id="g22">
    <path
       fill="none"
       stroke-width="100"
       stroke-linecap="butt"
       stroke-linejoin="miter"
       stroke="#000000"
       stroke-opacity="1"
       stroke-miterlimit="4"
       d="m 289.99763,239.44042 c 0,0.66078 -0.12487,1.30074 -0.37982,1.91469 -0.24974,0.60875 -0.61395,1.14986 -1.08222,1.61813 -0.46826,0.47346 -1.00937,0.83247 -1.62332,1.08741 -0.61395,0.25495 -1.24871,0.37982 -1.91469,0.37982 -0.66078,0 -1.30074,-0.12487 -1.90949,-0.37982 -0.61395,-0.25494 -1.15506,-0.61395 -1.62332,-1.08741 -0.46827,-0.46827 -0.83248,-1.00938 -1.08222,-1.61813 -0.25494,-0.61395 -0.38502,-1.25391 -0.38502,-1.91469 0,-0.66598 0.13008,-1.30074 0.38502,-1.91469 0.24974,-0.61395 0.61395,-1.14985 1.08222,-1.62332 0.46826,-0.46827 1.00937,-0.82727 1.62332,-1.08222 0.60875,-0.25495 1.24871,-0.37982 1.90949,-0.37982 0.66598,0 1.30074,0.12487 1.91469,0.37982 0.61395,0.25495 1.15506,0.61395 1.62332,1.08222 0.46827,0.47347 0.83248,1.00937 1.08222,1.62332 0.25495,0.61395 0.37982,1.24871 0.37982,1.91469 z m 0,0"
       transform="scale(0.750774)"
       id="path20" />
  </g>
</svg>
