<svg width="647" height="534" viewBox="0 0 647 534" fill="none" xmlns="http://www.w3.org/2000/svg">
<path d="M551.068 240.75C551.068 244.515 550.974 248.281 550.792 252.047C550.604 255.807 550.328 259.568 549.958 263.318C549.589 267.068 549.13 270.802 548.578 274.531C548.021 278.26 547.38 281.969 546.646 285.667C545.912 289.359 545.083 293.036 544.167 296.693C543.25 300.344 542.25 303.979 541.156 307.583C540.063 311.187 538.88 314.766 537.609 318.312C536.339 321.859 534.984 325.375 533.542 328.854C532.099 332.338 530.573 335.781 528.964 339.187C527.354 342.594 525.656 345.958 523.88 349.281C522.104 352.604 520.25 355.88 518.313 359.114C516.375 362.344 514.359 365.526 512.266 368.661C510.172 371.792 508.005 374.875 505.76 377.901C503.516 380.927 501.198 383.896 498.807 386.807C496.417 389.724 493.958 392.573 491.427 395.364C488.896 398.156 486.297 400.885 483.635 403.552C480.969 406.213 478.24 408.812 475.448 411.344C472.656 413.875 469.802 416.333 466.891 418.724C463.979 421.114 461.01 423.432 457.984 425.677C454.958 427.922 451.875 430.088 448.745 432.182C445.609 434.276 442.427 436.292 439.198 438.229C435.964 440.167 432.688 442.021 429.365 443.797C426.042 445.578 422.677 447.271 419.271 448.88C415.865 450.489 412.422 452.016 408.938 453.458C405.458 454.901 401.943 456.255 398.396 457.526C394.849 458.797 391.271 459.979 387.667 461.073C384.057 462.167 380.427 463.172 376.776 464.083C373.12 465 369.443 465.828 365.75 466.562C362.052 467.297 358.339 467.943 354.615 468.495C350.885 469.047 347.146 469.505 343.396 469.875C339.646 470.245 335.891 470.521 332.13 470.708C328.365 470.891 324.599 470.984 320.828 470.984C317.063 470.984 313.297 470.891 309.531 470.708C305.771 470.521 302.016 470.245 298.266 469.875C294.516 469.505 290.776 469.047 287.047 468.495C283.323 467.943 279.609 467.297 275.911 466.562C272.219 465.828 268.542 465 264.885 464.083C261.234 463.172 257.604 462.167 253.995 461.073C250.391 459.979 246.813 458.797 243.266 457.526C239.719 456.255 236.203 454.901 232.724 453.458C229.24 452.016 225.797 450.489 222.391 448.88C218.984 447.271 215.62 445.578 212.297 443.797C208.974 442.021 205.698 440.167 202.464 438.229C199.234 436.292 196.052 434.276 192.917 432.182C189.786 430.088 186.703 427.922 183.677 425.677C180.651 423.432 177.682 421.114 174.771 418.724C171.859 416.333 169.005 413.875 166.214 411.344C163.422 408.812 160.693 406.213 158.026 403.552C155.365 400.885 152.766 398.156 150.234 395.364C147.703 392.573 145.245 389.724 142.854 386.807C140.464 383.896 138.146 380.927 135.901 377.901C133.656 374.875 131.49 371.792 129.396 368.661C127.302 365.526 125.286 362.344 123.349 359.114C121.411 355.88 119.557 352.604 117.781 349.281C116.005 345.958 114.307 342.594 112.698 339.187C111.089 335.781 109.563 332.338 108.12 328.854C106.677 325.375 105.323 321.859 104.052 318.312C102.781 314.766 101.599 311.187 100.505 307.583C99.4115 303.979 98.4115 300.344 97.4948 296.693C96.5781 293.036 95.75 289.359 95.0156 285.667C94.2812 281.969 93.6406 278.26 93.0833 274.531C92.5312 270.802 92.0729 267.068 91.7031 263.318C91.3333 259.568 91.0573 255.807 90.8698 252.047C90.6875 248.281 90.5938 244.515 90.5938 240.75C90.5938 236.979 90.6875 233.213 90.8698 229.453C91.0573 225.687 91.3333 221.932 91.7031 218.182C92.0729 214.432 92.5312 210.693 93.0833 206.963C93.6406 203.239 94.2812 199.526 95.0156 195.833C95.75 192.135 96.5781 188.458 97.4948 184.807C98.4115 181.151 99.4115 177.521 100.505 173.911C101.599 170.307 102.781 166.729 104.052 163.182C105.323 159.635 106.677 156.12 108.12 152.64C109.563 149.161 111.089 145.713 112.698 142.307C114.307 138.901 116.005 135.536 117.781 132.213C119.557 128.89 121.411 125.614 123.349 122.38C125.286 119.151 127.302 115.969 129.396 112.833C131.49 109.703 133.656 106.625 135.901 103.594C138.146 100.568 140.464 97.5988 142.854 94.6873C145.245 91.7759 147.703 88.9217 150.234 86.1301C152.766 83.3384 155.365 80.6092 158.026 77.9478C160.693 75.2811 163.422 72.6821 166.214 70.1509C169.005 67.6248 171.859 65.1613 174.771 62.7707C177.682 60.38 180.651 58.0623 183.677 55.8176C186.703 53.5728 189.786 51.4061 192.917 49.3123C196.052 47.2186 199.234 45.203 202.464 43.2655C205.698 41.328 208.974 39.4738 212.297 37.6978C215.62 35.9217 218.984 34.229 222.391 32.6144C225.797 31.005 229.24 29.479 232.724 28.0363C236.203 26.5936 239.719 25.2394 243.266 23.9686C246.813 22.6978 250.391 21.5207 253.995 20.4269C257.604 19.3332 261.234 18.328 264.885 17.4113C268.542 16.4946 272.219 15.6717 275.911 14.9321C279.609 14.1978 283.323 13.5571 287.047 13.005C290.776 12.4478 294.516 11.9894 298.266 11.6196C302.016 11.2498 305.771 10.9738 309.531 10.7863C313.297 10.604 317.063 10.5103 320.828 10.5103C324.599 10.5103 328.365 10.604 332.13 10.7863C335.891 10.9738 339.646 11.2498 343.396 11.6196C347.146 11.9894 350.885 12.4478 354.615 13.005C358.339 13.5571 362.052 14.1978 365.75 14.9321C369.443 15.6717 373.12 16.4946 376.776 17.4113C380.427 18.328 384.057 19.3332 387.667 20.4269C391.271 21.5207 394.849 22.6978 398.396 23.9686C401.943 25.2394 405.458 26.5936 408.938 28.0363C412.422 29.479 415.865 31.005 419.271 32.6144C422.677 34.229 426.042 35.9217 429.365 37.6978C432.688 39.4738 435.964 41.328 439.198 43.2655C442.427 45.203 445.609 47.2186 448.745 49.3123C451.875 51.4061 454.958 53.5728 457.984 55.8176C461.01 58.0623 463.979 60.38 466.891 62.7707C469.802 65.1613 472.656 67.6248 475.448 70.1509C478.24 72.6821 480.969 75.2811 483.635 77.9478C486.297 80.6092 488.896 83.3384 491.427 86.1301C493.958 88.9217 496.417 91.7759 498.807 94.6873C501.198 97.5988 503.516 100.568 505.76 103.594C508.005 106.625 510.172 109.703 512.266 112.833C514.359 115.969 516.375 119.151 518.313 122.38C520.25 125.614 522.104 128.89 523.88 132.213C525.656 135.536 527.354 138.901 528.964 142.307C530.573 145.713 532.099 149.161 533.542 152.64C534.984 156.12 536.339 159.635 537.609 163.182C538.88 166.729 540.063 170.307 541.156 173.911C542.25 177.521 543.25 181.151 544.167 184.807C545.083 188.458 545.912 192.135 546.646 195.833C547.38 199.526 548.021 203.239 548.578 206.963C549.13 210.693 549.589 214.432 549.958 218.182C550.328 221.932 550.604 225.687 550.792 229.453C550.974 233.213 551.068 236.979 551.068 240.75Z" fill="black" stroke="black" stroke-width="1.00103"/>
<path d="M425.437 239.688H422.438" stroke="white" stroke-width="100.103" stroke-miterlimit="10"/>
<mask id="mask0_19035_2" style="mask-type:luminance" maskUnits="userSpaceOnUse" x="0" y="0" width="647" height="532">
<path d="M0 0H646.667V531.547H0V0Z" fill="white"/>
</mask>
<g mask="url(#mask0_19035_2)">
<path d="M315.324 132.578C386.736 132.578 422.439 168.281 422.439 239.687C422.439 311.094 386.736 346.797 315.324 346.797" stroke="white" stroke-width="100.103" stroke-miterlimit="10"/>
</g>
<path d="M155.16 239.688H280.285" stroke="white" stroke-width="100.103" stroke-miterlimit="10"/>
<mask id="mask1_19035_2" style="mask-type:luminance" maskUnits="userSpaceOnUse" x="0" y="0" width="647" height="532">
<path d="M0 0H646.667V531.547H0V0Z" fill="white"/>
</mask>
<g mask="url(#mask1_19035_2)">
<path d="M290.296 239.688C290.296 240.349 290.171 240.99 289.915 241.604C289.665 242.214 289.301 242.755 288.832 243.224C288.363 243.698 287.822 244.057 287.207 244.313C286.592 244.568 285.957 244.693 285.29 244.693C284.629 244.693 283.988 244.568 283.379 244.313C282.764 244.057 282.223 243.698 281.754 243.224C281.285 242.755 280.921 242.214 280.671 241.604C280.415 240.99 280.285 240.349 280.285 239.688C280.285 239.021 280.415 238.385 280.671 237.771C280.921 237.156 281.285 236.62 281.754 236.146C282.223 235.677 282.764 235.318 283.379 235.063C283.988 234.807 284.629 234.682 285.29 234.682C285.957 234.682 286.592 234.807 287.207 235.063C287.822 235.318 288.363 235.677 288.832 236.146C289.301 236.62 289.665 237.156 289.915 237.771C290.171 238.385 290.296 239.021 290.296 239.688Z" stroke="white" stroke-width="100.103"/>
</g>
</svg>
