<svg width="250" height="250" viewBox="0 0 250 250" fill="none" xmlns="http://www.w3.org/2000/svg">
<rect x="80" y="61" width="90" height="110" rx="10" fill="#99F7CB"/>
<path d="M85 205.067C89.0258 197.075 96.5111 181.896 100.556 180.24C104.6 178.583 96.5111 160.379 100.556 160.379C104.6 160.378 111.669 157.277 113 160.379C109.762 167.609 113 180.24 113 180.24C113 180.24 117.194 197.006 127 205.067C127 205.067 115.8 207.548 111.444 205.067C107.089 202.585 106.156 206.723 106.778 195.136C107.4 183.549 101.236 200.344 100.556 205.067C93.8588 207.969 90.5962 207.298 85 205.067Z" fill="#99F7CB"/>
<rect width="7" height="127" rx="3.5" transform="matrix(-1 0 0 1 92 52)" fill="#99F7CB"/>
</svg>
