<svg width="500" height="500" viewBox="0 0 500 500" fill="none" xmlns="http://www.w3.org/2000/svg">
<circle cx="250" cy="250" r="250" fill="url(#paint0_linear_19044_9)"/>
<path d="M165.184 381V136H267.384C283.017 136 296.2 138.333 306.934 143C317.667 147.667 325.717 154.667 331.084 164C336.684 173.1 339.484 184.3 339.484 197.6C339.484 210.9 335.75 222.217 328.284 231.55C321.05 240.883 310.9 247.3 297.834 250.8V243.8C308.8 246.133 318.367 250.333 326.534 256.4C334.7 262.233 341 269.583 345.434 278.45C350.1 287.317 352.434 297.467 352.434 308.9C352.434 320.567 350.567 330.95 346.834 340.05C343.334 348.917 337.967 356.383 330.734 362.45C323.734 368.517 315.217 373.183 305.184 376.45C295.15 379.483 283.717 381 270.884 381H165.184ZM202.984 344.6H268.784C278.35 344.6 286.4 343.2 292.934 340.4C299.7 337.6 304.834 333.517 308.334 328.15C312.067 322.55 313.934 315.9 313.934 308.2C313.934 300.967 311.95 294.783 307.984 289.65C304.25 284.517 298.884 280.667 291.884 278.1C284.884 275.3 276.6 273.9 267.034 273.9H202.984V344.6ZM202.984 237.5H265.284C272.284 237.5 278.467 236.1 283.834 233.3C289.434 230.5 293.75 226.65 296.784 221.75C300.05 216.85 301.684 211.25 301.684 204.95C301.684 194.45 298.184 186.4 291.184 180.8C284.184 175.2 274.15 172.4 261.084 172.4H202.984V237.5Z" fill="#00543C"/>
<defs>
<linearGradient id="paint0_linear_19044_9" x1="0" y1="250" x2="500" y2="250" gradientUnits="userSpaceOnUse">
<stop stop-color="#99F7CB"/>
<stop offset="1" stop-color="#99FFFF"/>
<stop offset="1" stop-color="#99FFFF"/>
</linearGradient>
</defs>
</svg>
