<svg width="500" height="500" viewBox="0 0 500 500" fill="none" xmlns="http://www.w3.org/2000/svg">
<circle cx="250" cy="250" r="250" fill="url(#paint0_linear_19044_12)"/>
<path d="M264.926 384.5C247.892 384.5 232.259 381.467 218.026 375.4C203.792 369.333 191.426 360.7 180.926 349.5C170.426 338.067 162.259 324.65 156.426 309.25C150.826 293.85 148.026 276.933 148.026 258.5C148.026 241 151.059 224.783 157.126 209.85C163.426 194.683 172.059 181.383 183.026 169.95C193.992 158.517 206.709 149.65 221.176 143.35C235.642 137.05 251.276 133.9 268.076 133.9C279.976 133.9 291.526 135.767 302.726 139.5C314.159 143 324.426 148.017 333.526 154.55C342.859 160.85 350.442 168.083 356.276 176.25L331.076 202.5C324.309 195.733 317.426 190.133 310.426 185.7C303.659 181.033 296.659 177.533 289.426 175.2C282.426 172.867 275.309 171.7 268.076 171.7C256.642 171.7 245.909 173.917 235.876 178.35C226.076 182.55 217.442 188.5 209.976 196.2C202.742 203.9 197.026 213.117 192.826 223.85C188.626 234.35 186.526 245.9 186.526 258.5C186.526 271.8 188.509 283.933 192.476 294.9C196.676 305.633 202.509 314.85 209.976 322.55C217.442 330.25 226.309 336.2 236.576 340.4C247.076 344.367 258.626 346.35 271.226 346.35C278.926 346.35 286.509 345.3 293.976 343.2C301.442 341.1 308.442 338.067 314.976 334.1C321.509 330.133 327.459 325.467 332.826 320.1L351.726 350.9C346.359 357.2 339.009 362.917 329.676 368.05C320.576 373.183 310.309 377.267 298.876 380.3C287.676 383.1 276.359 384.5 264.926 384.5Z" fill="#00543C"/>
<defs>
<linearGradient id="paint0_linear_19044_12" x1="0" y1="250" x2="500" y2="250" gradientUnits="userSpaceOnUse">
<stop stop-color="#99F7CB"/>
<stop offset="1" stop-color="#99FFFF"/>
<stop offset="1" stop-color="#99FFFF"/>
</linearGradient>
</defs>
</svg>
