<svg width="500" height="500" viewBox="0 0 500 500" fill="none" xmlns="http://www.w3.org/2000/svg">
<circle cx="250" cy="250" r="250" fill="url(#paint0_linear_19044_15)"/>
<path d="M153.392 381V136H249.292C266.792 136 282.542 138.917 296.542 144.75C310.775 150.583 322.908 158.983 332.942 169.95C342.975 180.917 350.675 193.867 356.042 208.8C361.408 223.733 364.092 240.3 364.092 258.5C364.092 276.7 361.408 293.383 356.042 308.55C350.675 323.483 342.975 336.433 332.942 347.4C323.142 358.133 311.125 366.417 296.892 372.25C282.658 378.083 266.792 381 249.292 381H153.392ZM191.192 348.45L190.142 344.6H247.542C259.908 344.6 270.875 342.617 280.442 338.65C290.242 334.683 298.408 329.083 304.942 321.85C311.708 314.383 316.842 305.283 320.342 294.55C323.842 283.817 325.592 271.8 325.592 258.5C325.592 245.2 323.842 233.3 320.342 222.8C316.842 212.067 311.708 202.967 304.942 195.5C298.175 188.033 290.008 182.317 280.442 178.35C270.875 174.383 259.908 172.4 247.542 172.4H189.092L191.192 169.25V348.45Z" fill="#00543C"/>
<defs>
<linearGradient id="paint0_linear_19044_15" x1="0" y1="250" x2="500" y2="250" gradientUnits="userSpaceOnUse">
<stop stop-color="#99F7CB"/>
<stop offset="1" stop-color="#99FFFF"/>
<stop offset="1" stop-color="#99FFFF"/>
</linearGradient>
</defs>
</svg>
