<svg width="175" height="135" viewBox="0 0 175 135" fill="none" xmlns="http://www.w3.org/2000/svg">
<path d="M4.5 69.7165C2.5 68.5618 2.5 65.675 4.5 64.5203L82.7756 19.3279C85.9813 17.4771 89.0402 21.9382 86.1585 24.2614L35.8969 64.7829C34.4075 65.9837 34.4075 68.2531 35.8969 69.4539L86.1586 109.975C89.0403 112.299 85.9813 116.76 82.7756 114.909L4.5 69.7165Z" fill="#384051"/>
<path d="M62.5 69.7165C60.5 68.5618 60.5 65.675 62.5 64.5203L140.776 19.3279C143.981 17.4771 147.04 21.9382 144.159 24.2614L93.8969 64.7829C92.4075 65.9837 92.4075 68.2531 93.8969 69.4539L144.159 109.975C147.04 112.299 143.981 116.76 140.776 114.909L62.5 69.7165Z" fill="#384051"/>
</svg>
