<svg width="175" height="135" viewBox="0 0 175 135" fill="none" xmlns="http://www.w3.org/2000/svg">
<path d="M4.5 69.7155C2.5 68.5608 2.5 65.674 4.5 64.5193L82.7756 19.3269C85.9813 17.4761 89.0402 21.9372 86.1585 24.2605L35.8969 64.7819C34.4075 65.9827 34.4075 68.2521 35.8969 69.4529L86.1586 109.974C89.0403 112.298 85.9813 116.759 82.7756 114.908L4.5 69.7155Z" fill="#9DA2AE"/>
<path d="M62.5 69.7155C60.5 68.5608 60.5 65.674 62.5 64.5193L140.776 19.3269C143.981 17.4761 147.04 21.9372 144.159 24.2605L93.8969 64.7819C92.4075 65.9827 92.4075 68.2521 93.8969 69.4529L144.159 109.974C147.04 112.298 143.981 116.759 140.776 114.908L62.5 69.7155Z" fill="#9DA2AE"/>
</svg>
