<svg width="175" height="135" viewBox="0 0 175 135" fill="none" xmlns="http://www.w3.org/2000/svg">
<path d="M169.75 64.5189C171.75 65.6736 171.75 68.5603 169.75 69.715L91.4744 114.907C88.2687 116.758 85.2098 112.297 88.0915 109.974L138.353 69.4525C139.843 68.2517 139.843 65.9823 138.353 64.7815L88.0914 24.26C85.2097 21.9368 88.2687 17.4757 91.4744 19.3264L169.75 64.5189Z" fill="white"/>
<path d="M111.75 64.5189C113.75 65.6736 113.75 68.5603 111.75 69.715L33.4744 114.907C30.2687 116.758 27.2098 112.297 30.0915 109.974L80.3531 69.4525C81.8425 68.2517 81.8425 65.9823 80.3531 64.7815L30.0914 24.26C27.2097 21.9368 30.2687 17.4757 33.4744 19.3264L111.75 64.5189Z" fill="white"/>
</svg>
