<svg width="280" height="280" viewBox="0 0 280 280" fill="none" xmlns="http://www.w3.org/2000/svg">
<path fill-rule="evenodd" clip-rule="evenodd" d="M280 140C280 217.32 217.32 280 140 280C62.6801 280 0 217.32 0 140C0 62.6801 62.6801 0 140 0C217.32 0 280 62.6801 280 140ZM99.4979 91.5648C105.449 97.328 105.449 106.672 99.4979 112.435L93.5758 118.17L71.5513 139.5L99.4979 166.564C105.449 172.328 105.449 181.672 99.4979 187.435C93.5469 193.198 83.8984 193.198 77.9474 187.435L46.409 156.892C36.4906 147.286 36.4907 131.713 46.409 122.108L72.0252 97.3001L77.9474 91.5648C83.8984 85.8016 93.5469 85.8016 99.4979 91.5648ZM179.506 166.565C173.555 172.328 173.555 181.672 179.506 187.435C185.457 193.198 195.105 193.198 201.057 187.435L206.979 181.7L232.595 156.892C242.513 147.287 242.513 131.714 232.595 122.108L201.057 91.5653C195.105 85.8021 185.457 85.8021 179.506 91.5653C173.555 97.3285 173.555 106.672 179.506 112.436L207.453 139.5L185.428 160.83L179.506 166.565Z" fill="white"/>
</svg>
