<svg width="582" height="534" viewBox="0 0 582 534" fill="none" xmlns="http://www.w3.org/2000/svg">
<path d="M475.784 246.974C475.784 250.739 475.695 254.5 475.508 258.265C475.325 262.026 475.044 265.781 474.68 269.526C474.31 273.276 473.846 277.015 473.294 280.739C472.742 284.463 472.096 288.172 471.362 291.87C470.627 295.562 469.805 299.234 468.888 302.89C467.971 306.541 466.971 310.172 465.877 313.776C464.784 317.38 463.601 320.953 462.331 324.5C461.065 328.047 459.711 331.557 458.268 335.041C456.825 338.521 455.299 341.963 453.69 345.364C452.081 348.771 450.388 352.135 448.612 355.453C446.836 358.776 444.982 362.052 443.044 365.281C441.107 368.515 439.091 371.692 437.003 374.828C434.909 377.958 432.742 381.036 430.497 384.062C428.253 387.088 425.935 390.052 423.549 392.963C421.159 395.875 418.7 398.729 416.169 401.521C413.643 404.307 411.044 407.036 408.383 409.698C405.716 412.364 402.992 414.958 400.2 417.489C397.409 420.015 394.56 422.479 391.648 424.864C388.737 427.255 385.768 429.573 382.742 431.817C379.716 434.057 376.638 436.229 373.508 438.317C370.378 440.411 367.195 442.427 363.966 444.364C360.737 446.297 357.461 448.156 354.138 449.932C350.815 451.703 347.45 453.396 344.049 455.01C340.643 456.619 337.2 458.146 333.721 459.583C330.242 461.026 326.726 462.38 323.185 463.651C319.638 464.922 316.06 466.099 312.456 467.192C308.851 468.286 305.227 469.291 301.57 470.208C297.919 471.119 294.242 471.948 290.549 472.682C286.857 473.416 283.148 474.062 279.419 474.614C275.695 475.166 271.961 475.625 268.211 475.994C264.461 476.364 260.706 476.64 256.945 476.828C253.185 477.01 249.419 477.104 245.654 477.104C241.888 477.104 238.122 477.01 234.362 476.828C230.602 476.64 226.846 476.364 223.096 475.994C219.346 475.625 215.612 475.166 211.888 474.614C208.159 474.062 204.45 473.416 200.758 472.682C197.065 471.948 193.388 471.119 189.737 470.208C186.081 469.291 182.456 468.286 178.852 467.192C175.247 466.099 171.669 464.922 168.122 463.651C164.581 462.38 161.065 461.026 157.586 459.583C154.107 458.146 150.664 456.619 147.258 455.01C143.857 453.396 140.492 451.703 137.169 449.932C133.846 448.156 130.57 446.297 127.341 444.364C124.112 442.427 120.93 440.411 117.799 438.317C114.669 436.229 111.591 434.057 108.565 431.817C105.539 429.573 102.57 427.255 99.6588 424.864C96.7474 422.479 93.8984 420.015 91.1068 417.489C88.3151 414.958 85.5911 412.364 82.9245 409.698C80.263 407.036 77.664 404.307 75.138 401.521C72.6068 398.729 70.1484 395.875 67.7578 392.963C65.3672 390.052 63.0547 387.088 60.8099 384.062C58.5651 381.036 56.3984 377.958 54.3047 374.828C52.2109 371.692 50.2005 368.515 48.263 365.281C46.3255 362.052 44.4713 358.776 42.6953 355.453C40.9193 352.135 39.2266 348.771 37.6172 345.364C36.0078 341.963 34.4818 338.521 33.0391 335.041C31.5964 331.557 30.2422 328.047 28.9766 324.5C27.7057 320.953 26.5234 317.38 25.4297 313.776C24.3359 310.172 23.3359 306.541 22.4193 302.89C21.5026 299.234 20.6797 295.562 19.9453 291.87C19.2109 288.172 18.5651 284.463 18.013 280.739C17.4609 277.015 16.9974 273.276 16.6276 269.526C16.263 265.781 15.9818 262.026 15.7995 258.265C15.612 254.5 15.5234 250.739 15.5234 246.974C15.5234 243.203 15.612 239.442 15.7995 235.677C15.9818 231.916 16.263 228.161 16.6276 224.416C16.9974 220.666 17.4609 216.932 18.013 213.203C18.5651 209.479 19.2109 205.771 19.9453 202.073C20.6797 198.38 21.5026 194.708 22.4193 191.052C23.3359 187.401 24.3359 183.771 25.4297 180.166C26.5234 176.562 27.7057 172.989 28.9766 169.442C30.2422 165.896 31.5964 162.385 33.0391 158.906C34.4818 155.422 36.0078 151.984 37.6172 148.578C39.2266 145.172 40.9193 141.807 42.6953 138.489C44.4713 135.166 46.3255 131.89 48.263 128.661C50.2005 125.427 52.2109 122.25 54.3047 119.114C56.3984 115.984 58.5651 112.906 60.8099 109.88C63.0547 106.859 65.3672 103.89 67.7578 100.979C70.1484 98.0675 72.6068 95.2134 75.138 92.4217C77.664 89.6352 80.263 86.9061 82.9245 84.2446C85.5911 81.5779 88.3151 78.9842 91.1068 76.4529C93.8984 73.9269 96.7474 71.4686 99.6588 69.0779C102.57 66.6873 105.539 64.3696 108.565 62.13C111.591 59.8852 114.669 57.7186 117.799 55.6248C120.93 53.5311 124.112 51.5155 127.341 49.5832C130.57 47.6457 133.846 45.7863 137.169 44.0155C140.492 42.2394 143.857 40.5467 147.258 38.9321C150.664 37.3227 154.107 35.7967 157.586 34.3592C161.065 32.9165 164.581 31.5623 168.122 30.2915C171.669 29.0207 175.247 27.8436 178.852 26.7498C182.456 25.6561 186.081 24.6509 189.737 23.7342C193.388 22.8228 197.065 21.9946 200.758 21.2603C204.45 20.5259 208.159 19.8853 211.888 19.328C215.612 18.7759 219.346 18.3175 223.096 17.9478C226.846 17.578 230.602 17.3019 234.362 17.1144C238.122 16.9321 241.888 16.8384 245.654 16.8384C249.419 16.8384 253.185 16.9321 256.945 17.1144C260.706 17.3019 264.461 17.578 268.211 17.9478C271.961 18.3175 275.695 18.7759 279.419 19.328C283.148 19.8853 286.857 20.5259 290.549 21.2603C294.242 21.9946 297.919 22.8228 301.57 23.7342C305.227 24.6509 308.851 25.6561 312.456 26.7498C316.06 27.8436 319.638 29.0207 323.185 30.2915C326.726 31.5623 330.242 32.9165 333.721 34.3592C337.2 35.7967 340.643 37.3227 344.049 38.9321C347.45 40.5467 350.815 42.2394 354.138 44.0155C357.461 45.7863 360.737 47.6457 363.966 49.5832C367.195 51.5155 370.378 53.5311 373.508 55.6248C376.638 57.7186 379.716 59.8852 382.742 62.13C385.768 64.3696 388.737 66.6873 391.648 69.0779C394.56 71.4686 397.409 73.9269 400.2 76.4529C402.992 78.9842 405.716 81.5779 408.383 84.2446C411.044 86.9061 413.643 89.6352 416.169 92.4217C418.7 95.2134 421.159 98.0675 423.549 100.979C425.935 103.89 428.253 106.859 430.497 109.88C432.742 112.906 434.909 115.984 437.003 119.114C439.091 122.25 441.107 125.427 443.044 128.661C444.982 131.89 446.836 135.166 448.612 138.489C450.388 141.807 452.081 145.172 453.69 148.578C455.299 151.984 456.825 155.422 458.268 158.906C459.711 162.385 461.065 165.896 462.331 169.442C463.601 172.989 464.784 176.562 465.877 180.166C466.971 183.771 467.971 187.401 468.888 191.052C469.805 194.708 470.627 198.38 471.362 202.073C472.096 205.771 472.742 209.479 473.294 213.203C473.846 216.932 474.31 220.666 474.68 224.416C475.044 228.161 475.325 231.916 475.508 235.677C475.695 239.442 475.784 243.203 475.784 246.974Z" fill="black" stroke="black" stroke-width="1.00057"/>
<path d="M110.883 228.302V114.396C110.883 97.7187 119.221 89.3801 135.893 89.3801H355.404C372.075 89.3801 380.414 97.7187 380.414 114.396V342.198C380.414 358.875 372.075 367.208 355.404 367.208H333.128C318.273 367.208 313.445 375.135 318.638 390.984L329.206 423.245L281.06 383.198C268.232 372.542 253.482 367.208 236.805 367.208H135.893C119.221 367.208 110.883 358.875 110.883 342.198V228.302Z" fill="white" stroke="white" stroke-width="1.00057" stroke-miterlimit="10"/>
<path d="M214.252 265.208C216.007 252.557 218.028 239.453 220.314 225.901C222.595 212.339 225.095 198.927 227.809 185.667C230.522 172.396 233.366 159.818 236.335 147.948L242.476 123.385H284.564L277.851 150.224C274.736 162.693 271.168 175.76 267.147 189.432C263.127 203.094 258.897 216.604 254.45 229.964C250.007 243.318 245.627 255.828 241.304 267.484L240.168 270.542H213.507L214.252 265.208ZM223.543 266.5L218.897 265.854V261.162H236.908V265.854L232.507 264.224C236.793 252.667 241.142 240.261 245.549 227C249.96 213.745 254.158 200.339 258.147 186.787C262.132 173.24 265.668 160.292 268.752 147.948L274.007 126.938L278.554 128.073V132.766H246.137V128.073L250.689 129.214L245.434 150.224C242.496 161.964 239.689 174.406 236.996 187.547C234.309 200.703 231.83 214.005 229.564 227.458C227.293 240.922 225.288 253.938 223.543 266.5ZM208.09 346.188C199.819 346.188 193.908 343.547 190.356 338.261C186.95 333.203 186.319 326.401 188.455 317.844C190.345 310.281 194.09 304.078 199.689 299.229C205.424 294.261 211.976 291.781 219.345 291.781C227.616 291.781 233.528 294.422 237.085 299.703C240.486 304.761 241.116 311.568 238.981 320.12C237.09 327.682 233.345 333.891 227.746 338.74C222.012 343.703 215.46 346.188 208.09 346.188ZM208.09 336.807C213.127 336.807 217.632 335.083 221.606 331.646C225.71 328.089 228.47 323.49 229.882 317.844C231.345 311.99 231.153 307.688 229.299 304.943C227.606 302.422 224.283 301.162 219.345 301.162C214.309 301.162 209.804 302.88 205.83 306.318C201.726 309.875 198.965 314.474 197.554 320.12C196.09 325.974 196.288 330.276 198.137 333.026C199.83 335.547 203.153 336.807 208.09 336.807ZM218.897 265.854C220.647 253.245 222.663 240.188 224.939 226.682C227.215 213.172 229.7 199.813 232.403 186.609C235.106 173.401 237.934 160.891 240.882 149.083L246.137 128.073H278.554L273.304 149.083C270.2 161.495 266.647 174.5 262.647 188.109C258.642 201.714 254.429 215.172 250.002 228.479C245.575 241.787 241.21 254.245 236.908 265.854H218.897ZM208.09 341.495C201.486 341.495 196.871 339.547 194.246 335.641C191.616 331.74 191.205 326.188 193.007 318.984C194.658 312.38 197.908 306.974 202.762 302.776C207.616 298.573 213.142 296.469 219.345 296.469C225.95 296.469 230.564 298.422 233.189 302.323C235.819 306.224 236.231 311.781 234.429 318.984C232.778 325.589 229.528 330.99 224.674 335.193C219.819 339.396 214.293 341.495 208.09 341.495Z" fill="black"/>
<path d="M224.252 265.208C226.007 252.557 228.028 239.453 230.314 225.901C232.595 212.339 235.095 198.927 237.809 185.667C240.522 172.396 243.366 159.818 246.335 147.948L252.476 123.385H294.564L287.851 150.224C284.736 162.693 281.168 175.76 277.147 189.432C273.127 203.094 268.897 216.604 264.45 229.964C260.007 243.318 255.627 255.828 251.304 267.484L250.168 270.542H223.512L224.252 265.208ZM233.543 266.5L228.897 265.854V261.162H246.908V265.854L242.507 264.224C246.793 252.667 251.142 240.261 255.554 227C259.96 213.745 264.158 200.339 268.147 186.787C272.132 173.24 275.668 160.292 278.752 147.948L284.007 126.938L288.554 128.073V132.766H256.137V128.073L260.689 129.214L255.434 150.224C252.496 161.964 249.689 174.406 247.002 187.547C244.309 200.703 241.83 214.005 239.564 227.458C237.293 240.922 235.288 253.938 233.543 266.5ZM218.09 346.188C209.819 346.188 203.908 343.547 200.356 338.261C196.95 333.203 196.319 326.401 198.455 317.844C200.345 310.281 204.09 304.078 209.694 299.229C215.424 294.261 221.976 291.781 229.345 291.781C237.616 291.781 243.528 294.422 247.085 299.703C250.486 304.761 251.121 311.568 248.981 320.12C247.09 327.682 243.345 333.891 237.746 338.74C232.012 343.703 225.46 346.188 218.09 346.188ZM218.09 336.807C223.127 336.807 227.632 335.083 231.606 331.646C235.71 328.089 238.47 323.49 239.882 317.844C241.345 311.99 241.153 307.688 239.304 304.943C237.606 302.422 234.288 301.162 229.345 301.162C224.309 301.162 219.804 302.88 215.835 306.318C211.726 309.875 208.97 314.474 207.559 320.12C206.095 325.974 206.288 330.276 208.137 333.026C209.835 335.547 213.153 336.807 218.09 336.807ZM228.897 265.854C230.647 253.245 232.663 240.188 234.939 226.682C237.215 213.172 239.705 199.813 242.403 186.609C245.106 173.401 247.934 160.891 250.882 149.083L256.137 128.073H288.554L283.304 149.083C280.2 161.495 276.647 174.5 272.647 188.109C268.642 201.714 264.429 215.172 260.002 228.479C255.575 241.787 251.21 254.245 246.908 265.854H228.897ZM218.09 341.495C211.486 341.495 206.871 339.547 204.246 335.641C201.616 331.74 201.205 326.188 203.007 318.984C204.658 312.38 207.908 306.974 212.762 302.776C217.616 298.573 223.142 296.469 229.345 296.469C235.95 296.469 240.564 298.422 243.194 302.323C245.819 306.224 246.231 311.781 244.429 318.984C242.778 325.589 239.528 330.99 234.674 335.193C229.819 339.396 224.293 341.495 218.09 341.495Z" fill="black"/>
</svg>
