<?xml version="1.0" encoding="UTF-8" standalone="no"?>
<svg
   width="436.07999pt"
   height="400.07999pt"
   viewBox="0 0 436.07999 400.07999"
   version="1.1"
   id="svg10"
   xmlns="http://www.w3.org/2000/svg"
   xmlns:svg="http://www.w3.org/2000/svg">
  <defs
     id="defs14" />
  <path
     fill-rule="nonzero"
     fill="rgb(100%, 100%, 100%)"
     fill-opacity="1"
     stroke-width="1"
     stroke-linecap="butt"
     stroke-linejoin="miter"
     stroke="rgb(100%, 100%, 100%)"
     stroke-opacity="1"
     stroke-miterlimit="4"
     d="M 475.008488 246.33237 C 475.008488 250.095836 474.919997 253.854097 474.732604 257.617563 C 474.550417 261.375824 474.269328 265.128879 473.904954 268.871524 C 473.535374 272.619374 473.072098 276.356814 472.520332 280.078637 C 471.968565 283.800461 471.323102 287.506668 470.589148 291.202465 C 469.855194 294.893056 469.032749 298.562826 468.116608 302.21698 C 467.200467 305.865928 466.20104 309.494056 465.107917 313.096156 C 464.014794 316.698256 462.83318 320.269125 461.563075 323.813966 C 460.298176 327.358808 458.944786 330.867212 457.502904 334.349589 C 456.061023 337.826762 454.535856 341.267496 452.927404 344.666588 C 451.318952 348.070885 449.627214 351.43354 447.85219 354.749346 C 446.077167 358.070358 444.224063 361.344521 442.287674 364.571837 C 440.351285 367.804357 438.336815 370.979619 436.249471 374.113238 C 434.156921 377.241652 431.991497 380.318013 429.747992 383.342319 C 427.504487 386.366626 425.188107 389.328469 422.804058 392.238258 C 420.414804 395.148047 417.95788 398.000578 415.428081 400.790644 C 412.903488 403.575505 410.306019 406.303107 407.646087 408.96304 C 404.980949 411.628177 402.258552 414.22044 399.468486 416.750239 C 396.67842 419.274833 393.831095 421.736962 390.921305 424.121011 C 388.011516 426.510266 385.044468 428.826645 382.020161 431.07015 C 378.995854 433.308449 375.919494 435.479079 372.79108 437.566424 C 369.662666 439.658973 366.482199 441.673443 363.254884 443.609832 C 360.027568 445.541016 356.753405 447.399325 353.432393 449.174348 C 350.111381 450.944167 346.748727 452.635904 343.349635 454.249562 C 339.945338 455.858015 336.504603 457.383181 333.027431 458.819857 C 329.550259 460.261738 326.03665 461.615129 322.497013 462.885234 C 318.952172 464.155338 315.376098 465.331747 311.773998 466.42487 C 308.171897 467.517993 304.548975 468.522625 300.894822 469.438766 C 297.245873 470.349702 293.570898 471.177352 289.880306 471.911306 C 286.189715 472.64526 282.483508 473.290723 278.756479 473.84249 C 275.034656 474.394257 271.302421 474.852327 267.554571 475.221907 C 263.806721 475.591487 260.053666 475.86737 256.295405 476.054763 C 252.537144 476.23695 248.773678 476.330646 245.010212 476.330646 C 241.246745 476.330646 237.483279 476.23695 233.725018 476.054763 C 229.966757 475.86737 226.213702 475.591487 222.465852 475.221907 C 218.718002 474.852327 214.985768 474.394257 211.263944 473.84249 C 207.536915 473.290723 203.830708 472.64526 200.140117 471.911306 C 196.449525 471.177352 192.77455 470.349702 189.125602 469.438766 C 185.471448 468.522625 181.848526 467.517993 178.246425 466.42487 C 174.644325 465.331747 171.068251 464.155338 167.52341 462.885234 C 163.983773 461.615129 160.470164 460.261738 156.992992 458.819857 C 153.51582 457.383181 150.075085 455.858015 146.670788 454.249562 C 143.271696 452.635904 139.909042 450.944167 136.58803 449.174348 C 133.267018 447.399325 129.992855 445.541016 126.765539 443.609832 C 123.538224 441.673443 120.357757 439.658973 117.229343 437.566424 C 114.100929 435.479079 111.024569 433.308449 108.000262 431.07015 C 104.975955 428.826645 102.008907 426.510266 99.099118 424.121011 C 96.189329 421.736962 93.342003 419.274833 90.551937 416.750239 C 87.761871 414.22044 85.039474 411.628177 82.374336 408.96304 C 79.714404 406.303107 77.116936 403.575505 74.592342 400.790644 C 72.062543 398.000578 69.605619 395.148047 67.216365 392.238258 C 64.82711 389.328469 62.515936 386.366626 60.272431 383.342319 C 58.028927 380.318013 55.863502 377.241652 53.770952 374.113238 C 51.678403 370.979619 49.669139 367.804357 47.732749 364.571837 C 45.79636 361.344521 43.943256 358.070358 42.168233 354.749346 C 40.393209 351.43354 38.701472 348.070885 37.093019 344.666588 C 35.484567 341.267496 33.9594 337.826762 32.517519 334.349589 C 31.075638 330.867212 29.722247 327.358808 28.457348 323.813966 C 27.187243 320.269125 26.005629 316.698256 24.912506 313.096156 C 23.819383 309.494056 22.819956 305.865928 21.903815 302.21698 C 20.987674 298.562826 20.165229 294.893056 19.431275 291.202465 C 18.697321 287.506668 18.051858 283.800461 17.500091 280.078637 C 16.948325 276.356814 16.485049 272.619374 16.115469 268.871524 C 15.751095 265.128879 15.470006 261.375824 15.287819 257.617563 C 15.100426 253.854097 15.011935 250.095836 15.011935 246.33237 C 15.011935 242.563698 15.100426 238.805437 15.287819 235.041971 C 15.470006 231.28371 15.751095 227.530655 16.115469 223.78801 C 16.485049 220.04016 16.948325 216.307926 17.500091 212.580897 C 18.051858 208.859074 18.697321 205.152866 19.431275 201.45707 C 20.165229 197.766478 20.987674 194.096708 21.903815 190.442554 C 22.819956 186.793606 23.819383 183.165479 24.912506 179.563378 C 26.005629 175.961278 27.187243 172.39041 28.457348 168.845568 C 29.722247 165.300726 31.075638 161.792322 32.517519 158.31515 C 33.9594 154.832773 35.484567 151.397243 37.093019 147.992946 C 38.701472 144.588649 40.393209 141.225994 42.168233 137.910188 C 43.943256 134.589177 45.79636 131.315013 47.732749 128.087698 C 49.669139 124.855177 51.678403 121.679915 53.770952 118.546296 C 55.863502 115.417882 58.028927 112.341522 60.272431 109.317215 C 62.515936 106.298113 64.82711 103.331065 67.216365 100.421276 C 69.605619 97.511487 72.062543 94.658956 74.592342 91.86889 C 77.116936 89.084029 79.714404 86.356427 82.374336 83.696495 C 85.039474 81.031357 87.761871 78.439094 90.551937 75.909295 C 93.342003 73.384701 96.189329 70.927777 99.099118 68.538523 C 102.008907 66.149268 104.975955 63.832889 108.000262 61.594589 C 111.024569 59.351085 114.100929 57.18566 117.229343 55.093111 C 120.357757 53.000561 123.538224 50.986091 126.765539 49.054908 C 129.992855 47.118518 133.267018 45.260209 136.58803 43.490391 C 139.909042 41.715368 143.271696 40.02363 146.670788 38.409972 C 150.075085 36.80152 153.51582 35.276353 156.992992 33.839677 C 160.470164 32.397796 163.983773 31.044405 167.52341 29.774301 C 171.068251 28.504196 174.644325 27.327787 178.246425 26.234664 C 181.848526 25.141541 185.471448 24.136909 189.125602 23.220768 C 192.77455 22.309832 196.449525 21.482182 200.140117 20.748228 C 203.830708 20.014274 207.536915 19.374016 211.263944 18.817044 C 214.985768 18.265277 218.718002 17.807207 222.465852 17.437627 C 226.213702 17.068048 229.966757 16.792164 233.725018 16.604772 C 237.483279 16.422585 241.246745 16.328888 245.010212 16.328888 C 248.773678 16.328888 252.537144 16.422585 256.295405 16.604772 C 260.053666 16.792164 263.806721 17.068048 267.554571 17.437627 C 271.302421 17.807207 275.034656 18.265277 278.756479 18.817044 C 282.483508 19.374016 286.189715 20.014274 289.880306 20.748228 C 293.570898 21.482182 297.245873 22.309832 300.894822 23.220768 C 304.548975 24.136909 308.171897 25.141541 311.773998 26.234664 C 315.376098 27.327787 318.952172 28.504196 322.497013 29.774301 C 326.03665 31.044405 329.550259 32.397796 333.027431 33.839677 C 336.504603 35.276353 339.945338 36.80152 343.349635 38.409972 C 346.748727 40.02363 350.111381 41.715368 353.432393 43.490391 C 356.753405 45.260209 360.027568 47.118518 363.254884 49.054908 C 366.482199 50.986091 369.662666 53.000561 372.79108 55.093111 C 375.919494 57.18566 378.995854 59.351085 382.020161 61.594589 C 385.044468 63.832889 388.011516 66.149268 390.921305 68.538523 C 393.831095 70.927777 396.67842 73.384701 399.468486 75.909295 C 402.258552 78.439094 404.980949 81.031357 407.646087 83.696495 C 410.306019 86.356427 412.903488 89.084029 415.428081 91.86889 C 417.95788 94.658956 420.414804 97.511487 422.804058 100.421276 C 425.188107 103.331065 427.504487 106.298113 429.747992 109.317215 C 431.991497 112.341522 434.156921 115.417882 436.249471 118.546296 C 438.336815 121.679915 440.351285 124.855177 442.287674 128.087698 C 444.224063 131.315013 446.077167 134.589177 447.85219 137.910188 C 449.627214 141.225994 451.318952 144.588649 452.927404 147.992946 C 454.535856 151.397243 456.061023 154.832773 457.502904 158.31515 C 458.944786 161.792322 460.298176 165.300726 461.563075 168.845568 C 462.83318 172.39041 464.014794 175.961278 465.107917 179.563378 C 466.20104 183.165479 467.200467 186.793606 468.116608 190.442554 C 469.032749 194.096708 469.855194 197.766478 470.589148 201.45707 C 471.323102 205.152866 471.968565 208.859074 472.520332 212.580897 C 473.072098 216.307926 473.535374 220.04016 473.904954 223.78801 C 474.269328 227.530655 474.550417 231.28371 474.732604 235.041971 C 474.919997 238.805437 475.008488 242.563698 475.008488 246.33237 Z M 475.008488 246.33237 "
     transform="matrix(0.75043, 0, 0, 0.75043, 0.375215, 0.375215)"
     id="path2" />
  <path
     fill-rule="nonzero"
     fill="rgb(0%, 0%, 0%)"
     fill-opacity="1"
     stroke-width="1"
     stroke-linecap="butt"
     stroke-linejoin="miter"
     stroke="rgb(0%, 0%, 0%)"
     stroke-opacity="1"
     stroke-miterlimit="10"
     d="M 110.321847 227.671199 L 110.321847 113.830251 C 110.321847 97.162728 118.655608 88.828967 135.317925 88.828967 L 354.702498 88.828967 C 371.364815 88.828967 379.698576 97.162728 379.698576 113.830251 L 379.698576 341.501737 C 379.698576 358.169259 371.364815 366.497815 354.702498 366.497815 L 332.439227 366.497815 C 317.593576 366.497815 312.768219 374.420354 317.95795 390.260226 L 328.5196 422.502148 L 280.401369 382.478232 C 267.580598 371.828091 252.839054 366.497815 236.171532 366.497815 L 135.317925 366.497815 C 118.655608 366.497815 110.321847 358.169259 110.321847 341.501737 Z M 110.321847 227.671199 "
     transform="matrix(0.75043, 0, 0, 0.75043, 0.375215, 0.375215)"
     id="path4" />
  <path
     fill-rule="nonzero"
     fill="rgb(100%, 100%, 100%)"
     fill-opacity="1"
     d="M 160.6875 198.90625 C 162.003906 189.417969 163.519531 179.589844 165.234375 169.425781 C 166.945313 159.253906 168.820313 149.195313 170.855469 139.25 C 172.890625 129.296875 175.023438 119.863281 177.25 110.960938 L 181.855469 92.539063 L 213.421875 92.539063 L 208.386719 112.667969 C 206.050781 122.019531 203.375 131.820313 200.359375 142.074219 C 197.34375 152.320313 194.171875 162.453125 190.835938 172.472656 C 187.503906 182.488281 184.21875 191.871094 180.976563 200.613281 L 180.125 202.90625 L 160.128906 202.90625 Z M 167.65625 199.875 L 164.171875 199.390625 L 164.171875 195.871094 L 177.679688 195.871094 L 177.679688 199.390625 L 174.378906 198.167969 C 177.59375 189.5 180.855469 180.195313 184.160156 170.25 C 187.46875 160.308594 190.617188 150.253906 193.609375 140.089844 C 196.597656 129.929688 199.25 120.21875 201.5625 110.960938 L 205.503906 95.203125 L 208.914063 96.054688 L 208.914063 99.574219 L 184.601563 99.574219 L 184.601563 96.054688 L 188.015625 96.910156 L 184.074219 112.667969 C 181.871094 121.472656 179.765625 130.804688 177.746094 140.660156 C 175.730469 150.527344 173.871094 160.503906 172.171875 170.59375 C 170.46875 180.691406 168.964844 190.453125 167.65625 199.875 Z M 156.066406 259.640625 C 149.863281 259.640625 145.429688 257.660156 142.765625 253.695313 C 140.210938 249.902344 139.738281 244.800781 141.339844 238.382813 C 142.757813 232.710938 145.566406 228.058594 149.765625 224.421875 C 154.066406 220.695313 158.980469 218.835938 164.507813 218.835938 C 170.710938 218.835938 175.144531 220.816406 177.8125 224.777344 C 180.363281 228.570313 180.835938 233.675781 179.234375 240.089844 C 177.816406 245.761719 175.007813 250.417969 170.808594 254.054688 C 166.507813 257.777344 161.59375 259.640625 156.066406 259.640625 Z M 156.066406 252.605469 C 159.84375 252.605469 163.222656 251.3125 166.203125 248.734375 C 169.28125 246.066406 171.351563 242.617188 172.410156 238.382813 C 173.507813 233.992188 173.363281 230.765625 171.972656 228.707031 C 170.703125 226.816406 168.210938 225.871094 164.507813 225.871094 C 160.730469 225.871094 157.351563 227.160156 154.371094 229.738281 C 151.292969 232.40625 149.222656 235.855469 148.164063 240.089844 C 147.066406 244.480469 147.214844 247.707031 148.601563 249.769531 C 149.871094 251.660156 152.363281 252.605469 156.066406 252.605469 Z M 164.171875 199.390625 C 165.484375 189.933594 166.996094 180.140625 168.703125 170.011719 C 170.410156 159.878906 172.273438 149.859375 174.300781 139.957031 C 176.328125 130.050781 178.449219 120.667969 180.660156 111.8125 L 184.601563 96.054688 L 208.914063 96.054688 L 204.976563 111.8125 C 202.648438 121.121094 199.984375 130.875 196.984375 141.082031 C 193.980469 151.285156 190.820313 161.378906 187.5 171.359375 C 184.179688 181.339844 180.90625 190.683594 177.679688 199.390625 Z M 156.066406 256.121094 C 151.113281 256.121094 147.652344 254.660156 145.683594 251.730469 C 143.710938 248.804688 143.402344 244.640625 144.753906 239.238281 C 145.992188 234.285156 148.429688 230.230469 152.070313 227.082031 C 155.710938 223.929688 159.855469 222.351563 164.507813 222.351563 C 169.460938 222.351563 172.921875 223.816406 174.890625 226.742188 C 176.863281 229.667969 177.171875 233.835938 175.820313 239.238281 C 174.582031 244.191406 172.144531 248.242188 168.503906 251.394531 C 164.863281 254.546875 160.71875 256.121094 156.066406 256.121094 Z M 156.066406 256.121094 "
     id="path6" />
  <path
     fill-rule="nonzero"
     fill="rgb(100%, 100%, 100%)"
     fill-opacity="1"
     d="M 168.191406 198.90625 C 169.507813 189.417969 171.023438 179.589844 172.738281 169.425781 C 174.449219 159.253906 176.324219 149.195313 178.359375 139.25 C 180.394531 129.296875 182.527344 119.863281 184.753906 110.960938 L 189.359375 92.539063 L 220.925781 92.539063 L 215.890625 112.667969 C 213.554688 122.019531 210.878906 131.820313 207.863281 142.074219 C 204.847656 152.320313 201.675781 162.453125 198.339844 172.472656 C 195.007813 182.488281 191.722656 191.871094 188.480469 200.613281 L 187.628906 202.90625 L 167.636719 202.90625 Z M 175.160156 199.875 L 171.675781 199.390625 L 171.675781 195.871094 L 185.183594 195.871094 L 185.183594 199.390625 L 181.882813 198.167969 C 185.097656 189.5 188.359375 180.195313 191.667969 170.25 C 194.972656 160.308594 198.121094 150.253906 201.113281 140.089844 C 204.101563 129.929688 206.753906 120.21875 209.066406 110.960938 L 213.007813 95.203125 L 216.417969 96.054688 L 216.417969 99.574219 L 192.105469 99.574219 L 192.105469 96.054688 L 195.519531 96.910156 L 191.578125 112.667969 C 189.375 121.472656 187.269531 130.804688 185.253906 140.660156 C 183.234375 150.527344 181.375 160.503906 179.675781 170.59375 C 177.972656 180.691406 176.46875 190.453125 175.160156 199.875 Z M 163.570313 259.640625 C 157.367188 259.640625 152.933594 257.660156 150.269531 253.695313 C 147.714844 249.902344 147.242188 244.800781 148.84375 238.382813 C 150.261719 232.710938 153.070313 228.058594 157.273438 224.421875 C 161.570313 220.695313 166.484375 218.835938 172.011719 218.835938 C 178.214844 218.835938 182.648438 220.816406 185.316406 224.777344 C 187.867188 228.570313 188.34375 233.675781 186.738281 240.089844 C 185.320313 245.761719 182.511719 250.417969 178.3125 254.054688 C 174.011719 257.777344 169.097656 259.640625 163.570313 259.640625 Z M 163.570313 252.605469 C 167.347656 252.605469 170.726563 251.3125 173.707031 248.734375 C 176.785156 246.066406 178.855469 242.617188 179.914063 238.382813 C 181.011719 233.992188 180.867188 230.765625 179.480469 228.707031 C 178.207031 226.816406 175.71875 225.871094 172.011719 225.871094 C 168.234375 225.871094 164.855469 227.160156 161.878906 229.738281 C 158.796875 232.40625 156.730469 235.855469 155.671875 240.089844 C 154.574219 244.480469 154.71875 247.707031 156.105469 249.769531 C 157.378906 251.660156 159.867188 252.605469 163.570313 252.605469 Z M 171.675781 199.390625 C 172.988281 189.933594 174.5 180.140625 176.207031 170.011719 C 177.914063 159.878906 179.78125 149.859375 181.804688 139.957031 C 183.832031 130.050781 185.953125 120.667969 188.164063 111.8125 L 192.105469 96.054688 L 216.417969 96.054688 L 212.480469 111.8125 C 210.152344 121.121094 207.488281 130.875 204.488281 141.082031 C 201.484375 151.285156 198.324219 161.378906 195.003906 171.359375 C 191.683594 181.339844 188.410156 190.683594 185.183594 199.390625 Z M 163.570313 256.121094 C 158.617188 256.121094 155.15625 254.660156 153.1875 251.730469 C 151.214844 248.804688 150.90625 244.640625 152.257813 239.238281 C 153.496094 234.285156 155.933594 230.230469 159.574219 227.082031 C 163.214844 223.929688 167.359375 222.351563 172.011719 222.351563 C 176.964844 222.351563 180.425781 223.816406 182.398438 226.742188 C 184.367188 229.667969 184.675781 233.835938 183.324219 239.238281 C 182.085938 244.191406 179.648438 248.242188 176.007813 251.394531 C 172.367188 254.546875 168.222656 256.121094 163.570313 256.121094 Z M 163.570313 256.121094 "
     id="path8" />
</svg>
