<svg width="500" height="500" viewBox="0 0 500 500" fill="none" xmlns="http://www.w3.org/2000/svg">
<circle cx="250" cy="250" r="250" fill="url(#paint0_linear_19044_24)"/>
<path d="M259.866 384.5C242.132 384.5 225.566 381.35 210.166 375.05C194.766 368.517 181.232 359.533 169.566 348.1C157.899 336.667 148.799 323.367 142.266 308.2C135.966 292.8 132.816 276.233 132.816 258.5C132.816 241 135.966 224.667 142.266 209.5C148.799 194.333 157.782 181.15 169.216 169.95C180.882 158.517 194.416 149.65 209.816 143.35C225.216 137.05 241.782 133.9 259.516 133.9C271.882 133.9 283.899 135.65 295.566 139.15C307.466 142.65 318.199 147.55 327.766 153.85C337.332 160.15 345.149 167.383 351.216 175.55L326.716 201.1C319.716 194.333 312.482 188.733 305.016 184.3C297.782 179.867 290.316 176.483 282.616 174.15C274.916 171.817 267.216 170.65 259.516 170.65C246.916 170.65 235.249 172.867 224.516 177.3C214.016 181.733 204.682 187.917 196.516 195.85C188.582 203.783 182.399 213.117 177.966 223.85C173.532 234.35 171.316 245.9 171.316 258.5C171.316 270.633 173.649 282.183 178.316 293.15C182.982 303.883 189.399 313.333 197.566 321.5C205.966 329.667 215.532 336.083 226.266 340.75C237.232 345.417 248.782 347.75 260.916 347.75C270.016 347.75 278.649 346.467 286.816 343.9C294.982 341.1 302.216 337.25 308.516 332.35C314.816 327.45 319.716 321.85 323.216 315.55C326.716 309.017 328.466 302.133 328.466 294.9V287.9L333.716 292.8H258.816V255.35H367.316C367.782 257.917 368.132 260.483 368.366 263.05C368.599 265.383 368.716 267.717 368.716 270.05C368.949 272.15 369.066 274.25 369.066 276.35C369.066 292.45 366.266 307.15 360.666 320.45C355.066 333.517 347.249 344.833 337.216 354.4C327.416 363.967 315.866 371.433 302.566 376.8C289.499 381.933 275.266 384.5 259.866 384.5Z" fill="#00543C"/>
<defs>
<linearGradient id="paint0_linear_19044_24" x1="0" y1="250" x2="500" y2="250" gradientUnits="userSpaceOnUse">
<stop stop-color="#99F7CB"/>
<stop offset="1" stop-color="#99FFFF"/>
<stop offset="1" stop-color="#99FFFF"/>
</linearGradient>
</defs>
</svg>
