<?xml version="1.0" encoding="UTF-8" standalone="no"?>
<svg
   width="485.03998pt"
   height="400.07999pt"
   viewBox="0 0 485.03998 400.07999"
   version="1.1"
   id="svg6"
   xmlns="http://www.w3.org/2000/svg"
   xmlns:svg="http://www.w3.org/2000/svg">
  <defs
     id="defs10" />
  <path
     fill-rule="nonzero"
     fill="rgb(100%, 100%, 100%)"
     fill-opacity="1"
     stroke-width="1"
     stroke-linecap="butt"
     stroke-linejoin="miter"
     stroke="rgb(100%, 100%, 100%)"
     stroke-opacity="1"
     stroke-miterlimit="4"
     d="M 549.999651 240.001828 C 549.999651 243.763571 549.905998 247.525314 549.723894 251.287057 C 549.536587 255.043598 549.26083 258.800138 548.891419 262.546272 C 548.522009 266.292407 548.064148 270.022932 547.512634 273.748255 C 546.955917 277.473577 546.315952 281.178088 545.582334 284.872193 C 544.848716 288.561095 544.021445 292.234387 543.105723 295.886868 C 542.190001 299.534146 541.191032 303.165816 540.09841 306.766267 C 539.005787 310.366718 537.824714 313.941155 536.555191 317.484374 C 535.285667 321.027593 533.932897 324.539593 532.491676 328.015174 C 531.050454 331.495957 529.525986 334.935116 527.91827 338.337855 C 526.310554 341.740594 524.614387 345.101709 522.840177 348.4212 C 521.065966 351.740692 519.21371 355.013356 517.278208 358.244397 C 515.342705 361.470235 513.329158 364.649246 511.237566 367.781431 C 509.145974 370.908412 506.981541 373.988567 504.739063 377.01149 C 502.496586 380.034412 500.181267 383.000102 497.793106 385.908559 C 495.404945 388.822219 492.949146 391.66824 490.420505 394.457029 C 487.891865 397.245818 485.295585 399.972172 482.63687 402.636089 C 479.972953 405.294804 477.246599 407.891084 474.45781 410.419724 C 471.669021 412.948365 468.817797 415.404164 465.90934 417.792325 C 463.000883 420.180486 460.035193 422.495805 457.012271 424.738282 C 453.989348 426.98076 450.909193 429.145193 447.782212 431.236785 C 444.650027 433.328377 441.471016 435.341924 438.245178 437.277427 C 435.014137 439.212929 431.741472 441.065185 428.421981 442.839396 C 425.10249 444.618809 421.741375 446.309773 418.338636 447.917489 C 414.935897 449.525205 411.496738 451.049673 408.015955 452.490895 C 404.540374 453.932116 401.028373 455.284887 397.485155 456.55441 C 393.941936 457.823933 390.367499 459.005006 386.767048 460.097629 C 383.161394 461.190251 379.534927 462.194423 375.887649 463.104942 C 372.235168 464.020664 368.561875 464.847935 364.872974 465.581553 C 361.178869 466.315171 357.469155 466.960339 353.749036 467.511853 C 350.023713 468.063367 346.287985 468.521228 342.54185 468.890638 C 338.795716 469.260049 335.044379 469.535806 331.287838 469.723113 C 327.526095 469.905217 323.764352 469.99887 319.997406 469.99887 C 316.235662 469.99887 312.473919 469.905217 308.712176 469.723113 C 304.955635 469.535806 301.204298 469.260049 297.458164 468.890638 C 293.712029 468.521228 289.976301 468.063367 286.250978 467.511853 C 282.530859 466.960339 278.821145 466.315171 275.12704 465.581553 C 271.438139 464.847935 267.764846 464.020664 264.112365 463.104942 C 260.465087 462.194423 256.83862 461.190251 253.232966 460.097629 C 249.632515 459.005006 246.058078 457.823933 242.514859 456.55441 C 238.971641 455.284887 235.45964 453.932116 231.984059 452.490895 C 228.503276 451.049673 225.064117 449.525205 221.661378 447.917489 C 218.258639 446.309773 214.897524 444.618809 211.578033 442.839396 C 208.258542 441.065185 204.985877 439.212929 201.754836 437.277427 C 198.528998 435.341924 195.349987 433.328377 192.217802 431.236785 C 189.090821 429.145193 186.010666 426.98076 182.987743 424.738282 C 179.964821 422.495805 176.999131 420.180486 174.090674 417.792325 C 171.182217 415.404164 168.330993 412.948365 165.542204 410.419724 C 162.753415 407.891084 160.027061 405.294804 157.363144 402.636089 C 154.704429 399.972172 152.10815 397.245818 149.579509 394.457029 C 147.050868 391.66824 144.595069 388.822219 142.206908 385.908559 C 139.818748 383.000102 137.503428 380.034412 135.260951 377.01149 C 133.018473 373.988567 130.85404 370.908412 128.762448 367.781431 C 126.670856 364.649246 124.657309 361.470235 122.721806 358.244397 C 120.786304 355.013356 118.934048 351.740692 117.159837 348.4212 C 115.385627 345.101709 113.68946 341.740594 112.081744 338.337855 C 110.474028 334.935116 108.94956 331.495957 107.508338 328.015174 C 106.067117 324.539593 104.714347 321.027593 103.444823 317.484374 C 102.1753 313.941155 100.994227 310.366718 99.901604 306.766267 C 98.808982 303.165816 97.810013 299.534146 96.894291 295.886868 C 95.978569 292.234387 95.151298 288.561095 94.41768 284.872193 C 93.684062 281.178088 93.044097 277.473577 92.48738 273.748255 C 91.935866 270.022932 91.478005 266.292407 91.108595 262.546272 C 90.739184 258.800138 90.463427 255.043598 90.27612 251.287057 C 90.094017 247.525314 90.000363 243.763571 90.000363 240.001828 C 90.000363 236.234881 90.094017 232.473138 90.27612 228.716598 C 90.463427 224.954854 90.739184 221.203517 91.108595 217.457383 C 91.478005 213.711248 91.935866 209.97552 92.48738 206.250197 C 93.044097 202.530078 93.684062 198.820364 94.41768 195.131462 C 95.151298 191.437358 95.978569 187.764065 96.894291 184.116787 C 97.810013 180.464306 98.808982 176.837839 99.901604 173.232185 C 100.994227 169.631734 102.1753 166.057297 103.444823 162.514078 C 104.714347 158.97086 106.067117 155.458859 107.508338 151.983278 C 108.94956 148.507698 110.474028 145.063336 112.081744 141.660597 C 113.68946 138.257858 115.385627 134.896743 117.159837 131.577252 C 118.934048 128.257761 120.786304 124.985096 122.721806 121.754055 C 124.657309 118.528217 126.670856 115.349206 128.762448 112.217021 C 130.85404 109.09004 133.018473 106.015088 135.260951 102.986962 C 137.503428 99.96404 139.818748 96.99835 142.206908 94.089893 C 144.595069 91.181436 147.050868 88.330212 149.579509 85.541423 C 152.10815 82.752634 154.704429 80.02628 157.363144 77.367566 C 160.027061 74.703648 162.753415 72.107369 165.542204 69.578728 C 168.330993 67.05529 171.182217 64.594288 174.090674 62.206127 C 176.999131 59.817967 179.964821 57.502647 182.987743 55.26017 C 186.010666 53.017692 189.090821 50.853259 192.217802 48.761667 C 195.349987 46.670075 198.528998 44.656528 201.754836 42.721025 C 204.985877 40.785523 208.258542 38.933267 211.578033 37.159056 C 214.897524 35.384846 218.258639 33.693882 221.661378 32.080963 C 225.064117 30.473247 228.503276 28.948779 231.984059 27.507557 C 235.45964 26.066336 238.971641 24.713566 242.514859 23.444042 C 246.058078 22.174519 249.632515 20.998649 253.232966 19.906026 C 256.83862 18.813404 260.465087 17.809232 264.112365 16.89351 C 267.764846 15.977788 271.438139 15.15572 275.12704 14.416899 C 278.821145 13.683281 282.530859 13.043316 286.250978 12.491802 C 289.976301 11.935085 293.712029 11.477224 297.458164 11.107814 C 301.204298 10.738403 304.955635 10.462646 308.712176 10.275339 C 312.473919 10.093236 316.235662 9.999582 319.997406 9.999582 C 323.764352 9.999582 327.526095 10.093236 331.287838 10.275339 C 335.044379 10.462646 338.795716 10.738403 342.54185 11.107814 C 346.287985 11.477224 350.023713 11.935085 353.749036 12.491802 C 357.469155 13.043316 361.178869 13.683281 364.872974 14.416899 C 368.561875 15.15572 372.235168 15.977788 375.887649 16.89351 C 379.534927 17.809232 383.161394 18.813404 386.767048 19.906026 C 390.367499 20.998649 393.941936 22.174519 397.485155 23.444042 C 401.028373 24.713566 404.540374 26.066336 408.015955 27.507557 C 411.496738 28.948779 414.935897 30.473247 418.338636 32.080963 C 421.741375 33.693882 425.10249 35.384846 428.421981 37.159056 C 431.741472 38.933267 435.014137 40.785523 438.245178 42.721025 C 441.471016 44.656528 444.650027 46.670075 447.782212 48.761667 C 450.909193 50.853259 453.989348 53.017692 457.012271 55.26017 C 460.035193 57.502647 463.000883 59.817967 465.90934 62.206127 C 468.817797 64.594288 471.669021 67.05529 474.45781 69.578728 C 477.246599 72.107369 479.972953 74.703648 482.63687 77.367566 C 485.295585 80.02628 487.891865 82.752634 490.420505 85.541423 C 492.949146 88.330212 495.404945 91.181436 497.793106 94.089893 C 500.181267 96.99835 502.496586 99.96404 504.739063 102.986962 C 506.981541 106.015088 509.145974 109.09004 511.237566 112.217021 C 513.329158 115.349206 515.342705 118.528217 517.278208 121.754055 C 519.21371 124.985096 521.065966 128.257761 522.840177 131.577252 C 524.614387 134.896743 526.310554 138.257858 527.91827 141.660597 C 529.525986 145.063336 531.050454 148.507698 532.491676 151.983278 C 533.932897 155.458859 535.285667 158.97086 536.555191 162.514078 C 537.824714 166.057297 539.005787 169.631734 540.09841 173.232185 C 541.191032 176.837839 542.190001 180.464306 543.105723 184.116787 C 544.021445 187.764065 544.848716 191.437358 545.582334 195.131462 C 546.315952 198.820364 546.955917 202.530078 547.512634 206.250197 C 548.064148 209.97552 548.522009 213.711248 548.891419 217.457383 C 549.26083 221.203517 549.536587 224.954854 549.723894 228.716598 C 549.905998 232.473138 549.999651 236.234881 549.999651 240.001828 Z M 549.999651 240.001828 "
     transform="matrix(0.750774, 0, 0, 0.750774, 0.375387, 0.375387)"
     id="path2" />
  <path
     fill-rule="nonzero"
     fill="rgb(0%, 0%, 0%)"
     fill-opacity="1"
     d="M 214.820313 223.574219 L 217.449219 183.507813 L 220.386719 182.800781 C 227.503906 181.085938 233.980469 179.160156 239.808594 177.023438 C 245.585938 174.910156 250.671875 172.632813 255.0625 170.195313 C 259.378906 167.800781 263.109375 165.210938 266.257813 162.429688 C 269.339844 159.710938 271.859375 156.804688 273.820313 153.71875 C 275.75 150.675781 277.144531 147.441406 278 144.015625 C 279.046875 139.824219 278.898438 136.136719 277.546875 132.949219 C 276.210938 129.796875 273.878906 127.308594 270.550781 125.488281 C 267.007813 123.546875 262.605469 122.578125 257.347656 122.578125 C 251.121094 122.578125 244.453125 124.78125 237.339844 129.1875 C 229.976563 133.753906 222.980469 140.226563 216.359375 148.609375 L 213.410156 152.34375 L 191.988281 129.566406 L 194.519531 126.757813 C 205.265625 114.839844 216.859375 105.570313 229.308594 98.949219 C 241.933594 92.234375 254.28125 88.878906 266.347656 88.878906 C 278.140625 88.878906 288.171875 91.347656 296.441406 96.292969 C 304.847656 101.316406 310.824219 108.195313 314.363281 116.929688 C 317.898438 125.640625 318.328125 135.332031 315.660156 146.007813 C 314.097656 152.261719 311.308594 158.347656 307.289063 164.265625 C 303.347656 170.074219 298.441406 175.546875 292.570313 180.683594 C 286.753906 185.777344 280.304688 190.316406 273.226563 194.308594 C 266.152344 198.300781 258.675781 201.566406 250.789063 204.101563 L 249.53125 200.195313 L 253.292969 201.84375 L 241.832031 227.949219 L 214.535156 227.949219 Z M 223.015625 224.113281 L 218.917969 223.84375 L 218.917969 219.738281 L 239.152344 219.738281 L 239.152344 223.84375 L 235.390625 222.191406 L 246.515625 196.851563 L 248.273438 196.285156 C 255.628906 193.917969 262.601563 190.875 269.191406 187.15625 C 275.78125 183.441406 281.769531 179.226563 287.164063 174.503906 C 292.503906 169.832031 296.949219 164.882813 300.496094 159.65625 C 303.964844 154.539063 306.367188 149.324219 307.695313 144.015625 C 309.929688 135.070313 309.617188 127.070313 306.753906 120.015625 C 303.902344 112.980469 299.058594 107.421875 292.226563 103.339844 C 285.253906 99.171875 276.628906 97.089844 266.347656 97.089844 C 255.644531 97.089844 244.582031 100.125 233.164063 106.199219 C 221.566406 112.367188 210.71875 121.054688 200.617188 132.257813 L 197.570313 129.507813 L 200.558594 126.695313 L 216.128906 143.25 L 213.136719 146.0625 L 209.914063 143.519531 C 217.132813 134.382813 224.832031 127.277344 233.015625 122.207031 C 241.449219 116.980469 249.5625 114.367188 257.347656 114.367188 C 264.003906 114.367188 269.71875 115.671875 274.496094 118.285156 C 279.492188 121.019531 283.027344 124.839844 285.105469 129.746094 C 287.171875 134.617188 287.460938 140.039063 285.96875 146.007813 C 284.894531 150.289063 283.160156 154.328125 280.753906 158.117188 C 278.378906 161.859375 275.359375 165.351563 271.695313 168.585938 C 268.097656 171.761719 263.882813 174.691406 259.046875 177.375 C 254.28125 180.019531 248.8125 182.472656 242.632813 184.734375 C 236.507813 186.980469 229.734375 188.996094 222.3125 190.785156 L 221.347656 186.792969 L 225.445313 187.0625 Z M 196.082031 261.476563 C 197.738281 254.855469 201.015625 249.421875 205.917969 245.175781 C 210.9375 240.832031 216.671875 238.65625 223.121094 238.65625 C 230.359375 238.65625 235.535156 240.96875 238.648438 245.59375 C 241.628906 250.019531 242.183594 255.976563 240.308594 263.464844 C 238.65625 270.085938 235.375 275.519531 230.476563 279.765625 C 225.457031 284.109375 219.71875 286.285156 213.269531 286.285156 C 206.03125 286.285156 200.855469 283.972656 197.742188 279.347656 C 194.761719 274.921875 194.210938 268.964844 196.082031 261.476563 Z M 204.046875 263.464844 C 202.765625 268.589844 202.9375 272.355469 204.554688 274.761719 C 206.039063 276.96875 208.945313 278.074219 213.269531 278.074219 C 217.679688 278.074219 221.621094 276.566406 225.097656 273.554688 C 228.695313 270.445313 231.109375 266.417969 232.34375 261.476563 C 233.625 256.351563 233.457031 252.585938 231.835938 250.179688 C 230.351563 247.972656 227.445313 246.867188 223.121094 246.867188 C 218.710938 246.867188 214.769531 248.375 211.292969 251.382813 C 207.699219 254.496094 205.285156 258.523438 204.046875 263.464844 Z M 218.917969 223.84375 L 221.347656 186.792969 C 228.621094 185.039063 235.242188 183.070313 241.222656 180.878906 C 247.199219 178.691406 252.476563 176.324219 257.054688 173.785156 C 261.628906 171.246094 265.605469 168.484375 268.976563 165.507813 C 272.347656 162.53125 275.117188 159.332031 277.285156 155.917969 C 279.453125 152.5 281.019531 148.867188 281.984375 145.011719 C 283.253906 139.933594 283.035156 135.378906 281.328125 131.347656 C 279.617188 127.320313 276.683594 124.164063 272.523438 121.886719 C 268.363281 119.609375 263.304688 118.472656 257.347656 118.472656 C 250.339844 118.472656 242.953125 120.878906 235.175781 125.699219 C 227.402344 130.515625 220.058594 137.304688 213.136719 146.0625 L 197.570313 129.507813 C 207.992188 117.945313 219.214844 108.96875 231.234375 102.574219 C 243.257813 96.179688 254.960938 92.984375 266.347656 92.984375 C 277.386719 92.984375 286.714844 95.261719 294.332031 99.816406 C 301.953125 104.371094 307.363281 110.589844 310.558594 118.472656 C 313.757813 126.355469 314.128906 135.203125 311.675781 145.011719 C 310.230469 150.792969 307.636719 156.441406 303.890625 161.960938 C 300.148438 167.480469 295.472656 172.691406 289.867188 177.59375 C 284.261719 182.5 278.042969 186.878906 271.210938 190.734375 C 264.378906 194.589844 257.152344 197.742188 249.53125 200.195313 L 239.152344 223.84375 Z M 200.066406 262.46875 C 201.511719 256.691406 204.355469 251.960938 208.605469 248.28125 C 212.851563 244.601563 217.691406 242.761719 223.121094 242.761719 C 228.902344 242.761719 232.945313 244.472656 235.242188 247.886719 C 237.542969 251.304688 237.902344 256.164063 236.328125 262.46875 C 234.882813 268.25 232.035156 272.980469 227.789063 276.660156 C 223.539063 280.339844 218.699219 282.179688 213.269531 282.179688 C 207.488281 282.179688 203.449219 280.46875 201.148438 277.054688 C 198.847656 273.636719 198.488281 268.777344 200.066406 262.46875 Z M 200.066406 262.46875 "
     id="path4" />
</svg>
