<svg width="647" height="534" viewBox="0 0 647 534" fill="none" xmlns="http://www.w3.org/2000/svg">
<path d="M551.068 240.75C551.068 244.516 550.974 248.281 550.792 252.047C550.604 255.807 550.328 259.568 549.958 263.318C549.589 267.068 549.13 270.802 548.578 274.531C548.021 278.26 547.38 281.969 546.646 285.667C545.912 289.359 545.083 293.036 544.167 296.693C543.25 300.344 542.25 303.979 541.156 307.583C540.063 311.187 538.88 314.766 537.609 318.313C536.339 321.859 534.984 325.375 533.542 328.854C532.099 332.339 530.573 335.781 528.964 339.188C527.354 342.594 525.656 345.958 523.88 349.281C522.104 352.604 520.25 355.88 518.313 359.115C516.375 362.344 514.359 365.526 512.266 368.661C510.172 371.792 508.005 374.875 505.76 377.901C503.516 380.927 501.198 383.896 498.807 386.807C496.417 389.724 493.958 392.573 491.427 395.365C488.896 398.156 486.297 400.885 483.635 403.552C480.969 406.214 478.24 408.813 475.448 411.344C472.656 413.875 469.802 416.333 466.891 418.724C463.979 421.115 461.01 423.432 457.984 425.677C454.958 427.922 451.875 430.089 448.745 432.182C445.609 434.276 442.427 436.292 439.198 438.229C435.964 440.167 432.688 442.021 429.365 443.797C426.042 445.578 422.677 447.271 419.271 448.88C415.865 450.49 412.422 452.016 408.938 453.458C405.458 454.901 401.943 456.255 398.396 457.526C394.849 458.797 391.271 459.979 387.667 461.073C384.057 462.167 380.427 463.172 376.776 464.083C373.12 465 369.443 465.828 365.75 466.563C362.052 467.297 358.339 467.943 354.615 468.495C350.885 469.047 347.146 469.505 343.396 469.875C339.646 470.245 335.891 470.521 332.13 470.708C328.365 470.891 324.599 470.984 320.828 470.984C317.063 470.984 313.297 470.891 309.531 470.708C305.771 470.521 302.016 470.245 298.266 469.875C294.516 469.505 290.776 469.047 287.047 468.495C283.323 467.943 279.609 467.297 275.911 466.563C272.219 465.828 268.542 465 264.885 464.083C261.234 463.172 257.604 462.167 253.995 461.073C250.391 459.979 246.813 458.797 243.266 457.526C239.719 456.255 236.203 454.901 232.724 453.458C229.24 452.016 225.797 450.49 222.391 448.88C218.984 447.271 215.62 445.578 212.297 443.797C208.974 442.021 205.698 440.167 202.464 438.229C199.234 436.292 196.052 434.276 192.917 432.182C189.786 430.089 186.703 427.922 183.677 425.677C180.651 423.432 177.682 421.115 174.771 418.724C171.859 416.333 169.005 413.875 166.214 411.344C163.422 408.813 160.693 406.214 158.026 403.552C155.365 400.885 152.766 398.156 150.234 395.365C147.703 392.573 145.245 389.724 142.854 386.807C140.464 383.896 138.146 380.927 135.901 377.901C133.656 374.875 131.49 371.792 129.396 368.661C127.302 365.526 125.286 362.344 123.349 359.115C121.411 355.88 119.557 352.604 117.781 349.281C116.005 345.958 114.307 342.594 112.698 339.188C111.089 335.781 109.563 332.339 108.12 328.854C106.677 325.375 105.323 321.859 104.052 318.313C102.781 314.766 101.599 311.187 100.505 307.583C99.4115 303.979 98.4115 300.344 97.4948 296.693C96.5781 293.036 95.75 289.359 95.0156 285.667C94.2812 281.969 93.6406 278.26 93.0833 274.531C92.5312 270.802 92.0729 267.068 91.7031 263.318C91.3333 259.568 91.0573 255.807 90.8698 252.047C90.6875 248.281 90.5938 244.516 90.5938 240.75C90.5938 236.979 90.6875 233.214 90.8698 229.453C91.0573 225.687 91.3333 221.932 91.7031 218.182C92.0729 214.432 92.5312 210.693 93.0833 206.964C93.6406 203.24 94.2812 199.526 95.0156 195.833C95.75 192.135 96.5781 188.458 97.4948 184.807C98.4115 181.151 99.4115 177.521 100.505 173.911C101.599 170.307 102.781 166.729 104.052 163.182C105.323 159.635 106.677 156.12 108.12 152.641C109.563 149.161 111.089 145.714 112.698 142.307C114.307 138.901 116.005 135.536 117.781 132.214C119.557 128.891 121.411 125.615 123.349 122.38C125.286 119.151 127.302 115.969 129.396 112.833C131.49 109.703 133.656 106.625 135.901 103.594C138.146 100.568 140.464 97.5989 142.854 94.6875C145.245 91.776 147.703 88.9218 150.234 86.1302C152.766 83.3385 155.365 80.6093 158.026 77.9479C160.693 75.2812 163.422 72.6823 166.214 70.151C169.005 67.625 171.859 65.1614 174.771 62.7708C177.682 60.3802 180.651 58.0625 183.677 55.8177C186.703 53.5729 189.786 51.4062 192.917 49.3125C196.052 47.2187 199.234 45.2031 202.464 43.2656C205.698 41.3281 208.974 39.4739 212.297 37.6979C215.62 35.9218 218.984 34.2291 222.391 32.6145C225.797 31.0052 229.24 29.4791 232.724 28.0364C236.203 26.5937 239.719 25.2395 243.266 23.9687C246.813 22.6979 250.391 21.5208 253.995 20.427C257.604 19.3333 261.234 18.3281 264.885 17.4114C268.542 16.4948 272.219 15.6718 275.911 14.9323C279.609 14.1979 283.323 13.5573 287.047 13.0052C290.776 12.4479 294.516 11.9895 298.266 11.6198C302.016 11.25 305.771 10.9739 309.531 10.7864C313.297 10.6041 317.063 10.5104 320.828 10.5104C324.599 10.5104 328.365 10.6041 332.13 10.7864C335.891 10.9739 339.646 11.25 343.396 11.6198C347.146 11.9895 350.885 12.4479 354.615 13.0052C358.339 13.5573 362.052 14.1979 365.75 14.9323C369.443 15.6718 373.12 16.4948 376.776 17.4114C380.427 18.3281 384.057 19.3333 387.667 20.427C391.271 21.5208 394.849 22.6979 398.396 23.9687C401.943 25.2395 405.458 26.5937 408.938 28.0364C412.422 29.4791 415.865 31.0052 419.271 32.6145C422.677 34.2291 426.042 35.9218 429.365 37.6979C432.688 39.4739 435.964 41.3281 439.198 43.2656C442.427 45.2031 445.609 47.2187 448.745 49.3125C451.875 51.4062 454.958 53.5729 457.984 55.8177C461.01 58.0625 463.979 60.3802 466.891 62.7708C469.802 65.1614 472.656 67.625 475.448 70.151C478.24 72.6823 480.969 75.2812 483.635 77.9479C486.297 80.6093 488.896 83.3385 491.427 86.1302C493.958 88.9218 496.417 91.776 498.807 94.6875C501.198 97.5989 503.516 100.568 505.76 103.594C508.005 106.625 510.172 109.703 512.266 112.833C514.359 115.969 516.375 119.151 518.313 122.38C520.25 125.615 522.104 128.891 523.88 132.214C525.656 135.536 527.354 138.901 528.964 142.307C530.573 145.714 532.099 149.161 533.542 152.641C534.984 156.12 536.339 159.635 537.609 163.182C538.88 166.729 540.063 170.307 541.156 173.911C542.25 177.521 543.25 181.151 544.167 184.807C545.083 188.458 545.912 192.135 546.646 195.833C547.38 199.526 548.021 203.24 548.578 206.964C549.13 210.693 549.589 214.432 549.958 218.182C550.328 221.932 550.604 225.687 550.792 229.453C550.974 233.214 551.068 236.979 551.068 240.75Z" fill="black" stroke="black" stroke-width="1.00103"/>
<path d="M286.427 298.099L289.932 244.677L293.849 243.734C303.339 241.448 311.974 238.88 319.745 236.031C327.448 233.214 334.229 230.177 340.083 226.927C345.839 223.734 350.813 220.281 355.01 216.573C359.12 212.948 362.479 209.073 365.094 204.958C367.667 200.901 369.526 196.589 370.667 192.021C372.063 186.432 371.865 181.516 370.063 177.266C368.281 173.063 365.172 169.745 360.734 167.318C356.01 164.729 350.141 163.438 343.13 163.438C334.828 163.438 325.938 166.375 316.453 172.25C306.635 178.339 297.307 186.969 288.479 198.146L284.547 203.125L255.984 172.755L259.359 169.01C273.688 153.12 289.146 140.76 305.745 131.932C322.578 122.979 339.042 118.505 355.13 118.505C370.854 118.505 384.229 121.797 395.255 128.391C406.464 135.089 414.432 144.26 419.151 155.906C423.865 167.521 424.438 180.443 420.88 194.677C418.797 203.016 415.078 211.13 409.719 219.021C404.464 226.766 397.922 234.063 390.094 240.912C382.339 247.703 373.74 253.755 364.302 259.078C354.87 264.401 344.901 268.755 334.385 272.135L332.708 266.927L337.724 269.125L322.443 303.932H286.047L286.427 298.099ZM297.354 298.818L291.891 298.458V292.984H318.87V298.458L313.854 296.255L328.688 262.469L331.031 261.714C340.839 258.557 350.135 254.5 358.922 249.542C367.708 244.589 375.693 238.969 382.885 232.672C390.005 226.443 395.932 219.844 400.661 212.875C405.286 206.052 408.49 199.099 410.26 192.021C413.24 180.094 412.823 169.427 409.005 160.021C405.203 150.641 398.745 143.229 389.635 137.786C380.339 132.229 368.839 129.453 355.13 129.453C340.859 129.453 326.109 133.5 310.885 141.599C295.422 149.823 280.958 161.406 267.49 176.344L263.427 172.677L267.411 168.927L288.172 191L284.182 194.75L279.885 191.359C289.51 179.177 299.776 169.703 310.688 162.943C321.932 155.974 332.75 152.49 343.13 152.49C352.005 152.49 359.625 154.229 365.995 157.714C372.656 161.359 377.37 166.453 380.141 172.995C382.896 179.49 383.281 186.719 381.292 194.677C379.859 200.385 377.547 205.771 374.339 210.823C371.172 215.813 367.146 220.469 362.26 224.781C357.464 229.016 351.844 232.922 345.396 236.5C339.042 240.026 331.75 243.297 323.51 246.313C315.344 249.307 306.313 251.995 296.417 254.38L295.13 249.057L300.594 249.417L297.354 298.818ZM261.443 348.635C263.651 339.807 268.021 332.563 274.557 326.901C281.25 321.109 288.896 318.208 297.495 318.208C307.146 318.208 314.047 321.292 318.198 327.458C322.172 333.359 322.911 341.302 320.411 351.287C318.208 360.115 313.833 367.359 307.302 373.021C300.609 378.813 292.958 381.714 284.359 381.714C274.708 381.714 267.807 378.63 263.656 372.464C259.682 366.563 258.948 358.62 261.443 348.635ZM272.063 351.287C270.354 358.12 270.583 363.141 272.74 366.349C274.719 369.292 278.594 370.766 284.359 370.766C290.24 370.766 295.495 368.755 300.13 364.74C304.927 360.594 308.146 355.224 309.792 348.635C311.5 341.802 311.276 336.781 309.115 333.573C307.135 330.63 303.26 329.156 297.495 329.156C291.615 329.156 286.359 331.167 281.724 335.177C276.932 339.328 273.714 344.698 272.063 351.287ZM291.891 298.458L295.13 249.057C304.828 246.719 313.656 244.094 321.63 241.172C329.599 238.255 336.635 235.099 342.74 231.714C348.839 228.328 354.141 224.646 358.635 220.677C363.13 216.708 366.823 212.443 369.714 207.891C372.604 203.333 374.693 198.49 375.979 193.349C377.672 186.578 377.38 180.505 375.104 175.13C372.823 169.76 368.911 165.552 363.365 162.516C357.818 159.479 351.073 157.964 343.13 157.964C333.786 157.964 323.938 161.172 313.568 167.599C303.203 174.021 293.411 183.073 284.182 194.75L263.427 172.677C277.323 157.26 292.286 145.292 308.313 136.766C324.344 128.24 339.948 123.979 355.13 123.979C369.849 123.979 382.286 127.016 392.443 133.089C402.604 139.162 409.818 147.453 414.078 157.964C418.344 168.474 418.839 180.271 415.568 193.349C413.641 201.057 410.182 208.589 405.188 215.948C400.198 223.307 393.964 230.255 386.49 236.792C379.016 243.333 370.724 249.172 361.615 254.313C352.505 259.453 342.87 263.656 332.708 266.927L318.87 298.458H291.891ZM266.755 349.958C268.682 342.255 272.474 335.948 278.141 331.042C283.802 326.135 290.255 323.682 297.495 323.682C305.203 323.682 310.594 325.964 313.656 330.516C316.724 335.073 317.203 341.552 315.104 349.958C313.177 357.667 309.38 363.974 303.719 368.88C298.052 373.787 291.599 376.24 284.359 376.24C276.651 376.24 271.266 373.958 268.198 369.406C265.13 364.849 264.651 358.37 266.755 349.958Z" fill="white"/>
</svg>
