<svg width="500" height="500" viewBox="0 0 500 500" fill="none" xmlns="http://www.w3.org/2000/svg">
<circle cx="250" cy="250" r="250" fill="url(#paint0_linear_19043_6)"/>
<path d="M227.32 384.5C219.386 384.5 211.803 383.45 204.57 381.35C197.336 379.25 190.57 376.217 184.27 372.25C178.203 368.283 172.72 363.617 167.82 358.25C162.92 352.65 158.72 346.583 155.22 340.05L179.02 315.2C183.92 322.2 188.353 327.8 192.32 332C196.52 336.2 200.486 339.467 204.22 341.8C207.953 344.133 211.686 345.767 215.42 346.7C219.153 347.4 223.12 347.75 227.32 347.75C235.72 347.75 243.07 345.883 249.37 342.15C255.67 338.183 260.57 332.817 264.07 326.05C267.57 319.283 269.32 311.583 269.32 302.95V171H224.52V136H344.92V171H307.12V306.45C307.12 317.65 305.136 328.033 301.17 337.6C297.436 346.933 291.953 355.1 284.72 362.1C277.72 369.1 269.32 374.583 259.52 378.55C249.953 382.517 239.22 384.5 227.32 384.5Z" fill="#00543C"/>
<defs>
<linearGradient id="paint0_linear_19043_6" x1="0" y1="250" x2="500" y2="250" gradientUnits="userSpaceOnUse">
<stop stop-color="#99F7CB"/>
<stop offset="1" stop-color="#99FFFF"/>
<stop offset="1" stop-color="#99FFFF"/>
</linearGradient>
</defs>
</svg>
