<svg width="582" height="534" viewBox="0 0 582 534" fill="none" xmlns="http://www.w3.org/2000/svg">
<path d="M485.776 240.635C485.776 244.406 485.687 248.167 485.5 251.932C485.318 255.693 485.042 259.448 484.672 263.193C484.302 266.943 483.838 270.682 483.286 274.406C482.734 278.13 482.094 281.838 481.354 285.536C480.62 289.229 479.797 292.901 478.88 296.557C477.969 300.208 476.963 303.838 475.87 307.443C474.776 311.047 473.594 314.62 472.328 318.167C471.057 321.713 469.703 325.224 468.26 328.703C466.818 332.187 465.292 335.625 463.682 339.031C462.073 342.437 460.38 345.802 458.604 349.12C456.828 352.443 454.974 355.719 453.036 358.948C451.099 362.182 449.088 365.359 446.995 368.495C444.901 371.625 442.734 374.703 440.489 377.729C438.245 380.75 435.932 383.719 433.542 386.63C431.151 389.542 428.693 392.396 426.161 395.187C423.635 397.974 421.036 400.703 418.375 403.364C415.713 406.031 412.984 408.625 410.193 411.156C407.401 413.682 404.552 416.14 401.641 418.531C398.729 420.922 395.76 423.239 392.734 425.479C389.708 427.724 386.63 429.89 383.5 431.984C380.37 434.078 377.187 436.094 373.958 438.026C370.729 439.963 367.453 441.823 364.13 443.594C360.807 445.37 357.443 447.062 354.042 448.677C350.635 450.286 347.193 451.812 343.713 453.25C340.234 454.693 336.724 456.047 333.177 457.318C329.63 458.588 326.052 459.765 322.448 460.859C318.844 461.953 315.219 462.958 311.562 463.875C307.911 464.786 304.234 465.614 300.542 466.349C296.849 467.083 293.141 467.724 289.411 468.281C285.687 468.833 281.953 469.292 278.203 469.661C274.453 470.031 270.698 470.307 266.937 470.495C263.177 470.677 259.411 470.771 255.646 470.771C251.88 470.771 248.115 470.677 244.354 470.495C240.594 470.307 236.838 470.031 233.088 469.661C229.344 469.292 225.604 468.833 221.88 468.281C218.156 467.724 214.443 467.083 210.75 466.349C207.057 465.614 203.38 464.786 199.729 463.875C196.078 462.958 192.448 461.953 188.844 460.859C185.24 459.765 181.661 458.588 178.12 457.318C174.573 456.047 171.057 454.693 167.578 453.25C164.099 451.812 160.656 450.286 157.25 448.677C153.849 447.062 150.484 445.37 147.161 443.594C143.844 441.823 140.568 439.963 137.333 438.026C134.104 436.094 130.922 434.078 127.792 431.984C124.661 429.89 121.583 427.724 118.557 425.479C115.531 423.239 112.562 420.922 109.651 418.531C106.74 416.14 103.891 413.682 101.099 411.156C98.3073 408.625 95.5833 406.031 92.9166 403.364C90.2552 400.703 87.6614 397.974 85.1302 395.187C82.5989 392.396 80.1406 389.542 77.75 386.63C75.3646 383.719 73.0469 380.75 70.8021 377.729C68.5573 374.703 66.3906 371.625 64.2969 368.495C62.2083 365.359 60.1927 362.182 58.2552 358.948C56.3177 355.719 54.4635 352.443 52.6875 349.12C50.9115 345.802 49.2187 342.437 47.6094 339.031C46 335.625 44.474 332.187 43.0312 328.703C41.5885 325.224 40.2344 321.713 38.9687 318.167C37.6979 314.62 36.5156 311.047 35.4219 307.443C34.3333 303.838 33.3281 300.208 32.4115 296.557C31.4948 292.901 30.6719 289.229 29.9375 285.536C29.2031 281.838 28.5573 278.13 28.0052 274.406C27.4531 270.682 26.9896 266.943 26.625 263.193C26.2552 259.448 25.9792 255.693 25.7917 251.932C25.6094 248.167 25.5156 244.406 25.5156 240.635C25.5156 236.87 25.6094 233.109 25.7917 229.344C25.9792 225.583 26.2552 221.828 26.625 218.083C26.9896 214.333 27.4531 210.594 28.0052 206.87C28.5573 203.146 29.2031 199.437 29.9375 195.739C30.6719 192.047 31.4948 188.375 32.4115 184.719C33.3281 181.068 34.3333 177.437 35.4219 173.833C36.5156 170.229 37.6979 166.656 38.9687 163.109C40.2344 159.562 41.5885 156.052 43.0312 152.568C44.474 149.088 46 145.651 47.6094 142.245C49.2187 138.838 50.9115 135.474 52.6875 132.156C54.4635 128.833 56.3177 125.557 58.2552 122.328C60.1927 119.094 62.2083 115.917 64.2969 112.781C66.3906 109.651 68.5573 106.573 70.8021 103.547C73.0469 100.521 75.3646 97.5572 77.75 94.6458C80.1406 91.7343 82.5989 88.8802 85.1302 86.0885C87.6614 83.302 90.2552 80.5729 92.9166 77.9114C95.5833 75.2447 98.3073 72.651 101.099 70.1198C103.891 67.5937 106.74 65.1354 109.651 62.7448C112.562 60.3541 115.531 58.0364 118.557 55.7916C121.583 53.552 124.661 51.3802 127.792 49.2916C130.922 47.1979 134.104 45.1823 137.333 43.2448C140.568 41.3125 143.844 39.4531 147.161 37.6823C150.484 35.9062 153.849 34.2135 157.25 32.5989C160.656 30.9896 164.099 29.4635 167.578 28.026C171.057 26.5833 174.573 25.2291 178.12 23.9583C181.661 22.6875 185.24 21.5104 188.844 20.4166C192.448 19.3229 196.078 18.3177 199.729 17.401C203.38 16.4896 207.057 15.6614 210.75 14.9271C214.443 14.1927 218.156 13.5521 221.88 12.9948C225.604 12.4427 229.344 11.9844 233.088 11.6146C236.838 11.2448 240.594 10.9687 244.354 10.7812C248.115 10.5989 251.88 10.5052 255.646 10.5052C259.411 10.5052 263.177 10.5989 266.937 10.7812C270.698 10.9687 274.453 11.2448 278.203 11.6146C281.953 11.9844 285.687 12.4427 289.411 12.9948C293.141 13.5521 296.849 14.1927 300.542 14.9271C304.234 15.6614 307.911 16.4896 311.562 17.401C315.219 18.3177 318.844 19.3229 322.448 20.4166C326.052 21.5104 329.63 22.6875 333.177 23.9583C336.724 25.2291 340.234 26.5833 343.713 28.026C347.193 29.4635 350.635 30.9896 354.042 32.5989C357.443 34.2135 360.807 35.9062 364.13 37.6823C367.453 39.4531 370.729 41.3125 373.958 43.2448C377.187 45.1823 380.37 47.1979 383.5 49.2916C386.63 51.3802 389.708 53.552 392.734 55.7916C395.76 58.0364 398.729 60.3541 401.641 62.7448C404.552 65.1354 407.401 67.5937 410.193 70.1198C412.984 72.651 415.713 75.2447 418.375 77.9114C421.036 80.5729 423.635 83.302 426.161 86.0885C428.693 88.8802 431.151 91.7343 433.542 94.6458C435.932 97.5572 438.245 100.521 440.489 103.547C442.734 106.573 444.901 109.651 446.995 112.781C449.088 115.917 451.099 119.094 453.036 122.328C454.974 125.557 456.828 128.833 458.604 132.156C460.38 135.474 462.073 138.838 463.682 142.245C465.292 145.651 466.818 149.088 468.26 152.568C469.703 156.052 471.057 159.562 472.328 163.109C473.594 166.656 474.776 170.229 475.87 173.833C476.963 177.437 477.969 181.068 478.88 184.719C479.797 188.375 480.62 192.047 481.354 195.739C482.094 199.437 482.734 203.146 483.286 206.87C483.838 210.594 484.302 214.333 484.672 218.083C485.042 221.828 485.318 225.583 485.5 229.344C485.687 233.109 485.776 236.87 485.776 240.635Z" fill="black" stroke="black" stroke-width="1.00057"/>
<path d="M400.165 132.759V166.759C394.691 189.233 389.509 207.405 384.624 221.28C372.509 217.571 361.374 214.738 351.207 212.78C357.066 197.738 361.561 183.082 364.686 168.8H306.936C300.879 186.207 294.337 202.233 287.311 216.884C281.238 210.832 272.15 203.207 260.04 194.009C275.483 165.483 286.816 131.191 294.04 91.1337L327.749 96.6962C324.717 109.212 321.592 121.233 318.374 132.759H400.165ZM113.478 103.446H276.749V133.925H258.582V220.113H225.457V133.925H113.478V103.446ZM122.561 148.28H210.207V213.655H122.561V148.28ZM180.603 189.613V172.321H152.165V189.613H180.603ZM308.707 186.405H341.54C341.54 200.378 341.145 213.42 340.353 225.53C354.228 281.321 375.233 320.457 403.374 342.925C394.775 355.634 387.254 367.556 380.811 378.696C358.728 359.639 341.728 331.748 329.811 295.009C321.796 324.608 303.915 353.769 276.165 382.509C269.624 373.41 263.363 365.009 257.395 357.3C255.447 365.009 251.884 370.811 246.707 374.717C241.525 378.634 235.316 380.863 228.082 381.405C220.858 381.946 207.77 382.118 188.811 381.925C187.046 369.993 184.603 358.748 181.478 348.196C195.353 349.373 205.124 349.967 210.79 349.967C220.957 349.967 226.04 343.415 226.04 330.321V258.509H109.957V228.03H283.79V258.509H259.165V342.342C277.832 323.873 290.754 303.061 297.936 279.905C305.113 256.753 308.707 225.587 308.707 186.405ZM120.52 273.467H209.915V339.988H150.124V357.009H120.52V273.467ZM180.311 315.967V297.488H150.124V315.967H180.311Z" fill="white"/>
</svg>
