<svg width="250" height="250" viewBox="0 0 250 250" fill="none" xmlns="http://www.w3.org/2000/svg">
<path fill-rule="evenodd" clip-rule="evenodd" d="M161.563 149.479C173.236 140.227 177.702 122.814 166.979 95.9493C188.644 113.878 197.918 120.397 211 124.661L211 124.5C211 76.1751 171.825 37 123.5 37C113.028 37 102.986 38.8396 93.6789 42.2132C111.604 47.5852 124 59.1276 124 72.5C124 81.1223 118.846 88.9838 110.38 94.921L161.563 149.479ZM96.3764 101.918C88.8399 104.521 80.1933 106 71 106C59.2578 106 48.4075 103.586 39.6231 99.5013C37.2658 107.422 36 115.813 36 124.5C36 157.663 54.449 186.517 81.6435 201.358C80.4873 196.784 79.2572 192.105 78.0318 187.443L78.0314 187.442L78.0313 187.441C68.64 151.715 59.5308 117.061 86.1355 139.396C103.956 154.357 128.738 160.664 147.284 156.182L96.3764 101.918ZM209.268 141.909C200.833 135.563 196.81 135.625 201.818 149.55C202.83 152.364 203.668 155.217 204.329 158.069C206.473 152.913 208.138 147.508 209.268 141.909ZM161.579 203.302C148.716 198.266 132.908 187.889 113.945 170.32C102.228 170.222 100.657 184.873 106.558 210.361C112.039 211.436 117.704 212 123.5 212C137.148 212 150.067 208.875 161.579 203.302Z" fill="url(#paint0_linear_18849_395)"/>
<defs>
<linearGradient id="paint0_linear_18849_395" x1="123.5" y1="37" x2="123.5" y2="212" gradientUnits="userSpaceOnUse">
<stop stop-color="#6979F8"/>
<stop offset="1" stop-color="#FF647C"/>
</linearGradient>
</defs>
</svg>
