<?xml version="1.0" encoding="UTF-8" standalone="no"?>
<svg
   width="436.07999pt"
   height="400.07999pt"
   viewBox="0 0 436.07999 400.07999"
   version="1.1"
   id="svg8"
   xmlns="http://www.w3.org/2000/svg"
   xmlns:svg="http://www.w3.org/2000/svg">
  <defs
     id="defs12" />
  <path
     fill-rule="nonzero"
     fill="rgb(100%, 100%, 100%)"
     fill-opacity="1"
     stroke-width="1"
     stroke-linecap="butt"
     stroke-linejoin="miter"
     stroke="rgb(100%, 100%, 100%)"
     stroke-opacity="1"
     stroke-miterlimit="4"
     d="M 484.997549 239.997462 C 484.997549 243.766134 484.909059 247.524394 484.721666 251.287861 C 484.539479 255.046121 484.263595 258.799177 483.894016 262.541822 C 483.524436 266.289672 483.06116 270.027111 482.509393 273.748935 C 481.957627 277.470758 481.317369 281.176965 480.578209 284.872762 C 479.844255 288.563353 479.021811 292.233123 478.105669 295.887277 C 477.194734 299.536226 476.190102 303.164353 475.096979 306.766453 C 474.003856 310.368554 472.822242 313.939422 471.557342 317.484264 C 470.287238 321.029105 468.933847 324.53751 467.491966 328.014682 C 466.050085 331.497059 464.524918 334.932588 462.916466 338.336886 C 461.308013 341.741183 459.616275 345.103837 457.841252 348.419644 C 456.066228 351.740655 454.213125 355.014819 452.276736 358.242134 C 450.340346 361.474655 448.331082 364.649917 446.238532 367.783536 C 444.145983 370.91195 441.980558 373.98831 439.737054 377.012617 C 437.493549 380.031719 435.182375 382.998767 432.79312 385.908556 C 430.403866 388.818345 427.946942 391.670875 425.417143 394.460942 C 422.892549 397.245802 420.295081 399.973405 417.635148 402.633337 C 414.975216 405.298475 412.247614 407.890738 409.457548 410.420537 C 406.667481 412.94513 403.820156 415.402054 400.910367 417.791309 C 398.000578 420.180563 395.03353 422.496943 392.009223 424.735242 C 388.984916 426.978747 385.908556 429.144172 382.780142 431.236721 C 379.651728 433.329271 376.471261 435.34374 373.243945 437.274924 C 370.01663 439.211313 366.742467 441.069622 363.421455 442.839441 C 360.100443 444.614464 356.737789 446.306202 353.338697 447.91986 C 349.9344 449.528312 346.493665 451.053479 343.016493 452.490155 C 339.539321 453.932036 336.030917 455.285426 332.486075 456.555531 C 328.941233 457.825636 325.36516 459.002044 321.763059 460.095167 C 318.160959 461.18829 314.538037 462.192922 310.883883 463.109064 C 307.234935 464.019999 303.559959 464.84765 299.869368 465.581604 C 296.178777 466.315558 292.472569 466.955815 288.745541 467.512787 C 285.023717 468.064554 281.291483 468.522625 277.543633 468.892204 C 273.795783 469.261784 270.042727 469.537668 266.284466 469.72506 C 262.526206 469.907247 258.762739 470.000944 254.999273 470.000944 C 251.235807 470.000944 247.472341 469.907247 243.71408 469.72506 C 239.955819 469.537668 236.202764 469.261784 232.454914 468.892204 C 228.712269 468.522625 224.974829 468.064554 221.253006 467.512787 C 217.531182 466.955815 213.81977 466.315558 210.129178 465.581604 C 206.438587 464.84765 202.763612 464.019999 199.114663 463.109064 C 195.465715 462.192922 191.837588 461.18829 188.235487 460.095167 C 184.633387 459.002044 181.057313 457.825636 177.517677 456.555531 C 173.972835 455.285426 170.459226 453.932036 166.982054 452.490155 C 163.504881 451.053479 160.064147 449.528312 156.65985 447.91986 C 153.260758 446.306202 149.898103 444.614464 146.577092 442.839441 C 143.261285 441.069622 139.987122 439.211313 136.754601 437.274924 C 133.527286 435.34374 130.346818 433.329271 127.218405 431.236721 C 124.089991 429.144172 121.01363 426.978747 117.989324 424.735242 C 114.965017 422.496943 111.997969 420.180563 109.088179 417.791309 C 106.17839 415.402054 103.331065 412.94513 100.540999 410.420537 C 97.750933 407.890738 95.028536 405.298475 92.363398 402.633337 C 89.703466 399.973405 87.111203 397.245802 84.581404 394.460942 C 82.051605 391.670875 79.594681 388.818345 77.205426 385.908556 C 74.821377 382.998767 72.504998 380.031719 70.261493 377.012617 C 68.017988 373.98831 65.852564 370.91195 63.760014 367.783536 C 61.67267 364.649917 59.6582 361.474655 57.721811 358.242134 C 55.785422 355.014819 53.932318 351.740655 52.157295 348.419644 C 50.382271 345.103837 48.690533 341.741183 47.082081 338.336886 C 45.473629 334.932588 43.948462 331.497059 42.50658 328.014682 C 41.064699 324.53751 39.711309 321.029105 38.446409 317.484264 C 37.176305 313.939422 35.994691 310.368554 34.901568 306.766453 C 33.81365 303.164353 32.809018 299.536226 31.892877 295.887277 C 30.976736 292.233123 30.154291 288.563353 29.420337 284.872762 C 28.686383 281.176965 28.04092 277.470758 27.489153 273.748935 C 26.937386 270.027111 26.47411 266.289672 26.109736 262.541822 C 25.740156 258.799177 25.464273 255.046121 25.27688 251.287861 C 25.094693 247.524394 25.000997 243.766134 25.000997 239.997462 C 25.000997 236.233996 25.094693 232.475735 25.27688 228.712269 C 25.464273 224.954008 25.740156 221.200952 26.109736 217.458308 C 26.47411 213.710457 26.937386 209.973018 27.489153 206.251195 C 28.04092 202.529371 28.686383 198.823164 29.420337 195.127367 C 30.154291 191.436776 30.976736 187.767006 31.892877 184.112852 C 32.809018 180.463903 33.81365 176.835776 34.901568 173.233676 C 35.994691 169.631575 37.176305 166.060707 38.446409 162.515865 C 39.711309 158.971024 41.064699 155.46262 42.50658 151.980242 C 43.948462 148.50307 45.473629 145.067541 47.082081 141.663244 C 48.690533 138.258946 50.382271 134.896292 52.157295 131.580486 C 53.932318 128.259474 55.785422 124.98531 57.721811 121.757995 C 59.6582 118.525474 61.67267 115.350212 63.760014 112.216593 C 65.852564 109.088179 68.017988 106.011819 70.261493 102.987512 C 72.504998 99.963205 74.821377 97.001363 77.205426 94.091574 C 79.594681 91.181784 82.051605 88.329254 84.581404 85.539188 C 87.111203 82.754327 89.703466 80.026725 92.363398 77.366792 C 95.028536 74.701654 97.750933 72.109391 100.540999 69.579592 C 103.331065 67.054999 106.17839 64.598075 109.088179 62.20882 C 111.997969 59.819566 114.965017 57.503186 117.989324 55.259682 C 121.01363 53.021382 124.089991 50.850752 127.218405 48.763408 C 130.346818 46.670858 133.527286 44.656389 136.754601 42.72 C 139.987122 40.788816 143.261285 38.930507 146.577092 37.160689 C 149.898103 35.385665 153.260758 33.693927 156.65985 32.08027 C 160.064147 30.471817 163.504881 28.94665 166.982054 27.509975 C 170.459226 26.068093 173.972835 24.714703 177.517677 23.444598 C 181.057313 22.174493 184.633387 20.998085 188.235487 19.904962 C 191.837588 18.811839 195.465715 17.807207 199.114663 16.891066 C 202.763612 15.98013 206.438587 15.15248 210.129178 14.418526 C 213.81977 13.684572 217.531182 13.044314 221.253006 12.487342 C 224.974829 11.935575 228.712269 11.477504 232.454914 11.107925 C 236.202764 10.738345 239.955819 10.462462 243.71408 10.275069 C 247.472341 10.092882 251.235807 9.999186 254.999273 9.999186 C 258.762739 9.999186 262.526206 10.092882 266.284466 10.275069 C 270.042727 10.462462 273.795783 10.738345 277.543633 11.107925 C 281.291483 11.477504 285.023717 11.935575 288.745541 12.487342 C 292.472569 13.044314 296.178777 13.684572 299.869368 14.418526 C 303.559959 15.15248 307.234935 15.98013 310.883883 16.891066 C 314.538037 17.807207 318.160959 18.811839 321.763059 19.904962 C 325.36516 20.998085 328.941233 22.174493 332.486075 23.444598 C 336.030917 24.714703 339.539321 26.068093 343.016493 27.509975 C 346.493665 28.94665 349.9344 30.471817 353.338697 32.08027 C 356.737789 33.693927 360.100443 35.385665 363.421455 37.160689 C 366.742467 38.930507 370.01663 40.788816 373.243945 42.72 C 376.471261 44.656389 379.651728 46.670858 382.780142 48.763408 C 385.908556 50.850752 388.984916 53.021382 392.009223 55.259682 C 395.03353 57.503186 398.000578 59.819566 400.910367 62.20882 C 403.820156 64.598075 406.667481 67.054999 409.457548 69.579592 C 412.247614 72.109391 414.975216 74.701654 417.635148 77.366792 C 420.295081 80.026725 422.892549 82.754327 425.417143 85.539188 C 427.946942 88.329254 430.403866 91.181784 432.79312 94.091574 C 435.182375 97.001363 437.493549 99.963205 439.737054 102.987512 C 441.980558 106.011819 444.145983 109.088179 446.238532 112.216593 C 448.331082 115.350212 450.340346 118.525474 452.276736 121.757995 C 454.213125 124.98531 456.066228 128.259474 457.841252 131.580486 C 459.616275 134.896292 461.308013 138.258946 462.916466 141.663244 C 464.524918 145.067541 466.050085 148.50307 467.491966 151.980242 C 468.933847 155.46262 470.287238 158.971024 471.557342 162.515865 C 472.822242 166.060707 474.003856 169.631575 475.096979 173.233676 C 476.190102 176.835776 477.194734 180.463903 478.105669 184.112852 C 479.021811 187.767006 479.844255 191.436776 480.578209 195.127367 C 481.317369 198.823164 481.957627 202.529371 482.509393 206.251195 C 483.06116 209.973018 483.524436 213.710457 483.894016 217.458308 C 484.263595 221.200952 484.539479 224.954008 484.721666 228.712269 C 484.909059 232.475735 484.997549 236.233996 484.997549 239.997462 Z M 484.997549 239.997462 "
     transform="matrix(0.75043, 0, 0, 0.75043, 0.375215, 0.375215)"
     id="path2" />
  <path
     fill-rule="nonzero"
     fill="rgb(0%, 0%, 0%)"
     fill-opacity="1"
     d="M 120.445313 127.949219 L 180.476563 127.949219 C 182.199219 127.949219 183.914063 128.03125 185.628906 128.203125 C 187.339844 128.371094 189.039063 128.621094 190.726563 128.957031 C 192.414063 129.292969 194.082031 129.710938 195.726563 130.210938 C 197.375 130.710938 198.992188 131.289063 200.582031 131.945313 C 202.171875 132.605469 203.722656 133.339844 205.242188 134.152344 C 206.757813 134.960938 208.230469 135.84375 209.664063 136.800781 C 211.09375 137.757813 212.472656 138.78125 213.804688 139.871094 C 215.132813 140.964844 216.40625 142.117188 217.621094 143.335938 C 218.839844 144.550781 219.992188 145.824219 221.085938 147.152344 C 222.175781 148.484375 223.199219 149.863281 224.15625 151.292969 C 225.113281 152.726563 225.996094 154.199219 226.804688 155.714844 C 227.617188 157.234375 228.351563 158.785156 229.011719 160.375 C 229.667969 161.964844 230.246094 163.582031 230.746094 165.230469 C 231.246094 166.875 231.664063 168.542969 232 170.230469 C 232.335938 171.917969 232.585938 173.617188 232.753906 175.328125 C 232.925781 177.042969 233.007813 178.757813 233.007813 180.476563 C 233.007813 182.199219 232.925781 183.914063 232.753906 185.628906 C 232.585938 187.339844 232.335938 189.039063 232 190.726563 C 231.664063 192.414063 231.246094 194.082031 230.746094 195.726563 C 230.246094 197.375 229.667969 198.992188 229.011719 200.582031 C 228.351563 202.171875 227.617188 203.722656 226.804688 205.242188 C 225.996094 206.757813 225.113281 208.230469 224.15625 209.664063 C 223.199219 211.09375 222.175781 212.472656 221.085938 213.804688 C 219.992188 215.132813 218.839844 216.40625 217.621094 217.621094 C 216.40625 218.839844 215.132813 219.992188 213.804688 221.085938 C 212.472656 222.175781 211.09375 223.199219 209.664063 224.15625 C 208.230469 225.113281 206.757813 225.996094 205.242188 226.804688 C 203.722656 227.617188 202.171875 228.351563 200.582031 229.011719 C 198.992188 229.667969 197.375 230.246094 195.726563 230.746094 C 194.082031 231.246094 192.414063 231.664063 190.726563 232 C 189.039063 232.335938 187.339844 232.585938 185.628906 232.753906 C 183.914063 232.925781 182.199219 233.007813 180.476563 233.007813 L 120.445313 233.007813 C 118.722656 233.007813 117.007813 232.925781 115.296875 232.753906 C 113.582031 232.585938 111.882813 232.335938 110.195313 232 C 108.507813 231.664063 106.839844 231.246094 105.195313 230.746094 C 103.550781 230.246094 101.929688 229.667969 100.339844 229.011719 C 98.753906 228.351563 97.199219 227.617188 95.679688 226.804688 C 94.164063 225.996094 92.691406 225.113281 91.261719 224.15625 C 89.828125 223.199219 88.449219 222.175781 87.121094 221.085938 C 85.789063 219.992188 84.515625 218.839844 83.300781 217.621094 C 82.082031 216.40625 80.929688 215.132813 79.835938 213.804688 C 78.746094 212.472656 77.722656 211.09375 76.765625 209.664063 C 75.8125 208.230469 74.925781 206.757813 74.117188 205.242188 C 73.304688 203.722656 72.570313 202.171875 71.914063 200.582031 C 71.253906 198.992188 70.675781 197.375 70.175781 195.726563 C 69.675781 194.082031 69.257813 192.414063 68.921875 190.726563 C 68.585938 189.039063 68.335938 187.339844 68.167969 185.628906 C 68 183.914063 67.914063 182.199219 67.914063 180.476563 C 67.914063 178.757813 68 177.042969 68.167969 175.328125 C 68.335938 173.617188 68.585938 171.917969 68.921875 170.230469 C 69.257813 168.542969 69.675781 166.875 70.175781 165.230469 C 70.675781 163.582031 71.253906 161.964844 71.914063 160.375 C 72.570313 158.785156 73.304688 157.234375 74.117188 155.714844 C 74.925781 154.199219 75.8125 152.726563 76.765625 151.292969 C 77.722656 149.863281 78.746094 148.484375 79.835938 147.152344 C 80.929688 145.824219 82.082031 144.550781 83.300781 143.335938 C 84.515625 142.117188 85.789063 140.964844 87.121094 139.871094 C 88.449219 138.78125 89.828125 137.757813 91.261719 136.800781 C 92.691406 135.84375 94.164063 134.960938 95.679688 134.152344 C 97.199219 133.339844 98.753906 132.605469 100.339844 131.945313 C 101.929688 131.289063 103.550781 130.710938 105.195313 130.210938 C 106.839844 129.710938 108.507813 129.292969 110.195313 128.957031 C 111.882813 128.621094 113.582031 128.371094 115.296875 128.203125 C 117.007813 128.03125 118.722656 127.949219 120.445313 127.949219 Z M 120.445313 127.949219 "
     id="path4" />
  <path
     fill-rule="nonzero"
     fill="rgb(0%, 0%, 0%)"
     fill-opacity="1"
     stroke-width="1"
     stroke-linecap="butt"
     stroke-linejoin="miter"
     stroke="rgb(0%, 0%, 0%)"
     stroke-opacity="1"
     stroke-miterlimit="10"
     d="M 239.997462 239.997462 L 239.997462 128.748777 C 239.997462 112.081254 246.644691 108.781064 259.928737 118.837795 L 400.072306 224.912365 C 413.356353 234.969096 413.356353 245.031033 400.072306 255.087764 L 259.928737 361.162334 C 246.644691 371.219065 239.997462 367.918875 239.997462 351.251353 Z M 239.997462 239.997462 "
     transform="matrix(0.75043, 0, 0, 0.75043, 0.375215, 0.375215)"
     id="path6" />
</svg>
