<svg width="582" height="534" viewBox="0 0 582 534" fill="none" xmlns="http://www.w3.org/2000/svg">
<path fill-rule="evenodd" clip-rule="evenodd" d="M485.776 240.635C485.776 244.406 485.687 248.166 485.5 251.932C485.318 255.692 485.042 259.447 484.672 263.192C484.302 266.942 483.838 270.682 483.286 274.406C482.734 278.13 482.094 281.838 481.354 285.536C480.62 289.229 479.797 292.901 478.88 296.557C477.969 300.208 476.963 303.838 475.87 307.442C474.776 311.046 473.594 314.619 472.328 318.166C471.057 321.713 469.703 325.224 468.26 328.703C466.818 332.187 465.292 335.625 463.682 339.031C462.073 342.437 460.38 345.802 458.604 349.119C456.828 352.442 454.974 355.718 453.036 358.947C451.099 362.182 449.088 365.359 446.995 368.494C444.901 371.625 442.734 374.703 440.49 377.729C438.245 380.75 435.932 383.718 433.542 386.63C431.151 389.541 428.693 392.395 426.161 395.187C423.635 397.974 421.036 400.703 418.375 403.364C415.713 406.031 412.984 408.625 410.193 411.156C407.401 413.682 404.552 416.14 401.641 418.531C398.729 420.921 395.76 423.239 392.734 425.479C389.708 427.723 386.63 429.89 383.5 431.984C380.37 434.078 377.187 436.093 373.958 438.026C370.729 439.963 367.453 441.822 364.13 443.593C360.807 445.369 357.443 447.062 354.042 448.677C350.635 450.286 347.193 451.812 343.713 453.25C340.234 454.692 336.724 456.046 333.177 457.317C329.63 458.588 326.052 459.765 322.448 460.859C318.844 461.953 315.219 462.958 311.562 463.875C307.911 464.786 304.234 465.614 300.542 466.348C296.849 467.083 293.141 467.723 289.411 468.281C285.687 468.833 281.953 469.291 278.203 469.661C274.453 470.031 270.698 470.307 266.937 470.494C263.177 470.677 259.411 470.77 255.646 470.77C251.88 470.77 248.115 470.677 244.354 470.494C240.594 470.307 236.839 470.031 233.089 469.661C229.344 469.291 225.604 468.833 221.88 468.281C218.156 467.723 214.443 467.083 210.75 466.348C207.057 465.614 203.38 464.786 199.729 463.875C196.078 462.958 192.448 461.953 188.844 460.859C185.24 459.765 181.661 458.588 178.12 457.317C174.573 456.046 171.057 454.692 167.578 453.25C164.099 451.812 160.656 450.286 157.25 448.677C153.849 447.062 150.484 445.369 147.161 443.593C143.844 441.822 140.568 439.963 137.333 438.026C134.104 436.093 130.922 434.078 127.792 431.984C124.661 429.89 121.583 427.723 118.557 425.479C115.531 423.239 112.562 420.921 109.651 418.531C106.74 416.14 103.891 413.682 101.099 411.156C98.3073 408.625 95.5833 406.031 92.9166 403.364C90.2552 400.703 87.6614 397.974 85.1302 395.187C82.5989 392.395 80.1406 389.541 77.75 386.63C75.3646 383.718 73.0469 380.75 70.8021 377.729C68.5573 374.703 66.3906 371.625 64.2969 368.494C62.2083 365.359 60.1927 362.182 58.2552 358.947C56.3177 355.718 54.4635 352.442 52.6875 349.119C50.9115 345.802 49.2187 342.437 47.6094 339.031C46 335.625 44.474 332.187 43.0312 328.703C41.5885 325.224 40.2344 321.713 38.9687 318.166C37.6979 314.619 36.5156 311.046 35.4219 307.442C34.3333 303.838 33.3281 300.208 32.4115 296.557C31.4948 292.901 30.6719 289.229 29.9375 285.536C29.2031 281.838 28.5573 278.13 28.0052 274.406C27.4531 270.682 26.9896 266.942 26.625 263.192C26.2552 259.447 25.9792 255.692 25.7917 251.932C25.6094 248.166 25.5156 244.406 25.5156 240.635C25.5156 236.869 25.6094 233.109 25.7917 229.343C25.9792 225.583 26.2552 221.828 26.625 218.083C26.9896 214.333 27.4531 210.593 28.0052 206.869C28.5573 203.145 29.2031 199.437 29.9375 195.739C30.6719 192.046 31.4948 188.375 32.4115 184.718C33.3281 181.067 34.3333 177.437 35.4219 173.833C36.5156 170.229 37.6979 166.656 38.9687 163.109C40.2344 159.562 41.5885 156.052 43.0312 152.567C44.474 149.088 46 145.651 47.6094 142.244C49.2187 138.838 50.9115 135.474 52.6875 132.156C54.4635 128.833 56.3177 125.557 58.2552 122.328C60.1927 119.093 62.2083 115.916 64.2969 112.781C66.3906 109.651 68.5573 106.573 70.8021 103.547C73.0469 100.52 75.3646 97.5569 77.75 94.6455C80.1406 91.734 82.5989 88.8799 85.1302 86.0882C87.6614 83.3017 90.2552 80.5726 92.9166 77.9111C95.5833 75.2444 98.3073 72.6507 101.099 70.1194C103.891 67.5934 106.74 65.1351 109.651 62.7444C112.562 60.3538 115.531 58.0361 118.557 55.7913C121.583 53.5517 124.661 51.3799 127.792 49.2913C130.922 47.1976 134.104 45.182 137.333 43.2445C140.568 41.3122 143.844 39.4528 147.161 37.682C150.484 35.9059 153.849 34.2132 157.25 32.5986C160.656 30.9893 164.099 29.4632 167.578 28.0257C171.057 26.583 174.573 25.2288 178.12 23.958C181.661 22.6872 185.24 21.5101 188.844 20.4163C192.448 19.3226 196.078 18.3174 199.729 17.4007C203.38 16.4893 207.057 15.6611 210.75 14.9268C214.443 14.1924 218.156 13.5518 221.88 12.9945C225.604 12.4424 229.344 11.984 233.089 11.6143C236.839 11.2445 240.594 10.9684 244.354 10.7809C248.115 10.5986 251.88 10.5049 255.646 10.5049C259.411 10.5049 263.177 10.5986 266.937 10.7809C270.698 10.9684 274.453 11.2445 278.203 11.6143C281.953 11.984 285.687 12.4424 289.411 12.9945C293.141 13.5518 296.849 14.1924 300.542 14.9268C304.234 15.6611 307.911 16.4893 311.562 17.4007C315.219 18.3174 318.844 19.3226 322.448 20.4163C326.052 21.5101 329.63 22.6872 333.177 23.958C336.724 25.2288 340.234 26.583 343.713 28.0257C347.193 29.4632 350.635 30.9893 354.042 32.5986C357.443 34.2132 360.807 35.9059 364.13 37.682C367.453 39.4528 370.729 41.3122 373.958 43.2445C377.187 45.182 380.37 47.1976 383.5 49.2913C386.63 51.3799 389.708 53.5517 392.734 55.7913C395.76 58.0361 398.729 60.3538 401.641 62.7444C404.552 65.1351 407.401 67.5934 410.193 70.1194C412.984 72.6507 415.713 75.2444 418.375 77.9111C421.036 80.5726 423.635 83.3017 426.161 86.0882C428.693 88.8799 431.151 91.734 433.542 94.6455C435.932 97.5569 438.245 100.52 440.49 103.547C442.734 106.573 444.901 109.651 446.995 112.781C449.088 115.916 451.099 119.093 453.036 122.328C454.974 125.557 456.828 128.833 458.604 132.156C460.38 135.474 462.073 138.838 463.682 142.244C465.292 145.651 466.818 149.088 468.26 152.567C469.703 156.052 471.057 159.562 472.328 163.109C473.594 166.656 474.776 170.229 475.87 173.833C476.963 177.437 477.969 181.067 478.88 184.718C479.797 188.375 480.62 192.046 481.354 195.739C482.094 199.437 482.734 203.145 483.286 206.869C483.838 210.593 484.302 214.333 484.672 218.083C485.042 221.828 485.318 225.583 485.5 229.343C485.687 233.109 485.776 236.869 485.776 240.635ZM146.756 249.495C146.756 145.875 183.053 94.0625 255.646 94.0625C328.235 94.0625 364.532 145.875 364.532 249.495H146.756ZM315.683 280.661H195.615C193.975 280.661 192.339 280.739 190.709 280.901C189.079 281.062 187.459 281.302 185.855 281.619C184.245 281.942 182.657 282.338 181.089 282.817C179.521 283.291 177.98 283.843 176.469 284.468C174.954 285.093 173.475 285.797 172.032 286.567C170.584 287.338 169.183 288.182 167.818 289.093C166.454 290 165.141 290.979 163.876 292.015C162.61 293.057 161.396 294.156 160.235 295.312C159.079 296.474 157.98 297.687 156.938 298.953C155.902 300.218 154.928 301.531 154.016 302.896C153.105 304.255 152.266 305.661 151.49 307.104C150.719 308.552 150.021 310.031 149.391 311.547C148.766 313.057 148.214 314.599 147.74 316.166C147.261 317.734 146.865 319.323 146.548 320.927C146.225 322.536 145.985 324.156 145.824 325.786C145.662 327.416 145.584 329.052 145.584 330.687C145.584 332.328 145.662 333.963 145.824 335.593C145.985 337.224 146.225 338.843 146.548 340.448C146.865 342.057 147.261 343.646 147.74 345.213C148.214 346.781 148.766 348.323 149.391 349.833C150.021 351.349 150.719 352.828 151.49 354.271C152.266 355.718 153.105 357.119 154.016 358.484C154.928 359.849 155.902 361.161 156.938 362.427C157.98 363.692 159.079 364.906 160.235 366.067C161.396 367.224 162.61 368.323 163.876 369.364C165.141 370.401 166.454 371.375 167.818 372.286C169.183 373.198 170.584 374.036 172.032 374.812C173.475 375.583 174.954 376.281 176.469 376.911C177.98 377.536 179.521 378.088 181.089 378.562C182.657 379.041 184.245 379.437 185.855 379.755C187.459 380.078 189.079 380.317 190.709 380.479C192.339 380.635 193.975 380.718 195.615 380.718H315.683C317.318 380.718 318.954 380.635 320.584 380.479C322.214 380.317 323.834 380.078 325.443 379.755C327.048 379.437 328.636 379.041 330.204 378.562C331.771 378.088 333.313 377.536 334.829 376.911C336.339 376.281 337.818 375.583 339.266 374.812C340.709 374.036 342.115 373.198 343.475 372.286C344.839 371.375 346.152 370.401 347.417 369.364C348.688 368.323 349.896 367.224 351.058 366.067C352.214 364.906 353.313 363.692 354.355 362.427C355.391 361.161 356.37 359.849 357.277 358.484C358.188 357.119 359.032 355.718 359.803 354.271C360.574 352.828 361.277 351.349 361.902 349.833C362.527 348.323 363.079 346.781 363.558 345.213C364.032 343.646 364.428 342.057 364.751 340.448C365.068 338.843 365.308 337.224 365.469 335.593C365.631 333.963 365.709 332.328 365.709 330.687C365.709 329.052 365.631 327.416 365.469 325.786C365.308 324.156 365.068 322.536 364.751 320.927C364.428 319.323 364.032 317.734 363.558 316.166C363.079 314.599 362.527 313.057 361.902 311.547C361.277 310.031 360.574 308.552 359.803 307.104C359.032 305.661 358.188 304.255 357.277 302.896C356.37 301.531 355.391 300.218 354.355 298.953C353.313 297.687 352.214 296.474 351.058 295.312C349.896 294.156 348.688 293.057 347.417 292.015C346.152 290.979 344.839 290 343.475 289.093C342.115 288.182 340.709 287.338 339.266 286.567C337.818 285.797 336.339 285.093 334.829 284.468C333.313 283.843 331.771 283.291 330.204 282.817C328.636 282.338 327.048 281.942 325.443 281.619C323.834 281.302 322.214 281.062 320.584 280.901C318.954 280.739 317.318 280.661 315.683 280.661Z" fill="white"/>
<path d="M485.5 251.932L485 251.907L485 251.908L485.5 251.932ZM484.672 263.192L484.174 263.143L484.174 263.143L484.672 263.192ZM483.286 274.406L482.791 274.332L482.791 274.332L483.286 274.406ZM481.354 285.536L480.863 285.438L480.863 285.438L481.354 285.536ZM478.88 296.557L478.395 296.435L478.395 296.436L478.88 296.557ZM472.328 318.166L472.799 318.335L472.799 318.334L472.328 318.166ZM468.26 328.703L467.798 328.511L467.798 328.511L468.26 328.703ZM458.604 349.119L458.163 348.883L458.163 348.884L458.604 349.119ZM453.036 358.947L452.607 358.69L452.607 358.69L453.036 358.947ZM446.995 368.494L447.411 368.773L447.411 368.772L446.995 368.494ZM440.49 377.729L440.891 378.027L440.891 378.027L440.49 377.729ZM433.542 386.63L433.928 386.947L433.928 386.947L433.542 386.63ZM426.161 395.187L425.791 394.851L425.791 394.851L426.161 395.187ZM418.375 403.364L418.021 403.01L418.021 403.011L418.375 403.364ZM410.193 411.156L410.528 411.527L410.529 411.526L410.193 411.156ZM392.734 425.479L392.437 425.077L392.436 425.077L392.734 425.479ZM383.5 431.984L383.222 431.568L383.222 431.568L383.5 431.984ZM373.958 438.026L373.701 437.596L373.701 437.597L373.958 438.026ZM364.13 443.593L363.895 443.152L363.894 443.152L364.13 443.593ZM354.042 448.677L354.255 449.129L354.256 449.129L354.042 448.677ZM343.713 453.25L343.522 452.787L343.522 452.787L343.713 453.25ZM333.177 457.317L333.346 457.788L333.346 457.788L333.177 457.317ZM311.562 463.875L311.684 464.36L311.684 464.36L311.562 463.875ZM300.542 466.348L300.639 466.839L300.639 466.839L300.542 466.348ZM289.411 468.281L289.485 468.776L289.485 468.776L289.411 468.281ZM278.203 469.661L278.154 469.163L278.154 469.163L278.203 469.661ZM266.937 470.494L266.962 470.994L266.962 470.994L266.937 470.494ZM244.354 470.494L244.329 470.994L244.33 470.994L244.354 470.494ZM233.089 469.661L233.039 470.159L233.039 470.159L233.089 469.661ZM221.88 468.281L221.806 468.776L221.807 468.776L221.88 468.281ZM199.729 463.875L199.607 464.36L199.608 464.36L199.729 463.875ZM178.12 457.317L178.289 456.846L178.288 456.846L178.12 457.317ZM167.578 453.25L167.77 452.787L167.769 452.787L167.578 453.25ZM157.25 448.677L157.035 449.129L157.036 449.129L157.25 448.677ZM147.161 443.593L147.397 443.152L147.397 443.152L147.161 443.593ZM137.333 438.026L137.59 437.596L137.59 437.596L137.333 438.026ZM127.792 431.984L127.513 432.4L127.513 432.4L127.792 431.984ZM118.557 425.479L118.855 425.077L118.855 425.077L118.557 425.479ZM109.651 418.531L109.969 418.144L109.969 418.144L109.651 418.531ZM101.099 411.156L100.763 411.526L100.763 411.527L101.099 411.156ZM92.9166 403.364L92.5629 403.718L92.5629 403.718L92.9166 403.364ZM85.1302 395.187L84.7596 395.523L84.7599 395.523L85.1302 395.187ZM77.75 386.63L77.363 386.947L77.3633 386.947L77.75 386.63ZM70.8021 377.729L70.4003 378.027L70.4005 378.027L70.8021 377.729ZM64.2969 368.494L63.8805 368.772L63.881 368.773L64.2969 368.494ZM58.2552 358.947L58.6844 358.69L58.6842 358.69L58.2552 358.947ZM52.6875 349.119L53.1287 348.884L53.1286 348.883L52.6875 349.119ZM47.6094 339.031L47.157 339.245L47.157 339.245L47.6094 339.031ZM43.0312 328.703L43.4935 328.511L43.4934 328.511L43.0312 328.703ZM38.9687 318.166L39.4399 317.998L39.4397 317.997L38.9687 318.166ZM35.4219 307.442L34.943 307.587L34.9431 307.588L35.4219 307.442ZM32.4115 296.557L31.9262 296.679L31.9262 296.679L32.4115 296.557ZM29.9375 285.536L29.4468 285.634L29.4468 285.634L29.9375 285.536ZM28.0052 274.406L27.5103 274.479L27.5103 274.479L28.0052 274.406ZM26.625 263.192L27.1229 263.144L27.1229 263.143L26.625 263.192ZM25.7917 251.932L25.292 251.956L25.292 251.957L25.7917 251.932ZM25.7917 229.343L25.292 229.318L25.292 229.319L25.7917 229.343ZM26.625 218.083L27.1229 218.132L27.1229 218.131L26.625 218.083ZM28.0052 206.869L27.5103 206.796L27.5103 206.796L28.0052 206.869ZM29.9375 195.739L29.4468 195.642L29.4468 195.642L29.9375 195.739ZM32.4115 184.718L31.9262 184.597L31.9262 184.597L32.4115 184.718ZM35.4219 173.833L34.9431 173.688L34.943 173.688L35.4219 173.833ZM38.9687 163.109L39.4397 163.278L39.4399 163.277L38.9687 163.109ZM43.0312 152.567L42.5691 152.376L42.569 152.376L43.0312 152.567ZM47.6094 142.244L47.157 142.031L47.157 142.031L47.6094 142.244ZM52.6875 132.156L53.1286 132.392L53.1287 132.392L52.6875 132.156ZM58.2552 122.328L58.6842 122.585L58.6844 122.585L58.2552 122.328ZM64.2969 112.781L63.881 112.503L63.8805 112.504L64.2969 112.781ZM70.8021 103.547L70.4003 103.248L70.4003 103.248L70.8021 103.547ZM77.75 94.6455L77.3633 94.328L77.363 94.3284L77.75 94.6455ZM85.1302 86.0882L84.7599 85.7518L84.7596 85.7521L85.1302 86.0882ZM101.099 70.1194L100.763 69.7485L100.763 69.7488L101.099 70.1194ZM109.651 62.7444L109.969 63.1311L109.969 63.1311L109.651 62.7444ZM118.557 55.7913L118.26 55.3892L118.259 55.3895L118.557 55.7913ZM127.792 49.2913L128.069 49.7075L128.07 49.7072L127.792 49.2913ZM137.333 43.2445L137.077 42.815L137.076 42.8155L137.333 43.2445ZM147.161 37.682L147.397 38.1233L147.397 38.1232L147.161 37.682ZM157.25 32.5986L157.036 32.1463L157.035 32.1467L157.25 32.5986ZM167.578 28.0257L167.769 28.4881L167.77 28.4878L167.578 28.0257ZM178.12 23.958L178.288 24.429L178.289 24.4289L178.12 23.958ZM188.844 20.4163L188.989 20.8951L188.989 20.8951L188.844 20.4163ZM199.729 17.4007L199.608 16.9153L199.607 16.9155L199.729 17.4007ZM210.75 14.9268L210.652 14.4361L210.652 14.4361L210.75 14.9268ZM221.88 12.9945L221.807 12.4996L221.806 12.4997L221.88 12.9945ZM233.089 11.6143L233.039 11.1164L233.039 11.1164L233.089 11.6143ZM244.354 10.7809L244.33 10.2812L244.329 10.2813L244.354 10.7809ZM266.937 10.7809L266.962 10.2813L266.962 10.2812L266.937 10.7809ZM278.203 11.6143L278.154 12.1121L278.154 12.1121L278.203 11.6143ZM289.411 12.9945L289.485 12.4997L289.485 12.4996L289.411 12.9945ZM300.542 14.9268L300.639 14.4361L300.639 14.4361L300.542 14.9268ZM311.562 17.4007L311.684 16.9154L311.684 16.9153L311.562 17.4007ZM322.448 20.4163L322.303 20.8951L322.303 20.8951L322.448 20.4163ZM343.713 28.0257L343.522 28.4878L343.522 28.4881L343.713 28.0257ZM354.042 32.5986L354.256 32.1467L354.255 32.1463L354.042 32.5986ZM364.13 37.682L363.894 38.1232L363.895 38.1235L364.13 37.682ZM373.958 43.2445L374.216 42.8155L374.215 42.8152L373.958 43.2445ZM383.5 49.2913L383.222 49.7072L383.222 49.7075L383.5 49.2913ZM392.734 55.7913L393.032 55.3895L393.032 55.3892L392.734 55.7913ZM410.193 70.1194L410.529 69.7488L410.528 69.7485L410.193 70.1194ZM418.375 77.9111L418.021 78.2645L418.021 78.2649L418.375 77.9111ZM426.161 86.0882L425.791 86.4242L425.791 86.4242L426.161 86.0882ZM433.542 94.6455L433.155 94.963L433.155 94.963L433.542 94.6455ZM440.49 103.547L440.891 103.248L440.891 103.248L440.49 103.547ZM446.995 112.781L447.411 112.503L447.411 112.503L446.995 112.781ZM453.036 122.328L452.607 122.585L452.607 122.585L453.036 122.328ZM458.604 132.156L458.163 132.392L458.163 132.392L458.604 132.156ZM468.26 152.567L468.723 152.376L468.722 152.376L468.26 152.567ZM472.328 163.109L472.799 162.941L472.799 162.94L472.328 163.109ZM475.87 173.833L475.391 173.978L475.391 173.978L475.87 173.833ZM478.88 184.718L478.395 184.84L478.395 184.84L478.88 184.718ZM481.354 195.739L480.863 195.837L480.863 195.837L481.354 195.739ZM483.286 206.869L482.791 206.943L482.791 206.943L483.286 206.869ZM484.672 218.083L484.174 218.132L484.174 218.132L484.672 218.083ZM485.5 229.343L485 229.368L485 229.368L485.5 229.343ZM146.756 249.495H146.256V249.995H146.756V249.495ZM364.532 249.495V249.995H365.032V249.495H364.532ZM190.709 280.901L190.758 281.399L190.758 281.399L190.709 280.901ZM185.855 281.619L185.758 281.129L185.756 281.129L185.855 281.619ZM181.089 282.817L181.234 283.296L181.235 283.296L181.089 282.817ZM176.469 284.468L176.66 284.931L176.661 284.931L176.469 284.468ZM172.032 286.567L172.267 287.009L172.268 287.009L172.032 286.567ZM167.818 289.093L168.095 289.51L168.096 289.509L167.818 289.093ZM163.876 292.015L163.559 291.628L163.558 291.629L163.876 292.015ZM160.235 295.312L159.882 294.958L159.88 294.959L160.235 295.312ZM156.938 298.953L156.552 298.635L156.551 298.636L156.938 298.953ZM154.016 302.896L154.432 303.174L154.432 303.173L154.016 302.896ZM151.49 307.104L151.05 306.867L151.049 306.869L151.49 307.104ZM149.391 311.547L148.929 311.354L148.929 311.355L149.391 311.547ZM147.74 316.166L148.219 316.313L148.219 316.311L147.74 316.166ZM146.548 320.927L147.038 321.025L147.038 321.024L146.548 320.927ZM145.824 325.786L146.321 325.835L146.321 325.835L145.824 325.786ZM145.824 335.593L146.321 335.544L146.321 335.544L145.824 335.593ZM146.548 340.448L147.038 340.351L147.038 340.349L146.548 340.448ZM147.74 345.213L148.219 345.068L148.219 345.067L147.74 345.213ZM149.391 349.833L148.929 350.024L148.929 350.025L149.391 349.833ZM151.49 354.271L151.049 354.506L151.049 354.507L151.49 354.271ZM154.016 358.484L154.432 358.206L154.432 358.206L154.016 358.484ZM156.938 362.427L156.551 362.744L156.552 362.745L156.938 362.427ZM160.235 366.067L159.88 366.42L159.882 366.422L160.235 366.067ZM163.876 369.364L163.558 369.751L163.559 369.751L163.876 369.364ZM172.032 374.812L171.796 375.253L171.796 375.253L172.032 374.812ZM176.469 376.911L176.277 377.373L176.278 377.373L176.469 376.911ZM181.089 378.562L181.235 378.084L181.234 378.083L181.089 378.562ZM185.855 379.755L185.954 379.264L185.952 379.264L185.855 379.755ZM190.709 380.479L190.66 380.977L190.661 380.977L190.709 380.479ZM320.584 380.479L320.632 380.977L320.633 380.977L320.584 380.479ZM325.443 379.755L325.346 379.264L325.345 379.264L325.443 379.755ZM330.204 378.562L330.059 378.083L330.058 378.084L330.204 378.562ZM334.829 376.911L335.02 377.374L335.021 377.373L334.829 376.911ZM339.266 374.812L339.501 375.254L339.503 375.253L339.266 374.812ZM343.475 372.286L343.197 371.87L343.196 371.871L343.475 372.286ZM347.417 369.364L347.734 369.751L347.734 369.751L347.417 369.364ZM351.058 366.067L351.411 366.422L351.413 366.42L351.058 366.067ZM354.355 362.427L354.741 362.745L354.742 362.744L354.355 362.427ZM357.277 358.484L356.861 358.206L356.86 358.207L357.277 358.484ZM359.803 354.271L359.361 354.035L359.361 354.035L359.803 354.271ZM361.902 349.833L361.439 349.642L361.439 349.642L361.902 349.833ZM363.558 345.213L364.036 345.359L364.037 345.358L363.558 345.213ZM364.751 340.448L365.241 340.546L365.241 340.545L364.751 340.448ZM365.469 335.593L365.967 335.643L365.967 335.643L365.469 335.593ZM365.469 325.786L365.967 325.737L365.967 325.737L365.469 325.786ZM364.751 320.927L365.241 320.83L365.241 320.828L364.751 320.927ZM363.558 316.166L364.037 316.022L364.036 316.02L363.558 316.166ZM361.902 311.547L361.439 311.737L361.439 311.738L361.902 311.547ZM359.803 307.104L360.244 306.869L360.244 306.868L359.803 307.104ZM357.277 302.896L356.86 303.172L356.861 303.174L357.277 302.896ZM354.355 298.953L354.742 298.636L354.741 298.635L354.355 298.953ZM351.058 295.312L351.413 294.959L351.411 294.958L351.058 295.312ZM347.417 292.015L347.734 291.628L347.734 291.628L347.417 292.015ZM343.475 289.093L343.196 289.509L343.198 289.51L343.475 289.093ZM339.266 286.567L339.502 286.126L339.501 286.126L339.266 286.567ZM334.829 284.468L335.02 284.006L335.02 284.006L334.829 284.468ZM330.204 282.817L330.058 283.296L330.059 283.296L330.204 282.817ZM325.443 281.619L325.542 281.129L325.54 281.129L325.443 281.619ZM320.584 280.901L320.535 281.399L320.535 281.399L320.584 280.901ZM486 251.957C486.188 248.182 486.276 244.414 486.276 240.635H485.276C485.276 244.398 485.187 248.15 485 251.907L486 251.957ZM485.17 263.241C485.54 259.488 485.817 255.725 486 251.956L485 251.908C484.818 255.66 484.543 259.407 484.174 263.143L485.17 263.241ZM483.781 274.479C484.334 270.747 484.799 267 485.17 263.241L484.174 263.143C483.805 266.885 483.342 270.616 482.791 274.332L483.781 274.479ZM481.845 285.634C482.586 281.928 483.228 278.211 483.781 274.479L482.791 274.332C482.241 278.049 481.601 281.749 480.863 285.438L481.845 285.634ZM479.365 296.679C480.284 293.014 481.109 289.334 481.845 285.634L480.863 285.438C480.131 289.123 479.309 292.787 478.395 296.435L479.365 296.679ZM476.348 307.588C477.445 303.976 478.452 300.337 479.365 296.678L478.395 296.436C477.485 300.078 476.482 303.701 475.391 307.297L476.348 307.588ZM472.799 318.334C474.067 314.78 475.252 311.2 476.348 307.588L475.391 307.297C474.3 310.893 473.12 314.458 471.857 317.998L472.799 318.334ZM468.722 328.894C470.168 325.407 471.525 321.889 472.799 318.335L471.857 317.997C470.589 321.537 469.238 325.04 467.798 328.511L468.722 328.894ZM464.135 339.245C465.747 335.831 467.277 332.386 468.723 328.894L467.798 328.511C466.359 331.988 464.836 335.418 463.23 338.817L464.135 339.245ZM459.045 349.355C460.825 346.03 462.522 342.658 464.135 339.245L463.23 338.817C461.624 342.216 459.935 345.573 458.163 348.883L459.045 349.355ZM453.465 359.205C455.407 355.968 457.265 352.685 459.045 349.355L458.163 348.884C456.391 352.199 454.54 355.468 452.607 358.69L453.465 359.205ZM447.411 368.772C449.509 365.63 451.524 362.446 453.466 359.205L452.607 358.69C450.674 361.918 448.668 365.088 446.579 368.217L447.411 368.772ZM440.891 378.027C443.141 374.994 445.312 371.909 447.411 368.773L446.579 368.216C444.49 371.34 442.328 374.411 440.088 377.431L440.891 378.027ZM433.928 386.947C436.324 384.029 438.642 381.054 440.891 378.027L440.088 377.43C437.848 380.445 435.54 383.407 433.155 386.312L433.928 386.947ZM426.532 395.523C429.069 392.725 431.533 389.865 433.928 386.947L433.155 386.312C430.769 389.218 428.316 392.066 425.791 394.851L426.532 395.523ZM418.729 403.718C421.396 401.051 424 398.316 426.532 395.523L425.791 394.851C423.27 397.631 420.677 400.355 418.021 403.01L418.729 403.718ZM410.529 411.526C413.326 408.99 416.061 406.39 418.729 403.718L418.021 403.011C415.366 405.671 412.642 408.259 409.857 410.785L410.529 411.526ZM401.958 418.917C404.876 416.522 407.731 414.058 410.528 411.527L409.857 410.785C407.071 413.306 404.228 415.759 401.323 418.144L401.958 418.917ZM393.032 425.881C396.065 423.636 399.04 421.313 401.958 418.917L401.323 418.144C398.418 420.53 395.456 422.842 392.437 425.077L393.032 425.881ZM383.778 432.4C386.915 430.302 390 428.13 393.032 425.881L392.436 425.077C389.417 427.317 386.345 429.479 383.222 431.568L383.778 432.4ZM374.215 438.455C377.452 436.518 380.641 434.498 383.778 432.4L383.222 431.568C380.098 433.657 376.923 435.668 373.701 437.596L374.215 438.455ZM364.365 444.035C367.696 442.26 370.98 440.396 374.216 438.455L373.701 437.597C370.479 439.53 367.21 441.385 363.895 443.152L364.365 444.035ZM354.256 449.129C357.664 447.511 361.036 445.814 364.366 444.035L363.894 443.152C360.579 444.924 357.221 446.613 353.827 448.225L354.256 449.129ZM343.904 453.712C347.392 452.271 350.842 450.742 354.255 449.129L353.828 448.224C350.429 449.83 346.994 451.353 343.522 452.787L343.904 453.712ZM333.346 457.788C336.9 456.515 340.418 455.158 343.905 453.712L343.522 452.787C340.05 454.227 336.548 455.578 333.008 456.846L333.346 457.788ZM322.593 461.338C326.205 460.242 329.791 459.062 333.346 457.788L333.008 456.846C329.47 458.114 325.899 459.289 322.303 460.38L322.593 461.338ZM311.684 464.36C315.348 463.441 318.981 462.434 322.593 461.338L322.303 460.38C318.706 461.472 315.089 462.475 311.441 463.389L311.684 464.36ZM300.639 466.839C304.34 466.103 308.025 465.273 311.684 464.36L311.441 463.389C307.798 464.299 304.128 465.125 300.444 465.858L300.639 466.839ZM289.485 468.776C293.222 468.217 296.938 467.575 300.639 466.839L300.444 465.858C296.76 466.591 293.059 467.23 289.337 467.786L289.485 468.776ZM278.252 470.159C282.01 469.788 285.753 469.329 289.485 468.776L289.338 467.786C285.622 468.337 281.896 468.794 278.154 469.163L278.252 470.159ZM266.962 470.994C270.731 470.806 274.494 470.529 278.252 470.159L278.154 469.163C274.412 469.532 270.665 469.808 266.913 469.995L266.962 470.994ZM255.646 471.271C259.42 471.271 263.193 471.177 266.962 470.994L266.913 469.995C263.161 470.177 259.403 470.27 255.646 470.27V471.271ZM244.33 470.994C248.098 471.177 251.872 471.271 255.646 471.271V470.27C251.888 470.27 248.131 470.177 244.378 469.995L244.33 470.994ZM233.039 470.159C236.798 470.529 240.561 470.806 244.329 470.994L244.379 469.995C240.626 469.808 236.879 469.532 233.138 469.163L233.039 470.159ZM221.807 468.776C225.539 469.329 229.287 469.788 233.039 470.159L233.138 469.163C229.401 468.794 225.669 468.337 221.954 467.786L221.807 468.776ZM210.652 466.839C214.353 467.575 218.075 468.217 221.806 468.776L221.954 467.786C218.238 467.23 214.532 466.591 210.848 465.858L210.652 466.839ZM199.608 464.36C203.266 465.273 206.951 466.103 210.652 466.839L210.848 465.858C207.163 465.125 203.494 464.299 199.85 463.389L199.608 464.36ZM188.698 461.338C192.31 462.434 195.948 463.441 199.607 464.36L199.851 463.389C196.208 462.475 192.585 461.472 188.989 460.38L188.698 461.338ZM177.951 457.788C181.501 459.062 185.087 460.242 188.698 461.338L188.989 460.38C185.392 459.289 181.822 458.114 178.289 456.846L177.951 457.788ZM167.386 453.712C170.873 455.158 174.397 456.515 177.951 457.788L178.288 456.846C174.749 455.578 171.241 454.227 167.77 452.787L167.386 453.712ZM157.036 449.129C160.45 450.742 163.9 452.271 167.387 453.712L167.769 452.787C164.298 451.353 160.863 449.83 157.464 448.224L157.036 449.129ZM146.926 444.035C150.256 445.814 153.627 447.511 157.035 449.129L157.465 448.225C154.07 446.613 150.713 444.924 147.397 443.152L146.926 444.035ZM137.076 438.455C140.317 440.396 143.601 442.26 146.926 444.035L147.397 443.152C144.087 441.385 140.818 439.53 137.59 437.596L137.076 438.455ZM127.513 432.4C130.651 434.498 133.84 436.518 137.076 438.455L137.59 437.596C134.368 435.668 131.193 433.657 128.07 431.568L127.513 432.4ZM118.259 425.88C121.292 428.13 124.377 430.302 127.513 432.4L128.07 431.568C124.946 429.479 121.875 427.317 118.855 425.077L118.259 425.88ZM109.334 418.917C112.251 421.313 115.227 423.636 118.26 425.881L118.855 425.077C115.836 422.842 112.874 420.53 109.969 418.144L109.334 418.917ZM100.763 411.527C103.561 414.058 106.416 416.522 109.334 418.917L109.969 418.144C107.063 415.759 104.22 413.306 101.435 410.785L100.763 411.527ZM92.5629 403.718C95.2353 406.39 97.9652 408.99 100.763 411.526L101.435 410.785C98.6494 408.259 95.9313 405.671 93.2704 403.01L92.5629 403.718ZM84.7599 395.523C87.2962 398.315 89.8954 401.05 92.5629 403.718L93.2704 403.01C90.6149 400.355 88.0267 397.632 85.5005 394.851L84.7599 395.523ZM77.3633 386.947C79.759 389.865 82.2226 392.725 84.7596 395.523L85.5008 394.851C82.9753 392.066 80.5223 389.218 78.1366 386.312L77.3633 386.947ZM70.4005 378.027C72.65 381.054 74.9726 384.029 77.363 386.947L78.137 386.313C75.7565 383.407 73.4437 380.445 71.2036 377.43L70.4005 378.027ZM63.881 368.773C65.9792 371.909 68.1505 374.994 70.4003 378.027L71.2039 377.431C68.964 374.411 66.802 371.34 64.7127 368.216L63.881 368.773ZM57.826 359.205C59.7679 362.446 61.7878 365.63 63.8805 368.772L64.7132 368.217C62.6288 365.088 60.6175 361.917 58.6844 358.69L57.826 359.205ZM52.2463 349.355C54.0261 352.685 55.8843 355.968 57.8262 359.205L58.6842 358.69C56.751 355.468 54.901 352.199 53.1287 348.884L52.2463 349.355ZM47.157 339.245C48.7699 342.658 50.4664 346.03 52.2464 349.355L53.1286 348.883C51.3565 345.573 49.6676 342.216 48.0617 338.817L47.157 339.245ZM42.569 328.894C44.0149 332.386 45.5443 335.831 47.157 339.245L48.0617 338.817C46.4557 335.418 44.933 331.988 43.4935 328.511L42.569 328.894ZM38.4976 318.334C39.766 321.889 41.1232 325.407 42.5691 328.894L43.4934 328.511C42.0539 325.04 40.7027 321.537 39.4399 317.998L38.4976 318.334ZM34.9431 307.588C36.0393 311.2 37.2242 314.78 38.4978 318.335L39.4397 317.997C38.1716 314.458 36.9919 310.893 35.9006 307.297L34.9431 307.588ZM31.9262 296.679C32.8449 300.338 33.8522 303.975 34.943 307.587L35.9008 307.298C34.8145 303.701 33.8114 300.078 32.8967 296.435L31.9262 296.679ZM29.4468 285.634C30.1828 289.334 31.0075 293.014 31.9262 296.679L32.8967 296.435C31.9821 292.787 31.161 289.123 30.4282 285.438L29.4468 285.634ZM27.5103 274.479C28.0636 278.211 28.7109 281.928 29.4468 285.634L30.4282 285.439C29.6954 281.748 29.0509 278.048 28.5001 274.332L27.5103 274.479ZM26.1271 263.241C26.4925 266.999 26.9571 270.747 27.5103 274.479L28.5001 274.332C27.9492 270.616 27.4867 266.885 27.1229 263.144L26.1271 263.241ZM25.292 251.957C25.4799 255.725 25.7565 259.488 26.1271 263.241L27.1229 263.143C26.7539 259.407 26.4784 255.66 26.2913 251.907L25.292 251.957ZM25.0153 240.635C25.0153 244.414 25.1093 248.183 25.292 251.956L26.2914 251.908C26.1095 248.15 26.0159 244.398 26.0159 240.635H25.0153ZM25.292 229.319C25.1093 233.093 25.0153 236.861 25.0153 240.635H26.0159C26.0159 236.878 26.1095 233.125 26.2914 229.368L25.292 229.319ZM26.1271 218.034C25.7565 221.787 25.4799 225.55 25.292 229.318L26.2913 229.368C26.4784 225.616 26.7539 221.869 27.1229 218.132L26.1271 218.034ZM27.5103 206.796C26.9571 210.528 26.4925 214.276 26.1271 218.035L27.1229 218.131C27.4867 214.39 27.9492 210.659 28.5001 206.943L27.5103 206.796ZM29.4468 195.642C28.7109 199.347 28.0636 203.064 27.5103 206.796L28.5001 206.943C29.0509 203.227 29.6954 199.527 30.4282 195.837L29.4468 195.642ZM31.9262 184.597C31.0075 188.261 30.1828 191.941 29.4468 195.642L30.4282 195.837C31.161 192.152 31.9821 188.488 32.8967 184.84L31.9262 184.597ZM34.943 173.688C33.8522 177.3 32.8449 180.938 31.9262 184.597L32.8967 184.84C33.8114 181.197 34.8145 177.574 35.9008 173.978L34.943 173.688ZM38.4978 162.94C37.2242 166.495 36.0393 170.076 34.9431 173.688L35.9006 173.978C36.9919 170.382 38.1716 166.817 39.4397 163.278L38.4978 162.94ZM42.569 152.376C41.1232 155.868 39.766 159.386 38.4976 162.941L39.4399 163.277C40.7027 159.738 42.0539 156.236 43.4935 152.759L42.569 152.376ZM47.157 142.031C45.5443 145.444 44.015 148.889 42.5691 152.376L43.4934 152.759C44.9329 149.287 46.4557 145.857 48.0617 142.458L47.157 142.031ZM52.2464 131.92C50.4664 135.245 48.7699 138.617 47.157 142.031L48.0617 142.458C49.6676 139.059 51.3565 135.702 53.1286 132.392L52.2464 131.92ZM57.8262 122.07C55.8843 125.307 54.0261 128.59 52.2463 131.92L53.1287 132.392C54.901 129.076 56.751 125.807 58.6842 122.585L57.8262 122.07ZM63.8805 112.504C61.7878 115.645 59.7679 118.829 57.826 122.071L58.6844 122.585C60.6175 119.358 62.6288 116.187 64.7132 113.058L63.8805 112.504ZM70.4003 103.248C68.1505 106.281 65.9792 109.366 63.881 112.503L64.7127 113.059C66.802 109.935 68.964 106.864 71.2039 103.845L70.4003 103.248ZM77.363 94.3284C74.9728 97.2457 72.6501 100.216 70.4003 103.248L71.2039 103.845C73.4436 100.825 75.7564 97.8681 78.137 94.9625L77.363 94.3284ZM84.7596 85.7521C82.2226 88.5501 79.759 91.4105 77.3633 94.328L78.1366 94.963C80.5223 92.0576 82.9753 89.2096 85.5008 86.4242L84.7596 85.7521ZM92.5629 77.5574C89.8954 80.2248 87.2962 82.9598 84.7599 85.7518L85.5005 86.4246C88.0267 83.6437 90.6149 80.9203 93.2704 78.2649L92.5629 77.5574ZM100.763 69.7488C97.9652 72.2855 95.2353 74.8849 92.5629 77.5574L93.2704 78.2649C95.9313 75.604 98.6494 73.0158 101.435 70.4901L100.763 69.7488ZM109.334 62.3578C106.416 64.7536 103.561 67.2172 100.763 69.7485L101.435 70.4904C104.22 67.9696 107.063 65.5165 109.969 63.1311L109.334 62.3578ZM118.259 55.3895C115.227 57.6392 112.251 59.962 109.334 62.3578L109.969 63.1311C112.874 60.7457 115.836 58.433 118.855 56.1931L118.259 55.3895ZM127.514 48.8752C124.377 50.9685 121.292 53.1451 118.26 55.3892L118.855 56.1935C121.875 53.9584 124.946 51.7912 128.069 49.7075L127.514 48.8752ZM137.076 42.8155C133.84 44.7571 130.651 46.7771 127.513 48.8755L128.07 49.7072C131.193 47.618 134.368 45.6068 137.591 43.6734L137.076 42.8155ZM146.926 37.2406C143.601 39.0155 140.317 40.8789 137.077 42.815L137.59 43.6739C140.818 41.7455 144.087 39.8901 147.397 38.1233L146.926 37.2406ZM157.035 32.1467C153.627 33.7645 150.256 35.4608 146.926 37.2407L147.397 38.1232C150.713 36.351 154.07 34.6619 157.465 33.0506L157.035 32.1467ZM167.387 27.5633C163.9 29.0041 160.45 30.5335 157.036 32.1463L157.464 33.051C160.863 31.445 164.298 29.9223 167.769 28.4881L167.387 27.5633ZM177.951 23.487C174.397 24.7605 170.873 26.1176 167.386 27.5636L167.77 28.4878C171.241 27.0484 174.749 25.6971 178.288 24.429L177.951 23.487ZM188.698 19.9376C185.087 21.0336 181.501 22.2133 177.951 23.4871L178.289 24.4289C181.822 23.1611 185.392 21.9866 188.989 20.8951L188.698 19.9376ZM199.607 16.9155C195.948 17.8341 192.31 18.8415 188.698 19.9376L188.989 20.8951C192.585 19.8037 196.208 18.8006 199.851 17.8859L199.607 16.9155ZM210.652 14.4361C206.951 15.1721 203.266 16.002 199.608 16.9153L199.85 17.8861C203.494 16.9765 207.163 16.1502 210.848 15.4174L210.652 14.4361ZM221.806 12.4997C218.075 13.0581 214.353 13.7 210.652 14.4361L210.848 15.4174C214.532 14.6847 218.238 14.0454 221.954 13.4892L221.806 12.4997ZM233.039 11.1164C229.287 11.487 225.539 11.9463 221.807 12.4996L221.954 13.4893C225.669 12.9385 229.401 12.4811 233.138 12.1121L233.039 11.1164ZM244.329 10.2813C240.561 10.4692 236.798 10.7458 233.039 11.1164L233.138 12.1121C236.879 11.7432 240.626 11.4677 244.379 11.2806L244.329 10.2813ZM255.646 10.0046C251.872 10.0046 248.098 10.0986 244.33 10.2812L244.378 11.2806C248.131 11.0987 251.888 11.0052 255.646 11.0052V10.0046ZM266.962 10.2812C263.193 10.0986 259.42 10.0046 255.646 10.0046V11.0052C259.403 11.0052 263.161 11.0987 266.913 11.2806L266.962 10.2812ZM278.252 11.1164C274.494 10.7458 270.731 10.4692 266.962 10.2813L266.913 11.2806C270.665 11.4677 274.412 11.7432 278.154 12.1121L278.252 11.1164ZM289.485 12.4996C285.753 11.9463 282.01 11.487 278.252 11.1164L278.154 12.1121C281.896 12.4811 285.622 12.9385 289.338 13.4893L289.485 12.4996ZM300.639 14.4361C296.938 13.7001 293.222 13.0581 289.485 12.4997L289.337 13.4893C293.059 14.0454 296.76 14.6847 300.444 15.4174L300.639 14.4361ZM311.684 16.9153C308.025 16.002 304.34 15.1721 300.639 14.4361L300.444 15.4174C304.128 16.1502 307.798 16.9765 311.441 17.8861L311.684 16.9153ZM322.593 19.9376C318.981 18.8415 315.348 17.8341 311.684 16.9154L311.441 17.886C315.089 18.8006 318.706 19.8037 322.303 20.8951L322.593 19.9376ZM333.346 23.487C329.791 22.2133 326.205 21.0336 322.593 19.9376L322.303 20.8951C325.899 21.9866 329.47 23.1611 333.008 24.429L333.346 23.487ZM343.905 27.5636C340.418 26.1177 336.9 24.7606 333.346 23.487L333.008 24.429C336.548 25.6971 340.05 27.0483 343.522 28.4878L343.905 27.5636ZM354.255 32.1463C350.842 30.5335 347.392 29.0041 343.904 27.5633L343.522 28.4881C346.994 29.9223 350.429 31.445 353.828 33.051L354.255 32.1463ZM364.366 37.2407C361.036 35.4608 357.664 33.7645 354.256 32.1467L353.827 33.0506C357.221 34.6619 360.579 36.351 363.894 38.1232L364.366 37.2407ZM374.215 42.8152C370.979 40.8789 367.696 39.0155 364.365 37.2405L363.895 38.1235C367.21 39.8901 370.479 41.7454 373.701 43.6738L374.215 42.8152ZM383.778 48.8755C380.641 46.7771 377.452 44.7571 374.216 42.8155L373.701 43.6734C376.923 45.6068 380.098 47.618 383.222 49.7072L383.778 48.8755ZM393.032 55.3892C390 53.1451 386.915 50.9685 383.778 48.8752L383.222 49.7075C386.345 51.7912 389.417 53.9584 392.437 56.1935L393.032 55.3892ZM401.958 62.3578C399.04 59.962 396.065 57.6392 393.032 55.3895L392.436 56.1931C395.456 58.433 398.418 60.7457 401.323 63.1311L401.958 62.3578ZM410.528 69.7485C407.731 67.2172 404.876 64.7536 401.958 62.3578L401.323 63.1311C404.228 65.5165 407.071 67.9696 409.857 70.4904L410.528 69.7485ZM418.729 77.5577C416.061 74.8848 413.326 72.2853 410.529 69.7488L409.857 70.4901C412.642 73.0161 415.366 75.6041 418.021 78.2645L418.729 77.5577ZM426.532 85.7522C424 82.9597 421.396 80.2246 418.729 77.5574L418.021 78.2649C420.677 80.9206 423.27 83.6438 425.791 86.4242L426.532 85.7522ZM433.928 94.328C431.533 91.4105 429.069 88.5501 426.532 85.7521L425.791 86.4242C428.316 89.2096 430.769 92.0576 433.155 94.963L433.928 94.328ZM440.891 103.248C438.642 100.216 436.324 97.2459 433.928 94.328L433.155 94.963C435.54 97.868 437.848 100.825 440.088 103.845L440.891 103.248ZM447.411 112.503C445.312 109.366 443.141 106.281 440.891 103.248L440.088 103.845C442.328 106.864 444.49 109.935 446.579 113.059L447.411 112.503ZM453.466 122.071C451.524 118.829 449.509 115.645 447.411 112.503L446.579 113.059C448.668 116.187 450.674 119.357 452.607 122.585L453.466 122.071ZM459.045 131.92C457.265 128.59 455.407 125.307 453.465 122.07L452.607 122.585C454.54 125.807 456.391 129.076 458.163 132.392L459.045 131.92ZM464.135 142.031C462.522 138.617 460.825 135.245 459.045 131.92L458.163 132.392C459.935 135.702 461.624 139.059 463.23 142.458L464.135 142.031ZM468.722 152.376C467.277 148.889 465.747 145.444 464.135 142.031L463.23 142.458C464.836 145.857 466.359 149.287 467.798 152.759L468.722 152.376ZM472.799 162.94C471.525 159.386 470.168 155.868 468.723 152.376L467.798 152.759C469.238 156.236 470.589 159.738 471.857 163.278L472.799 162.94ZM476.348 173.688C475.252 170.076 474.067 166.495 472.799 162.941L471.857 163.277C473.12 166.817 474.3 170.382 475.391 173.978L476.348 173.688ZM479.365 184.597C478.452 180.938 477.445 177.3 476.348 173.688L475.391 173.978C476.482 177.575 477.485 181.197 478.395 184.84L479.365 184.597ZM481.845 195.642C481.109 191.941 480.284 188.261 479.365 184.597L478.395 184.84C479.309 188.488 480.131 192.152 480.863 195.837L481.845 195.642ZM483.781 206.796C483.228 203.064 482.586 199.348 481.845 195.641L480.863 195.837C481.601 199.527 482.241 203.227 482.791 206.943L483.781 206.796ZM485.17 218.034C484.799 214.276 484.334 210.528 483.781 206.796L482.791 206.943C483.342 210.659 483.805 214.39 484.174 218.132L485.17 218.034ZM486 229.319C485.817 225.55 485.54 221.787 485.17 218.034L484.174 218.132C484.543 221.869 484.818 225.615 485 229.368L486 229.319ZM486.276 240.635C486.276 236.862 486.188 233.093 486 229.318L485 229.368C485.187 233.125 485.276 236.877 485.276 240.635H486.276ZM255.646 93.5622C219.214 93.5622 191.826 106.574 173.569 132.634C155.335 158.662 146.256 197.642 146.256 249.495H147.256C147.256 197.728 156.326 158.991 174.388 133.208C192.428 107.458 219.485 94.5628 255.646 94.5628V93.5622ZM365.032 249.495C365.032 197.642 355.953 158.662 337.72 132.634C319.463 106.574 292.076 93.5622 255.646 93.5622V94.5628C291.805 94.5628 318.861 107.458 336.9 133.208C354.962 158.991 364.032 197.728 364.032 249.495H365.032ZM146.756 249.995H364.532V248.995H146.756V249.995ZM195.615 281.161H315.683V280.161H195.615V281.161ZM190.758 281.399C192.372 281.239 193.991 281.161 195.615 281.161V280.161C193.959 280.161 192.307 280.24 190.66 280.403L190.758 281.399ZM185.952 282.11C187.54 281.796 189.144 281.558 190.758 281.399L190.66 280.403C189.014 280.566 187.378 280.808 185.758 281.129L185.952 282.11ZM181.235 283.296C182.786 282.822 184.359 282.43 185.953 282.11L185.756 281.129C184.132 281.455 182.527 281.855 180.943 282.339L181.235 283.296ZM176.661 284.931C178.156 284.312 179.682 283.765 181.234 283.296L180.944 282.339C179.361 282.817 177.803 283.375 176.278 284.006L176.661 284.931ZM172.268 287.009C173.697 286.245 175.161 285.549 176.66 284.931L176.279 284.006C174.747 284.638 173.253 285.348 171.796 286.126L172.268 287.009ZM168.096 289.509C169.448 288.607 170.835 287.772 172.267 287.009L171.797 286.126C170.333 286.905 168.918 287.757 167.54 288.677L168.096 289.509ZM164.193 292.402C165.447 291.375 166.746 290.406 168.095 289.51L167.542 288.677C166.162 289.593 164.836 290.582 163.559 291.628L164.193 292.402ZM160.588 295.667C161.738 294.522 162.94 293.433 164.194 292.402L163.558 291.629C162.28 292.681 161.055 293.79 159.882 294.958L160.588 295.667ZM157.324 299.271C158.356 298.017 159.444 296.815 160.59 295.665L159.88 294.959C158.713 296.132 157.604 297.357 156.552 298.635L157.324 299.271ZM154.432 303.173C155.335 301.823 156.299 300.523 157.325 299.27L156.551 298.636C155.505 299.914 154.521 301.239 153.6 302.618L154.432 303.173ZM151.931 307.341C152.7 305.911 153.53 304.519 154.432 303.174L153.601 302.617C152.679 303.991 151.833 305.411 151.05 306.867L151.931 307.341ZM149.853 311.739C150.477 310.237 151.169 308.773 151.932 307.339L151.049 306.869C150.27 308.331 149.566 309.824 148.929 311.354L149.853 311.739ZM148.219 316.311C148.688 314.759 149.235 313.233 149.854 311.738L148.929 311.355C148.298 312.881 147.74 314.438 147.261 316.022L148.219 316.311ZM147.038 321.024C147.353 319.436 147.745 317.864 148.219 316.313L147.262 316.02C146.778 317.605 146.378 319.209 146.057 320.83L147.038 321.024ZM146.321 325.835C146.481 324.221 146.718 322.618 147.038 321.025L146.057 320.828C145.731 322.454 145.489 324.091 145.326 325.737L146.321 325.835ZM146.084 330.687C146.084 329.068 146.162 327.449 146.321 325.835L145.326 325.737C145.163 327.384 145.084 329.036 145.084 330.687H146.084ZM146.321 335.544C146.162 333.931 146.084 332.312 146.084 330.687H145.084C145.084 332.344 145.163 333.996 145.326 335.643L146.321 335.544ZM147.038 340.349C146.718 338.762 146.481 337.158 146.321 335.544L145.326 335.643C145.489 337.289 145.731 338.925 146.057 340.546L147.038 340.349ZM148.219 345.067C147.745 343.516 147.353 341.944 147.038 340.351L146.057 340.544C146.378 342.17 146.778 343.775 147.262 345.359L148.219 345.067ZM149.854 349.642C149.235 348.146 148.688 346.62 148.219 345.068L147.261 345.358C147.74 346.942 148.298 348.499 148.929 350.024L149.854 349.642ZM151.931 354.035C151.168 352.607 150.477 351.142 149.853 349.641L148.929 350.025C149.566 351.555 150.27 353.049 151.049 354.506L151.931 354.035ZM154.432 358.206C153.53 356.855 152.7 355.468 151.931 354.034L151.049 354.507C151.833 355.969 152.68 357.384 153.6 358.762L154.432 358.206ZM157.325 362.11C156.299 360.857 155.335 359.557 154.432 358.206L153.6 358.762C154.521 360.14 155.505 361.466 156.551 362.744L157.325 362.11ZM160.59 365.714C159.444 364.564 158.356 363.362 157.324 362.109L156.552 362.745C157.604 364.022 158.713 365.248 159.88 366.42L160.59 365.714ZM164.194 368.978C162.94 367.946 161.738 366.858 160.588 365.713L159.882 366.422C161.055 367.589 162.28 368.699 163.558 369.751L164.194 368.978ZM168.096 371.87C166.745 370.968 165.446 370.004 164.193 368.977L163.559 369.751C164.837 370.798 166.162 371.782 167.54 372.702L168.096 371.87ZM172.268 374.371C170.834 373.603 169.447 372.772 168.096 371.87L167.54 372.702C168.919 373.623 170.334 374.47 171.796 375.253L172.268 374.371ZM176.661 376.449C175.16 375.825 173.696 375.134 172.268 374.371L171.796 375.253C173.254 376.032 174.747 376.737 176.277 377.373L176.661 376.449ZM181.234 378.083C179.682 377.614 178.156 377.068 176.661 376.449L176.278 377.373C177.803 378.005 179.361 378.562 180.944 379.041L181.234 378.083ZM185.952 379.264C184.358 378.95 182.786 378.558 181.235 378.084L180.943 379.041C182.527 379.525 184.132 379.925 185.758 380.246L185.952 379.264ZM190.758 379.981C189.144 379.821 187.541 379.584 185.954 379.264L185.756 380.245C187.377 380.572 189.014 380.814 190.66 380.977L190.758 379.981ZM195.615 380.218C193.992 380.218 192.372 380.136 190.757 379.981L190.661 380.977C192.306 381.135 193.958 381.219 195.615 381.219V380.218ZM315.683 380.218H195.615V381.219H315.683V380.218ZM320.536 379.981C318.921 380.136 317.301 380.218 315.683 380.218V381.219C317.335 381.219 318.987 381.135 320.632 380.977L320.536 379.981ZM325.345 379.264C323.752 379.584 322.149 379.821 320.535 379.981L320.633 380.977C322.28 380.814 323.916 380.572 325.542 380.245L325.345 379.264ZM330.058 378.084C328.507 378.558 326.934 378.95 325.346 379.264L325.541 380.246C327.161 379.925 328.766 379.525 330.35 379.041L330.058 378.084ZM334.638 376.449C333.137 377.068 331.611 377.614 330.059 378.083L330.349 379.041C331.932 378.562 333.489 378.005 335.02 377.374L334.638 376.449ZM339.031 374.371C337.597 375.134 336.133 375.825 334.636 376.449L335.021 377.373C336.546 376.737 338.039 376.032 339.501 375.254L339.031 374.371ZM343.196 371.871C341.851 372.772 340.459 373.603 339.029 374.372L339.503 375.253C340.959 374.47 342.379 373.623 343.753 372.702L343.196 371.871ZM347.1 368.977C345.847 370.004 344.548 370.968 343.197 371.87L343.752 372.702C345.131 371.782 346.456 370.798 347.734 369.751L347.1 368.977ZM350.705 365.713C349.554 366.858 348.358 367.947 347.1 368.977L347.734 369.751C349.019 368.699 350.239 367.589 351.411 366.422L350.705 365.713ZM353.969 362.109C352.937 363.362 351.849 364.564 350.703 365.714L351.413 366.42C352.58 365.248 353.689 364.022 354.741 362.745L353.969 362.109ZM356.86 358.207C355.964 359.557 354.995 360.856 353.968 362.11L354.742 362.744C355.788 361.466 356.777 360.141 357.693 358.761L356.86 358.207ZM359.361 354.035C358.599 355.468 357.763 356.855 356.861 358.206L357.693 358.762C358.613 357.384 359.465 355.969 360.244 354.506L359.361 354.035ZM361.439 349.642C360.821 351.142 360.125 352.606 359.361 354.035L360.244 354.506C361.022 353.05 361.733 351.556 362.364 350.024L361.439 349.642ZM363.08 345.067C362.605 346.62 362.058 348.146 361.439 349.642L362.364 350.024C362.995 348.499 363.553 346.942 364.036 345.359L363.08 345.067ZM364.26 340.349C363.94 341.943 363.548 343.517 363.079 345.068L364.037 345.358C364.516 343.775 364.915 342.17 365.241 340.546L364.26 340.349ZM364.972 335.544C364.812 337.158 364.574 338.762 364.26 340.35L365.241 340.545C365.562 338.925 365.804 337.289 365.967 335.643L364.972 335.544ZM365.209 330.687C365.209 332.312 365.131 333.931 364.972 335.544L365.967 335.643C366.13 333.996 366.209 332.344 366.209 330.687H365.209ZM364.972 325.835C365.131 327.449 365.209 329.068 365.209 330.687H366.209C366.209 329.036 366.13 327.384 365.967 325.737L364.972 325.835ZM364.26 321.024C364.574 322.617 364.812 324.221 364.972 325.835L365.967 325.737C365.804 324.091 365.562 322.455 365.241 320.83L364.26 321.024ZM363.079 316.311C363.548 317.863 363.94 319.436 364.26 321.025L365.241 320.828C364.915 319.209 364.516 317.605 364.037 316.022L363.079 316.311ZM361.439 311.738C362.058 313.233 362.605 314.76 363.08 316.313L364.036 316.02C363.553 314.437 362.995 312.881 362.364 311.355L361.439 311.738ZM359.361 307.339C360.125 308.773 360.821 310.238 361.439 311.737L362.364 311.356C361.733 309.824 361.022 308.33 360.244 306.869L359.361 307.339ZM356.861 303.174C357.763 304.52 358.598 305.912 359.361 307.34L360.244 306.868C359.465 305.411 358.613 303.99 357.692 302.617L356.861 303.174ZM353.968 299.27C354.995 300.524 355.964 301.823 356.86 303.172L357.693 302.619C356.777 301.239 355.788 299.913 354.742 298.636L353.968 299.27ZM350.703 295.665C351.849 296.815 352.937 298.017 353.969 299.271L354.741 298.635C353.689 297.357 352.58 296.132 351.413 294.959L350.703 295.665ZM347.1 292.402C348.358 293.433 349.554 294.521 350.705 295.667L351.411 294.958C350.239 293.791 349.019 292.681 347.734 291.628L347.1 292.402ZM343.198 289.51C344.547 290.406 345.846 291.375 347.1 292.402L347.734 291.628C346.457 290.582 345.131 289.593 343.751 288.677L343.198 289.51ZM339.031 287.009C340.459 287.772 341.851 288.607 343.196 289.509L343.753 288.678C342.38 287.757 340.959 286.905 339.502 286.126L339.031 287.009ZM334.638 284.931C336.132 285.549 337.597 286.245 339.031 287.009L339.501 286.126C338.04 285.348 336.546 284.638 335.02 284.006L334.638 284.931ZM330.059 283.296C331.611 283.765 333.137 284.312 334.638 284.931L335.02 284.006C333.489 283.375 331.932 282.817 330.349 282.339L330.059 283.296ZM325.345 282.11C326.934 282.43 328.507 282.822 330.058 283.296L330.35 282.339C328.766 281.855 327.161 281.455 325.542 281.129L325.345 282.11ZM320.535 281.399C322.149 281.558 323.753 281.796 325.346 282.11L325.54 281.129C323.915 280.808 322.279 280.566 320.633 280.403L320.535 281.399ZM315.683 281.161C317.302 281.161 318.921 281.239 320.535 281.399L320.633 280.403C318.986 280.24 317.334 280.161 315.683 280.161V281.161Z" fill="white"/>
</svg>
