<svg width="582" height="534" viewBox="0 0 582 534" fill="none" xmlns="http://www.w3.org/2000/svg">
<path d="M485.776 240.635C485.776 244.406 485.687 248.166 485.5 251.932C485.318 255.693 485.042 259.448 484.672 263.193C484.302 266.943 483.838 270.682 483.286 274.406C482.734 278.13 482.094 281.838 481.354 285.536C480.62 289.229 479.797 292.901 478.88 296.557C477.969 300.208 476.963 303.838 475.87 307.443C474.776 311.047 473.594 314.62 472.328 318.166C471.057 321.713 469.703 325.224 468.26 328.703C466.818 332.187 465.292 335.625 463.682 339.031C462.073 342.437 460.38 345.802 458.604 349.12C456.828 352.443 454.974 355.719 453.036 358.948C451.099 362.182 449.088 365.359 446.995 368.495C444.901 371.625 442.734 374.703 440.489 377.729C438.245 380.75 435.932 383.719 433.542 386.63C431.151 389.541 428.693 392.396 426.161 395.187C423.635 397.974 421.036 400.703 418.375 403.364C415.713 406.031 412.984 408.625 410.193 411.156C407.401 413.682 404.552 416.14 401.641 418.531C398.729 420.922 395.76 423.239 392.734 425.479C389.708 427.724 386.63 429.89 383.5 431.984C380.37 434.078 377.187 436.094 373.958 438.026C370.729 439.963 367.453 441.823 364.13 443.594C360.807 445.37 357.443 447.062 354.042 448.677C350.635 450.286 347.193 451.812 343.713 453.25C340.234 454.692 336.724 456.047 333.177 457.317C329.63 458.588 326.052 459.765 322.448 460.859C318.844 461.953 315.219 462.958 311.562 463.875C307.911 464.786 304.234 465.614 300.542 466.349C296.849 467.083 293.141 467.724 289.411 468.281C285.687 468.833 281.953 469.291 278.203 469.661C274.453 470.031 270.698 470.307 266.937 470.495C263.177 470.677 259.411 470.771 255.646 470.771C251.88 470.771 248.115 470.677 244.354 470.495C240.594 470.307 236.838 470.031 233.088 469.661C229.344 469.291 225.604 468.833 221.88 468.281C218.156 467.724 214.443 467.083 210.75 466.349C207.057 465.614 203.38 464.786 199.729 463.875C196.078 462.958 192.448 461.953 188.844 460.859C185.24 459.765 181.661 458.588 178.12 457.317C174.573 456.047 171.057 454.692 167.578 453.25C164.099 451.812 160.656 450.286 157.25 448.677C153.849 447.062 150.484 445.37 147.161 443.594C143.844 441.823 140.568 439.963 137.333 438.026C134.104 436.094 130.922 434.078 127.792 431.984C124.661 429.89 121.583 427.724 118.557 425.479C115.531 423.239 112.562 420.922 109.651 418.531C106.74 416.14 103.891 413.682 101.099 411.156C98.3073 408.625 95.5833 406.031 92.9166 403.364C90.2552 400.703 87.6614 397.974 85.1302 395.187C82.5989 392.396 80.1406 389.541 77.75 386.63C75.3646 383.719 73.0469 380.75 70.8021 377.729C68.5573 374.703 66.3906 371.625 64.2969 368.495C62.2083 365.359 60.1927 362.182 58.2552 358.948C56.3177 355.719 54.4635 352.443 52.6875 349.12C50.9115 345.802 49.2187 342.437 47.6094 339.031C46 335.625 44.474 332.187 43.0312 328.703C41.5885 325.224 40.2344 321.713 38.9687 318.166C37.6979 314.62 36.5156 311.047 35.4219 307.443C34.3333 303.838 33.3281 300.208 32.4115 296.557C31.4948 292.901 30.6719 289.229 29.9375 285.536C29.2031 281.838 28.5573 278.13 28.0052 274.406C27.4531 270.682 26.9896 266.943 26.625 263.193C26.2552 259.448 25.9792 255.693 25.7917 251.932C25.6094 248.166 25.5156 244.406 25.5156 240.635C25.5156 236.87 25.6094 233.109 25.7917 229.344C25.9792 225.583 26.2552 221.828 26.625 218.083C26.9896 214.333 27.4531 210.594 28.0052 206.87C28.5573 203.146 29.2031 199.437 29.9375 195.739C30.6719 192.047 31.4948 188.375 32.4115 184.719C33.3281 181.068 34.3333 177.437 35.4219 173.833C36.5156 170.229 37.6979 166.656 38.9687 163.109C40.2344 159.562 41.5885 156.052 43.0312 152.568C44.474 149.088 46 145.651 47.6094 142.245C49.2187 138.838 50.9115 135.474 52.6875 132.156C54.4635 128.833 56.3177 125.557 58.2552 122.328C60.1927 119.094 62.2083 115.917 64.2969 112.781C66.3906 109.651 68.5573 106.573 70.8021 103.547C73.0469 100.521 75.3646 97.5572 77.75 94.6457C80.1406 91.7343 82.5989 88.8801 85.1302 86.0884C87.6614 83.302 90.2552 80.5728 92.9166 77.9114C95.5833 75.2447 98.3073 72.6509 101.099 70.1197C103.891 67.5936 106.74 65.1353 109.651 62.7447C112.562 60.3541 115.531 58.0364 118.557 55.7916C121.583 53.552 124.661 51.3801 127.792 49.2916C130.922 47.1978 134.104 45.1822 137.333 43.2447C140.568 41.3124 143.844 39.453 147.161 37.6822C150.484 35.9062 153.849 34.2135 157.25 32.5989C160.656 30.9895 164.099 29.4635 167.578 28.026C171.057 26.5832 174.573 25.2291 178.12 23.9582C181.661 22.6874 185.24 21.5103 188.844 20.4166C192.448 19.3228 196.078 18.3176 199.729 17.401C203.38 16.4895 207.057 15.6614 210.75 14.927C214.443 14.1926 218.156 13.552 221.88 12.9947C225.604 12.4426 229.344 11.9843 233.088 11.6145C236.838 11.2447 240.594 10.9687 244.354 10.7812C248.115 10.5989 251.88 10.5051 255.646 10.5051C259.411 10.5051 263.177 10.5989 266.937 10.7812C270.698 10.9687 274.453 11.2447 278.203 11.6145C281.953 11.9843 285.687 12.4426 289.411 12.9947C293.141 13.552 296.849 14.1926 300.542 14.927C304.234 15.6614 307.911 16.4895 311.562 17.401C315.219 18.3176 318.844 19.3228 322.448 20.4166C326.052 21.5103 329.63 22.6874 333.177 23.9582C336.724 25.2291 340.234 26.5832 343.713 28.026C347.193 29.4635 350.635 30.9895 354.042 32.5989C357.443 34.2135 360.807 35.9062 364.13 37.6822C367.453 39.453 370.729 41.3124 373.958 43.2447C377.187 45.1822 380.37 47.1978 383.5 49.2916C386.63 51.3801 389.708 53.552 392.734 55.7916C395.76 58.0364 398.729 60.3541 401.641 62.7447C404.552 65.1353 407.401 67.5936 410.193 70.1197C412.984 72.6509 415.713 75.2447 418.375 77.9114C421.036 80.5728 423.635 83.302 426.161 86.0884C428.693 88.8801 431.151 91.7343 433.542 94.6457C435.932 97.5572 438.245 100.521 440.489 103.547C442.734 106.573 444.901 109.651 446.995 112.781C449.088 115.917 451.099 119.094 453.036 122.328C454.974 125.557 456.828 128.833 458.604 132.156C460.38 135.474 462.073 138.838 463.682 142.245C465.292 145.651 466.818 149.088 468.26 152.568C469.703 156.052 471.057 159.562 472.328 163.109C473.594 166.656 474.776 170.229 475.87 173.833C476.963 177.437 477.969 181.068 478.88 184.719C479.797 188.375 480.62 192.047 481.354 195.739C482.094 199.437 482.734 203.146 483.286 206.87C483.838 210.594 484.302 214.333 484.672 218.083C485.042 221.828 485.318 225.583 485.5 229.344C485.687 233.109 485.776 236.87 485.776 240.635Z" fill="black" stroke="black" stroke-width="1.00057"/>
<path d="M160.592 170.599H240.634C242.931 170.599 245.217 170.708 247.504 170.937C249.785 171.161 252.051 171.495 254.301 171.943C256.551 172.391 258.775 172.948 260.967 173.615C263.165 174.281 265.322 175.052 267.441 175.927C269.561 176.807 271.629 177.786 273.655 178.87C275.676 179.948 277.639 181.125 279.551 182.401C281.457 183.677 283.296 185.042 285.072 186.495C286.842 187.953 288.54 189.49 290.16 191.115C291.785 192.734 293.322 194.432 294.78 196.203C296.233 197.979 297.598 199.818 298.874 201.724C300.15 203.635 301.327 205.599 302.405 207.62C303.488 209.646 304.467 211.713 305.348 213.833C306.223 215.953 306.993 218.109 307.66 220.307C308.327 222.5 308.884 224.724 309.332 226.974C309.78 229.224 310.113 231.49 310.337 233.771C310.566 236.057 310.676 238.344 310.676 240.635C310.676 242.932 310.566 245.219 310.337 247.505C310.113 249.786 309.78 252.052 309.332 254.302C308.884 256.552 308.327 258.776 307.66 260.969C306.993 263.167 306.223 265.323 305.348 267.443C304.467 269.562 303.488 271.63 302.405 273.656C301.327 275.677 300.15 277.641 298.874 279.552C297.598 281.458 296.233 283.297 294.78 285.073C293.322 286.844 291.785 288.542 290.16 290.161C288.54 291.786 286.842 293.323 285.072 294.781C283.296 296.234 281.457 297.599 279.551 298.875C277.639 300.151 275.676 301.328 273.655 302.406C271.629 303.49 269.561 304.469 267.441 305.349C265.322 306.224 263.165 306.995 260.967 307.661C258.775 308.328 256.551 308.885 254.301 309.333C252.051 309.781 249.785 310.115 247.504 310.338C245.217 310.568 242.931 310.677 240.634 310.677H160.592C158.296 310.677 156.009 310.568 153.728 310.338C151.441 310.115 149.176 309.781 146.926 309.333C144.676 308.885 142.452 308.328 140.259 307.661C138.066 306.995 135.905 306.224 133.785 305.349C131.671 304.469 129.598 303.49 127.572 302.406C125.551 301.328 123.587 300.151 121.681 298.875C119.77 297.599 117.931 296.234 116.16 294.781C114.384 293.323 112.686 291.786 111.066 290.161C109.441 288.542 107.905 286.844 106.447 285.073C104.993 283.297 103.629 281.458 102.353 279.552C101.082 277.641 99.8997 275.677 98.8216 273.656C97.7383 271.63 96.7591 269.562 95.8841 267.443C95.0039 265.323 94.2331 263.167 93.5664 260.969C92.8997 258.776 92.3424 256.552 91.8945 254.302C91.4466 252.052 91.1133 249.786 90.8893 247.505C90.6654 245.219 90.5508 242.932 90.5508 240.635C90.5508 238.344 90.6654 236.057 90.8893 233.771C91.1133 231.49 91.4466 229.224 91.8945 226.974C92.3424 224.724 92.8997 222.5 93.5664 220.307C94.2331 218.109 95.0039 215.953 95.8841 213.833C96.7591 211.713 97.7383 209.646 98.8216 207.62C99.8997 205.599 101.082 203.635 102.353 201.724C103.629 199.818 104.993 197.979 106.447 196.203C107.905 194.432 109.441 192.734 111.066 191.115C112.686 189.49 114.384 187.953 116.16 186.495C117.931 185.042 119.77 183.677 121.681 182.401C123.587 181.125 125.551 179.948 127.572 178.87C129.598 177.786 131.671 176.807 133.785 175.927C135.905 175.052 138.066 174.281 140.259 173.615C142.452 172.948 144.676 172.391 146.926 171.943C149.176 171.495 151.441 171.161 153.728 170.937C156.009 170.708 158.296 170.599 160.592 170.599Z" fill="white"/>
<path d="M240.637 240.635V129.323C240.637 112.646 247.288 109.344 260.579 119.406L400.803 225.542C414.095 235.604 414.095 245.672 400.803 255.734L260.579 361.87C247.288 371.932 240.637 368.63 240.637 351.953V240.635Z" fill="white" stroke="white" stroke-width="1.00057" stroke-miterlimit="10"/>
</svg>
