<svg width="250" height="250" viewBox="0 0 250 250" fill="none" xmlns="http://www.w3.org/2000/svg">
<path fill-rule="evenodd" clip-rule="evenodd" d="M55 37C55 31.4771 59.4772 27 65 27H185C190.523 27 195 31.4772 195 37V213C195 218.523 190.523 223 185 223H65C59.4772 223 55 218.523 55 213V37ZM76 66.4002C76 60.8774 80.4772 56.4002 86 56.4002H164C169.523 56.4002 174 60.8774 174 66.4002V183.6C174 189.123 169.523 193.6 164 193.6H86C80.4772 193.6 76 189.123 76 183.6V66.4002ZM125 216C128.866 216 132 212.866 132 209C132 205.134 128.866 202 125 202C121.134 202 118 205.134 118 209C118 212.866 121.134 216 125 216Z" fill="black"/>
</svg>
