<svg width="500" height="500" viewBox="0 0 500 500" fill="none" xmlns="http://www.w3.org/2000/svg">
<circle cx="250" cy="250" r="250" fill="url(#paint0_linear_19044_42)"/>
<path d="M145.53 381V136H179.48L329.28 336.55L323.68 339.7C322.747 333.867 321.93 327.567 321.23 320.8C320.53 313.8 319.83 306.45 319.13 298.75C318.664 290.817 318.197 282.533 317.73 273.9C317.497 265.033 317.264 255.817 317.03 246.25C316.797 236.683 316.68 226.767 316.68 216.5V136H354.48V381H319.83L172.48 187.8L176.33 182.9C177.497 197.133 178.43 209.267 179.13 219.3C180.064 229.1 180.764 237.5 181.23 244.5C181.93 251.267 182.397 256.867 182.63 261.3C182.864 265.5 182.98 269 182.98 271.8C183.214 274.6 183.33 277.05 183.33 279.15V381H145.53Z" fill="#00543C"/>
<defs>
<linearGradient id="paint0_linear_19044_42" x1="0" y1="250" x2="500" y2="250" gradientUnits="userSpaceOnUse">
<stop stop-color="#99F7CB"/>
<stop offset="1" stop-color="#99FFFF"/>
<stop offset="1" stop-color="#99FFFF"/>
</linearGradient>
</defs>
</svg>
