<svg width="500" height="500" viewBox="0 0 500 500" fill="none" xmlns="http://www.w3.org/2000/svg">
<circle cx="250" cy="250" r="250" fill="url(#paint0_linear_19044_45)"/>
<path d="M249.96 384.5C232.694 384.5 216.71 381.35 202.01 375.05C187.544 368.75 174.827 360 163.86 348.8C153.127 337.367 144.727 324.067 138.66 308.9C132.827 293.5 129.91 276.7 129.91 258.5C129.91 240.3 132.827 223.617 138.66 208.45C144.727 193.05 153.127 179.75 163.86 168.55C174.827 157.117 187.544 148.25 202.01 141.95C216.71 135.65 232.694 132.5 249.96 132.5C267.227 132.5 283.094 135.65 297.56 141.95C312.26 148.25 324.977 157.117 335.71 168.55C346.677 179.983 355.077 193.4 360.91 208.8C366.977 223.967 370.01 240.533 370.01 258.5C370.01 276.467 366.977 293.15 360.91 308.55C355.077 323.717 346.677 337.017 335.71 348.45C324.977 359.883 312.26 368.75 297.56 375.05C283.094 381.35 267.227 384.5 249.96 384.5ZM249.96 347.75C261.86 347.75 272.71 345.533 282.51 341.1C292.544 336.667 301.177 330.483 308.41 322.55C315.644 314.383 321.244 304.933 325.21 294.2C329.41 283.233 331.51 271.333 331.51 258.5C331.51 245.667 329.41 233.883 325.21 223.15C321.244 212.183 315.644 202.733 308.41 194.8C301.177 186.633 292.544 180.333 282.51 175.9C272.71 171.467 261.86 169.25 249.96 169.25C238.06 169.25 227.094 171.467 217.06 175.9C207.26 180.333 198.627 186.517 191.16 194.45C183.927 202.383 178.327 211.833 174.36 222.8C170.394 233.533 168.41 245.433 168.41 258.5C168.41 271.333 170.394 283.233 174.36 294.2C178.327 305.167 183.927 314.617 191.16 322.55C198.627 330.483 207.26 336.667 217.06 341.1C227.094 345.533 238.06 347.75 249.96 347.75Z" fill="#00543C"/>
<defs>
<linearGradient id="paint0_linear_19044_45" x1="0" y1="250" x2="500" y2="250" gradientUnits="userSpaceOnUse">
<stop stop-color="#99F7CB"/>
<stop offset="1" stop-color="#99FFFF"/>
<stop offset="1" stop-color="#99FFFF"/>
</linearGradient>
</defs>
</svg>
