<svg width="500" height="500" viewBox="0 0 500 500" fill="none" xmlns="http://www.w3.org/2000/svg">
<circle cx="250" cy="250" r="250" fill="url(#paint0_linear_19044_48)"/>
<path d="M173.387 381V136H273.137C286.437 136 298.454 139.383 309.187 146.15C320.154 152.683 328.904 161.667 335.437 173.1C341.97 184.533 345.237 197.25 345.237 211.25C345.237 225.25 341.97 237.967 335.437 249.4C328.904 260.833 320.154 270.05 309.187 277.05C298.454 283.817 286.437 287.2 273.137 287.2H211.187V381H173.387ZM211.187 250.8H272.437C278.737 250.8 284.454 249.05 289.587 245.55C294.72 241.817 298.804 237.033 301.837 231.2C305.104 225.133 306.737 218.483 306.737 211.25C306.737 204.017 305.104 197.483 301.837 191.65C298.804 185.817 294.72 181.15 289.587 177.65C284.454 174.15 278.737 172.4 272.437 172.4H211.187V250.8Z" fill="#00543C"/>
<defs>
<linearGradient id="paint0_linear_19044_48" x1="0" y1="250" x2="500" y2="250" gradientUnits="userSpaceOnUse">
<stop stop-color="#99F7CB"/>
<stop offset="1" stop-color="#99FFFF"/>
<stop offset="1" stop-color="#99FFFF"/>
</linearGradient>
</defs>
</svg>
