<svg width="250" height="250" viewBox="0 0 250 250" fill="none" xmlns="http://www.w3.org/2000/svg">
<path d="M250 125C250 194.036 194.036 250 125 250C55.9644 250 0 194.036 0 125C0 55.9644 55.9644 0 125 0C194.036 0 250 55.9644 250 125ZM14.6627 125C14.6627 185.938 64.0624 235.337 125 235.337C185.938 235.337 235.337 185.938 235.337 125C235.337 64.0624 185.938 14.6627 125 14.6627C64.0624 14.6627 14.6627 64.0624 14.6627 125Z" fill="#384051"/>
<path d="M124.133 87V162" stroke="#384051" stroke-width="17" stroke-linecap="round"/>
<path d="M162 124.867L87 124.867" stroke="#384051" stroke-width="17" stroke-linecap="round"/>
</svg>
