<svg width="500" height="500" viewBox="0 0 500 500" fill="none" xmlns="http://www.w3.org/2000/svg">
<circle cx="250" cy="250" r="250" fill="url(#paint0_linear_19044_54)"/>
<path d="M162.62 381V136H266.92C280.92 136 293.754 139.5 305.42 146.5C317.32 153.267 326.77 162.6 333.77 174.5C340.77 186.167 344.27 199.35 344.27 214.05C344.27 227.35 340.77 239.717 333.77 251.15C326.77 262.583 317.437 271.8 305.77 278.8C294.104 285.567 281.154 288.95 266.92 288.95H200.42V381H162.62ZM308.22 381L245.92 270.4L284.77 261.65L354.07 381.35L308.22 381ZM200.42 252.55H270.42C277.187 252.55 283.254 250.917 288.62 247.65C293.987 244.15 298.187 239.483 301.22 233.65C304.254 227.583 305.77 220.933 305.77 213.7C305.77 205.533 303.787 198.417 299.82 192.35C296.087 186.05 290.72 181.15 283.72 177.65C276.954 174.15 269.254 172.4 260.62 172.4H200.42V252.55Z" fill="#00543C"/>
<defs>
<linearGradient id="paint0_linear_19044_54" x1="0" y1="250" x2="500" y2="250" gradientUnits="userSpaceOnUse">
<stop stop-color="#99F7CB"/>
<stop offset="1" stop-color="#99FFFF"/>
<stop offset="1" stop-color="#99FFFF"/>
</linearGradient>
</defs>
</svg>
