<svg width="500" height="500" viewBox="0 0 500 500" fill="none" xmlns="http://www.w3.org/2000/svg">
<circle cx="250" cy="250" r="250" fill="url(#paint0_linear_19044_57)"/>
<path d="M250.696 384.5C237.396 384.5 225.029 382.75 213.596 379.25C202.396 375.75 192.129 370.5 182.796 363.5C173.696 356.267 165.529 347.4 158.296 336.9L184.196 307.15C195.629 323.483 206.596 334.8 217.096 341.1C227.596 347.4 240.079 350.55 254.546 350.55C263.413 350.55 271.463 349.15 278.696 346.35C285.929 343.55 291.646 339.7 295.846 334.8C300.046 329.9 302.146 324.3 302.146 318C302.146 313.8 301.446 309.833 300.046 306.1C298.646 302.367 296.429 298.983 293.396 295.95C290.596 292.917 286.863 290.117 282.196 287.55C277.763 284.983 272.513 282.767 266.446 280.9C260.379 278.8 253.379 277.05 245.446 275.65C232.846 273.083 221.879 269.7 212.546 265.5C203.213 261.3 195.396 256.05 189.096 249.75C182.796 243.45 178.129 236.333 175.096 228.4C172.063 220.233 170.546 211.133 170.546 201.1C170.546 191.3 172.646 182.2 176.846 173.8C181.279 165.4 187.229 158.167 194.696 152.1C202.396 145.8 211.379 141.017 221.646 137.75C231.913 134.25 242.996 132.5 254.896 132.5C267.496 132.5 279.046 134.133 289.546 137.4C300.046 140.667 309.379 145.567 317.546 152.1C325.713 158.4 332.479 166.217 337.846 175.55L311.246 201.8C306.579 194.1 301.329 187.683 295.496 182.55C289.663 177.183 283.246 173.217 276.246 170.65C269.246 167.85 261.779 166.45 253.846 166.45C244.746 166.45 236.813 167.85 230.046 170.65C223.279 173.45 217.913 177.417 213.946 182.55C210.213 187.45 208.346 193.283 208.346 200.05C208.346 204.95 209.279 209.5 211.146 213.7C213.013 217.667 215.813 221.283 219.546 224.55C223.513 227.583 228.763 230.383 235.296 232.95C241.829 235.283 249.646 237.383 258.746 239.25C271.579 242.05 283.013 245.667 293.046 250.1C303.079 254.3 311.596 259.317 318.596 265.15C325.596 270.983 330.846 277.517 334.346 284.75C338.079 291.983 339.946 299.8 339.946 308.2C339.946 323.833 336.329 337.367 329.096 348.8C321.863 360.233 311.596 369.1 298.296 375.4C284.996 381.467 269.129 384.5 250.696 384.5Z" fill="#00543C"/>
<defs>
<linearGradient id="paint0_linear_19044_57" x1="0" y1="250" x2="500" y2="250" gradientUnits="userSpaceOnUse">
<stop stop-color="#99F7CB"/>
<stop offset="1" stop-color="#99FFFF"/>
<stop offset="1" stop-color="#99FFFF"/>
</linearGradient>
</defs>
</svg>
