<svg width="461" height="461" viewBox="0 0 461 461" fill="none" xmlns="http://www.w3.org/2000/svg">
<g clip-path="url(#clip0_19072_24)">
<path fill-rule="evenodd" clip-rule="evenodd" d="M375.557 236.755C375.672 234.385 375.729 232.01 375.729 229.635C375.729 227.266 375.672 224.891 375.557 222.521C375.438 220.146 375.266 217.781 375.031 215.417C374.797 213.052 374.505 210.698 374.161 208.349C373.812 206 373.406 203.662 372.943 201.333C372.479 199.005 371.958 196.688 371.38 194.385C370.807 192.083 370.172 189.797 369.484 187.521C368.792 185.25 368.047 182.995 367.25 180.76C366.448 178.526 365.594 176.313 364.688 174.115C363.776 171.922 362.818 169.755 361.802 167.609C360.786 165.458 359.719 163.339 358.599 161.245C357.479 159.151 356.307 157.089 355.089 155.052C353.87 153.016 352.599 151.01 351.281 149.037C349.958 147.057 348.594 145.12 347.177 143.214C345.766 141.307 344.302 139.432 342.797 137.599C341.292 135.76 339.74 133.964 338.146 132.208C336.552 130.448 334.917 128.729 333.234 127.047C331.557 125.37 329.839 123.734 328.078 122.141C326.318 120.542 324.521 118.995 322.688 117.49C320.849 115.979 318.979 114.521 317.073 113.104C315.167 111.693 313.224 110.323 311.25 109.005C309.276 107.688 307.271 106.417 305.234 105.198C303.198 103.974 301.13 102.807 299.036 101.688C296.943 100.568 294.823 99.5001 292.677 98.4845C290.531 97.4688 288.359 96.5053 286.167 95.599C283.974 94.6876 281.76 93.8334 279.526 93.0365C277.286 92.2345 275.036 91.4897 272.76 90.8022C270.49 90.1147 268.203 89.4792 265.901 88.9011C263.594 88.3282 261.281 87.8074 258.953 87.3438C256.62 86.8803 254.281 86.474 251.932 86.1251C249.589 85.7761 247.229 85.4845 244.87 85.2553C242.505 85.0209 240.135 84.8438 237.766 84.7292C235.396 84.6147 233.021 84.5574 230.646 84.5574C228.271 84.5574 225.901 84.6147 223.526 84.7292C221.156 84.8438 218.786 85.0209 216.427 85.2553C214.062 85.4845 211.708 85.7761 209.359 86.1251C207.01 86.474 204.672 86.8803 202.344 87.3438C200.016 87.8074 197.698 88.3282 195.396 88.9011C193.089 89.4792 190.802 90.1147 188.531 90.8022C186.26 91.4897 184.005 92.2345 181.771 93.0365C179.536 93.8334 177.318 94.6876 175.125 95.599C172.932 96.5053 170.76 97.4688 168.615 98.4845C166.469 99.5001 164.349 100.568 162.255 101.688C160.161 102.807 158.094 103.974 156.057 105.198C154.021 106.417 152.016 107.688 150.042 109.005C148.068 110.323 146.13 111.693 144.219 113.104C142.312 114.521 140.443 115.979 138.604 117.49C136.771 118.995 134.974 120.542 133.214 122.141C131.453 123.734 129.734 125.37 128.057 127.047C126.38 128.729 124.74 130.448 123.146 132.208C121.552 133.964 120 135.76 118.495 137.599C116.99 139.432 115.531 141.307 114.115 143.214C112.698 145.12 111.333 147.057 110.016 149.037C108.693 151.01 107.427 153.016 106.203 155.052C104.984 157.089 103.812 159.151 102.693 161.245C101.573 163.339 100.51 165.458 99.4948 167.609C98.4792 169.755 97.5156 171.922 96.6094 174.115C95.6979 176.313 94.8438 178.526 94.0469 180.76C93.2448 182.995 92.5 185.25 91.8125 187.521C91.1198 189.797 90.4896 192.083 89.9115 194.385C89.3333 196.688 88.8125 199.005 88.349 201.333C87.8854 203.662 87.4844 206 87.1354 208.349C86.7865 210.698 86.4948 213.052 86.2604 215.417C86.0312 217.781 85.8542 220.146 85.7396 222.521C85.6198 224.891 85.5625 227.266 85.5625 229.635C85.5625 232.01 85.6198 234.385 85.7396 236.755C85.8542 239.13 86.0312 241.495 86.2604 243.859C86.4948 246.224 86.7865 248.578 87.1354 250.927C87.4844 253.276 87.8854 255.615 88.349 257.943C88.8125 260.271 89.3333 262.589 89.9115 264.891C90.4896 267.193 91.1198 269.479 91.8125 271.755C92.5 274.026 93.2448 276.281 94.0469 278.516C94.8438 280.75 95.6979 282.964 96.6094 285.162C97.5156 287.354 98.4792 289.521 99.4948 291.667C100.51 293.818 101.573 295.938 102.693 298.031C103.812 300.125 104.984 302.188 106.203 304.224C107.427 306.26 108.693 308.266 110.016 310.24C111.333 312.214 112.698 314.156 114.115 316.063C115.531 317.969 116.99 319.844 118.495 321.677C120 323.516 121.552 325.313 123.146 327.068C124.74 328.828 126.38 330.547 128.057 332.229C129.734 333.906 131.453 335.542 133.214 337.135C134.974 338.734 136.771 340.281 138.604 341.787C140.443 343.297 142.312 344.755 144.219 346.172C146.13 347.583 148.068 348.953 150.042 350.271C152.016 351.589 154.021 352.859 156.057 354.078C158.094 355.302 160.161 356.469 162.255 357.589C164.349 358.708 166.469 359.776 168.615 360.792C170.76 361.807 172.932 362.771 175.125 363.677C177.318 364.583 179.536 365.443 181.771 366.24C184.005 367.042 186.26 367.787 188.531 368.474C190.802 369.162 193.089 369.797 195.396 370.375C197.698 370.948 200.016 371.469 202.344 371.932C204.672 372.396 207.01 372.802 209.359 373.151C211.708 373.5 214.062 373.792 216.427 374.021C218.786 374.255 221.156 374.432 223.526 374.547C225.901 374.662 228.271 374.719 230.646 374.719C233.021 374.719 235.396 374.662 237.766 374.547C240.135 374.432 242.505 374.255 244.87 374.021C247.229 373.792 249.589 373.5 251.932 373.151C254.281 372.802 256.62 372.396 258.953 371.932C261.281 371.469 263.594 370.948 265.901 370.375C268.203 369.797 270.49 369.162 272.76 368.474C275.036 367.787 277.286 367.042 279.526 366.24C281.76 365.443 283.974 364.583 286.167 363.677C288.359 362.771 290.531 361.807 292.677 360.792C294.823 359.776 296.943 358.708 299.036 357.589C301.13 356.469 303.198 355.302 305.234 354.078C307.271 352.859 309.276 351.589 311.25 350.271C313.224 348.953 315.167 347.583 317.073 346.172C318.979 344.755 320.849 343.297 322.688 341.787C324.521 340.281 326.318 338.734 328.078 337.135C329.839 335.542 331.557 333.906 333.234 332.229C334.917 330.547 336.552 328.828 338.146 327.068C339.74 325.313 341.292 323.516 342.797 321.677C344.302 319.844 345.766 317.969 347.177 316.063C348.594 314.156 349.958 312.214 351.281 310.24C352.599 308.266 353.87 306.26 355.089 304.224C356.307 302.188 357.479 300.125 358.599 298.031C359.719 295.938 360.786 293.818 361.802 291.667C362.818 289.521 363.776 287.354 364.688 285.162C365.594 282.964 366.448 280.75 367.25 278.516C368.047 276.281 368.792 274.026 369.484 271.755C370.172 269.479 370.807 267.193 371.38 264.891C371.958 262.589 372.479 260.271 372.943 257.943C373.406 255.615 373.812 253.276 374.161 250.927C374.51 248.578 374.797 246.224 375.031 243.859C375.266 241.495 375.438 239.13 375.557 236.755ZM335.576 229.792C335.664 228.073 335.706 226.354 335.706 224.635C335.706 222.917 335.664 221.198 335.576 219.479C335.492 217.76 335.367 216.047 335.201 214.339C335.029 212.625 334.82 210.922 334.565 209.219C334.315 207.521 334.023 205.823 333.685 204.141C333.352 202.453 332.971 200.776 332.555 199.109C332.138 197.438 331.68 195.781 331.18 194.135C330.68 192.495 330.143 190.859 329.565 189.24C328.982 187.625 328.367 186.021 327.706 184.432C327.049 182.844 326.352 181.271 325.617 179.714C324.883 178.162 324.107 176.625 323.299 175.109C322.487 173.594 321.643 172.099 320.758 170.625C319.872 169.151 318.956 167.698 317.997 166.266C317.044 164.839 316.055 163.432 315.029 162.052C314.003 160.672 312.945 159.313 311.857 157.984C310.768 156.656 309.643 155.354 308.487 154.083C307.336 152.807 306.148 151.563 304.935 150.344C303.716 149.13 302.471 147.943 301.201 146.792C299.924 145.635 298.622 144.516 297.294 143.422C295.966 142.333 294.607 141.276 293.227 140.25C291.846 139.224 290.44 138.234 289.013 137.281C287.581 136.323 286.133 135.406 284.654 134.521C283.18 133.635 281.685 132.792 280.169 131.979C278.654 131.172 277.117 130.396 275.565 129.662C274.008 128.927 272.435 128.229 270.846 127.573C269.258 126.917 267.659 126.297 266.039 125.719C264.419 125.135 262.789 124.599 261.143 124.099C259.497 123.599 257.841 123.141 256.169 122.724C254.503 122.307 252.826 121.927 251.138 121.594C249.456 121.26 247.758 120.964 246.06 120.714C244.357 120.458 242.654 120.25 240.94 120.083C239.232 119.912 237.518 119.787 235.799 119.703C234.081 119.615 232.362 119.573 230.643 119.573C228.924 119.573 227.206 119.615 225.487 119.703C223.773 119.787 222.06 119.912 220.346 120.083C218.633 120.25 216.93 120.458 215.227 120.714C213.529 120.964 211.836 121.26 210.148 121.594C208.461 121.927 206.784 122.307 205.117 122.724C203.451 123.141 201.794 123.599 200.148 124.099C198.503 124.599 196.867 125.135 195.253 125.719C193.633 126.297 192.029 126.917 190.44 127.573C188.852 128.229 187.279 128.927 185.727 129.662C184.169 130.396 182.633 131.172 181.117 131.979C179.602 132.792 178.107 133.635 176.633 134.521C175.159 135.406 173.706 136.323 172.273 137.281C170.846 138.234 169.44 139.224 168.06 140.25C166.68 141.276 165.326 142.333 163.992 143.422C162.664 144.516 161.362 145.635 160.091 146.792C158.815 147.943 157.57 149.13 156.357 150.344C155.138 151.563 153.956 152.807 152.799 154.083C151.643 155.354 150.523 156.656 149.43 157.984C148.341 159.313 147.284 160.672 146.258 162.052C145.237 163.432 144.242 164.839 143.289 166.266C142.336 167.698 141.414 169.151 140.529 170.625C139.648 172.099 138.799 173.594 137.987 175.109C137.18 176.625 136.404 178.162 135.669 179.714C134.935 181.271 134.237 182.844 133.581 184.432C132.924 186.021 132.305 187.625 131.727 189.24C131.148 190.859 130.607 192.495 130.107 194.135C129.607 195.781 129.148 197.438 128.732 199.109C128.315 200.776 127.94 202.453 127.602 204.141C127.268 205.823 126.971 207.521 126.721 209.219C126.466 210.922 126.258 212.625 126.091 214.339C125.919 216.047 125.794 217.76 125.711 219.479C125.628 221.198 125.586 222.917 125.586 224.635C125.586 226.354 125.628 228.073 125.711 229.792C125.794 231.505 125.919 233.224 126.091 234.932C126.258 236.646 126.466 238.349 126.721 240.052C126.971 241.75 127.268 243.443 127.602 245.13C127.94 246.818 128.315 248.495 128.732 250.162C129.148 251.828 129.607 253.49 130.107 255.13C130.607 256.776 131.148 258.412 131.727 260.031C132.305 261.646 132.924 263.25 133.581 264.839C134.237 266.427 134.935 268 135.669 269.552C136.404 271.109 137.18 272.646 137.987 274.162C138.799 275.677 139.648 277.172 140.529 278.646C141.414 280.12 142.336 281.573 143.289 283.005C144.242 284.432 145.237 285.839 146.258 287.219C147.284 288.599 148.341 289.953 149.43 291.287C150.523 292.615 151.643 293.917 152.799 295.188C153.956 296.464 155.138 297.708 156.357 298.922C157.57 300.141 158.815 301.323 160.091 302.479C161.362 303.635 162.664 304.755 163.992 305.849C165.326 306.938 166.68 307.995 168.06 309.021C169.44 310.047 170.846 311.037 172.273 311.99C173.706 312.943 175.159 313.865 176.633 314.75C178.107 315.63 179.602 316.479 181.117 317.292C182.633 318.099 184.169 318.875 185.727 319.609C187.279 320.344 188.852 321.042 190.44 321.698C192.029 322.354 193.633 322.974 195.253 323.552C196.867 324.135 198.503 324.672 200.148 325.172C201.794 325.672 203.451 326.13 205.117 326.547C206.784 326.964 208.461 327.344 210.148 327.677C211.836 328.01 213.529 328.307 215.227 328.557C216.93 328.813 218.633 329.021 220.346 329.188C222.06 329.359 223.773 329.484 225.487 329.568C227.206 329.651 228.924 329.698 230.643 329.698C232.362 329.698 234.081 329.651 235.799 329.568C237.518 329.484 239.232 329.359 240.94 329.188C242.654 329.021 244.357 328.813 246.06 328.557C247.758 328.307 249.456 328.01 251.138 327.677C252.826 327.344 254.503 326.964 256.169 326.547C257.841 326.13 259.497 325.672 261.143 325.172C262.789 324.672 264.419 324.135 266.039 323.552C267.659 322.974 269.258 322.354 270.846 321.698C272.435 321.042 274.008 320.344 275.565 319.609C277.117 318.875 278.654 318.099 280.169 317.292C281.685 316.479 283.18 315.63 284.654 314.75C286.133 313.865 287.581 312.943 289.013 311.99C290.44 311.037 291.846 310.047 293.227 309.021C294.607 307.995 295.966 306.938 297.294 305.849C298.622 304.755 299.924 303.635 301.201 302.479C302.471 301.323 303.716 300.141 304.935 298.922C306.148 297.708 307.336 296.464 308.487 295.188C309.643 293.917 310.768 292.615 311.857 291.287C312.945 289.953 314.003 288.599 315.029 287.219C316.055 285.839 317.044 284.432 317.997 283.005C318.956 281.573 319.872 280.12 320.758 278.646C321.643 277.172 322.487 275.677 323.299 274.162C324.107 272.646 324.883 271.109 325.617 269.552C326.352 268 327.049 266.427 327.706 264.839C328.367 263.25 328.982 261.646 329.565 260.031C330.143 258.412 330.68 256.776 331.18 255.13C331.68 253.49 332.138 251.828 332.555 250.162C332.971 248.495 333.352 246.818 333.685 245.13C334.023 243.443 334.315 241.75 334.565 240.052C334.82 238.349 335.029 236.646 335.201 234.932C335.367 233.224 335.492 231.505 335.576 229.792Z" fill="#9DA2AE"/>
<path d="M260.664 79.552V109.568C260.664 110.552 260.617 111.531 260.523 112.51C260.424 113.49 260.284 114.463 260.091 115.427C259.898 116.391 259.659 117.344 259.372 118.281C259.086 119.224 258.758 120.146 258.383 121.057C258.008 121.963 257.586 122.854 257.122 123.719C256.659 124.588 256.154 125.427 255.607 126.245C255.06 127.062 254.477 127.854 253.852 128.609C253.227 129.37 252.57 130.099 251.872 130.797C251.18 131.49 250.451 132.151 249.69 132.771C248.93 133.396 248.143 133.979 247.326 134.526C246.508 135.073 245.664 135.578 244.799 136.042C243.93 136.505 243.044 136.927 242.138 137.302C241.227 137.677 240.305 138.01 239.362 138.292C238.424 138.578 237.471 138.818 236.508 139.01C235.539 139.203 234.57 139.344 233.591 139.443C232.612 139.536 231.633 139.588 230.648 139.588C229.664 139.588 228.685 139.536 227.706 139.443C226.727 139.344 225.758 139.203 224.794 139.01C223.831 138.818 222.878 138.578 221.935 138.292C220.997 138.01 220.07 137.677 219.164 137.302C218.253 136.927 217.367 136.505 216.497 136.042C215.633 135.578 214.789 135.073 213.971 134.526C213.154 133.979 212.367 133.396 211.607 132.771C210.846 132.151 210.117 131.49 209.424 130.797C208.727 130.099 208.07 129.37 207.445 128.609C206.82 127.854 206.237 127.062 205.69 126.245C205.143 125.427 204.638 124.588 204.174 123.719C203.711 122.854 203.294 121.963 202.919 121.057C202.539 120.146 202.211 119.224 201.924 118.281C201.638 117.344 201.398 116.391 201.211 115.427C201.018 114.463 200.872 113.49 200.779 112.51C200.68 111.531 200.633 110.552 200.633 109.568V79.552C200.633 78.5676 200.68 77.5885 200.779 76.6093C200.872 75.6301 201.018 74.6614 201.211 73.6978C201.398 72.7291 201.638 71.7812 201.924 70.8385C202.211 69.8958 202.539 68.9739 202.919 68.0624C203.294 67.1562 203.711 66.2708 204.174 65.401C204.638 64.5364 205.143 63.6926 205.69 62.8749C206.237 62.0572 206.82 61.2708 207.445 60.5103C208.07 59.7499 208.727 59.0208 209.424 58.328C210.117 57.6301 210.846 56.9739 211.607 56.3489C212.367 55.7239 213.154 55.1405 213.971 54.5937C214.789 54.0468 215.633 53.5416 216.497 53.078C217.367 52.6145 218.253 52.1978 219.164 51.8176C220.07 51.4426 220.997 51.1145 221.935 50.828C222.878 50.5416 223.831 50.302 224.794 50.1093C225.758 49.9218 226.727 49.776 227.706 49.677C228.685 49.5833 229.664 49.5364 230.648 49.5364C231.633 49.5364 232.612 49.5833 233.591 49.677C234.57 49.776 235.539 49.9218 236.508 50.1093C237.471 50.302 238.424 50.5416 239.362 50.828C240.305 51.1145 241.227 51.4426 242.138 51.8176C243.044 52.1978 243.93 52.6145 244.799 53.078C245.664 53.5416 246.508 54.0468 247.326 54.5937C248.143 55.1405 248.93 55.7239 249.69 56.3489C250.451 56.9739 251.18 57.6301 251.872 58.328C252.57 59.0208 253.227 59.7499 253.852 60.5103C254.477 61.2708 255.06 62.0572 255.607 62.8749C256.154 63.6926 256.659 64.5364 257.122 65.401C257.586 66.2708 258.008 67.1562 258.383 68.0624C258.758 68.9739 259.086 69.8958 259.372 70.8385C259.659 71.7812 259.898 72.7291 260.091 73.6978C260.284 74.6614 260.424 75.6301 260.523 76.6093C260.617 77.5885 260.664 78.5676 260.664 79.552Z" fill="#9DA2AE"/>
<path d="M260.664 349.708V369.719C260.664 370.703 260.617 371.682 260.523 372.661C260.424 373.641 260.284 374.609 260.091 375.573C259.898 376.536 259.659 377.49 259.372 378.432C259.086 379.375 258.758 380.297 258.383 381.203C258.008 382.115 257.586 383 257.122 383.87C256.659 384.734 256.154 385.578 255.607 386.396C255.06 387.214 254.477 388 253.852 388.76C253.227 389.521 252.57 390.25 251.872 390.943C251.18 391.641 250.451 392.297 249.69 392.922C248.93 393.547 248.143 394.13 247.326 394.677C246.508 395.224 245.664 395.729 244.799 396.193C243.93 396.656 243.044 397.073 242.138 397.448C241.227 397.828 240.305 398.156 239.362 398.443C238.424 398.729 237.471 398.969 236.508 399.156C235.539 399.349 234.57 399.495 233.591 399.589C232.612 399.688 231.633 399.734 230.648 399.734C229.664 399.734 228.685 399.688 227.706 399.589C226.727 399.495 225.758 399.349 224.794 399.156C223.831 398.969 222.878 398.729 221.935 398.443C220.997 398.156 220.07 397.828 219.164 397.448C218.253 397.073 217.367 396.656 216.497 396.193C215.633 395.729 214.789 395.224 213.971 394.677C213.154 394.13 212.367 393.547 211.607 392.922C210.846 392.297 210.117 391.641 209.424 390.943C208.727 390.25 208.07 389.521 207.445 388.76C206.82 388 206.237 387.214 205.69 386.396C205.143 385.578 204.638 384.734 204.174 383.87C203.711 383 203.294 382.115 202.919 381.203C202.539 380.297 202.211 379.375 201.924 378.432C201.638 377.49 201.398 376.536 201.211 375.573C201.018 374.609 200.872 373.641 200.779 372.661C200.68 371.682 200.633 370.703 200.633 369.719V349.708C200.633 348.724 200.68 347.745 200.779 346.766C200.872 345.786 201.018 344.813 201.211 343.849C201.398 342.885 201.638 341.932 201.924 340.995C202.211 340.052 202.539 339.13 202.919 338.219C203.294 337.312 203.711 336.422 204.174 335.557C204.638 334.688 205.143 333.849 205.69 333.031C206.237 332.214 206.82 331.422 207.445 330.661C208.07 329.906 208.727 329.177 209.424 328.479C210.117 327.786 210.846 327.125 211.607 326.505C212.367 325.88 213.154 325.297 213.971 324.75C214.789 324.203 215.633 323.698 216.497 323.234C217.367 322.771 218.253 322.349 219.164 321.974C220.07 321.599 220.997 321.266 221.935 320.984C222.878 320.698 223.831 320.458 224.794 320.266C225.758 320.073 226.727 319.932 227.706 319.833C228.685 319.74 229.664 319.688 230.648 319.688C231.633 319.688 232.612 319.74 233.591 319.833C234.57 319.932 235.539 320.073 236.508 320.266C237.471 320.458 238.424 320.698 239.362 320.984C240.305 321.266 241.227 321.599 242.138 321.974C243.044 322.349 243.93 322.771 244.799 323.234C245.664 323.698 246.508 324.203 247.326 324.75C248.143 325.297 248.93 325.88 249.69 326.505C250.451 327.125 251.18 327.786 251.872 328.479C252.57 329.177 253.227 329.906 253.852 330.667C254.477 331.422 255.06 332.214 255.607 333.031C256.154 333.849 256.659 334.688 257.122 335.557C257.586 336.422 258.008 337.312 258.383 338.219C258.758 339.13 259.086 340.052 259.372 340.995C259.659 341.932 259.898 342.885 260.091 343.849C260.284 344.813 260.424 345.786 260.523 346.766C260.617 347.745 260.664 348.724 260.664 349.708Z" fill="#9DA2AE"/>
<path d="M350.711 199.62H380.732C381.711 199.62 382.695 199.667 383.674 199.766C384.648 199.859 385.622 200.005 386.586 200.198C387.549 200.391 388.503 200.63 389.445 200.912C390.383 201.198 391.31 201.531 392.216 201.906C393.128 202.281 394.013 202.703 394.878 203.167C395.747 203.63 396.591 204.135 397.409 204.677C398.227 205.224 399.013 205.813 399.773 206.432C400.534 207.057 401.258 207.719 401.956 208.412C402.648 209.109 403.31 209.833 403.935 210.594C404.555 211.354 405.143 212.146 405.69 212.964C406.237 213.781 406.737 214.62 407.201 215.49C407.664 216.354 408.086 217.245 408.461 218.151C408.836 219.057 409.169 219.984 409.456 220.922C409.742 221.865 409.977 222.818 410.169 223.781C410.362 224.745 410.508 225.719 410.602 226.698C410.701 227.672 410.747 228.656 410.747 229.635C410.747 230.62 410.701 231.604 410.602 232.578C410.508 233.557 410.362 234.531 410.169 235.495C409.977 236.458 409.742 237.412 409.456 238.349C409.169 239.292 408.836 240.219 408.461 241.125C408.086 242.031 407.664 242.922 407.201 243.787C406.737 244.656 406.237 245.495 405.69 246.313C405.143 247.13 404.555 247.922 403.935 248.682C403.31 249.443 402.648 250.167 401.956 250.865C401.258 251.557 400.534 252.219 399.773 252.844C399.013 253.464 398.227 254.052 397.409 254.594C396.591 255.141 395.747 255.646 394.878 256.109C394.013 256.573 393.128 256.995 392.216 257.37C391.31 257.745 390.383 258.078 389.445 258.365C388.503 258.646 387.549 258.886 386.586 259.078C385.622 259.271 384.648 259.417 383.674 259.51C382.695 259.609 381.711 259.656 380.732 259.656H350.711C349.732 259.656 348.747 259.609 347.768 259.51C346.794 259.417 345.82 259.271 344.857 259.078C343.893 258.886 342.94 258.646 341.997 258.365C341.06 258.078 340.133 257.745 339.227 257.37C338.315 256.995 337.43 256.573 336.565 256.109C335.695 255.646 334.852 255.141 334.034 254.594C333.216 254.052 332.43 253.464 331.669 252.844C330.909 252.219 330.185 251.557 329.487 250.865C328.794 250.167 328.133 249.443 327.508 248.682C326.888 247.922 326.299 247.13 325.753 246.313C325.206 245.495 324.706 244.656 324.242 243.787C323.779 242.922 323.357 242.031 322.982 241.125C322.607 240.219 322.273 239.292 321.987 238.349C321.701 237.412 321.466 236.458 321.273 235.495C321.081 234.531 320.935 233.557 320.841 232.578C320.742 231.604 320.695 230.62 320.695 229.635C320.695 228.656 320.742 227.672 320.841 226.698C320.935 225.719 321.081 224.745 321.273 223.781C321.466 222.818 321.701 221.865 321.987 220.922C322.273 219.984 322.607 219.057 322.982 218.151C323.357 217.245 323.779 216.354 324.242 215.49C324.706 214.62 325.206 213.781 325.753 212.964C326.299 212.146 326.888 211.354 327.508 210.594C328.133 209.833 328.794 209.109 329.487 208.412C330.185 207.719 330.909 207.057 331.669 206.432C332.43 205.813 333.216 205.224 334.034 204.677C334.852 204.135 335.695 203.63 336.565 203.167C337.43 202.703 338.315 202.281 339.227 201.906C340.133 201.531 341.06 201.198 341.997 200.912C342.94 200.63 343.893 200.391 344.857 200.198C345.82 200.005 346.794 199.859 347.768 199.766C348.747 199.667 349.732 199.62 350.711 199.62Z" fill="#9DA2AE"/>
<path d="M80.5599 199.62H110.576C111.56 199.62 112.539 199.667 113.518 199.766C114.497 199.859 115.466 200.005 116.43 200.198C117.393 200.391 118.346 200.63 119.289 200.912C120.232 201.198 121.154 201.531 122.06 201.906C122.971 202.281 123.857 202.703 124.727 203.167C125.591 203.63 126.435 204.135 127.253 204.677C128.07 205.224 128.857 205.813 129.617 206.432C130.378 207.057 131.107 207.719 131.799 208.412C132.497 209.109 133.154 209.833 133.779 210.594C134.404 211.354 134.987 212.146 135.534 212.964C136.081 213.781 136.586 214.62 137.049 215.49C137.513 216.354 137.93 217.245 138.31 218.151C138.685 219.057 139.013 219.984 139.299 220.922C139.586 221.865 139.826 222.818 140.013 223.781C140.206 224.745 140.352 225.719 140.445 226.698C140.544 227.672 140.591 228.656 140.591 229.635C140.591 230.62 140.544 231.604 140.445 232.578C140.352 233.557 140.206 234.531 140.013 235.495C139.826 236.458 139.586 237.412 139.299 238.349C139.013 239.292 138.685 240.219 138.31 241.125C137.93 242.031 137.513 242.922 137.049 243.787C136.586 244.656 136.081 245.495 135.534 246.313C134.987 247.13 134.404 247.922 133.779 248.682C133.154 249.443 132.497 250.167 131.799 250.865C131.107 251.557 130.378 252.219 129.617 252.844C128.857 253.464 128.07 254.052 127.253 254.594C126.435 255.141 125.591 255.646 124.727 256.109C123.857 256.573 122.971 256.995 122.06 257.37C121.154 257.745 120.232 258.078 119.289 258.365C118.346 258.646 117.393 258.886 116.43 259.078C115.466 259.271 114.497 259.417 113.518 259.51C112.539 259.609 111.56 259.656 110.576 259.656H80.5599C79.5755 259.656 78.5964 259.609 77.6172 259.51C76.638 259.417 75.6641 259.271 74.7005 259.078C73.737 258.886 72.7839 258.646 71.8464 258.365C70.9036 258.078 69.9766 257.745 69.0703 257.37C68.1641 256.995 67.2734 256.573 66.4089 256.109C65.5391 255.646 64.7005 255.141 63.8828 254.594C63.0651 254.052 62.2734 253.464 61.513 252.844C60.7578 252.219 60.0286 251.557 59.3307 250.865C58.638 250.167 57.9766 249.443 57.3568 248.682C56.7318 247.922 56.1432 247.13 55.6016 246.313C55.0547 245.495 54.5495 244.656 54.0859 243.787C53.6224 242.922 53.2005 242.031 52.8255 241.125C52.4505 240.219 52.1172 239.292 51.8307 238.349C51.5495 237.412 51.3099 236.458 51.1172 235.495C50.9245 234.531 50.7839 233.557 50.6849 232.578C50.5911 231.604 50.5391 230.62 50.5391 229.635C50.5391 228.656 50.5911 227.672 50.6849 226.698C50.7839 225.719 50.9245 224.745 51.1172 223.781C51.3099 222.818 51.5495 221.865 51.8307 220.922C52.1172 219.984 52.4505 219.057 52.8255 218.151C53.2005 217.245 53.6224 216.354 54.0859 215.49C54.5495 214.62 55.0547 213.781 55.6016 212.964C56.1432 212.146 56.7318 211.354 57.3568 210.594C57.9766 209.833 58.638 209.109 59.3307 208.412C60.0286 207.719 60.7578 207.057 61.513 206.432C62.2734 205.813 63.0651 205.224 63.8828 204.677C64.7005 204.135 65.5391 203.63 66.4089 203.167C67.2734 202.703 68.1641 202.281 69.0703 201.906C69.9766 201.531 70.9036 201.198 71.8464 200.912C72.7839 200.63 73.737 200.391 74.7005 200.198C75.6641 200.005 76.638 199.859 77.6172 199.766C78.5964 199.667 79.5755 199.62 80.5599 199.62Z" fill="#9DA2AE"/>
<path d="M294.862 121.969L316.086 100.745C316.784 100.047 317.508 99.3906 318.268 98.7656C319.029 98.1406 319.815 97.5573 320.633 97.0104C321.451 96.4635 322.294 95.9583 323.164 95.4948C324.029 95.0313 324.914 94.6146 325.826 94.2396C326.732 93.8594 327.659 93.5313 328.596 93.2448C329.539 92.9583 330.492 92.7188 331.456 92.5313C332.419 92.3385 333.393 92.1927 334.367 92.099C335.346 92 336.331 91.9531 337.31 91.9531C338.294 91.9531 339.273 92 340.253 92.099C341.232 92.1927 342.206 92.3385 343.169 92.5313C344.133 92.7188 345.086 92.9583 346.023 93.2448C346.966 93.5313 347.888 93.8594 348.799 94.2396C349.706 94.6146 350.596 95.0313 351.461 95.4948C352.331 95.9583 353.169 96.4635 353.987 97.0104C354.805 97.5573 355.596 98.1406 356.357 98.7656C357.112 99.3906 357.841 100.047 358.539 100.745C359.232 101.437 359.893 102.167 360.513 102.927C361.138 103.687 361.721 104.474 362.268 105.292C362.815 106.109 363.32 106.953 363.784 107.818C364.247 108.688 364.669 109.573 365.044 110.484C365.419 111.391 365.753 112.318 366.034 113.255C366.32 114.198 366.56 115.151 366.753 116.115C366.945 117.078 367.086 118.047 367.185 119.026C367.279 120.005 367.331 120.984 367.331 121.969C367.331 122.953 367.279 123.932 367.185 124.911C367.086 125.891 366.945 126.859 366.753 127.828C366.56 128.792 366.32 129.745 366.034 130.682C365.753 131.625 365.419 132.547 365.044 133.458C364.669 134.365 364.247 135.255 363.784 136.12C363.32 136.984 362.815 137.828 362.268 138.646C361.721 139.464 361.138 140.25 360.513 141.01C359.893 141.771 359.232 142.5 358.539 143.193L337.31 164.422C336.617 165.115 335.888 165.776 335.128 166.401C334.367 167.021 333.581 167.609 332.763 168.151C331.945 168.698 331.102 169.203 330.237 169.667C329.367 170.13 328.482 170.552 327.576 170.927C326.664 171.302 325.742 171.635 324.799 171.922C323.857 172.203 322.909 172.443 321.94 172.635C320.977 172.828 320.008 172.969 319.029 173.068C318.049 173.161 317.07 173.214 316.086 173.214C315.102 173.214 314.122 173.161 313.143 173.068C312.164 172.969 311.195 172.828 310.232 172.635C309.268 172.443 308.315 172.203 307.372 171.922C306.43 171.635 305.508 171.302 304.602 170.927C303.69 170.552 302.805 170.13 301.935 169.667C301.07 169.203 300.227 168.698 299.409 168.151C298.591 167.609 297.805 167.021 297.044 166.401C296.284 165.776 295.555 165.115 294.862 164.422C294.164 163.724 293.508 163 292.883 162.24C292.258 161.479 291.674 160.688 291.128 159.87C290.581 159.052 290.076 158.214 289.612 157.344C289.148 156.479 288.732 155.589 288.352 154.682C287.977 153.776 287.648 152.849 287.362 151.906C287.076 150.969 286.836 150.016 286.648 149.052C286.456 148.089 286.31 147.115 286.216 146.135C286.117 145.161 286.07 144.177 286.07 143.193C286.07 142.214 286.117 141.229 286.216 140.255C286.31 139.276 286.456 138.302 286.648 137.339C286.836 136.375 287.076 135.422 287.362 134.479C287.648 133.542 287.977 132.615 288.352 131.708C288.732 130.802 289.148 129.911 289.612 129.047C290.076 128.177 290.581 127.333 291.128 126.521C291.674 125.703 292.258 124.911 292.883 124.151C293.508 123.391 294.164 122.667 294.862 121.969Z" fill="#9DA2AE"/>
<path d="M100.753 312.078L121.982 290.854C122.674 290.156 123.404 289.5 124.164 288.875C124.924 288.25 125.711 287.667 126.529 287.12C127.346 286.573 128.19 286.068 129.055 285.604C129.924 285.141 130.81 284.724 131.716 284.349C132.628 283.969 133.549 283.641 134.492 283.354C135.435 283.068 136.383 282.828 137.352 282.641C138.315 282.448 139.284 282.302 140.263 282.208C141.242 282.109 142.221 282.062 143.206 282.062C144.19 282.062 145.169 282.109 146.148 282.208C147.128 282.302 148.096 282.448 149.06 282.641C150.023 282.828 150.977 283.068 151.919 283.354C152.862 283.641 153.784 283.969 154.69 284.344C155.602 284.724 156.487 285.141 157.357 285.604C158.221 286.068 159.065 286.573 159.883 287.12C160.701 287.667 161.487 288.25 162.247 288.875C163.008 289.5 163.737 290.156 164.43 290.854C165.128 291.547 165.784 292.276 166.409 293.036C167.034 293.797 167.617 294.583 168.164 295.401C168.711 296.219 169.216 297.062 169.68 297.927C170.143 298.797 170.56 299.682 170.94 300.594C171.315 301.5 171.643 302.422 171.93 303.365C172.216 304.307 172.456 305.26 172.648 306.224C172.836 307.188 172.982 308.156 173.081 309.135C173.174 310.115 173.221 311.094 173.221 312.078C173.221 313.063 173.174 314.042 173.081 315.021C172.982 316 172.836 316.969 172.648 317.932C172.456 318.901 172.216 319.849 171.93 320.792C171.643 321.734 171.315 322.656 170.94 323.568C170.56 324.474 170.143 325.359 169.68 326.229C169.216 327.094 168.711 327.938 168.164 328.755C167.617 329.573 167.034 330.359 166.409 331.12C165.784 331.88 165.128 332.609 164.43 333.302L143.206 354.531C142.513 355.224 141.784 355.885 141.023 356.505C140.263 357.13 139.477 357.719 138.659 358.26C137.841 358.807 136.997 359.313 136.133 359.776C135.263 360.24 134.378 360.661 133.466 361.036C132.56 361.411 131.633 361.745 130.695 362.026C129.753 362.313 128.799 362.552 127.836 362.745C126.872 362.938 125.898 363.078 124.924 363.177C123.945 363.271 122.961 363.323 121.982 363.323C120.997 363.323 120.018 363.271 119.039 363.177C118.06 363.078 117.086 362.938 116.122 362.745C115.159 362.552 114.206 362.313 113.268 362.031C112.326 361.745 111.404 361.411 110.492 361.036C109.586 360.661 108.695 360.24 107.831 359.776C106.961 359.313 106.122 358.807 105.305 358.26C104.487 357.719 103.695 357.13 102.94 356.505C102.18 355.885 101.451 355.224 100.753 354.531C100.06 353.833 99.3984 353.104 98.7786 352.349C98.1536 351.589 97.5703 350.797 97.0234 349.979C96.4766 349.161 95.9714 348.323 95.5078 347.453C95.0443 346.589 94.6224 345.698 94.2474 344.792C93.8724 343.885 93.5391 342.958 93.2578 342.016C92.9714 341.078 92.7318 340.125 92.5391 339.161C92.3464 338.198 92.2057 337.224 92.1068 336.245C92.013 335.266 91.9609 334.286 91.9609 333.302C91.9609 332.323 92.013 331.339 92.1068 330.359C92.2057 329.385 92.3464 328.411 92.5391 327.448C92.7318 326.484 92.9714 325.531 93.2578 324.589C93.5391 323.651 93.8724 322.724 94.2474 321.818C94.6224 320.906 95.0443 320.021 95.5078 319.156C95.9714 318.286 96.4766 317.443 97.0234 316.625C97.5703 315.813 98.1536 315.021 98.7786 314.26C99.3984 313.5 100.06 312.776 100.753 312.078Z" fill="#9DA2AE"/>
<path d="M315.086 359.531L293.862 338.307C293.164 337.609 292.508 336.885 291.883 336.125C291.258 335.365 290.674 334.573 290.128 333.76C289.581 332.943 289.076 332.099 288.612 331.229C288.148 330.365 287.732 329.479 287.352 328.568C286.977 327.661 286.648 326.734 286.362 325.797C286.076 324.854 285.836 323.901 285.643 322.938C285.456 321.974 285.31 321 285.211 320.026C285.117 319.047 285.07 318.063 285.07 317.083C285.07 316.099 285.117 315.12 285.211 314.141C285.31 313.161 285.456 312.188 285.643 311.224C285.836 310.26 286.076 309.307 286.362 308.37C286.648 307.427 286.977 306.505 287.352 305.594C287.732 304.687 288.148 303.797 288.612 302.932C289.076 302.063 289.581 301.224 290.128 300.406C290.674 299.589 291.258 298.797 291.883 298.036C292.508 297.281 293.164 296.552 293.862 295.854C294.555 295.161 295.284 294.5 296.044 293.88C296.805 293.255 297.591 292.667 298.409 292.125C299.227 291.578 300.07 291.073 300.935 290.609C301.805 290.146 302.69 289.724 303.596 289.349C304.508 288.974 305.43 288.641 306.372 288.359C307.315 288.073 308.263 287.833 309.232 287.641C310.195 287.448 311.164 287.307 312.143 287.208C313.122 287.115 314.102 287.062 315.086 287.062C316.07 287.062 317.049 287.115 318.029 287.208C319.008 287.307 319.977 287.448 320.94 287.641C321.904 287.833 322.857 288.073 323.799 288.359C324.742 288.641 325.664 288.974 326.57 289.349C327.482 289.724 328.367 290.146 329.237 290.609C330.102 291.073 330.945 291.578 331.763 292.125C332.581 292.667 333.367 293.255 334.128 293.88C334.888 294.5 335.617 295.161 336.31 295.854L357.539 317.083C358.232 317.776 358.893 318.505 359.513 319.266C360.138 320.026 360.721 320.813 361.268 321.63C361.815 322.448 362.32 323.292 362.784 324.156C363.247 325.026 363.669 325.911 364.044 326.818C364.419 327.729 364.753 328.651 365.034 329.594C365.32 330.536 365.56 331.484 365.753 332.453C365.945 333.417 366.086 334.385 366.185 335.365C366.279 336.344 366.331 337.323 366.331 338.307C366.331 339.292 366.279 340.271 366.185 341.25C366.086 342.229 365.945 343.198 365.753 344.161C365.56 345.125 365.32 346.078 365.034 347.021C364.753 347.964 364.419 348.885 364.044 349.792C363.669 350.703 363.247 351.589 362.784 352.458C362.32 353.323 361.815 354.167 361.268 354.984C360.721 355.802 360.138 356.589 359.513 357.349C358.893 358.109 358.232 358.839 357.539 359.531C356.841 360.229 356.112 360.885 355.352 361.51C354.596 362.135 353.805 362.719 352.987 363.266C352.169 363.813 351.331 364.318 350.461 364.781C349.596 365.245 348.706 365.661 347.799 366.042C346.888 366.417 345.966 366.745 345.023 367.031C344.086 367.318 343.133 367.557 342.169 367.745C341.201 367.938 340.232 368.083 339.253 368.177C338.273 368.276 337.294 368.323 336.31 368.323C335.326 368.323 334.346 368.276 333.367 368.177C332.388 368.083 331.419 367.938 330.456 367.745C329.492 367.557 328.539 367.318 327.596 367.031C326.659 366.745 325.732 366.417 324.826 366.042C323.914 365.661 323.029 365.245 322.159 364.781C321.294 364.318 320.451 363.813 319.633 363.266C318.815 362.719 318.029 362.135 317.268 361.51C316.508 360.885 315.779 360.229 315.086 359.531Z" fill="#9DA2AE"/>
<path d="M118.977 168.422L97.7526 147.198C97.0599 146.5 96.3984 145.776 95.7734 145.016C95.1536 144.255 94.5651 143.464 94.0182 142.651C93.4766 141.833 92.9714 140.99 92.5078 140.12C92.0443 139.255 91.6224 138.37 91.2474 137.458C90.8724 136.552 90.5391 135.625 90.2526 134.688C89.9661 133.745 89.7318 132.792 89.5391 131.828C89.3464 130.865 89.2005 129.891 89.1068 128.917C89.0078 127.938 88.9609 126.953 88.9609 125.974C88.9609 124.99 89.0078 124.01 89.1068 123.031C89.2005 122.052 89.3464 121.078 89.5391 120.115C89.7318 119.151 89.9661 118.198 90.2526 117.26C90.5391 116.318 90.8724 115.391 91.2474 114.484C91.6224 113.578 92.0443 112.687 92.5078 111.823C92.9714 110.953 93.4766 110.115 94.0182 109.297C94.5651 108.479 95.1536 107.687 95.7734 106.927C96.3984 106.167 97.0599 105.443 97.7526 104.745C98.4505 104.052 99.1745 103.391 99.9349 102.771C100.695 102.146 101.487 101.557 102.299 101.016C103.117 100.469 103.961 99.9635 104.831 99.5C105.695 99.0365 106.581 98.6146 107.492 98.2396C108.398 97.8646 109.326 97.5313 110.263 97.2448C111.206 96.9635 112.159 96.724 113.122 96.5313C114.086 96.3385 115.06 96.1979 116.034 96.099C117.013 96.0052 117.997 95.9531 118.977 95.9531C119.961 95.9531 120.94 96.0052 121.919 96.099C122.898 96.1979 123.872 96.3385 124.836 96.5313C125.799 96.724 126.753 96.9635 127.69 97.2448C128.633 97.5313 129.56 97.8646 130.466 98.2396C131.372 98.6146 132.263 99.0365 133.128 99.5C133.997 99.9635 134.836 100.469 135.654 101.016C136.471 101.557 137.263 102.146 138.023 102.771C138.779 103.391 139.508 104.052 140.206 104.745L161.43 125.974C162.122 126.667 162.784 127.396 163.409 128.156C164.029 128.917 164.617 129.703 165.164 130.521C165.711 131.339 166.211 132.182 166.674 133.047C167.138 133.917 167.56 134.802 167.935 135.708C168.31 136.62 168.643 137.542 168.93 138.484C169.216 139.427 169.451 140.375 169.643 141.344C169.836 142.307 169.982 143.276 170.076 144.255C170.174 145.234 170.221 146.214 170.221 147.198C170.221 148.182 170.174 149.161 170.076 150.141C169.982 151.12 169.836 152.089 169.643 153.052C169.451 154.016 169.216 154.969 168.93 155.911C168.643 156.854 168.31 157.776 167.935 158.682C167.56 159.594 167.138 160.479 166.674 161.349C166.211 162.214 165.711 163.057 165.164 163.875C164.617 164.693 164.029 165.479 163.409 166.24C162.784 167 162.122 167.729 161.43 168.422C160.732 169.12 160.008 169.776 159.247 170.401C158.487 171.026 157.701 171.609 156.883 172.156C156.065 172.703 155.221 173.208 154.352 173.672C153.487 174.135 152.602 174.552 151.69 174.927C150.784 175.307 149.857 175.635 148.919 175.922C147.977 176.208 147.023 176.448 146.06 176.635C145.096 176.828 144.122 176.974 143.148 177.068C142.169 177.167 141.185 177.214 140.206 177.214C139.221 177.214 138.242 177.167 137.263 177.068C136.284 176.974 135.31 176.828 134.346 176.635C133.383 176.448 132.43 176.208 131.492 175.922C130.549 175.635 129.628 175.307 128.716 174.927C127.81 174.552 126.919 174.135 126.055 173.672C125.185 173.208 124.346 172.703 123.529 172.156C122.711 171.609 121.919 171.026 121.159 170.401C120.404 169.776 119.674 169.12 118.977 168.422Z" fill="#9DA2AE"/>
</g>
<defs>
<clipPath id="clip0_19072_24">
<rect width="461" height="461" fill="white"/>
</clipPath>
</defs>
</svg>
