<svg width="582" height="534" viewBox="0 0 582 534" fill="none" xmlns="http://www.w3.org/2000/svg">
<path d="M485.776 240.635C485.776 244.406 485.687 248.166 485.5 251.932C485.318 255.693 485.042 259.448 484.672 263.193C484.302 266.943 483.838 270.682 483.286 274.406C482.734 278.13 482.094 281.838 481.354 285.536C480.62 289.229 479.797 292.901 478.88 296.557C477.969 300.208 476.963 303.838 475.87 307.443C474.776 311.047 473.594 314.62 472.328 318.166C471.057 321.713 469.703 325.224 468.26 328.703C466.818 332.187 465.292 335.625 463.682 339.031C462.073 342.437 460.38 345.802 458.604 349.12C456.828 352.443 454.974 355.719 453.036 358.948C451.099 362.182 449.088 365.359 446.995 368.495C444.901 371.625 442.734 374.703 440.489 377.729C438.245 380.75 435.932 383.719 433.542 386.63C431.151 389.541 428.693 392.396 426.161 395.187C423.635 397.974 421.036 400.703 418.375 403.364C415.713 406.031 412.984 408.625 410.193 411.156C407.401 413.682 404.552 416.14 401.641 418.531C398.729 420.922 395.76 423.239 392.734 425.479C389.708 427.724 386.63 429.89 383.5 431.984C380.37 434.078 377.187 436.094 373.958 438.026C370.729 439.963 367.453 441.823 364.13 443.594C360.807 445.37 357.443 447.062 354.042 448.677C350.635 450.286 347.193 451.812 343.713 453.25C340.234 454.692 336.724 456.047 333.177 457.317C329.63 458.588 326.052 459.765 322.448 460.859C318.844 461.953 315.219 462.958 311.562 463.875C307.911 464.786 304.234 465.614 300.542 466.349C296.849 467.083 293.141 467.724 289.411 468.281C285.687 468.833 281.953 469.291 278.203 469.661C274.453 470.031 270.698 470.307 266.937 470.495C263.177 470.677 259.411 470.771 255.646 470.771C251.88 470.771 248.115 470.677 244.354 470.495C240.594 470.307 236.838 470.031 233.088 469.661C229.344 469.291 225.604 468.833 221.88 468.281C218.156 467.724 214.443 467.083 210.75 466.349C207.057 465.614 203.38 464.786 199.729 463.875C196.078 462.958 192.448 461.953 188.844 460.859C185.24 459.765 181.661 458.588 178.12 457.317C174.573 456.047 171.057 454.692 167.578 453.25C164.099 451.812 160.656 450.286 157.25 448.677C153.849 447.062 150.484 445.37 147.161 443.594C143.844 441.823 140.568 439.963 137.333 438.026C134.104 436.094 130.922 434.078 127.792 431.984C124.661 429.89 121.583 427.724 118.557 425.479C115.531 423.239 112.562 420.922 109.651 418.531C106.74 416.14 103.891 413.682 101.099 411.156C98.3073 408.625 95.5833 406.031 92.9166 403.364C90.2552 400.703 87.6614 397.974 85.1302 395.187C82.5989 392.396 80.1406 389.541 77.75 386.63C75.3646 383.719 73.0469 380.75 70.8021 377.729C68.5573 374.703 66.3906 371.625 64.2969 368.495C62.2083 365.359 60.1927 362.182 58.2552 358.948C56.3177 355.719 54.4635 352.443 52.6875 349.12C50.9115 345.802 49.2187 342.437 47.6094 339.031C46 335.625 44.474 332.187 43.0312 328.703C41.5885 325.224 40.2344 321.713 38.9687 318.166C37.6979 314.62 36.5156 311.047 35.4219 307.443C34.3333 303.838 33.3281 300.208 32.4115 296.557C31.4948 292.901 30.6719 289.229 29.9375 285.536C29.2031 281.838 28.5573 278.13 28.0052 274.406C27.4531 270.682 26.9896 266.943 26.625 263.193C26.2552 259.448 25.9792 255.693 25.7917 251.932C25.6094 248.166 25.5156 244.406 25.5156 240.635C25.5156 236.87 25.6094 233.109 25.7917 229.344C25.9792 225.583 26.2552 221.828 26.625 218.083C26.9896 214.333 27.4531 210.594 28.0052 206.87C28.5573 203.146 29.2031 199.437 29.9375 195.739C30.6719 192.047 31.4948 188.375 32.4115 184.719C33.3281 181.068 34.3333 177.437 35.4219 173.833C36.5156 170.229 37.6979 166.656 38.9687 163.109C40.2344 159.562 41.5885 156.052 43.0312 152.568C44.474 149.088 46 145.651 47.6094 142.245C49.2187 138.838 50.9115 135.474 52.6875 132.156C54.4635 128.833 56.3177 125.557 58.2552 122.328C60.1927 119.094 62.2083 115.917 64.2969 112.781C66.3906 109.651 68.5573 106.573 70.8021 103.547C73.0469 100.521 75.3646 97.5572 77.75 94.6457C80.1406 91.7343 82.5989 88.8801 85.1302 86.0884C87.6614 83.302 90.2552 80.5728 92.9166 77.9114C95.5833 75.2447 98.3073 72.6509 101.099 70.1197C103.891 67.5936 106.74 65.1353 109.651 62.7447C112.562 60.3541 115.531 58.0364 118.557 55.7916C121.583 53.552 124.661 51.3801 127.792 49.2916C130.922 47.1978 134.104 45.1822 137.333 43.2447C140.568 41.3124 143.844 39.453 147.161 37.6822C150.484 35.9062 153.849 34.2135 157.25 32.5989C160.656 30.9895 164.099 29.4635 167.578 28.026C171.057 26.5832 174.573 25.2291 178.12 23.9582C181.661 22.6874 185.24 21.5103 188.844 20.4166C192.448 19.3228 196.078 18.3176 199.729 17.401C203.38 16.4895 207.057 15.6614 210.75 14.927C214.443 14.1926 218.156 13.552 221.88 12.9947C225.604 12.4426 229.344 11.9843 233.088 11.6145C236.838 11.2447 240.594 10.9687 244.354 10.7812C248.115 10.5989 251.88 10.5051 255.646 10.5051C259.411 10.5051 263.177 10.5989 266.937 10.7812C270.698 10.9687 274.453 11.2447 278.203 11.6145C281.953 11.9843 285.687 12.4426 289.411 12.9947C293.141 13.552 296.849 14.1926 300.542 14.927C304.234 15.6614 307.911 16.4895 311.562 17.401C315.219 18.3176 318.844 19.3228 322.448 20.4166C326.052 21.5103 329.63 22.6874 333.177 23.9582C336.724 25.2291 340.234 26.5832 343.713 28.026C347.193 29.4635 350.635 30.9895 354.042 32.5989C357.443 34.2135 360.807 35.9062 364.13 37.6822C367.453 39.453 370.729 41.3124 373.958 43.2447C377.187 45.1822 380.37 47.1978 383.5 49.2916C386.63 51.3801 389.708 53.552 392.734 55.7916C395.76 58.0364 398.729 60.3541 401.641 62.7447C404.552 65.1353 407.401 67.5936 410.193 70.1197C412.984 72.6509 415.713 75.2447 418.375 77.9114C421.036 80.5728 423.635 83.302 426.161 86.0884C428.693 88.8801 431.151 91.7343 433.542 94.6457C435.932 97.5572 438.245 100.521 440.489 103.547C442.734 106.573 444.901 109.651 446.995 112.781C449.088 115.917 451.099 119.094 453.036 122.328C454.974 125.557 456.828 128.833 458.604 132.156C460.38 135.474 462.073 138.838 463.682 142.245C465.292 145.651 466.818 149.088 468.26 152.568C469.703 156.052 471.057 159.562 472.328 163.109C473.594 166.656 474.776 170.229 475.87 173.833C476.963 177.437 477.969 181.068 478.88 184.719C479.797 188.375 480.62 192.047 481.354 195.739C482.094 199.437 482.734 203.146 483.286 206.87C483.838 210.594 484.302 214.333 484.672 218.083C485.042 221.828 485.318 225.583 485.5 229.344C485.687 233.109 485.776 236.87 485.776 240.635Z" fill="black" stroke="black" stroke-width="1.00057"/>
<path d="M400.729 240.636C400.729 243.011 400.672 245.386 400.557 247.755C400.438 250.13 400.266 252.495 400.031 254.859C399.797 257.224 399.51 259.578 399.161 261.927C398.813 264.276 398.406 266.615 397.943 268.943C397.479 271.271 396.958 273.589 396.38 275.891C395.807 278.193 395.172 280.479 394.484 282.755C393.792 285.026 393.047 287.281 392.25 289.516C391.448 291.75 390.594 293.964 389.688 296.162C388.776 298.354 387.818 300.521 386.802 302.667C385.786 304.818 384.719 306.938 383.599 309.031C382.479 311.125 381.307 313.188 380.089 315.224C378.87 317.261 377.599 319.266 376.281 321.24C374.958 323.214 373.594 325.156 372.177 327.063C370.766 328.969 369.302 330.844 367.797 332.677C366.292 334.516 364.74 336.313 363.146 338.068C361.552 339.828 359.917 341.547 358.234 343.229C356.557 344.906 354.839 346.542 353.078 348.136C351.318 349.734 349.521 351.281 347.688 352.787C345.849 354.297 343.979 355.755 342.073 357.172C340.167 358.583 338.224 359.953 336.25 361.271C334.276 362.589 332.271 363.859 330.234 365.078C328.198 366.302 326.13 367.469 324.036 368.589C321.943 369.708 319.823 370.776 317.677 371.792C315.531 372.807 313.359 373.771 311.167 374.677C308.974 375.583 306.76 376.443 304.526 377.24C302.286 378.042 300.036 378.787 297.76 379.474C295.49 380.162 293.203 380.797 290.901 381.375C288.594 381.948 286.281 382.469 283.953 382.932C281.62 383.396 279.281 383.802 276.932 384.151C274.589 384.5 272.229 384.792 269.87 385.021C267.505 385.255 265.135 385.432 262.766 385.547C260.396 385.662 258.021 385.719 255.646 385.719C253.271 385.719 250.901 385.662 248.526 385.547C246.156 385.432 243.786 385.255 241.427 385.021C239.063 384.792 236.708 384.5 234.359 384.151C232.01 383.802 229.672 383.396 227.344 382.932C225.016 382.469 222.698 381.948 220.396 381.375C218.089 380.797 215.802 380.162 213.531 379.474C211.26 378.787 209.005 378.042 206.771 377.24C204.536 376.443 202.318 375.583 200.125 374.677C197.932 373.771 195.76 372.807 193.615 371.792C191.469 370.776 189.349 369.708 187.255 368.589C185.161 367.469 183.094 366.302 181.057 365.078C179.021 363.859 177.016 362.589 175.042 361.271C173.068 359.953 171.13 358.583 169.219 357.172C167.313 355.755 165.443 354.297 163.604 352.787C161.771 351.281 159.974 349.734 158.214 348.136C156.453 346.542 154.734 344.906 153.057 343.229C151.38 341.547 149.74 339.828 148.146 338.068C146.552 336.313 145 334.516 143.495 332.677C141.99 330.844 140.531 328.969 139.115 327.063C137.698 325.156 136.333 323.214 135.016 321.24C133.693 319.266 132.427 317.261 131.203 315.224C129.984 313.188 128.813 311.125 127.693 309.031C126.573 306.938 125.51 304.818 124.495 302.667C123.479 300.521 122.516 298.354 121.609 296.162C120.698 293.964 119.844 291.75 119.047 289.516C118.245 287.281 117.5 285.026 116.813 282.755C116.12 280.479 115.49 278.193 114.911 275.891C114.333 273.589 113.812 271.271 113.349 268.943C112.885 266.615 112.484 264.276 112.135 261.927C111.786 259.578 111.495 257.224 111.26 254.859C111.031 252.495 110.854 250.13 110.74 247.755C110.62 245.386 110.562 243.011 110.562 240.636C110.562 238.266 110.62 235.891 110.74 233.521C110.854 231.146 111.031 228.781 111.26 226.417C111.495 224.052 111.786 221.698 112.135 219.349C112.484 217 112.885 214.662 113.349 212.333C113.812 210.005 114.333 207.688 114.911 205.386C115.49 203.083 116.12 200.797 116.813 198.521C117.5 196.25 118.245 193.995 119.047 191.761C119.844 189.526 120.698 187.313 121.609 185.115C122.516 182.922 123.479 180.755 124.495 178.609C125.51 176.458 126.573 174.339 127.693 172.245C128.813 170.151 129.984 168.089 131.203 166.052C132.427 164.016 133.693 162.011 135.016 160.037C136.333 158.057 137.698 156.12 139.115 154.214C140.531 152.307 141.99 150.432 143.495 148.599C145 146.76 146.552 144.964 148.146 143.208C149.74 141.448 151.38 139.729 153.057 138.047C154.734 136.37 156.453 134.734 158.214 133.141C159.974 131.542 161.771 129.995 163.604 128.49C165.443 126.979 167.313 125.521 169.219 124.104C171.13 122.693 173.068 121.323 175.042 120.005C177.016 118.688 179.021 117.417 181.057 116.198C183.094 114.974 185.161 113.807 187.255 112.688C189.349 111.568 191.469 110.5 193.615 109.484C195.76 108.469 197.932 107.505 200.125 106.599C202.318 105.688 204.536 104.833 206.771 104.037C209.005 103.234 211.26 102.49 213.531 101.802C215.802 101.115 218.089 100.479 220.396 99.9011C222.698 99.3282 225.016 98.8074 227.344 98.3438C229.672 97.8803 232.01 97.474 234.359 97.1251C236.708 96.7761 239.063 96.4845 241.427 96.2553C243.786 96.0209 246.156 95.8438 248.526 95.7292C250.901 95.6147 253.271 95.5574 255.646 95.5574C258.021 95.5574 260.396 95.6147 262.766 95.7292C265.135 95.8438 267.505 96.0209 269.87 96.2553C272.229 96.4845 274.589 96.7761 276.932 97.1251C279.281 97.474 281.62 97.8803 283.953 98.3438C286.281 98.8074 288.594 99.3282 290.901 99.9011C293.203 100.479 295.49 101.115 297.76 101.802C300.036 102.49 302.286 103.234 304.526 104.037C306.76 104.833 308.974 105.688 311.167 106.599C313.359 107.505 315.531 108.469 317.677 109.484C319.823 110.5 321.943 111.568 324.036 112.688C326.13 113.807 328.198 114.974 330.234 116.198C332.271 117.417 334.276 118.688 336.25 120.005C338.224 121.323 340.167 122.693 342.073 124.104C343.979 125.521 345.849 126.979 347.688 128.49C349.521 129.995 351.318 131.542 353.078 133.141C354.839 134.734 356.557 136.37 358.234 138.047C359.917 139.729 361.552 141.448 363.146 143.208C364.74 144.964 366.292 146.76 367.797 148.599C369.302 150.432 370.766 152.307 372.177 154.214C373.594 156.12 374.958 158.057 376.281 160.037C377.599 162.011 378.87 164.016 380.089 166.052C381.307 168.089 382.479 170.151 383.599 172.245C384.719 174.339 385.786 176.458 386.802 178.609C387.818 180.755 388.776 182.922 389.688 185.115C390.594 187.313 391.448 189.526 392.25 191.761C393.047 193.995 393.792 196.25 394.484 198.521C395.172 200.797 395.807 203.083 396.38 205.386C396.958 207.688 397.479 210.005 397.943 212.333C398.406 214.662 398.813 217 399.161 219.349C399.505 221.698 399.797 224.052 400.031 226.417C400.266 228.781 400.438 231.146 400.557 233.521C400.672 235.891 400.729 238.266 400.729 240.636Z" fill="white"/>
<path d="M360.71 235.636C360.71 237.354 360.668 239.073 360.579 240.792C360.496 242.505 360.371 244.224 360.204 245.932C360.033 247.646 359.824 249.349 359.569 251.052C359.319 252.75 359.027 254.443 358.689 256.13C358.355 257.818 357.975 259.495 357.559 261.162C357.142 262.828 356.684 264.49 356.184 266.13C355.684 267.776 355.147 269.412 354.569 271.031C353.986 272.646 353.371 274.25 352.71 275.839C352.053 277.427 351.355 279 350.621 280.552C349.887 282.109 349.111 283.646 348.303 285.162C347.491 286.677 346.647 288.172 345.762 289.646C344.876 291.12 343.96 292.573 343.001 294.005C342.048 295.432 341.059 296.839 340.033 298.219C339.007 299.599 337.949 300.953 336.861 302.287C335.772 303.615 334.647 304.917 333.491 306.188C332.34 307.464 331.152 308.708 329.939 309.922C328.72 311.141 327.475 312.323 326.204 313.479C324.928 314.636 323.626 315.755 322.298 316.849C320.97 317.938 319.611 318.995 318.23 320.021C316.85 321.047 315.444 322.037 314.017 322.99C312.585 323.943 311.137 324.865 309.658 325.75C308.184 326.63 306.689 327.479 305.173 328.292C303.658 329.099 302.121 329.875 300.569 330.609C299.012 331.344 297.439 332.042 295.85 332.698C294.262 333.354 292.663 333.974 291.043 334.552C289.423 335.136 287.793 335.672 286.147 336.172C284.501 336.672 282.845 337.13 281.173 337.547C279.507 337.964 277.829 338.344 276.142 338.677C274.46 339.011 272.762 339.307 271.064 339.557C269.361 339.813 267.658 340.021 265.944 340.188C264.236 340.359 262.522 340.484 260.803 340.568C259.085 340.651 257.366 340.698 255.647 340.698C253.928 340.698 252.21 340.651 250.491 340.568C248.777 340.484 247.064 340.359 245.35 340.188C243.637 340.021 241.934 339.813 240.23 339.557C238.533 339.307 236.84 339.011 235.152 338.677C233.465 338.344 231.788 337.964 230.121 337.547C228.454 337.13 226.798 336.672 225.152 336.172C223.507 335.672 221.871 335.136 220.257 334.552C218.637 333.974 217.033 333.354 215.444 332.698C213.855 332.042 212.283 331.344 210.73 330.609C209.173 329.875 207.637 329.099 206.121 328.292C204.605 327.479 203.111 326.63 201.637 325.75C200.163 324.865 198.71 323.943 197.277 322.99C195.85 322.037 194.444 321.047 193.064 320.021C191.684 318.995 190.329 317.938 188.996 316.849C187.668 315.755 186.366 314.636 185.095 313.479C183.819 312.323 182.574 311.141 181.361 309.922C180.142 308.708 178.96 307.464 177.803 306.188C176.647 304.917 175.527 303.615 174.434 302.287C173.345 300.953 172.288 299.599 171.262 298.219C170.241 296.839 169.246 295.432 168.293 294.005C167.34 292.573 166.418 291.12 165.533 289.646C164.652 288.172 163.803 286.677 162.991 285.162C162.184 283.646 161.408 282.109 160.673 280.552C159.939 279 159.241 277.427 158.585 275.839C157.928 274.25 157.309 272.646 156.73 271.031C156.152 269.412 155.611 267.776 155.111 266.13C154.611 264.49 154.152 262.828 153.736 261.162C153.319 259.495 152.944 257.818 152.605 256.13C152.272 254.443 151.975 252.75 151.725 251.052C151.47 249.349 151.262 247.646 151.095 245.932C150.923 244.224 150.798 242.505 150.715 240.792C150.632 239.073 150.59 237.354 150.59 235.636C150.59 233.917 150.632 232.198 150.715 230.479C150.798 228.761 150.923 227.047 151.095 225.339C151.262 223.625 151.47 221.922 151.725 220.219C151.975 218.521 152.272 216.823 152.605 215.141C152.944 213.453 153.319 211.776 153.736 210.109C154.152 208.438 154.611 206.781 155.111 205.136C155.611 203.495 156.152 201.859 156.73 200.24C157.309 198.625 157.928 197.021 158.585 195.432C159.241 193.844 159.939 192.271 160.673 190.714C161.408 189.162 162.184 187.625 162.991 186.109C163.803 184.594 164.652 183.099 165.533 181.625C166.418 180.151 167.34 178.698 168.293 177.266C169.246 175.839 170.241 174.432 171.262 173.052C172.288 171.672 173.345 170.313 174.434 168.984C175.527 167.656 176.647 166.354 177.803 165.083C178.96 163.807 180.142 162.563 181.361 161.344C182.574 160.13 183.819 158.943 185.095 157.792C186.366 156.635 187.668 155.516 188.996 154.422C190.329 153.333 191.684 152.276 193.064 151.25C194.444 150.224 195.85 149.234 197.277 148.281C198.71 147.323 200.163 146.406 201.637 145.521C203.111 144.635 204.605 143.792 206.121 142.979C207.637 142.172 209.173 141.396 210.73 140.662C212.283 139.927 213.855 139.229 215.444 138.573C217.033 137.917 218.637 137.297 220.257 136.719C221.871 136.135 223.507 135.599 225.152 135.099C226.798 134.599 228.454 134.141 230.121 133.724C231.788 133.307 233.465 132.927 235.152 132.594C236.84 132.26 238.533 131.964 240.23 131.714C241.934 131.458 243.637 131.25 245.35 131.083C247.064 130.912 248.777 130.787 250.491 130.703C252.21 130.615 253.928 130.573 255.647 130.573C257.366 130.573 259.085 130.615 260.803 130.703C262.522 130.787 264.236 130.912 265.944 131.083C267.658 131.25 269.361 131.458 271.064 131.714C272.762 131.964 274.46 132.26 276.142 132.594C277.829 132.927 279.507 133.307 281.173 133.724C282.845 134.141 284.501 134.599 286.147 135.099C287.793 135.599 289.423 136.135 291.043 136.719C292.663 137.297 294.262 137.917 295.85 138.573C297.439 139.229 299.012 139.927 300.569 140.662C302.121 141.396 303.658 142.172 305.173 142.979C306.689 143.792 308.184 144.635 309.658 145.521C311.137 146.406 312.585 147.323 314.017 148.281C315.444 149.234 316.85 150.224 318.23 151.25C319.611 152.276 320.97 153.333 322.298 154.422C323.626 155.516 324.928 156.635 326.204 157.792C327.475 158.943 328.72 160.13 329.939 161.344C331.152 162.563 332.34 163.807 333.491 165.083C334.647 166.354 335.772 167.656 336.861 168.984C337.949 170.313 339.007 171.672 340.033 173.052C341.059 174.432 342.048 175.839 343.001 177.266C343.96 178.698 344.876 180.151 345.762 181.625C346.647 183.099 347.491 184.594 348.303 186.109C349.111 187.625 349.887 189.162 350.621 190.714C351.355 192.271 352.053 193.844 352.71 195.432C353.371 197.021 353.986 198.625 354.569 200.24C355.147 201.859 355.684 203.495 356.184 205.136C356.684 206.781 357.142 208.438 357.559 210.109C357.975 211.776 358.355 213.453 358.689 215.141C359.027 216.823 359.319 218.521 359.569 220.219C359.824 221.922 360.033 223.625 360.204 225.339C360.371 227.047 360.496 228.761 360.579 230.479C360.668 232.198 360.71 233.917 360.71 235.636Z" fill="black"/>
<path d="M285.66 90.552V120.568C285.66 121.552 285.613 122.531 285.52 123.51C285.421 124.49 285.28 125.463 285.087 126.427C284.895 127.391 284.655 128.344 284.368 129.281C284.082 130.224 283.754 131.146 283.379 132.057C283.004 132.963 282.582 133.854 282.118 134.719C281.655 135.588 281.15 136.427 280.603 137.245C280.056 138.062 279.473 138.854 278.848 139.609C278.223 140.37 277.566 141.099 276.868 141.797C276.176 142.49 275.447 143.151 274.686 143.771C273.926 144.396 273.139 144.979 272.322 145.526C271.504 146.073 270.66 146.578 269.796 147.042C268.926 147.505 268.04 147.927 267.134 148.302C266.223 148.677 265.301 149.01 264.358 149.292C263.421 149.578 262.467 149.818 261.504 150.01C260.535 150.203 259.566 150.344 258.587 150.443C257.608 150.536 256.629 150.588 255.645 150.588C254.66 150.588 253.681 150.536 252.702 150.443C251.723 150.344 250.754 150.203 249.79 150.01C248.827 149.818 247.874 149.578 246.931 149.292C245.993 149.01 245.066 148.677 244.16 148.302C243.249 147.927 242.363 147.505 241.493 147.042C240.629 146.578 239.785 146.073 238.967 145.526C238.15 144.979 237.363 144.396 236.603 143.771C235.842 143.151 235.113 142.49 234.421 141.797C233.723 141.099 233.066 140.37 232.441 139.609C231.816 138.854 231.233 138.062 230.686 137.245C230.139 136.427 229.634 135.588 229.171 134.719C228.707 133.854 228.29 132.963 227.915 132.057C227.535 131.146 227.207 130.224 226.921 129.281C226.634 128.344 226.395 127.391 226.207 126.427C226.014 125.463 225.868 124.49 225.775 123.51C225.676 122.531 225.629 121.552 225.629 120.568V90.552C225.629 89.5676 225.676 88.5885 225.775 87.6093C225.868 86.6301 226.014 85.6614 226.207 84.6978C226.395 83.7291 226.634 82.7812 226.921 81.8385C227.207 80.8958 227.535 79.9739 227.915 79.0624C228.29 78.1562 228.707 77.2708 229.171 76.401C229.634 75.5364 230.139 74.6926 230.686 73.8749C231.233 73.0572 231.816 72.2708 232.441 71.5103C233.066 70.7499 233.723 70.0208 234.421 69.328C235.113 68.6301 235.842 67.9739 236.603 67.3489C237.363 66.7239 238.15 66.1405 238.967 65.5937C239.785 65.0468 240.629 64.5416 241.493 64.078C242.363 63.6145 243.249 63.1978 244.16 62.8176C245.066 62.4426 245.993 62.1145 246.931 61.828C247.874 61.5416 248.827 61.302 249.79 61.1093C250.754 60.9218 251.723 60.776 252.702 60.677C253.681 60.5833 254.66 60.5364 255.645 60.5364C256.629 60.5364 257.608 60.5833 258.587 60.677C259.566 60.776 260.535 60.9218 261.504 61.1093C262.467 61.302 263.421 61.5416 264.358 61.828C265.301 62.1145 266.223 62.4426 267.134 62.8176C268.04 63.1978 268.926 63.6145 269.796 64.078C270.66 64.5416 271.504 65.0468 272.322 65.5937C273.139 66.1405 273.926 66.7239 274.686 67.3489C275.447 67.9739 276.176 68.6301 276.868 69.328C277.566 70.0208 278.223 70.7499 278.848 71.5103C279.473 72.2708 280.056 73.0572 280.603 73.8749C281.15 74.6926 281.655 75.5364 282.118 76.401C282.582 77.2708 283.004 78.1562 283.379 79.0624C283.754 79.9739 284.082 80.8958 284.368 81.8385C284.655 82.7812 284.895 83.7291 285.087 84.6978C285.28 85.6614 285.421 86.6301 285.52 87.6093C285.613 88.5885 285.66 89.5676 285.66 90.552Z" fill="white"/>
<path d="M285.66 360.708V380.719C285.66 381.703 285.613 382.682 285.52 383.661C285.421 384.641 285.28 385.609 285.087 386.573C284.895 387.536 284.655 388.49 284.368 389.432C284.082 390.375 283.754 391.297 283.379 392.203C283.004 393.115 282.582 394 282.118 394.87C281.655 395.734 281.15 396.578 280.603 397.396C280.056 398.214 279.473 399 278.848 399.76C278.223 400.521 277.566 401.25 276.868 401.943C276.176 402.641 275.447 403.297 274.686 403.922C273.926 404.547 273.139 405.13 272.322 405.677C271.504 406.224 270.66 406.729 269.796 407.193C268.926 407.656 268.04 408.073 267.134 408.448C266.223 408.828 265.301 409.156 264.358 409.443C263.421 409.729 262.467 409.969 261.504 410.156C260.535 410.349 259.566 410.495 258.587 410.589C257.608 410.688 256.629 410.734 255.645 410.734C254.66 410.734 253.681 410.688 252.702 410.589C251.723 410.495 250.754 410.349 249.79 410.156C248.827 409.969 247.874 409.729 246.931 409.443C245.993 409.156 245.066 408.828 244.16 408.448C243.249 408.073 242.363 407.656 241.493 407.193C240.629 406.729 239.785 406.224 238.967 405.677C238.15 405.13 237.363 404.547 236.603 403.922C235.842 403.297 235.113 402.641 234.421 401.943C233.723 401.25 233.066 400.521 232.441 399.76C231.816 399 231.233 398.214 230.686 397.396C230.139 396.578 229.634 395.734 229.171 394.87C228.707 394 228.29 393.115 227.915 392.203C227.535 391.297 227.207 390.375 226.921 389.432C226.634 388.49 226.395 387.536 226.207 386.573C226.014 385.609 225.868 384.641 225.775 383.661C225.676 382.682 225.629 381.703 225.629 380.719V360.708C225.629 359.724 225.676 358.745 225.775 357.766C225.868 356.786 226.014 355.813 226.207 354.849C226.395 353.885 226.634 352.932 226.921 351.995C227.207 351.052 227.535 350.13 227.915 349.219C228.29 348.312 228.707 347.422 229.171 346.557C229.634 345.688 230.139 344.849 230.686 344.031C231.233 343.214 231.816 342.422 232.441 341.661C233.066 340.906 233.723 340.177 234.421 339.479C235.113 338.786 235.842 338.125 236.603 337.505C237.363 336.88 238.15 336.297 238.967 335.75C239.785 335.203 240.629 334.698 241.493 334.234C242.363 333.771 243.249 333.349 244.16 332.974C245.066 332.599 245.993 332.266 246.931 331.984C247.874 331.698 248.827 331.458 249.79 331.266C250.754 331.073 251.723 330.932 252.702 330.833C253.681 330.74 254.66 330.688 255.645 330.688C256.629 330.688 257.608 330.74 258.587 330.833C259.566 330.932 260.535 331.073 261.504 331.266C262.467 331.458 263.421 331.698 264.358 331.984C265.301 332.266 266.223 332.599 267.134 332.974C268.04 333.349 268.926 333.771 269.796 334.234C270.66 334.698 271.504 335.203 272.322 335.75C273.139 336.297 273.926 336.88 274.686 337.505C275.447 338.125 276.176 338.786 276.868 339.479C277.566 340.177 278.223 340.906 278.848 341.667C279.473 342.422 280.056 343.214 280.603 344.031C281.15 344.849 281.655 345.688 282.118 346.557C282.582 347.422 283.004 348.312 283.379 349.219C283.754 350.13 284.082 351.052 284.368 351.995C284.655 352.932 284.895 353.885 285.087 354.849C285.28 355.813 285.421 356.786 285.52 357.766C285.613 358.745 285.66 359.724 285.66 360.708Z" fill="white"/>
<path d="M375.711 210.62H405.732C406.711 210.62 407.695 210.667 408.674 210.766C409.648 210.859 410.622 211.005 411.586 211.198C412.549 211.391 413.503 211.63 414.445 211.912C415.383 212.198 416.31 212.531 417.216 212.906C418.128 213.281 419.013 213.703 419.878 214.167C420.747 214.63 421.591 215.135 422.409 215.677C423.227 216.224 424.013 216.813 424.773 217.432C425.534 218.057 426.258 218.719 426.956 219.412C427.648 220.109 428.31 220.833 428.935 221.594C429.555 222.354 430.143 223.146 430.69 223.964C431.237 224.781 431.737 225.62 432.201 226.49C432.664 227.354 433.086 228.245 433.461 229.151C433.836 230.057 434.169 230.984 434.456 231.922C434.742 232.865 434.977 233.818 435.169 234.781C435.362 235.745 435.508 236.719 435.602 237.698C435.701 238.672 435.747 239.656 435.747 240.635C435.747 241.62 435.701 242.604 435.602 243.578C435.508 244.557 435.362 245.531 435.169 246.495C434.977 247.458 434.742 248.412 434.456 249.349C434.169 250.292 433.836 251.219 433.461 252.125C433.086 253.031 432.664 253.922 432.201 254.787C431.737 255.656 431.237 256.495 430.69 257.313C430.143 258.13 429.555 258.922 428.935 259.682C428.31 260.443 427.648 261.167 426.956 261.865C426.258 262.557 425.534 263.219 424.773 263.844C424.013 264.464 423.227 265.052 422.409 265.594C421.591 266.141 420.747 266.646 419.878 267.109C419.013 267.573 418.128 267.995 417.216 268.37C416.31 268.745 415.383 269.078 414.445 269.365C413.503 269.646 412.549 269.886 411.586 270.078C410.622 270.271 409.648 270.417 408.674 270.51C407.695 270.609 406.711 270.656 405.732 270.656H375.711C374.732 270.656 373.747 270.609 372.768 270.51C371.794 270.417 370.82 270.271 369.857 270.078C368.893 269.886 367.94 269.646 366.997 269.365C366.06 269.078 365.133 268.745 364.227 268.37C363.315 267.995 362.43 267.573 361.565 267.109C360.695 266.646 359.852 266.141 359.034 265.594C358.216 265.052 357.43 264.464 356.669 263.844C355.909 263.219 355.185 262.557 354.487 261.865C353.794 261.167 353.133 260.443 352.508 259.682C351.888 258.922 351.299 258.13 350.753 257.313C350.206 256.495 349.706 255.656 349.242 254.787C348.779 253.922 348.357 253.031 347.982 252.125C347.607 251.219 347.273 250.292 346.987 249.349C346.701 248.412 346.466 247.458 346.273 246.495C346.081 245.531 345.935 244.557 345.841 243.578C345.742 242.604 345.695 241.62 345.695 240.635C345.695 239.656 345.742 238.672 345.841 237.698C345.935 236.719 346.081 235.745 346.273 234.781C346.466 233.818 346.701 232.865 346.987 231.922C347.273 230.984 347.607 230.057 347.982 229.151C348.357 228.245 348.779 227.354 349.242 226.49C349.706 225.62 350.206 224.781 350.753 223.964C351.299 223.146 351.888 222.354 352.508 221.594C353.133 220.833 353.794 220.109 354.487 219.412C355.185 218.719 355.909 218.057 356.669 217.432C357.43 216.813 358.216 216.224 359.034 215.677C359.852 215.135 360.695 214.63 361.565 214.167C362.43 213.703 363.315 213.281 364.227 212.906C365.133 212.531 366.06 212.198 366.997 211.912C367.94 211.63 368.893 211.391 369.857 211.198C370.82 211.005 371.794 210.859 372.768 210.766C373.747 210.667 374.732 210.62 375.711 210.62Z" fill="white"/>
<path d="M105.564 210.62H135.579C136.564 210.62 137.543 210.667 138.522 210.766C139.501 210.859 140.47 211.005 141.434 211.198C142.397 211.391 143.35 211.63 144.293 211.912C145.236 212.198 146.158 212.531 147.064 212.906C147.975 213.281 148.861 213.703 149.73 214.167C150.595 214.63 151.439 215.135 152.257 215.677C153.074 216.224 153.861 216.813 154.621 217.432C155.382 218.057 156.111 218.719 156.803 219.412C157.501 220.109 158.158 220.833 158.783 221.594C159.408 222.354 159.991 223.146 160.538 223.964C161.085 224.781 161.59 225.62 162.053 226.49C162.517 227.354 162.934 228.245 163.314 229.151C163.689 230.057 164.017 230.984 164.303 231.922C164.59 232.865 164.829 233.818 165.017 234.781C165.21 235.745 165.355 236.719 165.449 237.698C165.548 238.672 165.595 239.656 165.595 240.635C165.595 241.62 165.548 242.604 165.449 243.578C165.355 244.557 165.21 245.531 165.017 246.495C164.829 247.458 164.59 248.412 164.303 249.349C164.017 250.292 163.689 251.219 163.314 252.125C162.934 253.031 162.517 253.922 162.053 254.787C161.59 255.656 161.085 256.495 160.538 257.313C159.991 258.13 159.408 258.922 158.783 259.682C158.158 260.443 157.501 261.167 156.803 261.865C156.111 262.557 155.382 263.219 154.621 263.844C153.861 264.464 153.074 265.052 152.257 265.594C151.439 266.141 150.595 266.646 149.73 267.109C148.861 267.573 147.975 267.995 147.064 268.37C146.158 268.745 145.236 269.078 144.293 269.365C143.35 269.646 142.397 269.886 141.434 270.078C140.47 270.271 139.501 270.417 138.522 270.51C137.543 270.609 136.564 270.656 135.579 270.656H105.564C104.579 270.656 103.6 270.609 102.621 270.51C101.642 270.417 100.668 270.271 99.7044 270.078C98.7409 269.886 97.7878 269.646 96.8503 269.365C95.9076 269.078 94.9805 268.745 94.0742 268.37C93.168 267.995 92.2773 267.573 91.4128 267.109C90.543 266.646 89.7044 266.141 88.8867 265.594C88.069 265.052 87.2773 264.464 86.5169 263.844C85.7617 263.219 85.0326 262.557 84.3346 261.865C83.6419 261.167 82.9805 260.443 82.3607 259.682C81.7357 258.922 81.1471 258.13 80.6055 257.313C80.0586 256.495 79.5534 255.656 79.0898 254.787C78.6263 253.922 78.2044 253.031 77.8294 252.125C77.4544 251.219 77.1211 250.292 76.8346 249.349C76.5534 248.412 76.3138 247.458 76.1211 246.495C75.9284 245.531 75.7878 244.557 75.6888 243.578C75.5951 242.604 75.543 241.62 75.543 240.635C75.543 239.656 75.5951 238.672 75.6888 237.698C75.7878 236.719 75.9284 235.745 76.1211 234.781C76.3138 233.818 76.5534 232.865 76.8346 231.922C77.1211 230.984 77.4544 230.057 77.8294 229.151C78.2044 228.245 78.6263 227.354 79.0898 226.49C79.5534 225.62 80.0586 224.781 80.6055 223.964C81.1471 223.146 81.7357 222.354 82.3607 221.594C82.9805 220.833 83.6419 220.109 84.3346 219.412C85.0326 218.719 85.7617 218.057 86.5169 217.432C87.2773 216.813 88.069 216.224 88.8867 215.677C89.7044 215.135 90.543 214.63 91.4128 214.167C92.2773 213.703 93.168 213.281 94.0742 212.906C94.9805 212.531 95.9076 212.198 96.8503 211.912C97.7878 211.63 98.7409 211.391 99.7044 211.198C100.668 211.005 101.642 210.859 102.621 210.766C103.6 210.667 104.579 210.62 105.564 210.62Z" fill="white"/>
<path d="M319.862 132.969L341.086 111.745C341.784 111.047 342.508 110.391 343.268 109.766C344.029 109.141 344.815 108.557 345.633 108.01C346.451 107.464 347.294 106.958 348.164 106.495C349.029 106.031 349.914 105.615 350.826 105.24C351.732 104.859 352.659 104.531 353.596 104.245C354.539 103.958 355.492 103.719 356.456 103.531C357.419 103.339 358.393 103.193 359.367 103.099C360.346 103 361.331 102.953 362.31 102.953C363.294 102.953 364.273 103 365.253 103.099C366.232 103.193 367.206 103.339 368.169 103.531C369.133 103.719 370.086 103.958 371.023 104.245C371.966 104.531 372.888 104.859 373.799 105.24C374.706 105.615 375.596 106.031 376.461 106.495C377.331 106.958 378.169 107.464 378.987 108.01C379.805 108.557 380.596 109.141 381.357 109.766C382.112 110.391 382.841 111.047 383.539 111.745C384.232 112.437 384.893 113.167 385.513 113.927C386.138 114.687 386.721 115.474 387.268 116.292C387.815 117.109 388.32 117.953 388.784 118.818C389.247 119.688 389.669 120.573 390.044 121.484C390.419 122.391 390.753 123.318 391.034 124.255C391.32 125.198 391.56 126.151 391.753 127.115C391.945 128.078 392.086 129.047 392.185 130.026C392.279 131.005 392.331 131.984 392.331 132.969C392.331 133.953 392.279 134.932 392.185 135.911C392.086 136.891 391.945 137.859 391.753 138.828C391.56 139.792 391.32 140.745 391.034 141.682C390.753 142.625 390.419 143.547 390.044 144.458C389.669 145.365 389.247 146.255 388.784 147.12C388.32 147.984 387.815 148.828 387.268 149.646C386.721 150.464 386.138 151.25 385.513 152.01C384.893 152.771 384.232 153.5 383.539 154.193L362.31 175.422C361.617 176.115 360.888 176.776 360.128 177.401C359.367 178.021 358.581 178.609 357.763 179.151C356.945 179.698 356.102 180.203 355.237 180.667C354.367 181.13 353.482 181.552 352.576 181.927C351.664 182.302 350.742 182.635 349.799 182.922C348.857 183.203 347.909 183.443 346.94 183.635C345.977 183.828 345.008 183.969 344.029 184.068C343.049 184.161 342.07 184.214 341.086 184.214C340.102 184.214 339.122 184.161 338.143 184.068C337.164 183.969 336.195 183.828 335.232 183.635C334.268 183.443 333.315 183.203 332.372 182.922C331.43 182.635 330.508 182.302 329.602 181.927C328.69 181.552 327.805 181.13 326.935 180.667C326.07 180.203 325.227 179.698 324.409 179.151C323.591 178.609 322.805 178.021 322.044 177.401C321.284 176.776 320.555 176.115 319.862 175.422C319.164 174.724 318.508 174 317.883 173.24C317.258 172.479 316.674 171.688 316.128 170.87C315.581 170.052 315.076 169.214 314.612 168.344C314.148 167.479 313.732 166.589 313.352 165.682C312.977 164.776 312.648 163.849 312.362 162.906C312.076 161.969 311.836 161.016 311.648 160.052C311.456 159.089 311.31 158.115 311.216 157.135C311.117 156.161 311.07 155.177 311.07 154.193C311.07 153.214 311.117 152.229 311.216 151.255C311.31 150.276 311.456 149.302 311.648 148.339C311.836 147.375 312.076 146.422 312.362 145.479C312.648 144.542 312.977 143.615 313.352 142.708C313.732 141.802 314.148 140.911 314.612 140.047C315.076 139.177 315.581 138.333 316.128 137.521C316.674 136.703 317.258 135.911 317.883 135.151C318.508 134.391 319.164 133.667 319.862 132.969Z" fill="white"/>
<path d="M125.749 323.078L146.978 301.854C147.671 301.156 148.4 300.5 149.16 299.875C149.921 299.25 150.707 298.667 151.525 298.12C152.342 297.573 153.186 297.068 154.051 296.604C154.921 296.141 155.806 295.724 156.712 295.349C157.624 294.969 158.546 294.641 159.488 294.354C160.431 294.068 161.379 293.828 162.348 293.641C163.311 293.448 164.28 293.302 165.259 293.208C166.238 293.109 167.217 293.062 168.202 293.062C169.186 293.062 170.165 293.109 171.145 293.208C172.124 293.302 173.092 293.448 174.056 293.641C175.02 293.828 175.973 294.068 176.915 294.354C177.858 294.641 178.78 294.969 179.686 295.344C180.598 295.724 181.483 296.141 182.353 296.604C183.217 297.068 184.061 297.573 184.879 298.12C185.697 298.667 186.483 299.25 187.243 299.875C188.004 300.5 188.733 301.156 189.426 301.854C190.124 302.547 190.78 303.276 191.405 304.036C192.03 304.797 192.613 305.583 193.16 306.401C193.707 307.219 194.212 308.062 194.676 308.927C195.139 309.797 195.556 310.682 195.936 311.594C196.311 312.5 196.639 313.422 196.926 314.365C197.212 315.307 197.452 316.26 197.645 317.224C197.832 318.188 197.978 319.156 198.077 320.135C198.171 321.115 198.217 322.094 198.217 323.078C198.217 324.063 198.171 325.042 198.077 326.021C197.978 327 197.832 327.969 197.645 328.932C197.452 329.901 197.212 330.849 196.926 331.792C196.639 332.734 196.311 333.656 195.936 334.568C195.556 335.474 195.139 336.359 194.676 337.229C194.212 338.094 193.707 338.938 193.16 339.755C192.613 340.573 192.03 341.359 191.405 342.12C190.78 342.88 190.124 343.609 189.426 344.302L168.202 365.531C167.509 366.224 166.78 366.885 166.02 367.505C165.259 368.13 164.473 368.719 163.655 369.26C162.837 369.807 161.993 370.313 161.129 370.776C160.259 371.24 159.374 371.661 158.462 372.036C157.556 372.411 156.629 372.745 155.691 373.026C154.749 373.313 153.796 373.552 152.832 373.745C151.868 373.938 150.895 374.078 149.921 374.177C148.941 374.271 147.957 374.323 146.978 374.323C145.993 374.323 145.014 374.271 144.035 374.177C143.056 374.078 142.082 373.938 141.118 373.745C140.155 373.552 139.202 373.313 138.264 373.031C137.322 372.745 136.4 372.411 135.488 372.036C134.582 371.661 133.691 371.24 132.827 370.776C131.957 370.313 131.118 369.807 130.301 369.26C129.483 368.719 128.691 368.13 127.936 367.505C127.176 366.885 126.447 366.224 125.749 365.531C125.056 364.833 124.395 364.104 123.775 363.349C123.15 362.589 122.566 361.797 122.02 360.979C121.473 360.161 120.967 359.323 120.504 358.453C120.04 357.589 119.618 356.698 119.243 355.792C118.868 354.885 118.535 353.958 118.254 353.016C117.967 352.078 117.728 351.125 117.535 350.161C117.342 349.198 117.202 348.224 117.103 347.245C117.009 346.266 116.957 345.286 116.957 344.302C116.957 343.323 117.009 342.339 117.103 341.359C117.202 340.385 117.342 339.411 117.535 338.448C117.728 337.484 117.967 336.531 118.254 335.589C118.535 334.651 118.868 333.724 119.243 332.818C119.618 331.906 120.04 331.021 120.504 330.156C120.967 329.286 121.473 328.443 122.02 327.625C122.566 326.813 123.15 326.021 123.775 325.26C124.395 324.5 125.056 323.776 125.749 323.078Z" fill="white"/>
<path d="M340.086 370.531L318.862 349.307C318.164 348.609 317.508 347.885 316.883 347.125C316.258 346.365 315.674 345.573 315.128 344.76C314.581 343.943 314.076 343.099 313.612 342.229C313.148 341.365 312.732 340.479 312.352 339.568C311.977 338.661 311.648 337.734 311.362 336.797C311.076 335.854 310.836 334.901 310.643 333.938C310.456 332.974 310.31 332 310.211 331.026C310.117 330.047 310.07 329.063 310.07 328.083C310.07 327.099 310.117 326.12 310.211 325.141C310.31 324.161 310.456 323.188 310.643 322.224C310.836 321.26 311.076 320.307 311.362 319.37C311.648 318.427 311.977 317.505 312.352 316.594C312.732 315.687 313.148 314.797 313.612 313.932C314.076 313.063 314.581 312.224 315.128 311.406C315.674 310.589 316.258 309.797 316.883 309.036C317.508 308.281 318.164 307.552 318.862 306.854C319.555 306.161 320.284 305.5 321.044 304.88C321.805 304.255 322.591 303.667 323.409 303.125C324.227 302.578 325.07 302.073 325.935 301.609C326.805 301.146 327.69 300.724 328.596 300.349C329.508 299.974 330.43 299.641 331.372 299.359C332.315 299.073 333.263 298.833 334.232 298.641C335.195 298.448 336.164 298.307 337.143 298.208C338.122 298.115 339.102 298.062 340.086 298.062C341.07 298.062 342.049 298.115 343.029 298.208C344.008 298.307 344.977 298.448 345.94 298.641C346.904 298.833 347.857 299.073 348.799 299.359C349.742 299.641 350.664 299.974 351.57 300.349C352.482 300.724 353.367 301.146 354.237 301.609C355.102 302.073 355.945 302.578 356.763 303.125C357.581 303.667 358.367 304.255 359.128 304.88C359.888 305.5 360.617 306.161 361.31 306.854L382.539 328.083C383.232 328.776 383.893 329.505 384.513 330.266C385.138 331.026 385.721 331.813 386.268 332.63C386.815 333.448 387.32 334.292 387.784 335.156C388.247 336.026 388.669 336.911 389.044 337.818C389.419 338.729 389.753 339.651 390.034 340.594C390.32 341.536 390.56 342.484 390.753 343.453C390.945 344.417 391.086 345.385 391.185 346.365C391.279 347.344 391.331 348.323 391.331 349.307C391.331 350.292 391.279 351.271 391.185 352.25C391.086 353.229 390.945 354.198 390.753 355.161C390.56 356.125 390.32 357.078 390.034 358.021C389.753 358.964 389.419 359.885 389.044 360.792C388.669 361.703 388.247 362.589 387.784 363.458C387.32 364.323 386.815 365.167 386.268 365.984C385.721 366.802 385.138 367.589 384.513 368.349C383.893 369.109 383.232 369.839 382.539 370.531C381.841 371.229 381.112 371.885 380.352 372.51C379.596 373.135 378.805 373.719 377.987 374.266C377.169 374.813 376.331 375.318 375.461 375.781C374.596 376.245 373.706 376.661 372.799 377.042C371.888 377.417 370.966 377.745 370.023 378.031C369.086 378.318 368.133 378.557 367.169 378.745C366.201 378.938 365.232 379.083 364.253 379.177C363.273 379.276 362.294 379.323 361.31 379.323C360.326 379.323 359.346 379.276 358.367 379.177C357.388 379.083 356.419 378.938 355.456 378.745C354.492 378.557 353.539 378.318 352.596 378.031C351.659 377.745 350.732 377.417 349.826 377.042C348.914 376.661 348.029 376.245 347.159 375.781C346.294 375.318 345.451 374.813 344.633 374.266C343.815 373.719 343.029 373.135 342.268 372.51C341.508 371.885 340.779 371.229 340.086 370.531Z" fill="white"/>
<path d="M143.973 179.422L122.749 158.198C122.056 157.5 121.395 156.776 120.77 156.016C120.15 155.255 119.561 154.464 119.014 153.651C118.473 152.833 117.967 151.99 117.504 151.12C117.04 150.255 116.618 149.37 116.243 148.458C115.868 147.552 115.535 146.625 115.249 145.688C114.962 144.745 114.728 143.792 114.535 142.828C114.342 141.865 114.197 140.891 114.103 139.917C114.004 138.938 113.957 137.953 113.957 136.974C113.957 135.99 114.004 135.01 114.103 134.031C114.197 133.052 114.342 132.078 114.535 131.115C114.728 130.151 114.962 129.198 115.249 128.26C115.535 127.318 115.868 126.391 116.243 125.484C116.618 124.578 117.04 123.687 117.504 122.823C117.967 121.953 118.473 121.115 119.014 120.297C119.561 119.479 120.15 118.687 120.77 117.927C121.395 117.167 122.056 116.443 122.749 115.745C123.447 115.052 124.171 114.391 124.931 113.771C125.691 113.146 126.483 112.557 127.296 112.016C128.113 111.469 128.957 110.964 129.827 110.5C130.691 110.036 131.577 109.615 132.488 109.24C133.395 108.865 134.322 108.531 135.259 108.245C136.202 107.964 137.155 107.724 138.118 107.531C139.082 107.339 140.056 107.198 141.03 107.099C142.009 107.005 142.993 106.953 143.973 106.953C144.957 106.953 145.936 107.005 146.915 107.099C147.895 107.198 148.868 107.339 149.832 107.531C150.796 107.724 151.749 107.964 152.686 108.245C153.629 108.531 154.556 108.865 155.462 109.24C156.368 109.615 157.259 110.036 158.124 110.5C158.993 110.964 159.832 111.469 160.65 112.016C161.467 112.557 162.259 113.146 163.02 113.771C163.775 114.391 164.504 115.052 165.202 115.745L186.426 136.974C187.118 137.667 187.78 138.396 188.405 139.156C189.025 139.917 189.613 140.703 190.16 141.521C190.707 142.339 191.207 143.182 191.671 144.047C192.134 144.917 192.556 145.802 192.931 146.708C193.306 147.62 193.639 148.542 193.926 149.484C194.212 150.427 194.447 151.375 194.639 152.344C194.832 153.307 194.978 154.276 195.072 155.255C195.171 156.234 195.217 157.214 195.217 158.198C195.217 159.182 195.171 160.161 195.072 161.141C194.978 162.12 194.832 163.089 194.639 164.052C194.447 165.016 194.212 165.969 193.926 166.911C193.639 167.854 193.306 168.776 192.931 169.682C192.556 170.594 192.134 171.479 191.671 172.349C191.207 173.214 190.707 174.057 190.16 174.875C189.613 175.693 189.025 176.479 188.405 177.24C187.78 178 187.118 178.729 186.426 179.422C185.728 180.12 185.004 180.776 184.243 181.401C183.483 182.026 182.697 182.609 181.879 183.156C181.061 183.703 180.217 184.208 179.348 184.672C178.483 185.135 177.598 185.552 176.686 185.927C175.78 186.307 174.853 186.635 173.915 186.922C172.973 187.208 172.02 187.448 171.056 187.635C170.092 187.828 169.118 187.974 168.145 188.068C167.165 188.167 166.181 188.214 165.202 188.214C164.217 188.214 163.238 188.167 162.259 188.068C161.28 187.974 160.306 187.828 159.342 187.635C158.379 187.448 157.426 187.208 156.488 186.922C155.546 186.635 154.624 186.307 153.712 185.927C152.806 185.552 151.915 185.135 151.051 184.672C150.181 184.208 149.342 183.703 148.525 183.156C147.707 182.609 146.915 182.026 146.155 181.401C145.4 180.776 144.671 180.12 143.973 179.422Z" fill="white"/>
</svg>
