<?xml version="1.0" encoding="UTF-8" standalone="no"?>
<svg
   width="436.07999pt"
   height="400.07999pt"
   viewBox="0 0 436.07999 400.07999"
   version="1.1"
   id="svg24"
   xmlns="http://www.w3.org/2000/svg"
   xmlns:svg="http://www.w3.org/2000/svg">
  <defs
     id="defs28" />
  <path
     fill-rule="nonzero"
     fill="rgb(100%, 100%, 100%)"
     fill-opacity="1"
     stroke-width="1"
     stroke-linecap="butt"
     stroke-linejoin="miter"
     stroke="rgb(100%, 100%, 100%)"
     stroke-opacity="1"
     stroke-miterlimit="4"
     d="M 484.997549 239.997462 C 484.997549 243.766134 484.909059 247.524394 484.721666 251.287861 C 484.539479 255.046121 484.263595 258.799177 483.894016 262.541822 C 483.524436 266.289672 483.06116 270.027111 482.509393 273.748935 C 481.957627 277.470758 481.317369 281.176965 480.578209 284.872762 C 479.844255 288.563353 479.021811 292.233123 478.105669 295.887277 C 477.194734 299.536226 476.190102 303.164353 475.096979 306.766453 C 474.003856 310.368554 472.822242 313.939422 471.557342 317.484264 C 470.287238 321.029105 468.933847 324.53751 467.491966 328.014682 C 466.050085 331.497059 464.524918 334.932588 462.916466 338.336886 C 461.308013 341.741183 459.616275 345.103837 457.841252 348.419644 C 456.066228 351.740655 454.213125 355.014819 452.276736 358.242134 C 450.340346 361.474655 448.331082 364.649917 446.238532 367.783536 C 444.145983 370.91195 441.980558 373.98831 439.737054 377.012617 C 437.493549 380.031719 435.182375 382.998767 432.79312 385.908556 C 430.403866 388.818345 427.946942 391.670875 425.417143 394.460942 C 422.892549 397.245802 420.295081 399.973405 417.635148 402.633337 C 414.975216 405.298475 412.247614 407.890738 409.457548 410.420537 C 406.667481 412.94513 403.820156 415.402054 400.910367 417.791309 C 398.000578 420.180563 395.03353 422.496943 392.009223 424.735242 C 388.984916 426.978747 385.908556 429.144172 382.780142 431.236721 C 379.651728 433.329271 376.471261 435.34374 373.243945 437.274924 C 370.01663 439.211313 366.742467 441.069622 363.421455 442.839441 C 360.100443 444.614464 356.737789 446.306202 353.338697 447.91986 C 349.9344 449.528312 346.493665 451.053479 343.016493 452.490155 C 339.539321 453.932036 336.030917 455.285426 332.486075 456.555531 C 328.941233 457.825636 325.36516 459.002044 321.763059 460.095167 C 318.160959 461.18829 314.538037 462.192922 310.883883 463.109064 C 307.234935 464.019999 303.559959 464.84765 299.869368 465.581604 C 296.178777 466.315558 292.472569 466.955815 288.745541 467.512787 C 285.023717 468.064554 281.291483 468.522625 277.543633 468.892204 C 273.795783 469.261784 270.042727 469.537668 266.284466 469.72506 C 262.526206 469.907247 258.762739 470.000944 254.999273 470.000944 C 251.235807 470.000944 247.472341 469.907247 243.71408 469.72506 C 239.955819 469.537668 236.202764 469.261784 232.454914 468.892204 C 228.712269 468.522625 224.974829 468.064554 221.253006 467.512787 C 217.531182 466.955815 213.81977 466.315558 210.129178 465.581604 C 206.438587 464.84765 202.763612 464.019999 199.114663 463.109064 C 195.465715 462.192922 191.837588 461.18829 188.235487 460.095167 C 184.633387 459.002044 181.057313 457.825636 177.517677 456.555531 C 173.972835 455.285426 170.459226 453.932036 166.982054 452.490155 C 163.504881 451.053479 160.064147 449.528312 156.65985 447.91986 C 153.260758 446.306202 149.898103 444.614464 146.577092 442.839441 C 143.261285 441.069622 139.987122 439.211313 136.754601 437.274924 C 133.527286 435.34374 130.346818 433.329271 127.218405 431.236721 C 124.089991 429.144172 121.01363 426.978747 117.989324 424.735242 C 114.965017 422.496943 111.997969 420.180563 109.088179 417.791309 C 106.17839 415.402054 103.331065 412.94513 100.540999 410.420537 C 97.750933 407.890738 95.028536 405.298475 92.363398 402.633337 C 89.703466 399.973405 87.111203 397.245802 84.581404 394.460942 C 82.051605 391.670875 79.594681 388.818345 77.205426 385.908556 C 74.821377 382.998767 72.504998 380.031719 70.261493 377.012617 C 68.017988 373.98831 65.852564 370.91195 63.760014 367.783536 C 61.67267 364.649917 59.6582 361.474655 57.721811 358.242134 C 55.785422 355.014819 53.932318 351.740655 52.157295 348.419644 C 50.382271 345.103837 48.690533 341.741183 47.082081 338.336886 C 45.473629 334.932588 43.948462 331.497059 42.50658 328.014682 C 41.064699 324.53751 39.711309 321.029105 38.446409 317.484264 C 37.176305 313.939422 35.994691 310.368554 34.901568 306.766453 C 33.81365 303.164353 32.809018 299.536226 31.892877 295.887277 C 30.976736 292.233123 30.154291 288.563353 29.420337 284.872762 C 28.686383 281.176965 28.04092 277.470758 27.489153 273.748935 C 26.937386 270.027111 26.47411 266.289672 26.109736 262.541822 C 25.740156 258.799177 25.464273 255.046121 25.27688 251.287861 C 25.094693 247.524394 25.000997 243.766134 25.000997 239.997462 C 25.000997 236.233996 25.094693 232.475735 25.27688 228.712269 C 25.464273 224.954008 25.740156 221.200952 26.109736 217.458308 C 26.47411 213.710457 26.937386 209.973018 27.489153 206.251195 C 28.04092 202.529371 28.686383 198.823164 29.420337 195.127367 C 30.154291 191.436776 30.976736 187.767006 31.892877 184.112852 C 32.809018 180.463903 33.81365 176.835776 34.901568 173.233676 C 35.994691 169.631575 37.176305 166.060707 38.446409 162.515865 C 39.711309 158.971024 41.064699 155.46262 42.50658 151.980242 C 43.948462 148.50307 45.473629 145.067541 47.082081 141.663244 C 48.690533 138.258946 50.382271 134.896292 52.157295 131.580486 C 53.932318 128.259474 55.785422 124.98531 57.721811 121.757995 C 59.6582 118.525474 61.67267 115.350212 63.760014 112.216593 C 65.852564 109.088179 68.017988 106.011819 70.261493 102.987512 C 72.504998 99.963205 74.821377 97.001363 77.205426 94.091574 C 79.594681 91.181784 82.051605 88.329254 84.581404 85.539188 C 87.111203 82.754327 89.703466 80.026725 92.363398 77.366792 C 95.028536 74.701654 97.750933 72.109391 100.540999 69.579592 C 103.331065 67.054999 106.17839 64.598075 109.088179 62.20882 C 111.997969 59.819566 114.965017 57.503186 117.989324 55.259682 C 121.01363 53.021382 124.089991 50.850752 127.218405 48.763408 C 130.346818 46.670858 133.527286 44.656389 136.754601 42.72 C 139.987122 40.788816 143.261285 38.930507 146.577092 37.160689 C 149.898103 35.385665 153.260758 33.693927 156.65985 32.08027 C 160.064147 30.471817 163.504881 28.94665 166.982054 27.509975 C 170.459226 26.068093 173.972835 24.714703 177.517677 23.444598 C 181.057313 22.174493 184.633387 20.998085 188.235487 19.904962 C 191.837588 18.811839 195.465715 17.807207 199.114663 16.891066 C 202.763612 15.98013 206.438587 15.15248 210.129178 14.418526 C 213.81977 13.684572 217.531182 13.044314 221.253006 12.487342 C 224.974829 11.935575 228.712269 11.477504 232.454914 11.107925 C 236.202764 10.738345 239.955819 10.462462 243.71408 10.275069 C 247.472341 10.092882 251.235807 9.999186 254.999273 9.999186 C 258.762739 9.999186 262.526206 10.092882 266.284466 10.275069 C 270.042727 10.462462 273.795783 10.738345 277.543633 11.107925 C 281.291483 11.477504 285.023717 11.935575 288.745541 12.487342 C 292.472569 13.044314 296.178777 13.684572 299.869368 14.418526 C 303.559959 15.15248 307.234935 15.98013 310.883883 16.891066 C 314.538037 17.807207 318.160959 18.811839 321.763059 19.904962 C 325.36516 20.998085 328.941233 22.174493 332.486075 23.444598 C 336.030917 24.714703 339.539321 26.068093 343.016493 27.509975 C 346.493665 28.94665 349.9344 30.471817 353.338697 32.08027 C 356.737789 33.693927 360.100443 35.385665 363.421455 37.160689 C 366.742467 38.930507 370.01663 40.788816 373.243945 42.72 C 376.471261 44.656389 379.651728 46.670858 382.780142 48.763408 C 385.908556 50.850752 388.984916 53.021382 392.009223 55.259682 C 395.03353 57.503186 398.000578 59.819566 400.910367 62.20882 C 403.820156 64.598075 406.667481 67.054999 409.457548 69.579592 C 412.247614 72.109391 414.975216 74.701654 417.635148 77.366792 C 420.295081 80.026725 422.892549 82.754327 425.417143 85.539188 C 427.946942 88.329254 430.403866 91.181784 432.79312 94.091574 C 435.182375 97.001363 437.493549 99.963205 439.737054 102.987512 C 441.980558 106.011819 444.145983 109.088179 446.238532 112.216593 C 448.331082 115.350212 450.340346 118.525474 452.276736 121.757995 C 454.213125 124.98531 456.066228 128.259474 457.841252 131.580486 C 459.616275 134.896292 461.308013 138.258946 462.916466 141.663244 C 464.524918 145.067541 466.050085 148.50307 467.491966 151.980242 C 468.933847 155.46262 470.287238 158.971024 471.557342 162.515865 C 472.822242 166.060707 474.003856 169.631575 475.096979 173.233676 C 476.190102 176.835776 477.194734 180.463903 478.105669 184.112852 C 479.021811 187.767006 479.844255 191.436776 480.578209 195.127367 C 481.317369 198.823164 481.957627 202.529371 482.509393 206.251195 C 483.06116 209.973018 483.524436 213.710457 483.894016 217.458308 C 484.263595 221.200952 484.539479 224.954008 484.721666 228.712269 C 484.909059 232.475735 484.997549 236.233996 484.997549 239.997462 Z M 484.997549 239.997462 "
     transform="matrix(0.75043, 0, 0, 0.75043, 0.375215, 0.375215)"
     id="path2" />
  <path
     fill-rule="nonzero"
     fill="rgb(0%, 0%, 0%)"
     fill-opacity="1"
     d="M 300.546875 180.476563 C 300.546875 182.257813 300.503906 184.039063 300.417969 185.816406 C 300.328125 187.597656 300.199219 189.371094 300.023438 191.144531 C 299.847656 192.917969 299.632813 194.683594 299.371094 196.445313 C 299.109375 198.207031 298.804688 199.960938 298.457031 201.707031 C 298.109375 203.453125 297.71875 205.191406 297.285156 206.917969 C 296.855469 208.644531 296.378906 210.359375 295.863281 212.066406 C 295.34375 213.769531 294.785156 215.460938 294.1875 217.136719 C 293.585938 218.8125 292.945313 220.472656 292.265625 222.121094 C 291.582031 223.765625 290.863281 225.390625 290.101563 227 C 289.339844 228.613281 288.539063 230.203125 287.699219 231.773438 C 286.859375 233.34375 285.980469 234.890625 285.066406 236.417969 C 284.152344 237.945313 283.199219 239.449219 282.210938 240.929688 C 281.21875 242.410156 280.195313 243.867188 279.132813 245.296875 C 278.074219 246.726563 276.976563 248.132813 275.847656 249.507813 C 274.71875 250.886719 273.554688 252.234375 272.359375 253.550781 C 271.164063 254.871094 269.9375 256.160156 268.675781 257.421875 C 267.417969 258.679688 266.128906 259.90625 264.808594 261.101563 C 263.488281 262.300781 262.140625 263.460938 260.765625 264.589844 C 259.386719 265.722656 257.984375 266.816406 256.554688 267.878906 C 255.125 268.9375 253.667969 269.964844 252.1875 270.953125 C 250.707031 271.941406 249.203125 272.894531 247.675781 273.808594 C 246.148438 274.726563 244.597656 275.601563 243.027344 276.441406 C 241.457031 277.28125 239.867188 278.082031 238.257813 278.84375 C 236.648438 279.605469 235.019531 280.328125 233.375 281.007813 C 231.730469 281.6875 230.070313 282.332031 228.394531 282.929688 C 226.714844 283.53125 225.027344 284.089844 223.320313 284.605469 C 221.617188 285.121094 219.902344 285.597656 218.175781 286.03125 C 216.445313 286.460938 214.710938 286.851563 212.964844 287.199219 C 211.214844 287.546875 209.460938 287.851563 207.699219 288.113281 C 205.941406 288.375 204.171875 288.59375 202.402344 288.765625 C 200.628906 288.941406 198.851563 289.074219 197.074219 289.160156 C 195.296875 289.246094 193.515625 289.289063 191.734375 289.289063 C 189.953125 289.289063 188.175781 289.246094 186.394531 289.160156 C 184.617188 289.074219 182.839844 288.941406 181.070313 288.765625 C 179.296875 288.59375 177.53125 288.375 175.769531 288.113281 C 174.007813 287.851563 172.253906 287.546875 170.507813 287.199219 C 168.761719 286.851563 167.023438 286.460938 165.296875 286.03125 C 163.566406 285.597656 161.851563 285.121094 160.148438 284.605469 C 158.445313 284.089844 156.753906 283.53125 155.078125 282.929688 C 153.402344 282.332031 151.738281 281.6875 150.09375 281.007813 C 148.449219 280.328125 146.820313 279.605469 145.210938 278.84375 C 143.601563 278.082031 142.011719 277.28125 140.441406 276.441406 C 138.871094 275.601563 137.320313 274.726563 135.792969 273.808594 C 134.265625 272.894531 132.761719 271.941406 131.28125 270.953125 C 129.800781 269.964844 128.347656 268.9375 126.914063 267.878906 C 125.484375 266.816406 124.082031 265.722656 122.703125 264.589844 C 121.328125 263.460938 119.980469 262.300781 118.660156 261.101563 C 117.339844 259.90625 116.050781 258.679688 114.792969 257.421875 C 113.535156 256.160156 112.304688 254.871094 111.109375 253.550781 C 109.914063 252.234375 108.75 250.886719 107.621094 249.507813 C 106.492188 248.132813 105.398438 246.726563 104.335938 245.296875 C 103.273438 243.867188 102.25 242.410156 101.261719 240.929688 C 100.269531 239.449219 99.320313 237.945313 98.402344 236.417969 C 97.488281 234.890625 96.609375 233.34375 95.769531 231.773438 C 94.929688 230.203125 94.132813 228.613281 93.371094 227 C 92.609375 225.390625 91.886719 223.765625 91.207031 222.121094 C 90.523438 220.472656 89.882813 218.8125 89.285156 217.136719 C 88.683594 215.460938 88.125 213.769531 87.609375 212.066406 C 87.089844 210.359375 86.617188 208.644531 86.183594 206.917969 C 85.75 205.191406 85.359375 203.453125 85.011719 201.707031 C 84.664063 199.960938 84.363281 198.207031 84.101563 196.445313 C 83.839844 194.683594 83.621094 192.917969 83.445313 191.144531 C 83.273438 189.371094 83.140625 187.597656 83.054688 185.816406 C 82.964844 184.039063 82.921875 182.257813 82.921875 180.476563 C 82.921875 178.699219 82.964844 176.917969 83.054688 175.140625 C 83.140625 173.359375 83.273438 171.585938 83.445313 169.8125 C 83.621094 168.039063 83.839844 166.273438 84.101563 164.511719 C 84.363281 162.75 84.664063 160.996094 85.011719 159.25 C 85.359375 157.503906 85.75 155.765625 86.183594 154.039063 C 86.617188 152.3125 87.089844 150.597656 87.609375 148.890625 C 88.125 147.1875 88.683594 145.496094 89.285156 143.820313 C 89.882813 142.144531 90.523438 140.484375 91.207031 138.835938 C 91.886719 137.191406 92.609375 135.566406 93.371094 133.957031 C 94.132813 132.34375 94.929688 130.753906 95.769531 129.183594 C 96.609375 127.613281 97.488281 126.066406 98.402344 124.539063 C 99.320313 123.011719 100.269531 121.507813 101.261719 120.027344 C 102.25 118.542969 103.273438 117.089844 104.335938 115.660156 C 105.398438 114.230469 106.492188 112.824219 107.621094 111.449219 C 108.75 110.070313 109.914063 108.722656 111.109375 107.40625 C 112.304688 106.085938 113.535156 104.796875 114.792969 103.535156 C 116.050781 102.277344 117.339844 101.050781 118.660156 99.855469 C 119.980469 98.65625 121.328125 97.496094 122.703125 96.367188 C 124.082031 95.234375 125.484375 94.140625 126.914063 93.078125 C 128.347656 92.019531 129.800781 90.992188 131.28125 90.003906 C 132.761719 89.015625 134.265625 88.0625 135.792969 87.148438 C 137.320313 86.230469 138.871094 85.355469 140.441406 84.515625 C 142.011719 83.675781 143.601563 82.875 145.210938 82.113281 C 146.820313 81.351563 148.449219 80.628906 150.09375 79.949219 C 151.738281 79.265625 153.402344 78.625 155.078125 78.027344 C 156.753906 77.425781 158.445313 76.867188 160.148438 76.351563 C 161.851563 75.835938 163.566406 75.359375 165.296875 74.925781 C 167.023438 74.496094 168.761719 74.105469 170.507813 73.757813 C 172.253906 73.410156 174.007813 73.105469 175.769531 72.84375 C 177.53125 72.582031 179.296875 72.363281 181.070313 72.191406 C 182.839844 72.015625 184.617188 71.882813 186.394531 71.796875 C 188.175781 71.710938 189.953125 71.667969 191.734375 71.667969 C 193.515625 71.667969 195.296875 71.710938 197.074219 71.796875 C 198.851563 71.882813 200.628906 72.015625 202.402344 72.191406 C 204.171875 72.363281 205.941406 72.582031 207.699219 72.84375 C 209.460938 73.105469 211.214844 73.410156 212.964844 73.757813 C 214.710938 74.105469 216.445313 74.496094 218.175781 74.925781 C 219.902344 75.359375 221.617188 75.835938 223.320313 76.351563 C 225.027344 76.867188 226.714844 77.425781 228.394531 78.027344 C 230.070313 78.625 231.730469 79.265625 233.375 79.949219 C 235.019531 80.628906 236.648438 81.351563 238.257813 82.113281 C 239.867188 82.875 241.457031 83.675781 243.027344 84.515625 C 244.597656 85.355469 246.148438 86.230469 247.675781 87.148438 C 249.203125 88.0625 250.707031 89.015625 252.1875 90.003906 C 253.667969 90.992188 255.125 92.019531 256.554688 93.078125 C 257.984375 94.140625 259.386719 95.234375 260.765625 96.367188 C 262.140625 97.496094 263.488281 98.65625 264.808594 99.855469 C 266.128906 101.050781 267.417969 102.277344 268.675781 103.535156 C 269.9375 104.796875 271.164063 106.085938 272.359375 107.40625 C 273.554688 108.722656 274.71875 110.070313 275.847656 111.449219 C 276.976563 112.824219 278.074219 114.230469 279.132813 115.660156 C 280.195313 117.089844 281.21875 118.542969 282.210938 120.027344 C 283.199219 121.507813 284.152344 123.011719 285.066406 124.539063 C 285.980469 126.066406 286.859375 127.613281 287.699219 129.183594 C 288.539063 130.753906 289.339844 132.34375 290.101563 133.957031 C 290.863281 135.566406 291.582031 137.191406 292.265625 138.835938 C 292.945313 140.484375 293.585938 142.144531 294.1875 143.820313 C 294.785156 145.496094 295.34375 147.1875 295.863281 148.890625 C 296.378906 150.597656 296.855469 152.3125 297.285156 154.039063 C 297.71875 155.765625 298.109375 157.503906 298.457031 159.25 C 298.804688 160.996094 299.109375 162.75 299.371094 164.511719 C 299.628906 166.273438 299.847656 168.039063 300.023438 169.8125 C 300.199219 171.585938 300.328125 173.359375 300.417969 175.140625 C 300.503906 176.917969 300.546875 178.699219 300.546875 180.476563 Z M 300.546875 180.476563 "
     id="path4" />
  <path
     fill-rule="nonzero"
     fill="rgb(100%, 100%, 100%)"
     fill-opacity="1"
     d="M 270.53125 176.726563 C 270.53125 178.015625 270.5 179.304688 270.433594 180.59375 C 270.371094 181.878906 270.277344 183.167969 270.152344 184.449219 C 270.023438 185.734375 269.867188 187.011719 269.675781 188.289063 C 269.488281 189.5625 269.269531 190.832031 269.015625 192.097656 C 268.765625 193.363281 268.480469 194.621094 268.167969 195.871094 C 267.855469 197.121094 267.511719 198.367188 267.136719 199.597656 C 266.761719 200.832031 266.359375 202.058594 265.925781 203.273438 C 265.488281 204.484375 265.027344 205.6875 264.53125 206.878906 C 264.039063 208.070313 263.515625 209.25 262.964844 210.414063 C 262.414063 211.582031 261.832031 212.734375 261.226563 213.871094 C 260.617188 215.007813 259.984375 216.128906 259.320313 217.234375 C 258.65625 218.339844 257.96875 219.429688 257.25 220.503906 C 256.535156 221.574219 255.792969 222.628906 255.023438 223.664063 C 254.253906 224.699219 253.460938 225.714844 252.644531 226.714844 C 251.828125 227.710938 250.984375 228.6875 250.117188 229.640625 C 249.253906 230.597656 248.363281 231.53125 247.453125 232.441406 C 246.539063 233.355469 245.605469 234.242188 244.652344 235.109375 C 243.695313 235.976563 242.71875 236.816406 241.722656 237.636719 C 240.726563 238.453125 239.707031 239.246094 238.671875 240.015625 C 237.636719 240.785156 236.582031 241.527344 235.511719 242.242188 C 234.4375 242.957031 233.351563 243.648438 232.242188 244.3125 C 231.136719 244.972656 230.015625 245.609375 228.878906 246.21875 C 227.742188 246.824219 226.589844 247.40625 225.425781 247.957031 C 224.257813 248.507813 223.078125 249.03125 221.886719 249.523438 C 220.695313 250.015625 219.496094 250.480469 218.28125 250.914063 C 217.066406 251.351563 215.84375 251.753906 214.609375 252.128906 C 213.375 252.503906 212.132813 252.847656 210.878906 253.160156 C 209.628906 253.472656 208.371094 253.757813 207.105469 254.007813 C 205.84375 254.257813 204.570313 254.480469 203.296875 254.667969 C 202.019531 254.859375 200.742188 255.015625 199.457031 255.140625 C 198.175781 255.269531 196.890625 255.363281 195.601563 255.425781 C 194.3125 255.488281 193.023438 255.523438 191.734375 255.523438 C 190.445313 255.523438 189.15625 255.488281 187.867188 255.425781 C 186.582031 255.363281 185.296875 255.269531 184.011719 255.140625 C 182.726563 255.015625 181.449219 254.859375 180.171875 254.667969 C 178.898438 254.480469 177.628906 254.257813 176.363281 254.007813 C 175.097656 253.757813 173.839844 253.472656 172.589844 253.160156 C 171.339844 252.847656 170.097656 252.503906 168.863281 252.128906 C 167.628906 251.753906 166.402344 251.351563 165.191406 250.914063 C 163.976563 250.480469 162.773438 250.015625 161.582031 249.523438 C 160.390625 249.03125 159.210938 248.507813 158.046875 247.957031 C 156.878906 247.40625 155.726563 246.824219 154.589844 246.21875 C 153.453125 245.609375 152.332031 244.972656 151.226563 244.3125 C 150.121094 243.648438 149.03125 242.957031 147.957031 242.242188 C 146.886719 241.527344 145.832031 240.785156 144.796875 240.015625 C 143.761719 239.246094 142.746094 238.453125 141.746094 237.636719 C 140.75 236.816406 139.773438 235.976563 138.820313 235.109375 C 137.863281 234.242188 136.929688 233.355469 136.019531 232.441406 C 135.105469 231.53125 134.21875 230.597656 133.351563 229.640625 C 132.484375 228.6875 131.644531 227.710938 130.824219 226.714844 C 130.007813 225.714844 129.214844 224.699219 128.445313 223.664063 C 127.679688 222.628906 126.933594 221.574219 126.21875 220.503906 C 125.503906 219.429688 124.8125 218.339844 124.148438 217.234375 C 123.488281 216.128906 122.851563 215.007813 122.242188 213.871094 C 121.636719 212.734375 121.054688 211.582031 120.503906 210.414063 C 119.953125 209.25 119.429688 208.070313 118.9375 206.878906 C 118.445313 205.6875 117.980469 204.484375 117.546875 203.273438 C 117.113281 202.058594 116.707031 200.832031 116.332031 199.597656 C 115.957031 198.367188 115.613281 197.121094 115.300781 195.871094 C 114.988281 194.621094 114.707031 193.363281 114.453125 192.097656 C 114.203125 190.832031 113.980469 189.5625 113.792969 188.289063 C 113.601563 187.011719 113.445313 185.734375 113.320313 184.449219 C 113.191406 183.167969 113.097656 181.878906 113.035156 180.59375 C 112.972656 179.304688 112.941406 178.015625 112.941406 176.726563 C 112.941406 175.4375 112.972656 174.148438 113.035156 172.859375 C 113.097656 171.570313 113.191406 170.285156 113.320313 169.003906 C 113.445313 167.71875 113.601563 166.441406 113.792969 165.164063 C 113.980469 163.890625 114.203125 162.617188 114.453125 161.355469 C 114.707031 160.089844 114.988281 158.832031 115.300781 157.582031 C 115.613281 156.328125 115.957031 155.085938 116.332031 153.851563 C 116.707031 152.621094 117.113281 151.394531 117.546875 150.179688 C 117.980469 148.96875 118.445313 147.765625 118.9375 146.574219 C 119.429688 145.382813 119.953125 144.203125 120.503906 143.035156 C 121.054688 141.871094 121.636719 140.71875 122.242188 139.582031 C 122.851563 138.445313 123.488281 137.324219 124.148438 136.21875 C 124.8125 135.113281 125.503906 134.023438 126.21875 132.949219 C 126.933594 131.878906 127.679688 130.824219 128.445313 129.789063 C 129.214844 128.753906 130.007813 127.734375 130.824219 126.738281 C 131.644531 125.742188 132.484375 124.765625 133.351563 123.8125 C 134.21875 122.855469 135.105469 121.921875 136.019531 121.007813 C 136.929688 120.097656 137.863281 119.207031 138.820313 118.34375 C 139.773438 117.476563 140.75 116.636719 141.746094 115.816406 C 142.746094 115 143.761719 114.207031 144.796875 113.4375 C 145.832031 112.667969 146.886719 111.925781 147.957031 111.210938 C 149.03125 110.492188 150.121094 109.804688 151.226563 109.140625 C 152.332031 108.476563 153.453125 107.84375 154.589844 107.234375 C 155.726563 106.628906 156.878906 106.046875 158.046875 105.496094 C 159.210938 104.945313 160.390625 104.421875 161.582031 103.929688 C 162.773438 103.4375 163.976563 102.972656 165.191406 102.539063 C 166.402344 102.101563 167.628906 101.699219 168.863281 101.324219 C 170.097656 100.949219 171.339844 100.605469 172.589844 100.292969 C 173.839844 99.980469 175.097656 99.695313 176.363281 99.445313 C 177.628906 99.195313 178.898438 98.972656 180.171875 98.785156 C 181.449219 98.59375 182.726563 98.4375 184.011719 98.3125 C 185.296875 98.183594 186.582031 98.089844 187.867188 98.027344 C 189.15625 97.960938 190.445313 97.929688 191.734375 97.929688 C 193.023438 97.929688 194.3125 97.960938 195.601563 98.027344 C 196.890625 98.089844 198.175781 98.183594 199.457031 98.3125 C 200.742188 98.4375 202.019531 98.59375 203.296875 98.785156 C 204.570313 98.972656 205.84375 99.195313 207.105469 99.445313 C 208.371094 99.695313 209.628906 99.980469 210.878906 100.292969 C 212.132813 100.605469 213.375 100.949219 214.609375 101.324219 C 215.84375 101.699219 217.066406 102.101563 218.28125 102.539063 C 219.496094 102.972656 220.695313 103.4375 221.886719 103.929688 C 223.078125 104.421875 224.257813 104.945313 225.425781 105.496094 C 226.589844 106.046875 227.742188 106.628906 228.878906 107.234375 C 230.015625 107.84375 231.136719 108.476563 232.242188 109.140625 C 233.351563 109.804688 234.4375 110.492188 235.511719 111.210938 C 236.582031 111.925781 237.636719 112.667969 238.671875 113.4375 C 239.707031 114.207031 240.726563 115 241.722656 115.816406 C 242.71875 116.636719 243.695313 117.476563 244.652344 118.34375 C 245.605469 119.207031 246.539063 120.097656 247.453125 121.007813 C 248.363281 121.921875 249.253906 122.855469 250.117188 123.8125 C 250.984375 124.765625 251.828125 125.742188 252.644531 126.738281 C 253.460938 127.734375 254.253906 128.753906 255.023438 129.789063 C 255.792969 130.824219 256.535156 131.878906 257.25 132.949219 C 257.96875 134.023438 258.65625 135.113281 259.320313 136.21875 C 259.984375 137.324219 260.617188 138.445313 261.226563 139.582031 C 261.832031 140.71875 262.414063 141.871094 262.964844 143.035156 C 263.515625 144.203125 264.039063 145.382813 264.53125 146.574219 C 265.027344 147.765625 265.488281 148.96875 265.925781 150.179688 C 266.359375 151.394531 266.761719 152.621094 267.136719 153.851563 C 267.511719 155.085938 267.855469 156.328125 268.167969 157.582031 C 268.480469 158.832031 268.765625 160.089844 269.015625 161.355469 C 269.269531 162.617188 269.488281 163.890625 269.675781 165.164063 C 269.867188 166.441406 270.023438 167.71875 270.152344 169.003906 C 270.277344 170.285156 270.371094 171.570313 270.433594 172.859375 C 270.5 174.148438 270.53125 175.4375 270.53125 176.726563 Z M 270.53125 176.726563 "
     id="path6" />
  <path
     fill-rule="nonzero"
     fill="rgb(0%, 0%, 0%)"
     fill-opacity="1"
     d="M 214.246094 67.914063 L 214.246094 90.425781 C 214.246094 91.164063 214.210938 91.898438 214.140625 92.632813 C 214.066406 93.367188 213.960938 94.097656 213.816406 94.820313 C 213.671875 95.542969 213.492188 96.257813 213.277344 96.960938 C 213.0625 97.667969 212.816406 98.359375 212.535156 99.042969 C 212.253906 99.722656 211.9375 100.390625 211.589844 101.039063 C 211.242188 101.691406 210.863281 102.320313 210.453125 102.933594 C 210.042969 103.546875 209.605469 104.140625 209.136719 104.707031 C 208.667969 105.277344 208.175781 105.824219 207.652344 106.347656 C 207.132813 106.867188 206.585938 107.363281 206.015625 107.828125 C 205.445313 108.296875 204.855469 108.734375 204.242188 109.144531 C 203.628906 109.554688 202.996094 109.933594 202.347656 110.28125 C 201.695313 110.628906 201.03125 110.945313 200.351563 111.226563 C 199.667969 111.507813 198.976563 111.757813 198.269531 111.96875 C 197.566406 112.183594 196.851563 112.363281 196.128906 112.507813 C 195.402344 112.652344 194.675781 112.757813 193.941406 112.832031 C 193.207031 112.902344 192.472656 112.941406 191.734375 112.941406 C 190.996094 112.941406 190.261719 112.902344 189.527344 112.832031 C 188.792969 112.757813 188.066406 112.652344 187.34375 112.507813 C 186.621094 112.363281 185.90625 112.183594 185.199219 111.96875 C 184.496094 111.757813 183.800781 111.507813 183.121094 111.226563 C 182.4375 110.945313 181.773438 110.628906 181.121094 110.28125 C 180.472656 109.933594 179.839844 109.554688 179.226563 109.144531 C 178.613281 108.734375 178.023438 108.296875 177.453125 107.828125 C 176.882813 107.363281 176.335938 106.867188 175.816406 106.347656 C 175.292969 105.824219 174.800781 105.277344 174.332031 104.707031 C 173.863281 104.140625 173.425781 103.546875 173.015625 102.933594 C 172.605469 102.320313 172.226563 101.691406 171.878906 101.039063 C 171.53125 100.390625 171.21875 99.722656 170.9375 99.042969 C 170.652344 98.359375 170.40625 97.667969 170.191406 96.960938 C 169.976563 96.257813 169.796875 95.542969 169.65625 94.820313 C 169.511719 94.097656 169.402344 93.367188 169.332031 92.632813 C 169.257813 91.898438 169.222656 91.164063 169.222656 90.425781 L 169.222656 67.914063 C 169.222656 67.175781 169.257813 66.441406 169.332031 65.707031 C 169.402344 64.972656 169.511719 64.246094 169.65625 63.523438 C 169.796875 62.796875 169.976563 62.085938 170.191406 61.378906 C 170.40625 60.671875 170.652344 59.980469 170.9375 59.296875 C 171.21875 58.617188 171.53125 57.953125 171.878906 57.300781 C 172.226563 56.652344 172.605469 56.019531 173.015625 55.40625 C 173.425781 54.792969 173.863281 54.203125 174.332031 53.632813 C 174.800781 53.0625 175.292969 52.515625 175.816406 51.996094 C 176.335938 51.472656 176.882813 50.980469 177.453125 50.511719 C 178.023438 50.042969 178.613281 49.605469 179.226563 49.195313 C 179.839844 48.785156 180.472656 48.40625 181.121094 48.058594 C 181.773438 47.710938 182.4375 47.398438 183.121094 47.113281 C 183.800781 46.832031 184.496094 46.585938 185.199219 46.371094 C 185.90625 46.15625 186.621094 45.976563 187.34375 45.832031 C 188.066406 45.691406 188.792969 45.582031 189.527344 45.507813 C 190.261719 45.4375 190.996094 45.402344 191.734375 45.402344 C 192.472656 45.402344 193.207031 45.4375 193.941406 45.507813 C 194.675781 45.582031 195.402344 45.691406 196.128906 45.832031 C 196.851563 45.976563 197.566406 46.15625 198.269531 46.371094 C 198.976563 46.585938 199.667969 46.832031 200.351563 47.113281 C 201.03125 47.398438 201.695313 47.710938 202.347656 48.058594 C 202.996094 48.40625 203.628906 48.785156 204.242188 49.195313 C 204.855469 49.605469 205.445313 50.042969 206.015625 50.511719 C 206.585938 50.980469 207.132813 51.472656 207.652344 51.996094 C 208.175781 52.515625 208.667969 53.0625 209.136719 53.632813 C 209.605469 54.203125 210.042969 54.792969 210.453125 55.40625 C 210.863281 56.019531 211.242188 56.652344 211.589844 57.300781 C 211.9375 57.953125 212.253906 58.617188 212.535156 59.296875 C 212.816406 59.980469 213.0625 60.671875 213.277344 61.378906 C 213.492188 62.085938 213.671875 62.796875 213.816406 63.523438 C 213.960938 64.246094 214.066406 64.972656 214.140625 65.707031 C 214.210938 66.441406 214.246094 67.175781 214.246094 67.914063 Z M 214.246094 67.914063 "
     id="path8" />
  <path
     fill-rule="nonzero"
     fill="rgb(0%, 0%, 0%)"
     fill-opacity="1"
     d="M 214.246094 270.53125 L 214.246094 285.539063 C 214.246094 286.277344 214.210938 287.011719 214.140625 287.746094 C 214.066406 288.480469 213.960938 289.207031 213.816406 289.929688 C 213.671875 290.652344 213.492188 291.367188 213.277344 292.074219 C 213.0625 292.78125 212.816406 293.472656 212.535156 294.152344 C 212.253906 294.835938 211.9375 295.5 211.589844 296.152344 C 211.242188 296.800781 210.863281 297.433594 210.453125 298.046875 C 210.042969 298.660156 209.605469 299.25 209.136719 299.820313 C 208.667969 300.390625 208.175781 300.9375 207.652344 301.457031 C 207.132813 301.980469 206.585938 302.472656 206.015625 302.941406 C 205.445313 303.410156 204.855469 303.847656 204.242188 304.257813 C 203.628906 304.667969 202.996094 305.046875 202.347656 305.394531 C 201.695313 305.742188 201.03125 306.054688 200.351563 306.335938 C 199.667969 306.621094 198.976563 306.867188 198.269531 307.082031 C 197.566406 307.296875 196.851563 307.476563 196.128906 307.617188 C 195.402344 307.761719 194.675781 307.871094 193.941406 307.941406 C 193.207031 308.015625 192.472656 308.050781 191.734375 308.050781 C 190.996094 308.050781 190.261719 308.015625 189.527344 307.941406 C 188.792969 307.871094 188.066406 307.761719 187.34375 307.617188 C 186.621094 307.476563 185.90625 307.296875 185.199219 307.082031 C 184.496094 306.867188 183.800781 306.621094 183.121094 306.335938 C 182.4375 306.054688 181.773438 305.742188 181.121094 305.394531 C 180.472656 305.046875 179.839844 304.667969 179.226563 304.257813 C 178.613281 303.847656 178.023438 303.410156 177.453125 302.941406 C 176.882813 302.472656 176.335938 301.980469 175.816406 301.457031 C 175.292969 300.9375 174.800781 300.390625 174.332031 299.820313 C 173.863281 299.25 173.425781 298.660156 173.015625 298.046875 C 172.605469 297.433594 172.226563 296.800781 171.878906 296.152344 C 171.53125 295.5 171.21875 294.835938 170.9375 294.152344 C 170.652344 293.472656 170.40625 292.78125 170.191406 292.074219 C 169.976563 291.367188 169.796875 290.652344 169.65625 289.929688 C 169.511719 289.207031 169.402344 288.480469 169.332031 287.746094 C 169.257813 287.011719 169.222656 286.277344 169.222656 285.539063 L 169.222656 270.53125 C 169.222656 269.792969 169.257813 269.058594 169.332031 268.324219 C 169.402344 267.589844 169.511719 266.859375 169.65625 266.136719 C 169.796875 265.414063 169.976563 264.699219 170.191406 263.996094 C 170.40625 263.289063 170.652344 262.597656 170.9375 261.914063 C 171.21875 261.234375 171.53125 260.566406 171.878906 259.917969 C 172.226563 259.265625 172.605469 258.636719 173.015625 258.023438 C 173.425781 257.410156 173.863281 256.816406 174.332031 256.246094 C 174.800781 255.679688 175.292969 255.132813 175.816406 254.609375 C 176.335938 254.089844 176.882813 253.59375 177.453125 253.128906 C 178.023438 252.660156 178.613281 252.222656 179.226563 251.8125 C 179.839844 251.402344 180.472656 251.023438 181.121094 250.675781 C 181.773438 250.328125 182.4375 250.011719 183.121094 249.730469 C 183.800781 249.449219 184.496094 249.199219 185.199219 248.988281 C 185.90625 248.773438 186.621094 248.59375 187.34375 248.449219 C 188.066406 248.304688 188.792969 248.199219 189.527344 248.125 C 190.261719 248.054688 190.996094 248.015625 191.734375 248.015625 C 192.472656 248.015625 193.207031 248.054688 193.941406 248.125 C 194.675781 248.199219 195.402344 248.304688 196.128906 248.449219 C 196.851563 248.59375 197.566406 248.773438 198.269531 248.988281 C 198.976563 249.199219 199.667969 249.449219 200.351563 249.730469 C 201.03125 250.011719 201.695313 250.328125 202.347656 250.675781 C 202.996094 251.023438 203.628906 251.402344 204.242188 251.8125 C 204.855469 252.222656 205.445313 252.660156 206.015625 253.128906 C 206.585938 253.59375 207.132813 254.089844 207.652344 254.609375 C 208.175781 255.132813 208.667969 255.679688 209.136719 256.25 C 209.605469 256.816406 210.042969 257.410156 210.453125 258.023438 C 210.863281 258.636719 211.242188 259.265625 211.589844 259.917969 C 211.9375 260.566406 212.253906 261.234375 212.535156 261.914063 C 212.816406 262.597656 213.0625 263.289063 213.277344 263.996094 C 213.492188 264.699219 213.671875 265.414063 213.816406 266.136719 C 213.960938 266.859375 214.066406 267.589844 214.140625 268.324219 C 214.210938 269.058594 214.246094 269.792969 214.246094 270.53125 Z M 214.246094 270.53125 "
     id="path10" />
  <path
     fill-rule="nonzero"
     fill="rgb(0%, 0%, 0%)"
     fill-opacity="1"
     d="M 281.785156 157.964844 L 304.300781 157.964844 C 305.035156 157.964844 305.773438 158 306.507813 158.074219 C 307.238281 158.144531 307.96875 158.253906 308.691406 158.398438 C 309.414063 158.542969 310.128906 158.722656 310.835938 158.933594 C 311.539063 159.148438 312.234375 159.398438 312.914063 159.679688 C 313.597656 159.960938 314.261719 160.277344 314.910156 160.625 C 315.5625 160.972656 316.195313 161.351563 316.808594 161.757813 C 317.421875 162.167969 318.011719 162.609375 318.582031 163.074219 C 319.152344 163.542969 319.695313 164.039063 320.21875 164.558594 C 320.738281 165.082031 321.234375 165.625 321.703125 166.195313 C 322.167969 166.765625 322.609375 167.359375 323.019531 167.972656 C 323.429688 168.585938 323.804688 169.214844 324.152344 169.867188 C 324.5 170.515625 324.816406 171.183594 325.097656 171.863281 C 325.378906 172.542969 325.628906 173.238281 325.84375 173.941406 C 326.058594 174.648438 326.234375 175.363281 326.378906 176.085938 C 326.523438 176.808594 326.632813 177.539063 326.703125 178.273438 C 326.777344 179.003906 326.8125 179.742188 326.8125 180.476563 C 326.8125 181.214844 326.777344 181.953125 326.703125 182.683594 C 326.632813 183.417969 326.523438 184.148438 326.378906 184.871094 C 326.234375 185.59375 326.058594 186.308594 325.84375 187.011719 C 325.628906 187.71875 325.378906 188.414063 325.097656 189.09375 C 324.816406 189.773438 324.5 190.441406 324.152344 191.089844 C 323.804688 191.742188 323.429688 192.371094 323.019531 192.984375 C 322.609375 193.597656 322.167969 194.191406 321.703125 194.761719 C 321.234375 195.332031 320.738281 195.875 320.21875 196.398438 C 319.695313 196.917969 319.152344 197.414063 318.582031 197.882813 C 318.011719 198.347656 317.421875 198.789063 316.808594 199.195313 C 316.195313 199.605469 315.5625 199.984375 314.910156 200.332031 C 314.261719 200.679688 313.597656 200.996094 312.914063 201.277344 C 312.234375 201.558594 311.539063 201.808594 310.835938 202.023438 C 310.128906 202.234375 309.414063 202.414063 308.691406 202.558594 C 307.96875 202.703125 307.238281 202.8125 306.507813 202.882813 C 305.773438 202.957031 305.035156 202.992188 304.300781 202.992188 L 281.785156 202.992188 C 281.050781 202.992188 280.3125 202.957031 279.578125 202.882813 C 278.847656 202.8125 278.117188 202.703125 277.394531 202.558594 C 276.671875 202.414063 275.957031 202.234375 275.25 202.023438 C 274.546875 201.808594 273.851563 201.558594 273.171875 201.277344 C 272.488281 200.996094 271.824219 200.679688 271.175781 200.332031 C 270.523438 199.984375 269.890625 199.605469 269.277344 199.195313 C 268.664063 198.789063 268.074219 198.347656 267.503906 197.882813 C 266.933594 197.414063 266.390625 196.917969 265.867188 196.398438 C 265.347656 195.875 264.851563 195.332031 264.382813 194.761719 C 263.917969 194.191406 263.476563 193.597656 263.066406 192.984375 C 262.65625 192.371094 262.28125 191.742188 261.933594 191.089844 C 261.585938 190.441406 261.269531 189.773438 260.988281 189.09375 C 260.707031 188.414063 260.457031 187.71875 260.242188 187.011719 C 260.027344 186.308594 259.851563 185.59375 259.707031 184.871094 C 259.5625 184.148438 259.453125 183.417969 259.382813 182.683594 C 259.308594 181.953125 259.273438 181.214844 259.273438 180.476563 C 259.273438 179.742188 259.308594 179.003906 259.382813 178.273438 C 259.453125 177.539063 259.5625 176.808594 259.707031 176.085938 C 259.851563 175.363281 260.027344 174.648438 260.242188 173.941406 C 260.457031 173.238281 260.707031 172.542969 260.988281 171.863281 C 261.269531 171.183594 261.585938 170.515625 261.933594 169.867188 C 262.28125 169.214844 262.65625 168.585938 263.066406 167.972656 C 263.476563 167.359375 263.917969 166.765625 264.382813 166.195313 C 264.851563 165.625 265.347656 165.082031 265.867188 164.558594 C 266.390625 164.039063 266.933594 163.542969 267.503906 163.074219 C 268.074219 162.609375 268.664063 162.167969 269.277344 161.757813 C 269.890625 161.351563 270.523438 160.972656 271.175781 160.625 C 271.824219 160.277344 272.488281 159.960938 273.171875 159.679688 C 273.851563 159.398438 274.546875 159.148438 275.25 158.933594 C 275.957031 158.722656 276.671875 158.542969 277.394531 158.398438 C 278.117188 158.253906 278.847656 158.144531 279.578125 158.074219 C 280.3125 158 281.050781 157.964844 281.785156 157.964844 Z M 281.785156 157.964844 "
     id="path12" />
  <path
     fill-rule="nonzero"
     fill="rgb(0%, 0%, 0%)"
     fill-opacity="1"
     d="M 79.171875 157.964844 L 101.683594 157.964844 C 102.421875 157.964844 103.15625 158 103.890625 158.074219 C 104.625 158.144531 105.351563 158.253906 106.074219 158.398438 C 106.796875 158.542969 107.511719 158.722656 108.21875 158.933594 C 108.925781 159.148438 109.617188 159.398438 110.296875 159.679688 C 110.980469 159.960938 111.644531 160.277344 112.296875 160.625 C 112.945313 160.972656 113.578125 161.351563 114.191406 161.757813 C 114.804688 162.167969 115.394531 162.609375 115.964844 163.074219 C 116.535156 163.542969 117.082031 164.039063 117.601563 164.558594 C 118.125 165.082031 118.617188 165.625 119.085938 166.195313 C 119.554688 166.765625 119.992188 167.359375 120.402344 167.972656 C 120.8125 168.585938 121.191406 169.214844 121.539063 169.867188 C 121.886719 170.515625 122.199219 171.183594 122.484375 171.863281 C 122.765625 172.542969 123.011719 173.238281 123.226563 173.941406 C 123.441406 174.648438 123.621094 175.363281 123.761719 176.085938 C 123.90625 176.808594 124.015625 177.539063 124.085938 178.273438 C 124.160156 179.003906 124.195313 179.742188 124.195313 180.476563 C 124.195313 181.214844 124.160156 181.953125 124.085938 182.683594 C 124.015625 183.417969 123.90625 184.148438 123.761719 184.871094 C 123.621094 185.59375 123.441406 186.308594 123.226563 187.011719 C 123.011719 187.71875 122.765625 188.414063 122.484375 189.09375 C 122.199219 189.773438 121.886719 190.441406 121.539063 191.089844 C 121.191406 191.742188 120.8125 192.371094 120.402344 192.984375 C 119.992188 193.597656 119.554688 194.191406 119.085938 194.761719 C 118.617188 195.332031 118.125 195.875 117.601563 196.398438 C 117.082031 196.917969 116.535156 197.414063 115.964844 197.882813 C 115.394531 198.347656 114.804688 198.789063 114.191406 199.195313 C 113.578125 199.605469 112.945313 199.984375 112.296875 200.332031 C 111.644531 200.679688 110.980469 200.996094 110.296875 201.277344 C 109.617188 201.558594 108.925781 201.808594 108.21875 202.023438 C 107.511719 202.234375 106.796875 202.414063 106.074219 202.558594 C 105.351563 202.703125 104.625 202.8125 103.890625 202.882813 C 103.15625 202.957031 102.421875 202.992188 101.683594 202.992188 L 79.171875 202.992188 C 78.433594 202.992188 77.699219 202.957031 76.964844 202.882813 C 76.230469 202.8125 75.5 202.703125 74.777344 202.558594 C 74.054688 202.414063 73.339844 202.234375 72.636719 202.023438 C 71.929688 201.808594 71.234375 201.558594 70.554688 201.277344 C 69.875 200.996094 69.207031 200.679688 68.558594 200.332031 C 67.90625 199.984375 67.277344 199.605469 66.664063 199.195313 C 66.050781 198.789063 65.457031 198.347656 64.886719 197.882813 C 64.320313 197.414063 63.773438 196.917969 63.25 196.398438 C 62.730469 195.875 62.234375 195.332031 61.769531 194.761719 C 61.300781 194.191406 60.859375 193.597656 60.453125 192.984375 C 60.042969 192.371094 59.664063 191.742188 59.316406 191.089844 C 58.96875 190.441406 58.652344 189.773438 58.371094 189.09375 C 58.089844 188.414063 57.839844 187.71875 57.625 187.011719 C 57.414063 186.308594 57.234375 185.59375 57.089844 184.871094 C 56.945313 184.148438 56.839844 183.417969 56.765625 182.683594 C 56.695313 181.953125 56.65625 181.214844 56.65625 180.476563 C 56.65625 179.742188 56.695313 179.003906 56.765625 178.273438 C 56.839844 177.539063 56.945313 176.808594 57.089844 176.085938 C 57.234375 175.363281 57.414063 174.648438 57.625 173.941406 C 57.839844 173.238281 58.089844 172.542969 58.371094 171.863281 C 58.652344 171.183594 58.96875 170.515625 59.316406 169.867188 C 59.664063 169.214844 60.042969 168.585938 60.453125 167.972656 C 60.859375 167.359375 61.300781 166.765625 61.769531 166.195313 C 62.234375 165.625 62.730469 165.082031 63.25 164.558594 C 63.773438 164.039063 64.320313 163.542969 64.886719 163.074219 C 65.457031 162.609375 66.050781 162.167969 66.664063 161.757813 C 67.277344 161.351563 67.90625 160.972656 68.558594 160.625 C 69.207031 160.277344 69.875 159.960938 70.554688 159.679688 C 71.234375 159.398438 71.929688 159.148438 72.636719 158.933594 C 73.339844 158.722656 74.054688 158.542969 74.777344 158.398438 C 75.5 158.253906 76.230469 158.144531 76.964844 158.074219 C 77.699219 158 78.433594 157.964844 79.171875 157.964844 Z M 79.171875 157.964844 "
     id="path14" />
  <path
     fill-rule="nonzero"
     fill="rgb(0%, 0%, 0%)"
     fill-opacity="1"
     d="M 239.898438 99.726563 L 255.816406 83.808594 C 256.339844 83.285156 256.882813 82.792969 257.453125 82.324219 C 258.023438 81.855469 258.613281 81.417969 259.226563 81.007813 C 259.839844 80.597656 260.472656 80.21875 261.125 79.871094 C 261.773438 79.523438 262.4375 79.210938 263.121094 78.929688 C 263.800781 78.644531 264.496094 78.398438 265.199219 78.183594 C 265.90625 77.96875 266.621094 77.789063 267.34375 77.648438 C 268.066406 77.503906 268.796875 77.394531 269.527344 77.324219 C 270.261719 77.25 271 77.214844 271.734375 77.214844 C 272.472656 77.214844 273.207031 77.25 273.941406 77.324219 C 274.675781 77.394531 275.40625 77.503906 276.128906 77.648438 C 276.851563 77.789063 277.566406 77.96875 278.269531 78.183594 C 278.976563 78.398438 279.667969 78.644531 280.351563 78.929688 C 281.03125 79.210938 281.699219 79.523438 282.347656 79.871094 C 283 80.21875 283.628906 80.597656 284.242188 81.007813 C 284.855469 81.417969 285.449219 81.855469 286.019531 82.324219 C 286.585938 82.792969 287.132813 83.285156 287.65625 83.808594 C 288.175781 84.328125 288.671875 84.875 289.136719 85.445313 C 289.605469 86.015625 290.042969 86.605469 290.453125 87.21875 C 290.863281 87.832031 291.242188 88.464844 291.589844 89.113281 C 291.9375 89.765625 292.253906 90.429688 292.535156 91.113281 C 292.816406 91.792969 293.066406 92.488281 293.277344 93.191406 C 293.492188 93.898438 293.671875 94.613281 293.816406 95.335938 C 293.960938 96.058594 294.066406 96.785156 294.140625 97.519531 C 294.210938 98.253906 294.25 98.988281 294.25 99.726563 C 294.25 100.464844 294.210938 101.199219 294.140625 101.933594 C 294.066406 102.667969 293.960938 103.394531 293.816406 104.121094 C 293.671875 104.84375 293.492188 105.558594 293.277344 106.261719 C 293.066406 106.96875 292.816406 107.660156 292.535156 108.34375 C 292.253906 109.023438 291.9375 109.691406 291.589844 110.339844 C 291.242188 110.988281 290.863281 111.621094 290.453125 112.234375 C 290.042969 112.847656 289.605469 113.4375 289.136719 114.007813 C 288.671875 114.578125 288.175781 115.125 287.65625 115.644531 L 271.734375 131.566406 C 271.214844 132.085938 270.667969 132.582031 270.097656 133.050781 C 269.527344 133.515625 268.9375 133.957031 268.324219 134.363281 C 267.710938 134.773438 267.078125 135.152344 266.429688 135.5 C 265.777344 135.847656 265.113281 136.164063 264.433594 136.445313 C 263.75 136.726563 263.058594 136.976563 262.351563 137.191406 C 261.644531 137.402344 260.933594 137.582031 260.207031 137.726563 C 259.484375 137.871094 258.757813 137.976563 258.023438 138.050781 C 257.289063 138.121094 256.554688 138.160156 255.816406 138.160156 C 255.078125 138.160156 254.34375 138.121094 253.609375 138.050781 C 252.875 137.976563 252.148438 137.871094 251.425781 137.726563 C 250.703125 137.582031 249.988281 137.402344 249.28125 137.191406 C 248.574219 136.976563 247.882813 136.726563 247.203125 136.445313 C 246.519531 136.164063 245.855469 135.847656 245.203125 135.5 C 244.554688 135.152344 243.921875 134.773438 243.308594 134.363281 C 242.695313 133.957031 242.105469 133.515625 241.535156 133.050781 C 240.964844 132.582031 240.417969 132.085938 239.898438 131.566406 C 239.375 131.042969 238.882813 130.5 238.414063 129.929688 C 237.945313 129.359375 237.507813 128.765625 237.097656 128.152344 C 236.6875 127.539063 236.308594 126.910156 235.960938 126.257813 C 235.613281 125.609375 235.300781 124.941406 235.015625 124.261719 C 234.734375 123.582031 234.488281 122.886719 234.273438 122.179688 C 234.058594 121.476563 233.878906 120.761719 233.738281 120.039063 C 233.59375 119.316406 233.484375 118.585938 233.414063 117.851563 C 233.339844 117.121094 233.304688 116.382813 233.304688 115.644531 C 233.304688 114.910156 233.339844 114.171875 233.414063 113.441406 C 233.484375 112.707031 233.59375 111.976563 233.738281 111.253906 C 233.878906 110.53125 234.058594 109.816406 234.273438 109.109375 C 234.488281 108.40625 234.734375 107.710938 235.015625 107.03125 C 235.300781 106.351563 235.613281 105.683594 235.960938 105.035156 C 236.308594 104.382813 236.6875 103.75 237.097656 103.140625 C 237.507813 102.527344 237.945313 101.933594 238.414063 101.363281 C 238.882813 100.792969 239.375 100.25 239.898438 99.726563 Z M 239.898438 99.726563 "
     id="path16" />
  <path
     fill-rule="nonzero"
     fill="rgb(0%, 0%, 0%)"
     fill-opacity="1"
     d="M 94.3125 242.308594 L 110.234375 226.390625 C 110.753906 225.867188 111.300781 225.375 111.871094 224.90625 C 112.441406 224.4375 113.03125 224 113.644531 223.589844 C 114.257813 223.179688 114.890625 222.800781 115.539063 222.453125 C 116.191406 222.105469 116.855469 221.792969 117.535156 221.511719 C 118.21875 221.226563 118.910156 220.980469 119.617188 220.765625 C 120.324219 220.550781 121.035156 220.371094 121.761719 220.230469 C 122.484375 220.085938 123.210938 219.976563 123.945313 219.90625 C 124.679688 219.832031 125.414063 219.796875 126.152344 219.796875 C 126.890625 219.796875 127.625 219.832031 128.359375 219.90625 C 129.09375 219.976563 129.820313 220.085938 130.542969 220.230469 C 131.265625 220.371094 131.980469 220.550781 132.6875 220.765625 C 133.394531 220.980469 134.085938 221.226563 134.765625 221.507813 C 135.449219 221.792969 136.113281 222.105469 136.765625 222.453125 C 137.414063 222.800781 138.046875 223.179688 138.660156 223.589844 C 139.273438 224 139.863281 224.4375 140.433594 224.90625 C 141.003906 225.375 141.550781 225.867188 142.070313 226.390625 C 142.59375 226.910156 143.085938 227.457031 143.554688 228.027344 C 144.023438 228.597656 144.460938 229.1875 144.871094 229.800781 C 145.28125 230.414063 145.660156 231.046875 146.007813 231.695313 C 146.355469 232.347656 146.667969 233.011719 146.953125 233.695313 C 147.234375 234.375 147.480469 235.066406 147.695313 235.773438 C 147.910156 236.480469 148.089844 237.195313 148.234375 237.917969 C 148.375 238.640625 148.484375 239.367188 148.558594 240.101563 C 148.628906 240.835938 148.664063 241.570313 148.664063 242.308594 C 148.664063 243.046875 148.628906 243.78125 148.558594 244.515625 C 148.484375 245.25 148.375 245.976563 148.234375 246.699219 C 148.089844 247.425781 147.910156 248.136719 147.695313 248.84375 C 147.480469 249.550781 147.234375 250.242188 146.953125 250.925781 C 146.667969 251.605469 146.355469 252.269531 146.007813 252.921875 C 145.660156 253.570313 145.28125 254.203125 144.871094 254.816406 C 144.460938 255.429688 144.023438 256.019531 143.554688 256.589844 C 143.085938 257.160156 142.59375 257.707031 142.070313 258.226563 L 126.152344 274.148438 C 125.632813 274.667969 125.085938 275.164063 124.515625 275.628906 C 123.945313 276.097656 123.355469 276.539063 122.742188 276.945313 C 122.128906 277.355469 121.496094 277.734375 120.847656 278.082031 C 120.195313 278.429688 119.53125 278.746094 118.847656 279.027344 C 118.167969 279.308594 117.472656 279.558594 116.769531 279.769531 C 116.0625 279.984375 115.347656 280.164063 114.625 280.308594 C 113.902344 280.453125 113.171875 280.558594 112.441406 280.632813 C 111.707031 280.703125 110.96875 280.742188 110.234375 280.742188 C 109.496094 280.742188 108.761719 280.703125 108.027344 280.632813 C 107.292969 280.558594 106.5625 280.453125 105.839844 280.308594 C 105.117188 280.164063 104.402344 279.984375 103.699219 279.773438 C 102.992188 279.558594 102.300781 279.308594 101.617188 279.027344 C 100.9375 278.746094 100.269531 278.429688 99.621094 278.082031 C 98.96875 277.734375 98.339844 277.355469 97.726563 276.945313 C 97.113281 276.539063 96.519531 276.097656 95.953125 275.628906 C 95.382813 275.164063 94.835938 274.667969 94.3125 274.148438 C 93.792969 273.625 93.296875 273.078125 92.832031 272.511719 C 92.363281 271.941406 91.925781 271.347656 91.515625 270.734375 C 91.105469 270.121094 90.726563 269.492188 90.378906 268.839844 C 90.03125 268.191406 89.714844 267.523438 89.433594 266.84375 C 89.152344 266.164063 88.902344 265.46875 88.691406 264.761719 C 88.476563 264.058594 88.296875 263.34375 88.152344 262.621094 C 88.007813 261.898438 87.902344 261.167969 87.828125 260.433594 C 87.757813 259.699219 87.71875 258.964844 87.71875 258.226563 C 87.71875 257.492188 87.757813 256.753906 87.828125 256.019531 C 87.902344 255.289063 88.007813 254.558594 88.152344 253.835938 C 88.296875 253.113281 88.476563 252.398438 88.691406 251.691406 C 88.902344 250.988281 89.152344 250.292969 89.433594 249.613281 C 89.714844 248.929688 90.03125 248.265625 90.378906 247.617188 C 90.726563 246.964844 91.105469 246.332031 91.515625 245.71875 C 91.925781 245.109375 92.363281 244.515625 92.832031 243.945313 C 93.296875 243.375 93.792969 242.832031 94.3125 242.308594 Z M 94.3125 242.308594 "
     id="path18" />
  <path
     fill-rule="nonzero"
     fill="rgb(0%, 0%, 0%)"
     fill-opacity="1"
     d="M 255.066406 277.898438 L 239.148438 261.980469 C 238.625 261.457031 238.132813 260.914063 237.664063 260.34375 C 237.195313 259.773438 236.757813 259.179688 236.347656 258.570313 C 235.9375 257.957031 235.558594 257.324219 235.210938 256.671875 C 234.863281 256.023438 234.550781 255.359375 234.265625 254.675781 C 233.984375 253.996094 233.738281 253.300781 233.523438 252.597656 C 233.308594 251.890625 233.128906 251.175781 232.984375 250.453125 C 232.84375 249.730469 232.734375 249 232.660156 248.269531 C 232.589844 247.535156 232.554688 246.796875 232.554688 246.0625 C 232.554688 245.324219 232.589844 244.589844 232.660156 243.855469 C 232.734375 243.121094 232.84375 242.390625 232.984375 241.667969 C 233.128906 240.945313 233.308594 240.230469 233.523438 239.527344 C 233.738281 238.820313 233.984375 238.128906 234.265625 237.445313 C 234.550781 236.765625 234.863281 236.097656 235.210938 235.449219 C 235.558594 234.796875 235.9375 234.167969 236.347656 233.554688 C 236.757813 232.941406 237.195313 232.347656 237.664063 231.777344 C 238.132813 231.210938 238.625 230.664063 239.148438 230.140625 C 239.667969 229.621094 240.214844 229.125 240.785156 228.660156 C 241.355469 228.191406 241.945313 227.75 242.558594 227.34375 C 243.171875 226.933594 243.804688 226.554688 244.453125 226.207031 C 245.105469 225.859375 245.769531 225.542969 246.449219 225.261719 C 247.132813 224.980469 247.824219 224.730469 248.53125 224.519531 C 249.238281 224.304688 249.949219 224.125 250.675781 223.980469 C 251.398438 223.835938 252.125 223.730469 252.859375 223.65625 C 253.59375 223.585938 254.328125 223.546875 255.066406 223.546875 C 255.804688 223.546875 256.539063 223.585938 257.273438 223.65625 C 258.007813 223.730469 258.734375 223.835938 259.457031 223.980469 C 260.179688 224.125 260.894531 224.304688 261.601563 224.519531 C 262.308594 224.730469 263 224.980469 263.679688 225.261719 C 264.363281 225.542969 265.027344 225.859375 265.679688 226.207031 C 266.328125 226.554688 266.960938 226.933594 267.574219 227.34375 C 268.1875 227.75 268.777344 228.191406 269.347656 228.660156 C 269.917969 229.125 270.464844 229.621094 270.984375 230.140625 L 286.90625 246.0625 C 287.425781 246.582031 287.921875 247.128906 288.386719 247.699219 C 288.855469 248.269531 289.292969 248.859375 289.703125 249.472656 C 290.113281 250.085938 290.492188 250.71875 290.839844 251.367188 C 291.1875 252.019531 291.503906 252.683594 291.785156 253.363281 C 292.066406 254.046875 292.316406 254.738281 292.527344 255.445313 C 292.742188 256.152344 292.921875 256.863281 293.066406 257.589844 C 293.210938 258.3125 293.316406 259.039063 293.390625 259.773438 C 293.460938 260.507813 293.5 261.242188 293.5 261.980469 C 293.5 262.71875 293.460938 263.453125 293.390625 264.1875 C 293.316406 264.921875 293.210938 265.648438 293.066406 266.371094 C 292.921875 267.09375 292.742188 267.808594 292.527344 268.515625 C 292.316406 269.222656 292.066406 269.914063 291.785156 270.59375 C 291.503906 271.277344 291.1875 271.941406 290.839844 272.59375 C 290.492188 273.242188 290.113281 273.875 289.703125 274.488281 C 289.292969 275.101563 288.855469 275.691406 288.386719 276.261719 C 287.921875 276.832031 287.425781 277.378906 286.90625 277.898438 C 286.382813 278.421875 285.835938 278.914063 285.265625 279.382813 C 284.699219 279.851563 284.105469 280.289063 283.492188 280.699219 C 282.878906 281.109375 282.25 281.488281 281.597656 281.835938 C 280.949219 282.183594 280.28125 282.496094 279.601563 282.78125 C 278.917969 283.0625 278.226563 283.308594 277.519531 283.523438 C 276.816406 283.738281 276.101563 283.917969 275.378906 284.058594 C 274.652344 284.203125 273.925781 284.3125 273.191406 284.382813 C 272.457031 284.457031 271.722656 284.492188 270.984375 284.492188 C 270.246094 284.492188 269.511719 284.457031 268.777344 284.382813 C 268.042969 284.3125 267.316406 284.203125 266.59375 284.058594 C 265.871094 283.917969 265.15625 283.738281 264.449219 283.523438 C 263.746094 283.308594 263.050781 283.0625 262.371094 282.78125 C 261.6875 282.496094 261.023438 282.183594 260.371094 281.835938 C 259.722656 281.488281 259.089844 281.109375 258.476563 280.699219 C 257.863281 280.289063 257.273438 279.851563 256.703125 279.382813 C 256.132813 278.914063 255.585938 278.421875 255.066406 277.898438 Z M 255.066406 277.898438 "
     id="path20" />
  <path
     fill-rule="nonzero"
     fill="rgb(0%, 0%, 0%)"
     fill-opacity="1"
     d="M 107.980469 134.566406 L 92.0625 118.648438 C 91.542969 118.125 91.046875 117.582031 90.578125 117.011719 C 90.113281 116.441406 89.671875 115.847656 89.261719 115.238281 C 88.855469 114.625 88.476563 113.992188 88.128906 113.339844 C 87.78125 112.691406 87.464844 112.027344 87.183594 111.34375 C 86.902344 110.664063 86.652344 109.96875 86.4375 109.265625 C 86.222656 108.558594 86.046875 107.84375 85.902344 107.121094 C 85.757813 106.398438 85.648438 105.667969 85.578125 104.9375 C 85.503906 104.203125 85.46875 103.464844 85.46875 102.730469 C 85.46875 101.992188 85.503906 101.257813 85.578125 100.523438 C 85.648438 99.789063 85.757813 99.058594 85.902344 98.335938 C 86.046875 97.613281 86.222656 96.898438 86.4375 96.195313 C 86.652344 95.488281 86.902344 94.792969 87.183594 94.113281 C 87.464844 93.433594 87.78125 92.765625 88.128906 92.117188 C 88.476563 91.464844 88.855469 90.835938 89.261719 90.222656 C 89.671875 89.609375 90.113281 89.015625 90.578125 88.445313 C 91.046875 87.875 91.542969 87.332031 92.0625 86.808594 C 92.585938 86.289063 93.128906 85.792969 93.699219 85.328125 C 94.269531 84.859375 94.863281 84.417969 95.472656 84.011719 C 96.085938 83.601563 96.71875 83.222656 97.371094 82.875 C 98.019531 82.527344 98.683594 82.210938 99.367188 81.929688 C 100.046875 81.648438 100.742188 81.398438 101.445313 81.183594 C 102.152344 80.972656 102.867188 80.792969 103.589844 80.648438 C 104.3125 80.503906 105.042969 80.398438 105.773438 80.324219 C 106.507813 80.253906 107.246094 80.214844 107.980469 80.214844 C 108.71875 80.214844 109.453125 80.253906 110.1875 80.324219 C 110.921875 80.398438 111.652344 80.503906 112.375 80.648438 C 113.097656 80.792969 113.8125 80.972656 114.515625 81.183594 C 115.222656 81.398438 115.917969 81.648438 116.597656 81.929688 C 117.277344 82.210938 117.945313 82.527344 118.59375 82.875 C 119.246094 83.222656 119.875 83.601563 120.488281 84.011719 C 121.101563 84.417969 121.695313 84.859375 122.265625 85.328125 C 122.832031 85.792969 123.378906 86.289063 123.902344 86.808594 L 139.820313 102.730469 C 140.339844 103.25 140.835938 103.796875 141.304688 104.367188 C 141.769531 104.9375 142.210938 105.527344 142.621094 106.140625 C 143.03125 106.753906 143.40625 107.386719 143.753906 108.035156 C 144.101563 108.6875 144.417969 109.351563 144.699219 110.03125 C 144.980469 110.714844 145.230469 111.40625 145.445313 112.113281 C 145.660156 112.820313 145.835938 113.53125 145.980469 114.257813 C 146.125 114.980469 146.234375 115.707031 146.304688 116.441406 C 146.378906 117.175781 146.414063 117.910156 146.414063 118.648438 C 146.414063 119.386719 146.378906 120.121094 146.304688 120.855469 C 146.234375 121.589844 146.125 122.316406 145.980469 123.039063 C 145.835938 123.761719 145.660156 124.476563 145.445313 125.183594 C 145.230469 125.890625 144.980469 126.582031 144.699219 127.261719 C 144.417969 127.945313 144.101563 128.609375 143.753906 129.261719 C 143.40625 129.910156 143.03125 130.542969 142.621094 131.15625 C 142.210938 131.769531 141.769531 132.359375 141.304688 132.929688 C 140.835938 133.5 140.339844 134.046875 139.820313 134.566406 C 139.296875 135.089844 138.753906 135.582031 138.183594 136.050781 C 137.613281 136.519531 137.023438 136.957031 136.410156 137.367188 C 135.796875 137.777344 135.164063 138.15625 134.511719 138.503906 C 133.863281 138.851563 133.199219 139.164063 132.515625 139.445313 C 131.835938 139.730469 131.140625 139.976563 130.4375 140.191406 C 129.730469 140.40625 129.015625 140.585938 128.292969 140.726563 C 127.570313 140.871094 126.839844 140.980469 126.109375 141.050781 C 125.375 141.125 124.636719 141.160156 123.902344 141.160156 C 123.164063 141.160156 122.429688 141.125 121.695313 141.050781 C 120.960938 140.980469 120.230469 140.871094 119.507813 140.726563 C 118.785156 140.585938 118.070313 140.40625 117.367188 140.191406 C 116.660156 139.976563 115.96875 139.730469 115.285156 139.445313 C 114.605469 139.164063 113.9375 138.851563 113.289063 138.503906 C 112.636719 138.15625 112.007813 137.777344 111.394531 137.367188 C 110.78125 136.957031 110.1875 136.519531 109.617188 136.050781 C 109.050781 135.582031 108.503906 135.089844 107.980469 134.566406 Z M 107.980469 134.566406 "
     id="path22" />
</svg>
