<svg width="280" height="280" viewBox="0 0 280 280" fill="none" xmlns="http://www.w3.org/2000/svg">
<path fill-rule="evenodd" clip-rule="evenodd" d="M140 280C217.32 280 280 217.32 280 140C280 62.6801 217.32 0 140 0C62.6801 0 0 62.6801 0 140C0 217.32 62.6801 280 140 280ZM121.443 115.663C116.355 119.634 109.954 122 103 122C86.4315 122 73 108.569 73 92C73 75.4315 86.4315 62 103 62C118.159 62 130.692 73.243 132.715 87.8452L217.395 119.092C239.151 127.121 239.201 157.874 217.471 165.973L132.468 197.653C129.824 211.519 117.636 222 103 222C86.4315 222 73 208.569 73 192C73 175.431 86.4315 162 103 162C110.503 162 117.362 164.754 122.622 169.306L194.36 142.57L121.443 115.663Z" fill="white"/>
</svg>
