<svg width="500" height="500" viewBox="0 0 500 500" fill="none" xmlns="http://www.w3.org/2000/svg">
<circle cx="250" cy="250" r="250" fill="url(#paint0_linear_19044_81)"/>
<path d="M141.172 262.432C141.172 158.813 177.469 107 250.063 107C322.651 107 358.948 158.813 358.948 262.432H141.172Z" fill="#00543C"/>
<path d="M190.031 293.599H310.099C311.734 293.599 313.37 293.677 315 293.838C316.63 294 318.25 294.239 319.859 294.557C321.464 294.88 323.052 295.276 324.62 295.755C326.188 296.229 327.729 296.781 329.245 297.406C330.755 298.031 332.234 298.734 333.682 299.505C335.125 300.276 336.531 301.119 337.891 302.031C339.255 302.937 340.568 303.916 341.833 304.953C343.104 305.994 344.313 307.093 345.474 308.25C346.63 309.411 347.729 310.625 348.771 311.89C349.807 313.156 350.786 314.468 351.693 315.833C352.604 317.192 353.448 318.599 354.219 320.041C354.99 321.489 355.693 322.968 356.318 324.484C356.943 325.994 357.495 327.536 357.974 329.104C358.448 330.672 358.844 332.26 359.167 333.864C359.484 335.474 359.724 337.093 359.885 338.724C360.047 340.354 360.125 341.989 360.125 343.625C360.125 345.265 360.047 346.901 359.885 348.531C359.724 350.161 359.484 351.781 359.167 353.385C358.844 354.994 358.448 356.583 357.974 358.151C357.495 359.718 356.943 361.26 356.318 362.771C355.693 364.286 354.99 365.765 354.219 367.208C353.448 368.656 352.604 370.057 351.693 371.422C350.786 372.786 349.807 374.099 348.771 375.364C347.729 376.63 346.63 377.843 345.474 379.005C344.313 380.161 343.104 381.26 341.833 382.302C340.568 383.338 339.255 384.312 337.891 385.224C336.531 386.135 335.125 386.974 333.682 387.75C332.234 388.521 330.755 389.218 329.245 389.849C327.729 390.474 326.188 391.026 324.62 391.5C323.052 391.979 321.464 392.375 319.859 392.692C318.25 393.015 316.63 393.255 315 393.416C313.37 393.573 311.734 393.656 310.099 393.656H190.031C188.391 393.656 186.755 393.573 185.125 393.416C183.495 393.255 181.875 393.015 180.271 392.692C178.661 392.375 177.073 391.979 175.505 391.5C173.938 391.026 172.396 390.474 170.885 389.849C169.37 389.218 167.891 388.521 166.448 387.75C165 386.974 163.599 386.135 162.234 385.224C160.87 384.312 159.557 383.338 158.292 382.302C157.026 381.26 155.813 380.161 154.651 379.005C153.495 377.843 152.396 376.63 151.354 375.364C150.318 374.099 149.344 372.786 148.432 371.422C147.521 370.057 146.682 368.656 145.906 367.208C145.135 365.765 144.437 364.286 143.807 362.771C143.182 361.26 142.63 359.718 142.156 358.151C141.677 356.583 141.281 354.994 140.964 353.385C140.641 351.781 140.401 350.161 140.24 348.531C140.078 346.901 140 345.265 140 343.625C140 341.989 140.078 340.354 140.24 338.724C140.401 337.093 140.641 335.474 140.964 333.864C141.281 332.26 141.677 330.672 142.156 329.104C142.63 327.536 143.182 325.994 143.807 324.484C144.437 322.968 145.135 321.489 145.906 320.041C146.682 318.599 147.521 317.192 148.432 315.833C149.344 314.468 150.318 313.156 151.354 311.89C152.396 310.625 153.495 309.411 154.651 308.25C155.813 307.093 157.026 305.994 158.292 304.953C159.557 303.916 160.87 302.937 162.234 302.031C163.599 301.119 165 300.276 166.448 299.505C167.891 298.734 169.37 298.031 170.885 297.406C172.396 296.781 173.938 296.229 175.505 295.755C177.073 295.276 178.661 294.88 180.271 294.557C181.875 294.239 183.495 294 185.125 293.838C186.755 293.677 188.391 293.599 190.031 293.599Z" fill="#00543C"/>
<defs>
<linearGradient id="paint0_linear_19044_81" x1="0" y1="250" x2="500" y2="250" gradientUnits="userSpaceOnUse">
<stop stop-color="#99F7CB"/>
<stop offset="1" stop-color="#99FFFF"/>
<stop offset="1" stop-color="#99FFFF"/>
</linearGradient>
</defs>
</svg>
