<svg width="250" height="250" viewBox="0 0 250 250" fill="none" xmlns="http://www.w3.org/2000/svg">
<path fill-rule="evenodd" clip-rule="evenodd" d="M104.36 85.8245C104.89 85.6198 105.403 85.4207 105.901 85.2274C114.155 82.0253 118.363 80.3928 126.15 80.5051C133.132 80.6057 136.921 82.0697 144.091 84.8397C144.906 85.1546 145.765 85.4864 146.677 85.8349L147.607 86.1899C154.712 88.9018 158.213 90.238 163.33 94.2141C166.852 96.9511 170.539 101.961 173.553 106.915C174.859 109.061 175.947 111.042 176.745 112.564C175.95 114.344 174.823 116.746 173.438 119.378C170.45 125.056 166.681 130.983 162.893 134.418C159.145 137.818 157.395 139.301 153.478 141.299C148.843 143.663 145.913 144.177 139.802 145.247C139.387 145.32 138.958 145.395 138.513 145.473L137.733 145.611C126.553 147.583 120.889 148.583 111.985 145.719C109.594 144.951 108.401 144.318 106.506 143.315C105.46 142.761 104.2 142.093 102.407 141.227C99.9164 140.024 98.0015 139.198 96.3761 138.498C93.207 137.131 91.1381 136.24 88.046 133.948C84.0203 130.964 80.0136 125.25 76.8085 119.501C75.3772 116.934 74.2136 114.559 73.3817 112.76C74.2785 111.253 75.4728 109.325 76.8804 107.239C80.2263 102.279 84.3027 97.1466 88.102 94.2755C93.5381 90.1676 97.0785 88.6398 104.36 85.8245ZM191.981 115.061C191.982 115.06 191.982 115.059 185.003 112.313L191.982 115.059L193.156 112.076L191.811 109.166L185.003 112.313C191.811 109.166 191.81 109.165 191.81 109.164L191.809 109.161L191.806 109.155L191.798 109.138L191.773 109.086C191.753 109.043 191.726 108.984 191.691 108.911C191.621 108.763 191.522 108.556 191.395 108.295C191.14 107.772 190.773 107.033 190.306 106.13C189.374 104.329 188.029 101.849 186.367 99.1176C183.173 93.8697 178.324 86.8695 172.534 82.3697C165.621 76.9983 160.255 74.955 153.308 72.31L153.306 72.3089C152.887 72.1495 152.463 71.9879 152.032 71.8233C151.151 71.4869 150.293 71.1528 149.448 70.8242L149.447 70.8239C142.294 68.041 136.141 65.6475 126.366 65.5066C115.594 65.3513 108.923 67.9504 100.815 71.1093C100.203 71.3479 99.5821 71.5897 98.9509 71.8337C91.2545 74.8094 86.1696 76.9345 79.0585 82.3083C73.1817 86.7493 67.9694 93.6268 64.4457 98.8498C62.6203 101.555 61.1208 104.011 60.0754 105.794C59.5513 106.687 59.1379 107.418 58.8512 107.933C58.7077 108.19 58.5957 108.395 58.5172 108.539C58.4779 108.611 58.4469 108.668 58.4246 108.71L58.3975 108.76L58.3889 108.777L58.3858 108.782L58.3845 108.785C58.384 108.786 58.3835 108.787 65.0028 112.313L58.3835 108.787L56.75 111.853L58.0326 115.082L65.0028 112.313C58.0326 115.082 58.0331 115.083 58.0336 115.084L58.0348 115.087L58.0377 115.094L58.0456 115.114L58.0702 115.175C58.0904 115.226 58.1183 115.294 58.1537 115.381C58.2244 115.553 58.3252 115.796 58.4549 116.102C58.7141 116.714 59.0899 117.578 59.5726 118.634C60.5351 120.738 61.9381 123.633 63.7072 126.806C67.1017 132.894 72.3837 141.01 79.1144 145.999C83.6495 149.36 87.8889 151.2 91.7982 152.896L91.7983 152.897C93.203 153.506 94.5651 154.097 95.883 154.734C96.7107 155.134 97.5578 155.579 98.4488 156.047C100.918 157.345 103.724 158.819 107.393 159.999C119.883 164.016 128.847 162.424 139.544 160.524C140.064 160.432 140.588 160.339 141.116 160.246C141.636 160.154 142.147 160.065 142.651 159.978C148.642 158.937 153.599 158.076 160.294 154.661C165.986 151.758 168.899 149.221 172.97 145.529C178.804 140.238 183.57 132.335 186.712 126.364C188.34 123.271 189.644 120.476 190.543 118.451C190.994 117.436 191.346 116.608 191.588 116.025C191.71 115.733 191.804 115.501 191.87 115.338C191.903 115.257 191.929 115.192 191.948 115.145L191.97 115.088L191.978 115.07L191.98 115.064L191.981 115.061ZM124.503 139C139.138 139 151.003 128.031 151.003 114.5C151.003 100.969 139.138 89.9998 124.503 89.9998C109.867 89.9998 98.0028 100.969 98.0028 114.5C98.0028 128.031 109.867 139 124.503 139Z" fill="black"/>
</svg>
