<svg width="250" height="250" viewBox="0 0 250 250" fill="none" xmlns="http://www.w3.org/2000/svg">
<rect x="83" y="59" width="83" height="45" rx="8" fill="black"/>
<rect x="110" y="46" width="30" height="35" rx="8" fill="black"/>
<rect x="83" y="59" width="83" height="45" rx="8" fill="black"/>
<rect x="110" y="46" width="30" height="35" rx="8" fill="black"/>
<rect x="130" y="178" width="12" height="42" rx="6" transform="rotate(-180 130 178)" fill="black"/>
<rect x="166" y="137" width="83" height="26" rx="8" transform="rotate(-180 166 137)" fill="black"/>
<rect x="139" y="150" width="30" height="28" rx="8" transform="rotate(-180 139 150)" fill="black"/>
<rect x="143" y="119" width="10" height="28" rx="5" transform="rotate(-180 143 119)" fill="black"/>
<rect x="115" y="119" width="10" height="28" rx="5" transform="rotate(-180 115 119)" fill="black"/>
</svg>
