<svg width="250" height="250" viewBox="0 0 250 250" fill="none" xmlns="http://www.w3.org/2000/svg">
<path d="M124 81V130" stroke="#384051" stroke-width="17" stroke-linecap="round"/>
<path d="M143.14 107.397C146.783 110.357 152.137 109.803 155.097 106.16C158.057 102.516 157.503 97.1631 153.86 94.2028L143.14 107.397ZM119.14 87.8968L143.14 107.397L153.86 94.2028L129.86 74.7028L119.14 87.8968Z" fill="#384051"/>
<path d="M105.442 107.53C101.835 110.535 96.4754 110.048 93.4701 106.442C90.4648 102.835 90.9521 97.4754 94.5584 94.4701L105.442 107.53ZM129.442 87.5299L105.442 107.53L94.5584 94.4701L118.558 74.4701L129.442 87.5299Z" fill="#384051"/>
<path d="M162 165H87" stroke="#384051" stroke-width="20" stroke-linecap="round"/>
</svg>
