<svg width="250" height="250" viewBox="0 0 250 250" fill="none" xmlns="http://www.w3.org/2000/svg">
<path fill-rule="evenodd" clip-rule="evenodd" d="M80.097 81.536C79.7554 81.7858 79.4094 82.0431 79.0585 82.3083C73.1817 86.7493 67.9694 93.6268 64.4457 98.8498C62.6203 101.555 61.1208 104.011 60.0754 105.794C59.5513 106.687 59.1379 107.418 58.8512 107.933C58.7077 108.19 58.5957 108.395 58.5172 108.539C58.4779 108.611 58.4469 108.668 58.4246 108.71L58.3975 108.76L58.3889 108.777L58.3858 108.782L58.3845 108.785C58.384 108.786 58.3835 108.787 65.0028 112.313L58.3835 108.787L56.75 111.853L58.0326 115.082L65.0028 112.313C58.0326 115.082 58.0331 115.083 58.0336 115.084L58.0348 115.087L58.0377 115.094L58.0456 115.114L58.0702 115.175C58.0904 115.226 58.1183 115.294 58.1537 115.381C58.2244 115.553 58.3252 115.796 58.4549 116.102C58.7141 116.714 59.0899 117.578 59.5726 118.634C60.5351 120.738 61.9381 123.633 63.7072 126.806C66.9142 132.558 71.8058 140.12 78.0123 145.144L88.7199 134.437C88.5003 134.281 88.276 134.118 88.046 133.948C84.0203 130.964 80.0136 125.25 76.8085 119.501C75.3772 116.934 74.2136 114.559 73.3817 112.76C74.2785 111.253 75.4728 109.325 76.8804 107.239C80.2263 102.279 84.3027 97.1465 88.102 94.2755C89.0717 93.5427 89.9812 92.8919 90.8623 92.3014L80.097 81.536ZM110.365 83.5196L98.7548 71.9096C98.82 71.8844 98.8854 71.8591 98.9509 71.8337C99.5821 71.5897 100.203 71.3479 100.815 71.1093C108.923 67.9504 115.594 65.3513 126.366 65.5066C136.141 65.6475 142.294 68.041 149.447 70.8239L149.447 70.824C150.13 71.0896 150.822 71.3587 151.527 71.6298L139.908 83.2487C135.163 81.5082 131.646 80.5843 126.15 80.5051C119.897 80.4149 115.952 81.45 110.365 83.5196ZM101.269 102.708C99.187 106.206 98.0028 110.225 98.0028 114.5C98.0028 117.626 98.6363 120.616 99.7911 123.366L110.859 112.298L101.269 102.708ZM107.568 143.873L96.4354 155.006C97.0876 155.332 97.7549 155.682 98.4488 156.047C100.918 157.345 103.724 158.819 107.393 159.999C119.883 164.016 128.847 162.424 139.544 160.524C140.064 160.432 140.588 160.339 141.116 160.246C141.636 160.154 142.147 160.065 142.651 159.978C147.094 159.206 150.968 158.533 155.405 156.844L143.199 144.638C142.172 144.832 141.054 145.028 139.802 145.247L139.8 145.247C139.386 145.32 138.957 145.395 138.513 145.473L137.733 145.611C126.553 147.583 120.889 148.583 111.985 145.719C110.069 145.103 108.923 144.575 107.568 143.873ZM135.4 136.839C132.076 138.227 128.387 139 124.503 139C120.893 139 117.452 138.333 114.316 137.124L125.001 126.44L135.4 136.839ZM162.037 135.192L172.657 145.812C172.761 145.719 172.865 145.624 172.97 145.529C178.804 140.238 183.57 132.335 186.712 126.364C188.34 123.271 189.644 120.476 190.543 118.451C190.994 117.436 191.346 116.608 191.588 116.025C191.71 115.733 191.804 115.501 191.87 115.338C191.903 115.257 191.929 115.192 191.948 115.145L191.97 115.088L191.978 115.07L191.98 115.064L191.981 115.061C191.982 115.06 191.982 115.059 185.003 112.313L191.982 115.059L193.156 112.076L191.811 109.166L185.003 112.313C191.811 109.166 191.81 109.165 191.81 109.164L191.809 109.161L191.806 109.155L191.798 109.138L191.773 109.086C191.753 109.043 191.726 108.984 191.691 108.911C191.621 108.763 191.522 108.556 191.395 108.295C191.14 107.772 190.773 107.033 190.306 106.13C189.374 104.329 188.029 101.849 186.367 99.1176C183.173 93.8697 178.324 86.8695 172.534 82.3697C171.859 81.8457 171.2 81.3534 170.552 80.8891L159.752 91.6886C160.899 92.4096 162.065 93.2312 163.33 94.2141C166.852 96.9511 170.539 101.961 173.553 106.915C174.859 109.061 175.947 111.042 176.745 112.564C175.95 114.344 174.823 116.746 173.438 119.378C170.45 125.056 166.681 130.983 162.893 134.418C162.596 134.688 162.311 134.945 162.037 135.192ZM148.101 103.34C149.956 106.687 151.003 110.481 151.003 114.5C151.003 117.359 150.473 120.103 149.5 122.654L139.143 112.298L148.101 103.34ZM132.128 91.0291L125.001 98.1557L117.668 90.8225C119.848 90.2859 122.139 89.9998 124.503 89.9998C127.153 89.9998 129.713 90.3596 132.128 91.0291Z" fill="#9DA2AE"/>
</svg>
