<svg width="500" height="500" viewBox="0 0 500 500" fill="none" xmlns="http://www.w3.org/2000/svg">
<circle cx="250" cy="250" r="250" fill="url(#paint0_linear_19044_63)"/>
<path d="M249.959 383.1C231.059 383.1 214.142 379.017 199.209 370.85C184.276 362.45 172.492 351.017 163.859 336.55C155.459 321.85 151.259 305.283 151.259 286.85V135.65H189.059V283.7C189.059 295.6 191.859 306.333 197.459 315.9C203.059 325.233 210.409 332.7 219.509 338.3C228.842 343.9 238.992 346.7 249.959 346.7C261.626 346.7 272.126 343.9 281.459 338.3C291.026 332.7 298.609 325.233 304.209 315.9C309.809 306.333 312.609 295.6 312.609 283.7V135.65H348.659V286.85C348.659 305.283 344.342 321.85 335.709 336.55C327.309 351.017 315.642 362.45 300.709 370.85C285.776 379.017 268.859 383.1 249.959 383.1Z" fill="#00543C"/>
<defs>
<linearGradient id="paint0_linear_19044_63" x1="0" y1="250" x2="500" y2="250" gradientUnits="userSpaceOnUse">
<stop stop-color="#99F7CB"/>
<stop offset="1" stop-color="#99FFFF"/>
<stop offset="1" stop-color="#99FFFF"/>
</linearGradient>
</defs>
</svg>
