<svg width="250" height="250" viewBox="0 0 250 250" fill="none" xmlns="http://www.w3.org/2000/svg">
<path fill-rule="evenodd" clip-rule="evenodd" d="M101.316 39.8368C102.688 42.434 102.864 45.6936 101.294 48.616C71.7527 103.619 73.2321 139.709 101.989 199.076C103.668 202.541 103.091 206.345 101.078 209.101C104.645 210.044 108.301 210.767 112.031 211.255C110.86 208.678 110.398 205.731 110.879 202.696C120.403 142.513 121.009 102.862 111.108 44.2532C110.733 42.0308 110.87 39.8497 111.428 37.8262C107.989 38.3007 104.615 38.9749 101.316 39.8368ZM79.6189 200.218C44.2852 147.807 41.2695 111.067 79.7987 48.6779C53.618 63.8001 36 92.0927 36 124.5C36 156.833 53.5374 185.07 79.6189 200.218ZM148.44 48.3695C147.066 45.7701 147.084 42.9103 148.098 40.5051C145.373 39.7084 142.593 39.0406 139.765 38.509C140.175 40.3316 140.247 42.2677 139.917 44.2367C130.123 102.704 130.77 142.593 140.164 202.729C140.596 205.49 140.248 208.177 139.296 210.578C142.329 210.025 145.307 209.316 148.222 208.459C146.635 205.839 146.277 202.455 147.763 199.337C176.178 139.727 177.641 103.592 148.44 48.3695ZM171.562 197.63C204.229 147.259 206.851 111.003 171.143 51.096C195.135 66.7 211 93.7473 211 124.5C211 155.074 195.32 181.985 171.562 197.63Z" fill="url(#paint0_linear_18846_366)"/>
<defs>
<linearGradient id="paint0_linear_18846_366" x1="123.5" y1="37" x2="123.5" y2="212" gradientUnits="userSpaceOnUse">
<stop stop-color="#99FFFF"/>
<stop offset="1" stop-color="#99F7CB"/>
</linearGradient>
</defs>
</svg>
