<svg width="250" height="250" viewBox="0 0 250 250" fill="none" xmlns="http://www.w3.org/2000/svg">
<path d="M250 125C250 194.036 194.036 250 125 250C55.9644 250 0 194.036 0 125C0 55.9644 55.9644 0 125 0C194.036 0 250 55.9644 250 125ZM14.6627 125C14.6627 185.938 64.0624 235.337 125 235.337C185.938 235.337 235.337 185.938 235.337 125C235.337 64.0624 185.938 14.6627 125 14.6627C64.0624 14.6627 14.6627 64.0624 14.6627 125Z" fill="#384051"/>
<path d="M124 68V143" stroke="#384051" stroke-width="17" stroke-linecap="round"/>
<path d="M143.14 94.3968C146.783 97.357 152.137 96.8032 155.097 93.1598C158.057 89.5164 157.503 84.1631 153.86 81.2028L143.14 94.3968ZM119.14 74.8968L143.14 94.3968L153.86 81.2028L129.86 61.7028L119.14 74.8968Z" fill="#384051"/>
<path d="M105.442 94.5299C101.835 97.5352 96.4754 97.0479 93.4701 93.4416C90.4648 89.8352 90.9521 84.4754 94.5584 81.4701L105.442 94.5299ZM129.442 74.5299L105.442 94.5299L94.5584 81.4701L118.558 61.4701L129.442 74.5299Z" fill="#384051"/>
<path d="M162 178H87" stroke="#384051" stroke-width="17" stroke-linecap="round"/>
</svg>
