<svg width="500" height="500" viewBox="0 0 500 500" fill="none" xmlns="http://www.w3.org/2000/svg">
<circle cx="250" cy="250" r="250" fill="url(#paint0_linear_19044_66)"/>
<path d="M231.302 381L133.302 136H176.352L234.802 284.75C237.602 291.983 240.052 298.517 242.152 304.35C244.486 310.183 246.469 315.55 248.102 320.45C249.736 325.117 251.252 329.55 252.652 333.75C254.052 337.95 255.452 342.15 256.852 346.35L247.752 346.7C249.386 341.1 251.136 335.267 253.002 329.2C254.869 323.133 256.969 316.483 259.302 309.25C261.869 302.017 264.902 293.85 268.402 284.75L322.652 136H366.752L268.052 381H231.302Z" fill="#00543C"/>
<defs>
<linearGradient id="paint0_linear_19044_66" x1="0" y1="250" x2="500" y2="250" gradientUnits="userSpaceOnUse">
<stop stop-color="#99F7CB"/>
<stop offset="1" stop-color="#99FFFF"/>
<stop offset="1" stop-color="#99FFFF"/>
</linearGradient>
</defs>
</svg>
