<svg width="500" height="500" viewBox="0 0 500 500" fill="none" xmlns="http://www.w3.org/2000/svg">
<circle cx="250" cy="250" r="250" fill="url(#paint0_linear_19044_69)"/>
<path d="M162.134 381L84.0836 136H124.334L171.584 289.3C172.984 293.033 174.267 297.467 175.434 302.6C176.6 307.5 177.65 312.517 178.584 317.65C179.517 322.783 180.334 327.567 181.034 332C181.967 336.433 182.784 340.05 183.484 342.85L173.334 342.5C176.834 330.133 179.517 320.567 181.384 313.8C183.484 307.033 185.117 301.9 186.284 298.4C187.45 294.667 188.5 291.517 189.434 288.95L233.534 178.35H267.484L310.184 288.95C312.517 294.55 314.5 300.15 316.134 305.75C318 311.117 319.634 316.6 321.034 322.2C322.434 327.567 323.95 333.283 325.584 339.35L316.484 341.8C317.65 335.5 318.467 330.6 318.934 327.1C319.634 323.367 320.217 320.333 320.684 318C321.15 315.667 321.617 313.45 322.084 311.35C322.55 309.017 323.25 306.1 324.184 302.6C325.35 299.1 326.867 294.317 328.734 288.25L375.284 136H415.884L337.834 381H311.584L246.834 227.7L249.984 229.1L187.684 381H162.134Z" fill="#00543C"/>
<defs>
<linearGradient id="paint0_linear_19044_69" x1="0" y1="250" x2="500" y2="250" gradientUnits="userSpaceOnUse">
<stop stop-color="#99F7CB"/>
<stop offset="1" stop-color="#99FFFF"/>
<stop offset="1" stop-color="#99FFFF"/>
</linearGradient>
</defs>
</svg>
