<svg width="105" height="99" viewBox="0 0 105 99" fill="none" xmlns="http://www.w3.org/2000/svg">
<path d="M42.636 64.6L38.316 46.915C40.926 46.285 43.401 45.565 45.741 44.755C48.081 43.855 50.241 42.91 52.221 41.92C54.201 40.93 55.866 39.805 57.216 38.545C58.656 37.195 59.781 35.755 60.591 34.225C61.401 32.605 61.806 30.895 61.806 29.095C61.806 27.295 61.356 25.765 60.456 24.505C59.556 23.155 58.341 22.12 56.811 21.4C55.281 20.68 53.481 20.32 51.411 20.32C48.441 20.32 45.471 21.4 42.501 23.56C39.531 25.63 36.786 29.005 34.266 33.685L19.551 20.05C23.601 13.84 28.416 9.02499 33.996 5.60499C39.666 2.18499 45.561 0.474995 51.681 0.474995C57.621 0.474995 62.976 1.69 67.746 4.12C72.516 6.45999 76.296 9.74499 79.086 13.975C81.876 18.115 83.271 22.795 83.271 28.015C83.271 31.345 82.551 34.63 81.111 37.87C79.761 41.11 77.826 44.17 75.306 47.05C72.876 49.84 69.996 52.315 66.666 54.475C63.336 56.635 59.646 58.3 55.596 59.47L54.246 64.6H42.636ZM37.776 86.47C37.776 82.87 38.856 79.945 41.016 77.695C43.176 75.445 45.966 74.32 49.386 74.32C53.076 74.32 55.956 75.4 58.026 77.56C60.096 79.63 61.131 82.6 61.131 86.47C61.131 89.98 60.051 92.86 57.891 95.11C55.731 97.36 52.896 98.485 49.386 98.485C45.696 98.485 42.816 97.45 40.746 95.38C38.766 93.31 37.776 90.34 37.776 86.47Z" fill="#FDE961"/>
</svg>
