<svg width="90" height="90" viewBox="0 0 90 90" fill="none" xmlns="http://www.w3.org/2000/svg">
<path d="M0 66.0811V90H23.7472V82.5H7.38359V66.0811H0Z" fill="#FDE961"/>
<path d="M0 23.5135H7.38359V8.31081H23.7472V0H0V23.5135Z" fill="#FDE961"/>
<path fill-rule="evenodd" clip-rule="evenodd" d="M16.1641 40.3378H40.51V16.6216H16.1641V40.3378ZM32.7273 33.0405H23.7472V25.1351H32.7273V33.0405Z" fill="#FDE961"/>
<path fill-rule="evenodd" clip-rule="evenodd" d="M40.51 49.0541H16.1641V74.1892H40.51V49.0541ZM32.7273 57.973H23.7472V66.0811H32.7273V57.973Z" fill="#FDE961"/>
<path fill-rule="evenodd" clip-rule="evenodd" d="M49.2905 40.3378H73.8359V16.6216H49.2905V40.3378ZM57.0732 25.1351V33.0405H65.6541V25.1351H57.0732Z" fill="#FDE961"/>
<path d="M82.6164 66.0811V82.5H65.6541V90H90V66.0811H82.6164Z" fill="#FDE961"/>
<path d="M73.8359 74.1892V57.1622H57.0732V66.0811H65.6541V74.1892H73.8359Z" fill="#FDE961"/>
<path d="M57.0732 66.0811H49.2905V74.1892H57.0732V66.0811Z" fill="#FDE961"/>
<path d="M57.0732 49.0541H49.2905V57.1622H57.0732V49.0541Z" fill="#FDE961"/>
<path d="M90 23.5135V0H65.6541V8.31081H82.6164V23.5135H90Z" fill="#FDE961"/>
</svg>
