<svg width="90" height="90" viewBox="0 0 90 90" fill="none" xmlns="http://www.w3.org/2000/svg">
<path fill-rule="evenodd" clip-rule="evenodd" d="M35.8687 0.0750947C36.1167 0.0251553 36.3691 0 36.622 0H52.9213C53.8565 0 54.7662 0.304875 55.5125 0.868419V0.868419C56.3296 1.48537 56.8998 2.3736 57.1204 3.37338L57.9866 7.2973L58.9804 13.5509C59.1209 14.4344 59.4871 15.2667 60.0436 15.9671V15.9671C60.2823 16.2674 60.5534 16.5403 60.8522 16.7809L61.5872 17.3729C61.8036 17.5472 62.0379 17.6981 62.2861 17.8231V17.8231C62.8349 18.0993 63.4408 18.2432 64.0553 18.2432H64.9995C65.9539 18.2432 66.9005 18.0705 67.7934 17.7334L71.2752 16.4189L75.916 14.3424C76.4404 14.1078 77.0084 13.9865 77.5829 13.9865H78.0865C78.5683 13.9865 79.0391 14.1298 79.4391 14.3983V14.3983C79.633 14.5285 79.8072 14.686 79.9561 14.8659L82.7517 18.2432L84.1323 20.1891C85.2236 21.7274 86.1932 23.3485 87.0321 25.0377L88.0031 26.9927C88.5274 28.0485 88.9353 29.1582 89.2193 30.3022L89.6133 31.8888C89.6696 32.1152 89.698 32.3477 89.698 32.5811V32.6224C89.698 33.1595 89.5398 33.6848 89.2433 34.1326V34.1326C89.144 34.2826 89.0301 34.4224 88.9033 34.55L87.5839 35.8784L79.4416 42.9047C79.2332 43.0845 79.0505 43.292 78.8985 43.5215V43.5215C78.6516 43.8944 78.4909 44.3176 78.4281 44.7603L78.3224 45.5048C78.2556 45.9757 78.2688 46.4545 78.3615 46.921V46.921C78.4685 47.4595 78.6794 47.972 78.9825 48.4297L79.24 48.8186C79.5662 49.3112 79.9572 49.7577 80.4023 50.1461L88.7919 57.4662L89.3466 58.0246C89.5777 58.2573 89.7516 58.5404 89.8547 58.8517V58.8517C89.9504 59.1409 89.9827 59.4473 89.9493 59.75L89.7862 61.2274C89.7275 61.7594 89.6211 62.2851 89.4682 62.798L89.2854 63.4117C88.9574 64.5124 88.5121 65.5747 87.9572 66.5804L87.2819 67.8041L83.9597 73.277L81.966 75.786C81.685 76.1396 81.3715 76.4661 81.0296 76.7611L80.3217 77.372C79.7391 77.8747 79.0248 78.2001 78.2631 78.3096V78.3096C77.64 78.3993 77.0046 78.3416 76.4078 78.1413L66.443 74.7973L65.1596 74.3666C64.8094 74.2491 64.4425 74.1892 64.0732 74.1892V74.1892C63.0845 74.1892 62.1444 74.6177 61.4958 75.3639L60.8661 76.0884C60.5584 76.4424 60.2971 76.8342 60.0885 77.2543L60.0656 77.3003C59.8881 77.6577 59.7472 78.0322 59.645 78.418L58.5906 82.3986L57.3826 87.5676V87.5676C57.0277 88.9966 55.7447 90 54.2722 90H38.1241C35.491 90 33.2652 88.0495 32.9195 85.4392V85.4392L31.7114 79.6622L31.3608 78.2501C31.1933 77.5758 30.901 76.9389 30.499 76.3723L30.3643 76.1824C29.8626 75.4753 29.1763 74.9197 28.3803 74.5762V74.5762C27.7885 74.3209 27.1508 74.1892 26.5062 74.1892H25.7915C24.7151 74.1892 23.6493 74.4014 22.6549 74.8136L14.9103 78.0241C14.2384 78.3026 13.5182 78.4459 12.7909 78.4459H12.1435C11.7049 78.4459 11.2725 78.3432 10.8808 78.1461V78.1461C10.4785 77.9436 10.1308 77.6472 9.86702 77.2821L5.43624 71.1486L4.14173 69.0634C2.99358 67.214 2.01184 65.2663 1.20805 63.2432V63.2432L0.604027 61.1149L0.397294 59.8661C0.334292 59.4855 0.340522 59.0967 0.415686 58.7183L0.437018 58.611C0.545934 58.0627 0.814135 57.5587 1.20805 57.1622V57.1622L9.0604 50.473L10.4817 49.042C10.7405 48.7815 10.9558 48.481 11.1191 48.152V48.152C11.3542 47.6787 11.4765 47.1574 11.4765 46.629V45.1383C11.4765 44.6474 11.3629 44.1631 11.1445 43.7234V43.7234C10.9648 43.3616 10.7178 43.0373 10.4168 42.7679L5.43624 38.3108L1.20805 34.6622V34.6622C0.814135 34.2656 0.545934 33.7616 0.437018 33.2134L0.302013 32.5338L0.267179 32.3234C0.0923733 31.2674 0.208834 30.1838 0.604027 29.1892V29.1892L2.99694 24.6922C4.41976 22.0184 6.04286 19.456 7.85235 17.027V17.027L10.0369 14.5528C10.1909 14.3784 10.362 14.2199 10.5476 14.0798L10.7727 13.9098C11.2294 13.565 11.7861 13.3784 12.3585 13.3784V13.3784C12.575 13.3784 12.7908 13.4051 13.0008 13.458L15.1007 13.9865L23.557 17.027L24.4631 17.3311L25.1628 17.5072C25.5004 17.5922 25.8472 17.6351 26.1953 17.6351H26.6601C27.1967 17.6351 27.7211 17.4754 28.1667 17.1764V17.1764C28.3147 17.0771 28.4525 16.9633 28.5782 16.8369L29.7038 15.7036C30.0334 15.3718 30.3074 14.9892 30.5154 14.5704V14.5704C30.7076 14.1833 30.8413 13.7697 30.9119 13.3433L32.0134 6.68919L32.7217 3.8368C32.8532 3.30753 33.0418 2.79415 33.2844 2.30573L33.6267 1.61648C33.7584 1.35137 33.9318 1.10916 34.1405 0.899138V0.899138C34.5258 0.511175 35.0177 0.24643 35.5538 0.138492L35.8687 0.0750947ZM45.4318 32.8378C45.1445 32.8378 44.8578 32.8639 44.5752 32.9156L42.4641 33.302C41.9406 33.3979 41.4246 33.5309 40.9201 33.7002V33.7002C40.2189 33.9355 39.5429 34.2398 38.9018 34.6086L38.8136 34.6593C38.1074 35.0656 37.4437 35.5416 36.8324 36.0801L36.238 36.6037C35.6384 37.1319 35.102 37.7278 34.6397 38.3795V38.3795C34.0994 39.141 33.6647 39.9722 33.3475 40.8503L32.9845 41.8554C32.7402 42.5317 32.5532 43.2273 32.4254 43.9349V43.9349C32.153 45.4436 32.153 46.9889 32.4254 48.4976L32.6175 49.5608L32.7258 49.9425C33.0543 51.1 33.5596 52.1998 34.2239 53.2031V53.2031C34.7616 54.0149 35.3986 54.7564 36.1202 55.4103L37.5416 56.6981C37.8825 57.0071 38.2455 57.2909 38.6275 57.5473L38.904 57.7329C39.5413 58.1606 40.2413 58.4864 40.979 58.6986V58.6986C41.643 58.8896 42.3304 58.9865 43.0213 58.9865H45.302H45.8203C47.2796 58.9865 48.7318 58.7818 50.1342 58.3784V58.3784L50.8107 58.106C51.3655 57.8825 51.9015 57.6149 52.4135 57.3056V57.3056C52.9067 57.0077 53.376 56.6721 53.8174 56.3018L54.9664 55.3378L55.7284 54.5707C56.424 53.8705 57.0023 53.0629 57.4413 52.1789V52.1789C57.8032 51.4503 58.0669 50.6768 58.2254 49.8788L58.334 49.3321C58.5047 48.4731 58.5906 47.5995 58.5906 46.7237V46.2162V46.2162C58.5906 45.2076 58.4509 44.2038 58.1755 43.2334L57.9866 42.5676L57.8191 42.0617C57.5289 41.1854 57.1441 40.3432 56.6715 39.5502V39.5502C55.9427 38.3272 55.0135 37.2354 53.9229 36.3204L53.524 35.9858C52.4788 35.1089 51.3016 34.4025 50.036 33.8929V33.8929C49.2977 33.5956 48.5336 33.3669 47.7533 33.2098L46.3709 32.9314C46.0618 32.8692 45.7472 32.8378 45.4318 32.8378V32.8378Z" fill="#FDE961"/>
</svg>
