<svg width="97" height="90" viewBox="0 0 97 90" fill="none" xmlns="http://www.w3.org/2000/svg">
<path d="M50.0277 31.7537C50.7685 31.7537 51.4488 32.1628 51.796 32.8173L61.6721 51.4338C62.8394 53.6341 65.5299 54.5285 67.7823 53.4649V53.4649C68.1045 53.3127 68.4431 53.198 68.7915 53.123L70.7439 52.7025C71.8038 52.4742 72.8849 52.3591 73.9691 52.3591V52.3591C75.9527 52.3591 77.9175 52.7444 79.7542 53.4936L79.9985 53.5932C81.1497 54.0628 82.2339 54.682 83.2233 55.4348V55.4348C84.1468 56.1374 84.9803 56.9509 85.7052 57.857L86.0832 58.3295C86.7714 59.1897 87.3572 60.1271 87.8288 61.1227V61.1227C88.4787 62.4948 88.9046 63.9622 89.09 65.4691L89.0995 65.5465C89.2401 66.6883 89.246 67.8427 89.1172 68.9859L89.0816 69.3016C88.9019 70.8968 88.4519 72.4498 87.751 73.8941V73.8941C87.0836 75.2695 86.1976 76.5275 85.1276 77.6194L85.0114 77.7379C84.1235 78.6439 83.122 79.437 82.0372 80.0945V80.0945C80.3913 81.092 78.5661 81.7721 76.6684 82.0925L76.5923 82.1053C75.3475 82.3155 74.0817 82.3742 72.8227 82.2803L72.3262 82.2432C71.1276 82.1538 69.9438 81.9224 68.7997 81.554L68.7331 81.5325C67.468 81.1251 66.2642 80.5478 65.1545 79.8164V79.8164C64.4336 79.3413 63.7559 78.8034 63.1295 78.2091L61.749 76.8994C61.6687 76.8232 61.5947 76.7407 61.5278 76.6526V76.6526C60.9046 75.8326 59.7699 75.6022 58.8763 76.1142L57.0073 77.1849C55.6085 77.9864 55.1759 79.8019 56.0631 81.148V81.148C56.1821 81.3285 56.3216 81.4945 56.4788 81.6429L58.2212 83.2866C59.1134 84.1283 60.0705 84.8985 61.0836 85.59L61.4304 85.8267C62.8104 86.7686 64.2946 87.5479 65.8534 88.1492V88.1492C67.2087 88.6719 68.613 89.0572 70.0453 89.2993L70.3734 89.3548C71.681 89.5758 73.0048 89.6869 74.3309 89.6869H74.6149C76.2234 89.6869 77.8268 89.5043 79.3941 89.1426V89.1426C81.0723 88.7553 82.6971 88.1655 84.233 87.3861L84.5965 87.2016C85.6086 86.688 86.586 86.0913 87.5061 85.4268V85.4268C88.8238 84.4751 90.0402 83.3708 91.1123 82.149V82.149C91.8311 81.3299 92.4871 80.4577 93.0745 79.5398L94.1962 77.7871L94.5002 77.1238C95.2142 75.566 95.764 73.9381 96.1407 72.2665L96.1996 72.0051C96.4503 70.8928 96.6114 69.7623 96.6814 68.6243V68.6243C96.778 67.055 96.7008 65.4797 96.4513 63.9273L96.2631 62.7557L95.6446 60.6841C95.2232 59.2721 94.6453 57.9116 93.9218 56.628V56.628C93.3543 55.6211 92.6997 54.666 91.9655 53.7734L91.1805 52.8191C90.3122 51.7636 89.339 50.799 88.2758 49.9403V49.9403C87.1736 49.0501 85.9808 48.2784 84.717 47.6381L83.7762 47.1614C82.5429 46.5366 81.2446 46.0494 79.9047 45.7088V45.7088C78.7876 45.4247 77.6467 45.2439 76.4965 45.1685L74.405 45.0313L70.334 45.2818V45.2818C68.2507 45.6911 66.1448 44.6898 65.147 42.8157L59.0267 31.3194C58.1057 29.5894 58.0856 27.5191 58.9728 25.7716V25.7716C59.401 24.9281 59.6242 23.9955 59.6242 23.0495V22.1104C59.6242 20.7122 59.2714 19.3365 58.5985 18.1109V18.1109C58.1172 17.2341 57.4815 16.4515 56.7221 15.8006L56.6136 15.7076C55.7068 14.9303 54.6558 14.3393 53.5206 13.9681L53.4318 13.9391C52.4722 13.6254 51.469 13.4656 50.4594 13.4656H50.2097C49.1041 13.4656 48.0069 13.6581 46.9674 14.0344L46.702 14.1305C45.5202 14.5584 44.451 15.2493 43.5751 16.1509V16.1509C43.0453 16.6963 42.593 17.3119 42.2308 17.9805L42.1015 18.2193C41.4733 19.3789 41.1012 20.6722 41.012 21.988V21.988C40.9369 23.0961 41.0652 24.2186 41.3918 25.2802L41.4119 25.3454C41.7343 26.3931 42.2514 27.3706 42.9362 28.2267V28.2267C43.7385 29.2295 44.7524 30.0426 45.9056 30.6079L46.1075 30.7068C46.9308 31.1104 47.8071 31.3955 48.7102 31.5535L49.6826 31.7237C49.7966 31.7436 49.912 31.7537 50.0277 31.7537V31.7537Z" fill="#9482BA"/>
<path d="M21.5613 58.1334C23.0236 58.1645 24.3912 57.4124 25.148 56.1607L33.5406 42.2807C34.608 40.5154 34.4405 38.2677 33.1231 36.6801V36.6801C32.962 36.4859 32.8162 36.2793 32.6872 36.0624L31.4411 33.9667C30.5665 32.4957 29.8551 30.9336 29.3197 29.3082L29.2341 29.0482C28.6615 27.31 28.3144 25.5054 28.2014 23.6788V23.6788C28.0652 21.4761 28.2708 19.2657 28.8109 17.126L28.8318 17.0431C29.3572 14.9616 30.1969 12.9496 31.3014 11.1087V11.1087C32.5463 9.03384 34.1343 7.15445 35.9774 5.58669L36.0375 5.53556C37.7648 4.0664 39.7022 2.86398 41.7853 1.96823L42.4602 1.67803C44.0826 0.98041 45.7957 0.516472 47.5484 0.300088V0.300088C49.162 0.100882 50.7946 0.113267 52.405 0.336928L53.3886 0.473539C55.613 0.782479 57.78 1.41613 59.8204 2.35424L59.9239 2.40183C61.4312 3.09483 62.855 3.95643 64.1682 4.97013L64.276 5.05333C65.2646 5.81645 66.1813 6.66845 67.0146 7.59865V7.59865C67.9723 8.66771 68.8149 9.83452 69.5285 11.0798L70.3104 12.4444C71.1994 13.9957 71.8874 15.6538 72.3578 17.3787L72.4517 17.723C72.7926 18.9728 72.9961 20.2561 73.0587 21.5501V21.5501C73.121 22.8372 73.0435 24.1272 72.8275 25.3976L72.1607 29.3202C72.1122 29.6054 72.0311 29.8842 71.919 30.1509L71.8122 30.4049C70.9923 32.3558 68.653 33.1533 66.8121 32.1095V32.1095C65.3043 31.2546 64.6393 29.4321 65.2421 27.807L65.4155 27.3397C65.5621 26.9444 65.6472 26.5289 65.6677 26.1078L65.7489 24.4431C65.8403 22.5695 65.5774 20.6956 64.9739 18.9196L64.6528 17.9748C64.0202 16.1131 63.0377 14.3895 61.7582 12.8967L61.6209 12.7366C60.7535 11.7246 59.7458 10.8421 58.6283 10.1157V10.1157C57.257 9.22434 55.7397 8.58078 54.1458 8.21434L53.3951 8.04178C51.8789 7.69322 50.3171 7.5865 48.7676 7.72556L48.446 7.75442C46.9738 7.88654 45.5353 8.27069 44.1932 8.89011V8.89011C42.8415 9.51399 41.6079 10.3671 40.5472 11.4118L39.831 12.1172C38.6322 13.2978 37.6669 14.6939 36.9856 16.2322V16.2322C36.3829 17.5933 36.0115 19.0453 35.8867 20.5286L35.7982 21.5807C35.6093 23.8267 35.9082 26.087 36.6743 28.2067L36.7079 28.2997C37.1609 29.5528 37.7798 30.7396 38.5482 31.8282V31.8282C39.2765 32.8599 40.133 33.7949 41.0971 34.6106L41.8807 35.2737C42.0185 35.3903 42.1654 35.4955 42.3202 35.5884V35.5884C43.916 36.5459 44.4229 38.6222 43.4477 40.2073L31.0802 60.3109C30.4096 61.4011 30.3567 62.7623 30.9407 63.9012V63.9012C31.1469 64.3032 31.2769 64.7398 31.3242 65.1891L31.4658 66.5343C31.5733 67.5562 31.4986 68.5891 31.2452 69.5849V69.5849C30.9204 70.8609 30.3096 72.0463 29.4591 73.0515L29.2891 73.2524C28.4367 74.2597 27.3791 75.0735 26.187 75.6392L26.0921 75.6843C24.9126 76.244 23.6233 76.5344 22.3177 76.5344V76.5344C21.3908 76.5344 20.4697 76.3881 19.5884 76.1007L19.5496 76.088C18.5492 75.7618 17.6133 75.2639 16.7839 74.6165L16.5398 74.426C15.8304 73.8723 15.2074 73.216 14.6913 72.4788L14.6132 72.3672C14.0203 71.5202 13.5901 70.5703 13.3446 69.5659V69.5659C13.1343 68.7056 13.0624 67.8173 13.1317 66.9344L13.1412 66.8127C13.2314 65.6634 13.5391 64.5417 14.0481 63.5073L14.3345 62.9252C14.9165 61.7426 15.764 60.71 16.8104 59.9086V59.9086C17.703 59.2249 18.722 58.7235 19.8085 58.4338L20.4206 58.2706C20.7925 58.1714 21.1765 58.1252 21.5613 58.1334V58.1334Z" fill="#9482BA"/>
<path d="M37.5157 69.4039C37.5157 66.3548 39.9874 63.8831 43.0364 63.8831H62.0811C63.8112 63.8831 65.4448 63.0858 66.5093 61.722V61.722C66.7205 61.4514 66.956 61.2007 67.213 60.9731L67.6311 60.6028C68.5478 59.7909 69.611 59.1614 70.7638 58.7481L70.9774 58.6716C71.8779 58.3487 72.8272 58.1837 73.7838 58.1837V58.1837C75.1378 58.1837 76.4713 58.5143 77.6685 59.1468L78.0121 59.3283C78.7767 59.7323 79.4792 60.244 80.0982 60.8479L80.1746 60.9224C81.1973 61.9201 81.9553 63.1569 82.3801 64.521V64.521C82.7379 65.6696 82.8507 66.8805 82.7113 68.0754L82.6828 68.3195C82.5515 69.4451 82.2174 70.5548 81.7106 71.5684V71.5684C81.2323 72.525 80.5957 73.4127 79.8395 74.1689L79.4888 74.5196C78.9009 75.1074 78.2222 75.5966 77.4786 75.9684V75.9684C76.4046 76.5054 75.2204 76.785 74.0196 76.785H73.6707C72.787 76.785 71.9078 76.6578 71.0603 76.4074L70.9923 76.3873C70.0577 76.1112 69.1701 75.6959 68.3593 75.1553L68.0607 74.9563C67.5735 74.6315 67.1225 74.2553 66.7155 73.8343L65.8349 72.9233C65.6216 72.7027 65.4569 72.4399 65.3513 72.1519V72.1519C65.0337 71.2857 64.2092 70.7098 63.2866 70.7098H48.467C46.3602 70.7098 44.5097 72.1089 43.9353 74.1359V74.1359C43.8728 74.3568 43.7941 74.5728 43.7 74.7822L43.0752 76.173C42.2942 77.9114 41.3166 79.5546 40.1616 81.0705L40.0153 81.2625C39.2688 82.2424 38.4415 83.158 37.5423 83.9999V83.9999C36.4833 84.9913 35.3291 85.8759 34.0966 86.6409L33.7958 86.8276C32.8123 87.4381 31.7735 87.9545 30.6932 88.37V88.37C29.6072 88.7877 28.4841 89.1015 27.3389 89.3074L24.9538 89.7362C23.9775 89.9117 22.9875 90 21.9955 90V90C21.1535 90 20.3127 89.9364 19.4802 89.8097L17.8497 89.5616L15.9552 89.0116C14.6324 88.6275 13.3488 88.1195 12.1215 87.4943V87.4943C11.14 86.9943 10.1977 86.4209 9.30252 85.7791L8.86744 85.4672C7.84314 84.7328 6.88823 83.9061 6.01465 82.9976V82.9976C4.80723 81.7419 3.76355 80.3385 2.90849 78.8207L2.7885 78.6077C2.05863 77.3122 1.45855 75.9478 0.996999 74.5343L0.688935 73.5908L0.391785 71.943C0.131115 70.4975 0 69.0315 0 67.5627V67.3671C0 65.7587 0.169911 64.1549 0.506905 62.5823L0.542684 62.4153C0.806661 61.1834 1.18124 59.9778 1.66186 58.8132V58.8132C2.26392 57.3544 3.02893 55.9683 3.94231 54.6812L4.14837 54.3909C4.93046 53.2888 5.80391 52.2545 6.75947 51.299L8.32985 49.7286V49.7286C10.0778 48.3552 11.9763 47.1849 13.9886 46.2403L14.0292 46.2213L16.81 45.3096C17.5021 45.0826 18.2105 44.9086 18.9289 44.7888L19.9816 44.6134C20.0633 44.5997 20.146 44.5929 20.2289 44.5929V44.5929C21.0594 44.5929 21.7328 45.2662 21.7328 46.0968V50.3144C21.7328 51.0395 21.244 51.6735 20.5428 51.858V51.858L19.6765 52.0313C19.0025 52.1661 18.3405 52.3551 17.697 52.5964V52.5964C16.6756 52.9794 15.7076 53.4917 14.8165 54.1207L14.0292 54.6764L11.7119 56.618L11.4176 56.9123C10.6159 57.7139 9.93453 58.6274 9.39457 59.6242V59.6242L8.32985 61.8789L8.21141 62.2235C7.83242 63.326 7.58559 64.4696 7.47609 65.6303V65.6303C7.37749 66.6754 7.39084 67.7281 7.51592 68.7705L7.5405 68.9753C7.77236 70.9074 8.36853 72.7781 9.29743 74.4881V74.4881C10.1898 76.1309 11.374 77.5973 12.792 78.8156L14.1687 79.9984C14.7828 80.526 15.4641 80.97 16.1948 81.3187V81.3187C17.2873 81.8401 18.4721 82.1401 19.681 82.2013L21.0826 82.2723C22.2227 82.33 23.3657 82.267 24.4925 82.0842L25.203 81.969C26.6795 81.7296 28.1078 81.2541 29.4332 80.5608V80.5608C30.8036 79.844 32.0452 78.9041 33.1071 77.7798L33.6008 77.257C34.33 76.4849 34.9808 75.6424 35.5437 74.7418L36.1199 73.8199C36.6297 73.0042 37.0082 72.1134 37.2415 71.1802L37.3508 70.7429C37.4603 70.3049 37.5157 69.8553 37.5157 69.4039V69.4039Z" fill="#9482BA"/>
<path d="M87.7668 90C90.657 90 93 87.6087 93 84.7185V84.7185C93 83.3111 92.4404 81.9412 91.4445 80.9467L55.6696 45.2222L48 52.8058L84.0873 88.488C85.067 89.4567 86.3891 90 87.7668 90V90Z" fill="#9482BA"/>
<path d="M48 37.5634L40.3304 45.2222L48 52.8058L55.6696 45.2222L48 37.5634Z" fill="#9482BA"/>
<path d="M91.2593 10.0319C92.3732 8.93059 93 7.42932 93 5.86291V5.22251C93 2.3382 90.6618 0 87.7775 0V0C86.3937 0 85.0664 0.549217 84.0872 1.52704L48 37.5634L55.6696 45.2222L91.2593 10.0319Z" fill="#9482BA"/>
<path d="M3 84.7185C3 87.6087 5.34299 90 8.23321 90V90C9.61091 90 10.933 89.4567 11.9127 88.488L48 52.8058L40.3304 45.2222L4.55549 80.9467C3.5596 81.9412 3 83.3111 3 84.7185V84.7185Z" fill="#9482BA"/>
<path d="M11.9128 1.52704C10.9336 0.549217 9.60633 0 8.22251 0V0C5.3382 0 3 2.3382 3 5.22251V5.86291C3 7.42932 3.62682 8.93059 4.74067 10.0319L40.3304 45.2222L48 37.5634L11.9128 1.52704Z" fill="#9482BA"/>
</svg>
