<svg width="90" height="90" viewBox="0 0 90 90" fill="none" xmlns="http://www.w3.org/2000/svg">
<path d="M37.3402 82.1134C37.3402 77.7578 40.8712 74.2268 45.2268 74.2268V74.2268C49.5825 74.2268 53.1134 77.7578 53.1134 82.1134V82.1134C53.1134 86.4691 49.5825 90 45.2268 90V90C40.8712 90 37.3402 86.4691 37.3402 82.1134V82.1134Z" fill="#3B82F7"/>
<path d="M25.8508 29.6907C28.2154 29.6907 30.2513 28.0217 30.7151 25.703V25.703C30.8015 25.2706 30.9453 24.8517 31.1425 24.4574L31.7732 23.1959L31.8208 23.1006C32.4038 21.9346 33.171 20.8703 34.0928 19.9485V19.9485L34.3018 19.7395C35.0884 18.9529 35.9507 18.2459 36.8763 17.6289V17.6289L38.268 16.701L39.1959 16.2371L39.6598 16.0052V16.0052C39.9649 15.8526 40.3013 15.7732 40.6424 15.7732H40.7036H41.2835H42.4433H44.7629H47.0825H47.3274C48.6917 15.7732 50.0374 16.0909 51.2577 16.701V16.701V16.701C52.4842 17.3143 53.5866 18.1494 54.509 19.164L57.3684 22.3094C57.6229 22.5893 57.8309 22.9082 57.9845 23.2539V23.2539L58.2165 23.7758L58.6804 24.8196L59.1443 25.8634L59.3763 26.3853V26.3853C59.5292 26.7294 59.6082 27.1018 59.6082 27.4783V27.6031V28.299V29.6907V31.0825V31.7784V31.7784C59.6082 32.2385 59.5255 32.6949 59.3639 33.1258L59.2603 33.4021L58.9124 34.3299L58.5644 35.2577V35.2577C58.3332 35.8743 58.0321 36.4622 57.6668 37.0101L57.3547 37.4783C56.695 38.4678 55.9074 39.3658 55.0125 40.1489L54.8854 40.26C53.4096 41.5514 51.6913 42.5359 49.8309 43.156L48.4742 43.6082L43.8351 44.5361L42.5819 44.9538C41.5683 45.2917 40.6158 45.7907 39.761 46.4318L39.5033 46.6251C39.2986 46.7786 39.1051 46.9465 38.9241 47.1274L38.3243 47.7272C37.6942 48.3573 37.3402 49.212 37.3402 50.1031V50.1031V59.3814C37.3402 63.7371 40.8712 67.268 45.2268 67.268H47.3718C50.5428 67.268 53.1134 64.6974 53.1134 61.5264V58.6627C53.1134 58.5321 53.1787 58.4101 53.2874 58.3376V58.3376L53.4613 58.2216L53.8093 57.9897V57.9897C54.2719 57.6812 54.7654 57.4217 55.2817 57.2152L56.8247 56.5979L59.1443 55.6701L60.5361 55.2062L61.232 54.9742L61.5799 54.8582L61.7539 54.8003V54.8003C61.8689 54.7619 61.9763 54.7035 62.071 54.6277L62.0728 54.6263L62.2178 54.5103L62.5077 54.2784L63.0876 53.8144L63.6675 53.3505L64.2474 52.8866L64.9356 52.1649L65.6237 51.4433L66.3119 50.7216L67 50L67.6397 49.2397L67.9596 48.8595L68.2794 48.4794L68.6632 48.0735L69.0469 47.6675L69.4307 47.2616L69.4933 47.1954C69.7066 46.9697 69.8923 46.7194 70.0464 46.4497V46.4497L70.2784 46.0438L70.7423 45.232L71.2062 44.4201L71.6701 43.6082L72.134 42.5644L72.5979 41.5206L73.0619 40.4768V40.4768C73.3707 39.7819 73.6262 39.0646 73.8263 38.331L73.8737 38.1572L74.2216 36.8814L74.5696 35.6057V35.6057C74.8005 34.7589 74.9175 33.8852 74.9175 33.0075V31.6624V28.9948V26.3273V25.3C74.9175 24.2079 74.84 23.1172 74.6856 22.0361V22.0361L74.4536 20.4124L73.9897 18.7887L73.9412 18.6189C73.6657 17.6547 73.2523 16.7353 72.7139 15.8892V15.8892L71.9021 14.6134L71.0902 13.3376V13.3376C70.5499 12.4886 69.94 11.6859 69.2668 10.9379L69.2345 10.9021L68.1907 9.74227L67.1469 8.58247L67.0967 8.52667C66.4354 7.7919 65.7152 7.11237 64.9433 6.49485V6.49485L63.7835 5.56701L62.6237 4.63918L62.274 4.35937C61.7354 3.92856 61.1529 3.55584 60.5361 3.24742V3.24742L59.6082 2.78351L58.6804 2.31959L57.7526 1.85567V1.85567C54.3765 0.62801 50.8118 0 47.2195 0H41.4204C40.5577 0 39.6967 0.0776327 38.8479 0.231959V0.231959L37.5722 0.463918L36.2964 0.695876L35 1L34.0825 1.31186L33.1649 1.62371L32.2371 1.97165L31.7732 2.14562L31.5412 2.2326V2.2326C31.3873 2.29034 31.2401 2.36898 31.1063 2.46456V2.46456L30.9034 2.60954L30.4974 2.89948L29.6856 3.47938V3.47938C28.6049 4.25126 27.5899 5.1111 26.6509 6.05013L26.2062 6.49485V6.49485C24.0454 8.65566 22.0775 11.0012 20.3251 13.5046L19.7113 14.3814L18.6534 16.2329C18.1224 17.162 17.6669 18.1323 17.2911 19.1343V19.1343C16.7416 20.5999 16.3658 22.1248 16.1717 23.6779L16 25.0515V25.0515C16 27.6137 18.077 29.6907 20.6392 29.6907H25.8508Z" fill="#3B82F7"/>
</svg>
