<svg width="90" height="90" viewBox="0 0 90 90" fill="none" xmlns="http://www.w3.org/2000/svg">
<g opacity="0.9">
<path d="M90 45C90 69.8528 69.8528 90 45 90C20.1472 90 0 69.8528 0 45C0 20.1472 20.1472 0 45 0C69.8528 0 90 20.1472 90 45ZM13.7147 45C13.7147 62.2784 27.7216 76.2853 45 76.2853C62.2784 76.2853 76.2853 62.2784 76.2853 45C76.2853 27.7216 62.2784 13.7147 45 13.7147C27.7216 13.7147 13.7147 27.7216 13.7147 45Z" fill="#3B82F7"/>
<rect x="16.7109" y="64.0715" width="66.6096" height="13.3651" transform="rotate(-45 16.7109 64.0715)" fill="#3B82F7"/>
<rect x="64.1016" y="73.5508" width="66.6096" height="13.3651" transform="rotate(-135 64.1016 73.5508)" fill="#3B82F7"/>
</g>
</svg>
