<svg width="90" height="90" viewBox="0 0 90 90" fill="none" xmlns="http://www.w3.org/2000/svg">
<path d="M90 45C90 69.8528 69.8528 90 45 90C20.1472 90 0 69.8528 0 45C0 20.1472 20.1472 0 45 0C69.8528 0 90 20.1472 90 45ZM13.716 45C13.716 62.2777 27.7223 76.284 45 76.284C62.2777 76.284 76.284 62.2777 76.284 45C76.284 27.7223 62.2777 13.716 45 13.716C27.7223 13.716 13.716 27.7223 13.716 45Z" fill="#3B82F7"/>
<path d="M23 51.7402L23.1985 51.2753C23.6794 50.1492 24.3412 49.1093 25.1577 48.1968V48.1968L26.0074 47.4216C26.1595 47.2829 26.3294 47.1651 26.5127 47.0715V47.0715C26.8377 46.9055 27.2012 46.8189 27.5661 46.8189V46.8189C27.8069 46.8189 28.0487 46.8562 28.2781 46.9294L28.6032 47.0332C28.9761 47.1523 29.3319 47.3193 29.6618 47.53L29.8684 47.6619C30.2205 47.8868 30.5498 48.1455 30.8515 48.4346L31.1113 48.6834C31.4572 49.0148 31.779 49.3704 32.0743 49.7476L33.172 51.1496L34.0968 52.5276L34.1743 52.676C34.7373 53.7547 35.1766 54.8935 35.4839 56.0709V56.0709L35.9462 58.6299V58.6299C36.0269 58.9391 36.4672 58.9354 36.5427 58.6249L37.6127 54.2211C37.6319 54.1421 37.6577 54.0648 37.6899 53.9901L39.3369 50.1654L40.724 47.2126L42.2652 44.063L43.8065 41.1102L45.9642 37.5669L47.8136 34.811L49.9713 32.0551L51.6667 30.2835L54.1326 28.315L57.6774 26.1496L61.0681 24.378L61.7752 24.1271C63.151 23.6389 64.5638 23.262 66 23V23L63.9964 24.5748L61.0681 27.1339L58.2939 30.2835L55.3656 33.8268L51.2043 40.5197L48.4301 45.8346L46.2724 50.7559L43.3441 57.6457L40.2616 65.3228L38.2581 69.4567L36.9868 71.4413C36.9098 71.5614 36.8199 71.6728 36.7186 71.7734L36.3711 72.1186C35.8654 72.621 35.0635 72.6645 34.5065 72.2198V72.2198C34.3384 72.0856 34.2033 71.9145 34.1118 71.7197L33.3262 70.0472L32.2473 67.2913L31.1685 63.3543L30.3978 59.811L29.4731 57.252L28.9644 56.169C28.6875 55.5796 28.3635 55.0135 27.9954 54.4763L27.8401 54.2496C27.5934 53.8895 27.3194 53.5489 27.0205 53.2307L26.8589 53.0587C26.6498 52.8362 26.423 52.6311 26.1807 52.4454L25.9627 52.2783C25.8373 52.1822 25.7034 52.0977 25.5627 52.0258V52.0258C25.1952 51.8381 24.7884 51.7402 24.3757 51.7402H23.9247H23Z" fill="#3B82F7"/>
</svg>
