<svg width="90" height="90" viewBox="0 0 90 90" fill="none" xmlns="http://www.w3.org/2000/svg">
<path d="M52.4762 32.212C51.6872 32.5174 51.0342 33.0961 50.636 33.8426L50.5328 34.0361C49.8393 35.3365 49.8932 36.9085 50.6744 38.1583L52.0972 40.4348L52.6924 41.6711C53.6137 43.5844 54.0921 45.6807 54.0921 47.8044V48.1303C54.0921 49.1844 53.95 50.2337 53.6697 51.2499V51.2499C53.1415 53.1644 52.1359 54.9136 50.7471 56.3334L30.1171 77.4232C29.2263 78.3339 28.1959 79.0965 27.0647 79.6823V79.6823C25.3636 80.5632 23.4759 81.023 21.5602 81.023H21.4685C19.0749 81.023 16.7329 80.3272 14.7275 79.0204L14.5624 78.9128C12.2417 77.4004 10.5216 75.1256 9.69872 72.4806V72.4806C9.12394 70.6331 9.0085 68.6733 9.36239 66.7711L9.39185 66.6128C9.82267 64.2971 10.8967 62.1495 12.491 60.4157L21.1337 51.0168C21.9013 50.182 22.3274 49.0892 22.3274 47.9551V47.6623C22.3274 46.9041 22.089 46.1651 21.646 45.5498V45.5498C21.1917 44.9188 20.546 44.4511 19.8048 44.2161L19.3296 44.0654C18.3341 43.7497 17.2658 43.7461 16.2681 44.0549L16.074 44.1149C15.0944 44.4182 14.2133 44.977 13.5215 45.734L6.48885 53.4292C4.83244 55.2416 3.46154 57.2956 2.42321 59.5206L2.36294 59.6497C1.30603 61.9146 0.620113 64.3345 0.331444 66.8171L0.254669 67.4774C0.0855278 68.932 0.0953674 70.4018 0.283968 71.8541V71.8541C0.602707 74.3084 1.42648 76.67 2.70335 78.7901L3.15978 79.5479C4.26957 81.3906 5.64777 83.0576 7.24898 84.494L7.50272 84.7216C9.18902 86.2343 11.1237 87.4446 13.2217 88.2994V88.2994C15.2373 89.1205 17.3751 89.6018 19.5481 89.7237L19.9688 89.7473C22.9397 89.9139 25.912 89.4488 28.69 88.3829V88.3829C30.2737 87.7752 31.778 86.9784 33.1705 86.0097L34.1024 85.3614C35.6099 84.3127 37.0193 83.1297 38.3134 81.8267L56.4415 63.574C57.9376 62.0677 59.2254 60.368 60.2708 58.5203L60.6324 57.8813C61.5359 56.2845 62.2009 54.564 62.6065 52.7747V52.7747C63.0652 50.7513 63.186 48.6659 62.9642 46.6031L62.8423 45.4695C62.6365 43.5552 62.1559 41.6806 61.4154 39.9034L60.9916 38.8863C60.487 37.6751 59.8001 36.5482 58.955 35.5445L57.4387 33.744C56.8565 33.0525 56.0896 32.5409 55.2276 32.2687L54.8132 32.1378C54.0484 31.8963 53.2242 31.9225 52.4762 32.212V32.212Z" fill="#3B82F7"/>
<path d="M41.029 54.5502C41.6959 54.3001 42.2876 53.8833 42.7476 53.3396L42.9073 53.151C43.4411 52.5201 43.734 51.7204 43.734 50.894V50.894C43.734 50.1314 43.4845 49.3898 43.0236 48.7823L42.046 47.4936L40.9098 45.6827C40.0382 44.2936 39.4351 42.7533 39.1317 41.1417L38.9411 40.1288C38.565 38.1312 38.816 36.0661 39.6596 34.2166V34.2166C40.1219 33.2032 40.7527 32.2754 41.5251 31.4728L59.2599 13.0463C61.0428 11.1938 63.3368 9.91409 65.8496 9.37008L66.2745 9.2781C68.3423 8.83042 70.4939 8.96624 72.489 9.6704V9.6704C74.7452 10.4667 76.6942 11.9519 78.0605 13.916L78.7164 14.8588C80.1182 16.8738 80.8696 19.2697 80.8696 21.7244V22.1196C80.8696 23.6208 80.5397 25.1037 79.9032 26.4634V26.4634C79.4254 27.4842 78.7824 28.4192 78.0002 29.2307L71.6476 35.8207C71.2027 36.2822 70.8667 36.8373 70.664 37.4454V37.4454C70.4137 38.1961 70.3755 39.0013 70.5534 39.7724L70.6347 40.1246C70.8516 41.0645 71.4122 41.8893 72.2063 42.437V42.437C72.8514 42.8819 73.6166 43.1202 74.4003 43.1202H74.5982C75.7663 43.1202 76.8887 42.666 77.728 41.8535L84.0119 35.7707C85.3378 34.4873 86.4802 33.0269 87.4068 31.4311L87.5271 31.2239C88.3535 29.8007 88.984 28.2724 89.4016 26.6805V26.6805C89.7989 25.1657 90 23.6063 90 22.0403V21.4504C90 19.1366 89.603 16.8399 88.8264 14.6604V14.6604C88.0294 12.4234 86.8447 10.3443 85.3266 8.51825L84.761 7.83795C83.1519 5.90238 81.2049 4.2749 79.0147 3.03462L78.8944 2.96654C76.9513 1.8662 74.8374 1.09932 72.6407 0.697772V0.697772C70.1195 0.236895 67.5331 0.265323 65.0226 0.781507L63.245 1.14699C61.5003 1.5057 59.8178 2.11862 58.2511 2.96614V2.96614C56.7141 3.79768 55.3048 4.84629 54.0667 6.07968L37.5813 22.5027C36.3155 23.7636 35.1806 25.1495 34.1941 26.6391L33.6666 27.4353C32.4073 29.3367 31.4648 31.4545 30.8881 33.661V33.661C30.3041 35.8954 30.0968 38.2346 30.2864 40.5363V40.5363C30.4526 42.5546 30.9175 44.5371 31.6659 46.4188L32.5023 48.5218C32.9787 49.7195 33.6623 50.8241 34.5219 51.7847L36.1809 53.6389C36.7982 54.3289 37.6353 54.784 38.5501 54.9269V54.9269C39.2323 55.0335 39.9305 54.9621 40.577 54.7197L41.029 54.5502Z" fill="#3B82F7"/>
</svg>
