<svg width="81" height="108" viewBox="0 0 81 108" fill="none" xmlns="http://www.w3.org/2000/svg">
<path d="M8.70968 35.2099V92C8.70968 97.5228 13.1868 102 18.7097 102H64.0323C69.5551 102 74.0323 97.5228 74.0323 92V35.2099M50.2258 43.7363V83.2419M31.0645 43.7363V83.2419M0 25.2624H26.7097M81 25.2624H54.871M54.871 25.2624H26.7097M54.871 25.2624V18.015V17.4396C54.871 13.3999 52.4404 9.75694 48.7103 8.20596L48.5658 8.14586C43.7175 6.12993 38.2709 6.10148 33.4018 8.06664L32.967 8.24211C29.1856 9.76827 26.7097 13.4376 26.7097 17.5153V18.015V25.2624" stroke="#023085" stroke-width="12"/>
</svg>
