<svg width="64" height="99" viewBox="0 0 64 99" fill="none" xmlns="http://www.w3.org/2000/svg">
<path d="M23.136 64.6L18.816 46.915C21.426 46.285 23.901 45.565 26.241 44.755C28.581 43.855 30.741 42.91 32.721 41.92C34.701 40.93 36.366 39.805 37.716 38.545C39.156 37.195 40.281 35.755 41.091 34.225C41.901 32.605 42.306 30.895 42.306 29.095C42.306 27.295 41.856 25.765 40.956 24.505C40.056 23.155 38.841 22.12 37.311 21.4C35.781 20.68 33.981 20.32 31.911 20.32C28.941 20.32 25.971 21.4 23.001 23.56C20.031 25.63 17.286 29.005 14.766 33.685L0.0510352 20.05C4.10104 13.84 8.91604 9.02499 14.496 5.60499C20.166 2.18499 26.061 0.474995 32.181 0.474995C38.121 0.474995 43.476 1.69 48.246 4.12C53.016 6.45999 56.796 9.74499 59.586 13.975C62.376 18.115 63.771 22.795 63.771 28.015C63.771 31.345 63.051 34.63 61.611 37.87C60.261 41.11 58.326 44.17 55.806 47.05C53.376 49.84 50.496 52.315 47.166 54.475C43.836 56.635 40.146 58.3 36.096 59.47L34.746 64.6H23.136ZM18.276 86.47C18.276 82.87 19.356 79.945 21.516 77.695C23.676 75.445 26.466 74.32 29.886 74.32C33.576 74.32 36.456 75.4 38.526 77.56C40.596 79.63 41.631 82.6 41.631 86.47C41.631 89.98 40.551 92.86 38.391 95.11C36.231 97.36 33.396 98.485 29.886 98.485C26.196 98.485 23.316 97.45 21.246 95.38C19.266 93.31 18.276 90.34 18.276 86.47Z" fill="white"/>
</svg>
