<svg width="90" height="90" viewBox="0 0 90 90" fill="none" xmlns="http://www.w3.org/2000/svg">
<path d="M0 23.5135H7.38359V8.31081H23.7472V0H0V23.5135Z" fill="white"/>
<path d="M90 23.5135V0H65.6541V8.31081H82.6164V23.5135H90Z" fill="white"/>
<path d="M23.7472 0V8.31081H65.6541V0H23.7472Z" fill="white"/>
<path d="M23.7472 82.5V65.625V48.75V31.875V15H15.5654V82.5H23.7472Z" fill="white"/>
<path d="M23.7472 82.5V90H65.6541V82.5H60.4157H55.1774H49.939H44.7007H39.4623H34.2239H28.9856H23.7472Z" fill="white"/>
<path d="M65.6541 82.5H74.1353V15H65.6541V31.875V48.75V65.625V82.5Z" fill="white"/>
<path d="M65.6541 82.5V90H74.1353V82.5H65.6541Z" fill="white"/>
<path d="M23.7472 90V82.5H15.5654V90H23.7472Z" fill="white"/>
<path d="M60.4157 65.625V31.875H49.939V65.625H60.4157Z" fill="white"/>
<path d="M39.4623 65.625V31.875H28.9856V65.625H39.4623Z" fill="white"/>
</svg>
