<svg width="90" height="90" viewBox="0 0 90 90" fill="none" xmlns="http://www.w3.org/2000/svg">
<path fill-rule="evenodd" clip-rule="evenodd" d="M47.713 89.7374C48.1224 89.9107 48.5624 90 49.007 90H49.0761C50.0251 90 50.937 89.6314 51.6194 88.972L63.3333 77.6524L63.7131 77.3398C65.6756 75.7243 67.8176 74.3401 70.0966 73.2145L70.1737 73.1764C72.6405 71.9581 74.9615 70.4144 77.043 68.6153V68.6153C79.3585 66.6139 81.3971 64.273 83.0546 61.7001V61.7001C83.9797 60.2641 84.7886 58.7565 85.4736 57.1918L86.2427 55.4349C87.9951 51.4318 89.0843 47.1702 89.4675 42.8172L89.5428 41.962C89.8459 38.519 89.631 35.05 88.9053 31.6707V31.6707C88.3407 29.0415 87.4714 26.4871 86.3148 24.0594L85.4243 22.1902C84.2188 19.6598 82.7512 17.2629 81.0455 15.0388L80.7569 14.6625C78.0517 11.1352 74.7398 8.11805 70.9764 5.75237V5.75237C68.6658 4.29987 66.1981 3.10267 63.6274 2.1857V2.1857C59.5778 0.741182 55.3023 0 51.0028 0H44.7222H40.2389C36.3955 0 32.5716 0.546605 28.882 1.6234V1.6234C24.4742 2.90983 20.3113 4.93987 16.5822 7.61891V7.61891C14.2401 9.30145 12.0804 11.2312 10.1467 13.3706L8.5231 15.1669C6.92059 16.9398 5.53068 18.8939 4.38163 20.9893V20.9893C3.13227 23.2677 2.17736 25.6955 1.53983 28.2146L1.23535 29.4176C0.414956 32.6592 0 35.9901 0 39.3338V39.743C0 43.0519 0.410638 46.3481 1.2225 49.556L1.5031 50.6647C2.16491 53.2796 3.16291 55.7978 4.47217 58.1561V58.1561C6.29068 61.4318 8.68411 64.3533 11.5379 66.7807L13.8716 68.7658C16.0985 70.66 18.5286 72.3014 21.1172 73.6599V73.6599C24.4297 75.3981 27.9721 76.6576 31.6385 77.4005L36.9444 78.4756L39.2974 78.6306C42.662 78.8521 45.2778 81.6459 45.2778 85.0178V85.221C45.2778 85.8412 45.3874 86.4564 45.6016 87.0383L45.8922 87.8275C46.2091 88.6884 46.8682 89.3797 47.713 89.7374V89.7374ZM61.0042 9.27446C57.2173 7.85906 53.2072 7.13415 49.1645 7.13415H40.6608C36.5483 7.13415 32.4675 7.85362 28.603 9.26003L28.076 9.45181C25.2986 10.4626 22.6782 11.8614 20.293 13.6068L19.8856 13.9048C17.5682 15.6005 15.5249 17.642 13.8272 19.9579V19.9579C11.6669 22.9047 10.1032 26.2452 9.22397 29.7917L8.15651 34.0974C7.53748 36.5943 7.31347 39.1728 7.49263 41.739V41.739C7.68143 44.4432 8.3154 47.0977 9.36895 49.5954L10.2136 51.5979C11.3623 54.3212 12.871 56.878 14.6994 59.2002L14.821 59.3546C16.7811 61.844 19.1303 64.045 21.7365 65.847V65.847C24.6124 67.8356 27.8312 69.3498 31.2001 70.2858V70.2858C33.7234 70.9868 36.3247 71.3687 38.943 71.4226L47.1043 71.5906C47.9137 71.6072 48.7096 71.8017 49.4355 72.1602V72.1602C50.1729 72.5244 50.8196 73.0487 51.3283 73.6949L52.279 74.9022C52.424 75.0864 52.5204 75.3041 52.5594 75.5352V75.5352C52.7567 76.7043 54.2272 77.114 55.0005 76.2153L57.5946 73.2007C57.7165 73.059 57.8503 72.9281 57.9946 72.8093L62.7778 68.872L68.4766 65.0521C69.8602 64.1246 71.1666 63.0824 72.3785 61.9397V61.9397C75.2074 59.2723 77.4979 56.0781 79.1146 52.542V52.542C80.0721 50.4477 80.7863 48.2506 81.2433 45.9936L81.2978 45.7244C81.7278 43.6004 81.9444 41.4388 81.9444 39.2718V39.1577C81.9444 35.9358 81.4727 32.7312 80.5441 29.646L80.2778 28.7612C79.3588 25.7076 77.9192 22.8356 76.0227 20.272V20.272C74.4235 18.1103 72.518 16.1931 70.3663 14.5806L69.4439 13.8894C66.8649 11.9568 64.0229 10.4028 61.0042 9.27446V9.27446Z" fill="white"/>
<path d="M43.3331 51.4588C44.2371 51.184 45.2039 51.1952 46.1013 51.4907V51.4907C47.3445 51.9 48.3535 52.8209 48.8745 54.0216L48.917 54.1196C49.4321 55.3069 49.4486 56.6513 48.9629 57.8508L48.7524 58.3707C48.3067 59.4713 47.4368 60.3461 46.3388 60.7981V60.7981C45.3002 61.2255 44.1379 61.2414 43.0881 60.8426L43.005 60.811C41.7974 60.3522 40.8356 59.411 40.3507 58.2136L40.1918 57.8213C39.7137 56.6406 39.73 55.3174 40.237 54.1489V54.1489C40.7915 52.8708 41.8794 51.9006 43.2124 51.4955L43.3331 51.4588Z" fill="white"/>
<path d="M43.4977 17.3146C44.302 17.116 45.1425 17.116 45.9467 17.3146V17.3146C47.2942 17.6474 48.4482 18.5142 49.1432 19.7156L49.418 20.1905C49.9812 21.1642 50.2778 22.2691 50.2778 23.3939V27.5789C50.2778 29.3089 50.0736 31.0328 49.6695 32.715L46.5427 45.7315C46.4429 46.1471 46.2104 46.5189 45.8804 46.7906V46.7906C45.1964 47.3536 44.2204 47.3898 43.4966 46.8791L43.4312 46.833C43.0107 46.5363 42.7157 46.0937 42.6037 45.5914L39.7056 32.599C39.3474 30.9932 39.1667 29.3528 39.1667 27.7075V23.3939C39.1667 22.2691 39.4632 21.1642 40.0265 20.1905L40.3012 19.7156C40.9962 18.5142 42.1502 17.6474 43.4977 17.3146V17.3146Z" fill="white"/>
</svg>
