<svg width="90" height="90" viewBox="0 0 90 90" fill="none" xmlns="http://www.w3.org/2000/svg">
<path d="M0.27269 56.8016C0.12946 54.9649 1.66013 53.4342 3.49685 53.5774L25.5179 55.2946C26.526 55.3733 26.9816 56.5948 26.2712 57.3143L23.2622 60.3625C20.4183 63.2433 20.383 67.864 23.1825 70.788V70.788C23.6904 71.3184 24.2736 71.7712 24.9135 72.1316L28.7603 74.2988C31.6293 75.9152 34.7327 77.0746 37.9588 77.7354V77.7354C41.804 78.523 45.7621 78.5895 49.6316 77.9317L50.517 77.7812C54.575 77.0914 58.5083 75.6683 62.0743 73.6126V73.6126C65.7046 71.5199 68.9523 68.7628 71.5967 65.5124L71.7405 65.3356C73.0946 63.6711 74.2784 61.8751 75.274 59.9743V59.9743C76.0339 58.5237 77.7642 57.878 79.2886 58.4762L83.7386 60.2224C85.4157 60.8805 86.2364 62.7782 85.5673 64.4509V64.4509C84.4929 67.1368 83.0644 69.6671 81.3197 71.9746L79.9571 73.7768L78.9791 74.7548C75.5207 78.2132 71.7051 81.295 67.5966 83.9485V83.9485L64.8331 85.3042C62.1326 86.6289 59.3085 87.6853 56.4015 88.4581L56.0576 88.5495C52.4351 89.5124 48.7029 90 44.9547 90V90C42.7991 90 40.6465 89.8387 38.515 89.5175L36.4956 89.2132C33.7191 88.7949 30.9984 88.0655 28.385 87.0388V87.0388C26.2047 86.1822 24.1096 85.1229 22.1272 83.8747L21.4681 83.4597C19.2631 82.0714 17.1808 80.497 15.244 78.7539L13.0043 76.7382V76.7382C11.283 75.0886 8.5623 75.1062 6.8624 76.7777L3.58821 79.9973C3.03436 80.542 2.09665 80.1912 2.03626 79.4167L0.27269 56.8016Z" fill="white"/>
<path d="M86.4797 36.3926C88.324 36.5512 89.8704 35.0181 89.7278 33.1725L87.9661 10.3743C87.904 9.5711 86.9375 9.19982 86.3536 9.75493L85.9703 10.1194C82.5742 13.3485 77.2673 13.4273 73.7768 10.3004V10.3004L70.3246 7.85513C68.5089 6.56897 66.5924 5.43133 64.5937 4.45327V4.45327C62.5647 3.46034 60.4578 2.63519 58.2941 1.98608L58.0933 1.92585C56.1051 1.3294 54.0772 0.874555 52.0247 0.564747L51.7912 0.529506C49.4559 0.176998 47.0974 0 44.7355 0H43.8315C41.7378 0 39.6469 0.154037 37.5759 0.460863V0.460863C35.0198 0.839534 32.5035 1.44951 30.0578 2.28328L28.0687 2.96137V2.96137C23.458 4.92519 19.1572 7.54881 15.3013 10.7499L14.2918 11.588L12.4799 13.5181C9.74718 16.429 7.33318 19.6235 5.27897 23.0472V23.0472V23.0472C3.94533 25.8549 5.22104 29.2079 8.08369 30.419L8.24915 30.489C10.8854 31.6044 13.9389 30.5651 15.3473 28.0732L16.2232 26.5236L17.4446 24.7932C18.6868 23.0334 20.1141 21.4119 21.702 19.9563V19.9563C23.1959 18.5869 24.824 17.3717 26.5618 16.329L27.9807 15.4777C29.5812 14.5173 31.2638 13.7009 33.0087 13.0378V13.0378C35.5417 12.0753 38.1881 11.4429 40.8827 11.1562L42.8755 10.9442V10.9442C46.8081 10.9442 50.7248 11.4437 54.5315 12.4306L55.7511 12.7468L58.2555 13.7354C59.8443 14.3625 61.3726 15.1336 62.8211 16.039V16.039C64.1142 16.8471 65.3392 17.7594 66.4839 18.7667L67.9828 20.0858V20.0858C70.0064 22.3262 69.9302 25.7563 67.8091 27.9046L63.394 32.3763C62.6589 33.1208 63.1246 34.3847 64.167 34.4743L86.4797 36.3926Z" fill="white"/>
<path d="M84.7668 90C87.657 90 90 87.6087 90 84.7185V84.7185C90 83.3111 89.4404 81.9412 88.4445 80.9467L52.6696 45.2222L45 52.8058L81.0873 88.488C82.067 89.4567 83.3891 90 84.7668 90V90Z" fill="white"/>
<path d="M45 37.5634L37.3304 45.2222L45 52.8058L52.6696 45.2222L45 37.5634Z" fill="white"/>
<path d="M88.2593 10.0319C89.3732 8.93059 90 7.42932 90 5.86291V5.22251C90 2.3382 87.6618 0 84.7775 0V0C83.3937 0 82.0664 0.549217 81.0872 1.52704L45 37.5634L52.6696 45.2222L88.2593 10.0319Z" fill="white"/>
<path d="M0 84.7185C0 87.6087 2.34299 90 5.23321 90V90C6.61091 90 7.93304 89.4567 8.9127 88.488L45 52.8058L37.3304 45.2222L1.55549 80.9467C0.559603 81.9412 0 83.3111 0 84.7185V84.7185Z" fill="white"/>
<path d="M8.91278 1.52704C7.93358 0.549217 6.60633 0 5.22251 0V0C2.3382 0 0 2.3382 0 5.22251V5.86291C0 7.42932 0.626817 8.93059 1.74067 10.0319L37.3304 45.2222L45 37.5634L8.91278 1.52704Z" fill="white"/>
</svg>
