<svg width="65" height="99" viewBox="0 0 65 99" fill="none" xmlns="http://www.w3.org/2000/svg">
<path d="M23.636 64.6L19.316 46.915C21.926 46.285 24.401 45.565 26.741 44.755C29.081 43.855 31.241 42.91 33.221 41.92C35.201 40.93 36.866 39.805 38.216 38.545C39.656 37.195 40.781 35.755 41.591 34.225C42.401 32.605 42.806 30.895 42.806 29.095C42.806 27.295 42.356 25.765 41.456 24.505C40.556 23.155 39.341 22.12 37.811 21.4C36.281 20.68 34.481 20.32 32.411 20.32C29.441 20.32 26.471 21.4 23.501 23.56C20.531 25.63 17.786 29.005 15.266 33.685L0.551035 20.05C4.60104 13.84 9.41604 9.02499 14.996 5.60499C20.666 2.18499 26.561 0.474995 32.681 0.474995C38.621 0.474995 43.976 1.69 48.746 4.12C53.516 6.45999 57.296 9.74499 60.086 13.975C62.876 18.115 64.271 22.795 64.271 28.015C64.271 31.345 63.551 34.63 62.111 37.87C60.761 41.11 58.826 44.17 56.306 47.05C53.876 49.84 50.996 52.315 47.666 54.475C44.336 56.635 40.646 58.3 36.596 59.47L35.246 64.6H23.636ZM18.776 86.47C18.776 82.87 19.856 79.945 22.016 77.695C24.176 75.445 26.966 74.32 30.386 74.32C34.076 74.32 36.956 75.4 39.026 77.56C41.096 79.63 42.131 82.6 42.131 86.47C42.131 89.98 41.051 92.86 38.891 95.11C36.731 97.36 33.896 98.485 30.386 98.485C26.696 98.485 23.816 97.45 21.746 95.38C19.766 93.31 18.776 90.34 18.776 86.47Z" fill="#3E3454"/>
</svg>
