<svg width="90" height="90" viewBox="0 0 90 90" fill="none" xmlns="http://www.w3.org/2000/svg">
<path fill-rule="evenodd" clip-rule="evenodd" d="M26.0859 0C20.5631 0 16.0859 4.47715 16.0859 10V13.9746V17.3145C16.0859 17.5115 16.2402 17.6741 16.437 17.6845L20.4061 17.8934C20.8585 17.9172 21.3097 17.8267 21.7179 17.6301C22.2865 17.3563 22.8812 17.3009 23.4289 17.4149V15.4492C23.4289 9.92637 27.9061 5.44922 33.4289 5.44922H65.0127C70.5355 5.44922 75.0127 9.92637 75.0127 15.4492V61.543C75.0127 66.7099 71.094 70.9616 66.0665 71.4881L65.8903 72.7463C65.6517 74.4511 66.6432 76.0891 68.2644 76.6681C68.8591 76.8805 69.4989 76.9341 70.1206 76.8235L73.127 76.2891L73.6292 76.1678C74.9788 75.8421 76.2458 75.2388 77.3495 74.3965L77.7464 74.0936C78.5872 73.4519 79.3209 72.6809 79.9201 71.8094L80.3976 71.1149C80.7645 70.5812 81.0787 70.0132 81.3357 69.4187L81.534 68.9601C82.0759 67.707 82.3555 66.3562 82.3555 64.991V10C82.3555 4.47715 77.8783 0 72.3555 0H26.0859Z" fill="#3E3454"/>
<path fill-rule="evenodd" clip-rule="evenodd" d="M18 12.832C12.4772 12.832 8 17.3092 8 22.832V80C8 85.5229 12.4772 90 18 90H61.457C66.9799 90 71.457 85.5228 71.457 80V22.832C71.457 17.3092 66.9799 12.832 61.457 12.832H18ZM25.0312 18.2812C19.5084 18.2812 15.0312 22.7584 15.0312 28.2813V74.375C15.0312 79.8979 19.5084 84.375 25.0313 84.375H54.4258C59.9486 84.375 64.4258 79.8979 64.4258 74.375V28.2812C64.4258 22.7584 59.9486 18.2812 54.4258 18.2812H25.0312Z" fill="#3E3454"/>
<path d="M49.3125 16.1719H64.6055V34.4531V34.4531C56.1594 34.4531 49.3125 27.6062 49.3125 19.1602V16.1719Z" fill="#3E3454"/>
<rect x="20.125" y="34.9805" width="25.6641" height="7.20703" rx="3.60352" fill="#3E3454"/>
<rect x="20.125" y="50.4492" width="39.375" height="7.20703" rx="3.60352" fill="#3E3454"/>
<rect x="20.125" y="65.918" width="39.375" height="7.20703" rx="3.60352" fill="#3E3454"/>
</svg>
