<svg width="90" height="90" viewBox="0 0 90 90" fill="none" xmlns="http://www.w3.org/2000/svg">
<path d="M84.7668 90C87.657 90 90 87.6087 90 84.7185V84.7185C90 83.3111 89.4404 81.9412 88.4445 80.9467L52.6696 45.2222L45 52.8058L81.0873 88.488C82.067 89.4567 83.3891 90 84.7668 90V90Z" fill="#3E3454"/>
<path d="M45 37.5634L37.3304 45.2222L45 52.8058L52.6696 45.2222L45 37.5634Z" fill="#3E3454"/>
<path d="M88.2593 10.0319C89.3732 8.93059 90 7.42932 90 5.86291V5.22251C90 2.3382 87.6618 0 84.7775 0V0C83.3937 0 82.0664 0.549217 81.0872 1.52704L45 37.5634L52.6696 45.2222L88.2593 10.0319Z" fill="#3E3454"/>
<path d="M0 84.7185C0 87.6087 2.34299 90 5.23321 90V90C6.61091 90 7.93304 89.4567 8.9127 88.488L45 52.8058L37.3304 45.2222L1.55549 80.9467C0.559603 81.9412 0 83.3111 0 84.7185V84.7185Z" fill="#3E3454"/>
<path d="M8.91278 1.52704C7.93358 0.549217 6.60633 0 5.22251 0V0C2.3382 0 0 2.3382 0 5.22251V5.86291C0 7.42932 0.626817 8.93059 1.74067 10.0319L37.3304 45.2222L45 37.5634L8.91278 1.52704Z" fill="#3E3454"/>
</svg>
