<svg width="90" height="90" viewBox="0 0 90 90" fill="none" xmlns="http://www.w3.org/2000/svg">
<path fill-rule="evenodd" clip-rule="evenodd" d="M90 45C90 45.7374 89.9827 46.4727 89.946 47.209C89.9104 47.9443 89.8564 48.6786 89.7841 49.4109C89.7118 50.1442 89.6211 50.8754 89.5132 51.6036C89.4052 52.3318 89.28 53.0569 89.1353 53.78C88.9917 54.5021 88.8308 55.2201 88.6516 55.935C88.4734 56.649 88.2768 57.3588 88.0629 58.0636C87.849 58.7684 87.6179 59.467 87.3704 60.1606C87.1219 60.8541 86.8571 61.5406 86.575 62.2209C86.2929 62.9022 85.9945 63.5744 85.6798 64.2405C85.3651 64.9065 85.0341 65.5644 84.6868 66.2132C84.3395 66.863 83.9769 67.5036 83.5981 68.135C83.2192 68.7675 82.8261 69.3887 82.4167 70.0018C82.0072 70.6139 81.5836 71.2158 81.1446 71.8075C80.7057 72.3982 80.2535 72.9787 79.786 73.548C79.3186 74.1173 78.8378 74.6755 78.3429 75.2213C77.8489 75.7662 77.3407 76.2999 76.8203 76.8203C76.2999 77.3417 75.7662 77.8489 75.2203 78.3439C74.6744 78.8378 74.1173 79.3186 73.548 79.786C72.9787 80.2535 72.3982 80.7067 71.8065 81.1446C71.2148 81.5836 70.6129 82.0072 70.0008 82.4167C69.3887 82.8261 68.7664 83.2202 68.135 83.5981C67.5036 83.9769 66.863 84.3405 66.2132 84.6868C65.5634 85.0341 64.9055 85.3651 64.2405 85.6808C63.5744 85.9955 62.9012 86.2939 62.2209 86.575C61.5406 86.8571 60.8541 87.1219 60.1606 87.3704C59.467 87.6189 58.7673 87.849 58.0626 88.0629C57.3578 88.2768 56.649 88.4734 55.934 88.6526C55.2201 88.8308 54.5011 88.9928 53.779 89.1364C53.0569 89.28 52.3318 89.4052 51.6026 89.5142C50.8744 89.6222 50.1442 89.7118 49.4109 89.7841C48.6776 89.8564 47.9433 89.9104 47.208 89.947C46.4727 89.9827 45.7363 90.001 45 90.001C44.2637 90.001 43.5273 89.9827 42.792 89.947C42.0567 89.9104 41.3224 89.8564 40.5891 89.7841C39.8569 89.7118 39.1256 89.6222 38.3974 89.5142C37.6692 89.4052 36.9431 89.28 36.221 89.1364C35.4989 88.9928 34.7799 88.8308 34.066 88.6526C33.352 88.4734 32.6422 88.2768 31.9374 88.0629C31.2327 87.849 30.533 87.6189 29.8404 87.3704C29.1469 87.1219 28.4594 86.8571 27.7791 86.575C27.0988 86.2939 26.4256 85.9955 25.7595 85.6808C25.0945 85.3651 24.4366 85.0341 23.7868 84.6868C23.1381 84.3405 22.4975 83.9769 21.865 83.5981C21.2336 83.2202 20.6113 82.8261 19.9992 82.4167C19.3871 82.0072 18.7852 81.5836 18.1935 81.1446C17.6018 80.7067 17.0213 80.2535 16.452 79.786C15.8827 79.3186 15.3256 78.8378 14.7797 78.3439C14.2338 77.8489 13.7011 77.3417 13.1797 76.8203C12.6593 76.2999 12.1521 75.7662 11.6571 75.2213C11.1622 74.6755 10.6815 74.1173 10.214 73.548C9.74754 72.9787 9.29433 72.3982 8.85538 71.8075C8.41643 71.2158 7.99276 70.6139 7.58334 70.0018C7.17495 69.3887 6.78081 68.7675 6.40195 68.135C6.02308 67.5036 5.66052 66.863 5.31323 66.2132C4.96594 65.5644 4.63494 64.9065 4.32024 64.2405C4.00555 63.5744 3.70714 62.9022 3.42503 62.2209C3.14292 61.5406 2.87813 60.8541 2.63064 60.1606C2.38214 59.467 2.15096 58.7684 1.93708 58.0636C1.72423 57.3588 1.52767 56.649 1.34842 55.935C1.16918 55.2201 1.00826 54.5021 0.86466 53.78C0.721059 53.0569 0.594772 52.3318 0.486817 51.6036C0.378861 50.8754 0.28822 50.1442 0.216929 49.4109C0.144619 48.6786 0.0906416 47.9443 0.0539775 47.209C0.0183319 46.4727 0 45.7374 0 45C0 44.2637 0.0183319 43.5283 0.0539775 42.792C0.0906416 42.0567 0.144619 41.3224 0.216929 40.5901C0.28822 39.8568 0.378861 39.1256 0.486817 38.3974C0.594772 37.6692 0.721059 36.9441 0.86466 36.221C1.00826 35.4989 1.16918 34.7809 1.34842 34.066C1.52767 33.352 1.72423 32.6422 1.93708 31.9374C2.15096 31.2327 2.38214 30.534 2.63064 29.8404C2.87813 29.1469 3.14292 28.4604 3.42503 27.7791C3.70714 27.0988 4.00555 26.4266 4.32024 25.7605C4.63494 25.0945 4.96594 24.4366 5.31323 23.7878C5.66052 23.1381 6.02308 22.4975 6.40195 21.866C6.78081 21.2336 7.17495 20.6123 7.58334 19.9992C7.99276 19.3871 8.41643 18.7852 8.85538 18.1935C9.29433 17.6018 9.74754 17.0223 10.214 16.453C10.6815 15.8837 11.1622 15.3256 11.6571 14.7797C12.1521 14.2348 12.6593 13.7011 13.1797 13.1807C13.7011 12.6593 14.2338 12.1521 14.7797 11.6571C15.3256 11.1632 15.8827 10.6825 16.452 10.215C17.0213 9.74754 17.6018 9.29433 18.1935 8.85538C18.7852 8.41745 19.3871 7.99276 19.9992 7.58436C20.6113 7.17495 21.2336 6.78081 21.865 6.40195C22.4975 6.0241 23.1381 5.66052 23.7868 5.31425C24.4366 4.96696 25.0945 4.63596 25.7595 4.32024C26.4256 4.00554 27.0988 3.70714 27.7791 3.42605C28.4594 3.14394 29.1469 2.87914 29.8404 2.63064C30.533 2.38214 31.2327 2.15197 31.9374 1.9381C32.6422 1.72423 33.352 1.52767 34.066 1.34842C34.7799 1.17019 35.4989 1.00826 36.221 0.86466C36.9431 0.721059 37.6692 0.59579 38.3974 0.486817C39.1256 0.378862 39.8569 0.289238 40.5891 0.216929C41.3224 0.144619 42.0567 0.0906418 42.792 0.0539776C43.5273 0.0183321 44.2637 0 45 0C45.7363 0 46.4727 0.0183321 47.208 0.0539776C47.9433 0.0906418 48.6776 0.144619 49.4109 0.216929C50.1442 0.289238 50.8744 0.378862 51.6026 0.486817C52.3318 0.59579 53.0569 0.721059 53.779 0.86466C54.5011 1.00826 55.2201 1.17019 55.934 1.34842C56.649 1.52767 57.3578 1.72423 58.0626 1.9381C58.7673 2.15197 59.467 2.38214 60.1606 2.63064C60.8541 2.87914 61.5406 3.14394 62.2209 3.42605C62.9012 3.70714 63.5744 4.00554 64.2405 4.32024C64.9055 4.63596 65.5634 4.96696 66.2132 5.31425C66.863 5.66052 67.5036 6.0241 68.135 6.40195C68.7664 6.78081 69.3887 7.17495 70.0008 7.58436C70.6129 7.99276 71.2148 8.41745 71.8065 8.85538C72.3982 9.29433 72.9787 9.74754 73.548 10.215C74.1173 10.6825 74.6744 11.1632 75.2203 11.6571C75.7662 12.1521 76.2999 12.6593 76.8203 13.1807C77.3407 13.7011 77.8489 14.2348 78.3429 14.7797C78.8378 15.3256 79.3186 15.8837 79.786 16.453C80.2535 17.0223 80.7057 17.6018 81.1446 18.1935C81.5836 18.7852 82.0072 19.3871 82.4167 19.9992C82.8261 20.6123 83.2192 21.2336 83.5981 21.866C83.9769 22.4975 84.3395 23.1381 84.6868 23.7878C85.0341 24.4366 85.3651 25.0945 85.6798 25.7605C85.9945 26.4266 86.2929 27.0988 86.575 27.7791C86.8571 28.4604 87.1219 29.1469 87.3704 29.8404C87.6179 30.534 87.849 31.2327 88.0629 31.9374C88.2768 32.6422 88.4734 33.352 88.6516 34.066C88.8308 34.7809 88.9917 35.4989 89.1353 36.221C89.28 36.9441 89.4052 37.6692 89.5132 38.3974C89.6211 39.1256 89.7118 39.8568 89.7841 40.5901C89.8564 41.3224 89.9104 42.0567 89.946 42.792C89.9827 43.5283 90 44.2637 90 45ZM23.7101 46.7326C23.7101 26.4706 30.8076 16.3391 45.0027 16.3391C59.1968 16.3391 66.2943 26.4706 66.2943 46.7326H23.7101ZM56.7423 52.8269H33.2641C32.9433 52.8269 32.6235 52.8422 32.3047 52.8737C31.9859 52.9053 31.6692 52.9521 31.3555 53.0143C31.0408 53.0774 30.7302 53.1548 30.4236 53.2485C30.1171 53.3412 29.8156 53.4492 29.5203 53.5714C29.2239 53.6936 28.9347 53.8311 28.6526 53.9818C28.3694 54.1325 28.0955 54.2975 27.8286 54.4757C27.5618 54.653 27.3052 54.8444 27.0577 55.0471C26.8102 55.2508 26.5729 55.4657 26.3458 55.6918C26.1197 55.9189 25.9048 56.1562 25.7011 56.4037C25.4984 56.6511 25.308 56.9078 25.1298 57.1746C24.9515 57.4404 24.7876 57.7154 24.6358 57.9975C24.4851 58.2807 24.3486 58.5699 24.2254 58.8663C24.1032 59.1616 23.9952 59.4631 23.9025 59.7696C23.8088 60.0762 23.7314 60.3868 23.6693 60.7005C23.6062 61.0152 23.5593 61.3319 23.5277 61.6507C23.4962 61.9695 23.4809 62.2893 23.4809 62.6091C23.4809 62.9299 23.4962 63.2497 23.5277 63.5684C23.5593 63.8872 23.6062 64.2039 23.6693 64.5176C23.7314 64.8323 23.8088 65.1429 23.9025 65.4495C23.9952 65.7561 24.1032 66.0575 24.2254 66.3529C24.3486 66.6492 24.4851 66.9385 24.6358 67.2206C24.7876 67.5037 24.9515 67.7777 25.1298 68.0445C25.308 68.3113 25.4984 68.568 25.7011 68.8155C25.9048 69.0629 26.1197 69.3002 26.3458 69.5274C26.5729 69.7534 26.8102 69.9683 27.0577 70.172C27.3052 70.3747 27.5618 70.5651 27.8286 70.7434C28.0955 70.9216 28.3694 71.0856 28.6526 71.2373C28.9347 71.3881 29.2239 71.5245 29.5203 71.6478C29.8156 71.77 30.1171 71.8779 30.4236 71.9706C30.7302 72.0643 31.0408 72.1417 31.3555 72.2038C31.6692 72.267 31.9859 72.3138 32.3047 72.3454C32.6235 72.3759 32.9433 72.3922 33.2641 72.3922H56.7423C57.0621 72.3922 57.3819 72.3759 57.7007 72.3454C58.0194 72.3138 58.3362 72.267 58.6509 72.2038C58.9646 72.1417 59.2752 72.0643 59.5817 71.9706C59.8883 71.8779 60.1897 71.77 60.4861 71.6478C60.7815 71.5245 61.0707 71.3881 61.3538 71.2373C61.6359 71.0856 61.9109 70.9216 62.1767 70.7434C62.4436 70.5651 62.7002 70.3747 62.9477 70.172C63.1962 69.9683 63.4325 69.7534 63.6596 69.5274C63.8857 69.3002 64.1006 69.0629 64.3043 68.8155C64.5069 68.568 64.6984 68.3113 64.8756 68.0445C65.0538 67.7777 65.2188 67.5037 65.3696 67.2206C65.5203 66.9385 65.6578 66.6492 65.78 66.3529C65.9022 66.0575 66.0102 65.7561 66.1039 65.4495C66.1965 65.1429 66.2739 64.8323 66.3371 64.5176C66.3992 64.2039 66.4461 63.8872 66.4776 63.5684C66.5092 63.2497 66.5245 62.9299 66.5245 62.6091C66.5245 62.2893 66.5092 61.9695 66.4776 61.6507C66.4461 61.3319 66.3992 61.0152 66.3371 60.7005C66.2739 60.3868 66.1965 60.0762 66.1039 59.7696C66.0102 59.4631 65.9022 59.1616 65.78 58.8663C65.6578 58.5699 65.5203 58.2807 65.3696 57.9975C65.2188 57.7154 65.0538 57.4404 64.8756 57.1746C64.6984 56.9078 64.5069 56.6511 64.3043 56.4037C64.1006 56.1562 63.8857 55.9189 63.6596 55.6918C63.4325 55.4657 63.1962 55.2508 62.9477 55.0471C62.7002 54.8444 62.4436 54.653 62.1767 54.4757C61.9109 54.2975 61.6359 54.1325 61.3538 53.9818C61.0707 53.8311 60.7815 53.6936 60.4861 53.5714C60.1897 53.4492 59.8883 53.3412 59.5817 53.2485C59.2752 53.1548 58.9646 53.0774 58.6509 53.0143C58.3362 52.9521 58.0194 52.9053 57.7007 52.8737C57.3819 52.8422 57.0621 52.8269 56.7423 52.8269Z" fill="black"/>
</svg>
