<svg width="90" height="90" viewBox="0 0 90 90" fill="none" xmlns="http://www.w3.org/2000/svg">
<path d="M90 45C90 69.8528 69.8528 90 45 90C20.1472 90 0 69.8528 0 45C0 20.1472 20.1472 0 45 0C69.8528 0 90 20.1472 90 45ZM13.716 45C13.716 62.2777 27.7223 76.284 45 76.284C62.2777 76.284 76.284 62.2777 76.284 45C76.284 27.7223 62.2777 13.716 45 13.716C27.7223 13.716 13.716 27.7223 13.716 45Z" fill="#171717"/>
<path d="M18 49.0394L18.185 48.7149C18.9445 47.3828 19.9353 46.1968 21.1111 45.2126V45.2126L22.2848 44.4105C22.5385 44.2372 22.8116 44.0941 23.0986 43.9843V43.9843C23.5476 43.8125 24.0243 43.7244 24.505 43.7244H24.5917C24.9368 43.7244 25.2807 43.765 25.6162 43.8452L26.0469 43.9482C26.6067 44.0821 27.1507 44.2748 27.6699 44.5232L27.859 44.6137C28.3964 44.8707 28.9101 45.1747 29.3941 45.5219L30.4444 46.2756L32.6667 48.4016L34 49.8898L34.1749 50.1408C34.9436 51.2438 35.5576 52.4469 36 53.7165V53.7165L36.6667 56.4803V56.4803C36.8099 56.8915 37.3936 56.8852 37.5279 56.471L39.0433 51.7997C39.0884 51.6607 39.1478 51.5267 39.2207 51.3999L41.5556 47.3386L43.5556 44.1496L45.7778 40.748L48 37.5591L51.1111 33.7323L53.7778 30.7559L56.8889 27.7795L59.3333 25.8661L62.8889 23.7402L68 21.4016L72.8889 19.4882L76.8889 18.4252L80 18L77.1111 19.7008L72.8889 22.4646L68.8889 25.8661V25.8661C66.0776 28.4141 63.4504 31.1581 61.0271 34.0776L58.6667 36.9213L54.6667 42.6614L51.5556 47.9764L47.3333 55.4173L42.8889 63.7087L40 68.1732L38.2329 70.2394C38.0781 70.4205 37.9036 70.5836 37.7125 70.7258L37.2223 71.0905C36.4825 71.641 35.4838 71.6914 34.6923 71.2181V71.2181C34.3833 71.0333 34.1225 70.778 33.9312 70.473L32.8889 68.811L31.3333 65.8346L29.7778 61.5827L29.5223 60.7028C28.9529 58.7416 28.2207 56.8314 27.3333 54.9921V54.9921L26.6556 53.9115C26.2194 53.216 25.7213 52.5614 25.1672 51.9556L25.0291 51.8046C24.6399 51.3791 24.218 50.9848 23.7671 50.6253L23.606 50.4969C23.2766 50.2343 22.9276 49.997 22.5622 49.7873L22.3061 49.6403C22.1024 49.5233 21.8898 49.4224 21.6703 49.3384V49.3384C21.1537 49.1407 20.6053 49.0394 20.0522 49.0394H19.3333H18Z" fill="#171717"/>
</svg>
